mtllib material.mtl
usemtl material_diff_wheel_0
v 7.79550507 71.67852054 14.95000015
v 7.79091037 72.88101993 11.54976021
v -0.00000381 72.10118103 14.94999981
v -0.00000371 73.29625702 11.54975986
v -0.00000381 72.10118103 14.94999981
v -0.00000371 73.29625702 11.54975986
v -7.79091775 72.88101925 11.54975952
v -0.00000351 74.57176971 5.83737278
v -7.92649666 74.14930690 5.83737243
v -0.00000328 75.00000000 -0.00000000
v -7.97201530 74.57511104 -0.00000035
v -0.00000300 74.57176971 -5.83737278
v -7.92649615 74.14930690 -5.83737313
v -0.00000270 73.29625702 -11.54975986
v -7.79091674 72.88101925 -11.54976021
v -0.00000250 72.10118103 -14.94999981
v -7.79551134 71.67851986 -14.95000015
v 15.49354666 71.64000770 11.54976054
v 15.49961671 70.41548987 14.95000049
v 23.02064732 69.58728891 11.54976087
v 23.02201670 68.32691293 14.95000082
v 30.28690568 66.74611796 11.54976119
v 30.27449638 65.43727244 14.95000113
v 37.20999582 63.14868327 11.54976149
v 37.17203568 61.78041239 14.95000143
v 43.71148755 58.83575249 11.54976178
v 43.63377827 57.39925194 14.95000172
v 49.71771717 53.85619190 11.54976204
v 49.58393566 52.34513309 14.95000198
v 55.16061903 48.26641324 11.54976228
v 54.95277898 46.67731335 14.95000221
v 59.97852854 42.12976336 11.54976249
v 59.67734667 40.46225236 14.95000242
v 64.11685738 35.51576132 11.54976267
v 63.70225693 33.77280323 14.95000259
v 67.52871529 28.49936208 11.54976282
v 66.98032197 26.68740375 14.95000274
v 70.17545176 21.16004297 11.54976293
v 69.47308963 19.28911322 14.95000285
v 72.02706036 13.58097296 11.54976301
v 71.15135839 11.66467310 14.95000292
v 73.06259079 5.84802613 11.54976306
v 71.99543680 3.90348225 14.95000296
v 73.27027851 -1.95118179 11.54976307
v 71.99543714 -3.90347595 14.95000296
v 72.64778892 -9.72828071 11.54976304
v 71.15135941 -11.66466688 14.95000292
v 71.20217158 -17.39515756 11.54976298
v 69.47309132 -19.28910715 14.95000285
v 68.94980680 -24.86493763 11.54976288
v 66.98032430 -26.68739789 14.95000274
v 65.91620726 -32.05298708 11.54976275
v 63.70225989 -33.77279766 14.95000259
v 62.13576246 -38.87785831 11.54976258
v 59.67735021 -40.46224715 14.95000242
v 57.65128092 -45.26223884 11.54976238
v 54.95278306 -46.67730854 14.95000221
v 52.51359350 -51.13377914 11.54976216
v 49.58394023 -52.34512875 14.95000198
v 46.78091245 -56.42594705 11.54976191
v 43.63378329 -57.39924812 14.95000172
v 40.51817157 -61.07878699 11.54976164
v 37.17204108 -61.78040914 14.95000143
v 33.79635091 -65.03957982 11.54976134
v 30.27450210 -65.43726979 14.95000113
v 26.69161282 -68.26344946 11.54976103
v 23.02202267 -68.32691092 14.95000082
v 19.28443214 -70.71388160 11.54976071
v 15.49962286 -70.41548852 14.95000049
v 11.65876273 -72.36306712 11.54976037
v 7.79551134 -71.67851986 14.95000015
v 3.90098865 -73.19238264 11.54976004
v 0.00000250 -72.10118103 14.94999981
v -3.90098326 -73.19238298 11.54975969
v -7.79550638 -71.67852054 14.94999947
v -11.65875741 -72.36306814 11.54975936
v -15.49961801 -70.41548987 14.94999913
v -19.28442696 -70.71388329 11.54975902
v -23.02201801 -68.32691293 14.94999880
v -26.69160786 -68.26345179 11.54975870
v -30.27449769 -65.43727244 14.94999849
v -33.79634623 -65.03958278 11.54975839
v -37.17203698 -61.78041239 14.94999818
v -40.51816724 -61.07879053 11.54975809
v -43.63377958 -57.39925194 14.94999790
v -46.78090853 -56.42595114 11.54975782
v -49.58393696 -52.34513309 14.94999764
v -52.51359004 -51.13378373 11.54975757
v -54.95278029 -46.67731335 14.94999741
v -57.65127798 -45.26224388 11.54975734
v -59.67734798 -40.46225236 14.94999720
v -62.13576007 -38.87786374 11.54975715
v -63.70225824 -33.77280323 14.94999702
v -65.91620546 -32.05299284 11.54975698
v -66.98032328 -26.68740375 14.94999688
v -68.94980563 -24.86494366 11.54975685
v -69.47309094 -19.28911322 14.94999677
v -71.20217107 -17.39516379 11.54975675
v -71.15135970 -11.66467310 14.94999670
v -72.64778908 -9.72828706 11.54975669
v -71.99543810 -3.90348225 14.94999666
v -73.27027935 -1.95118819 11.54975666
v -71.99543845 3.90347595 14.94999666
v -73.06259231 5.84801974 11.54975667
v -71.15136072 11.66466688 14.94999670
v -72.02706256 13.58096666 11.54975672
v -69.47309262 19.28910715 14.94999677
v -70.17545462 21.16003683 11.54975680
v -66.98032561 26.68739789 14.94999688
v -67.52871879 28.49935618 11.54975691
v -63.70226119 33.77279766 14.94999702
v -64.11686149 35.51575571 11.54975706
v -59.67735151 40.46224715 14.94999720
v -59.97853323 42.12975812 11.54975724
v -54.95278437 46.67730854 14.94999741
v -55.16062426 48.26640842 11.54975745
v -49.58394154 52.34512875 14.94999764
v -49.71772289 53.85618755 11.54975769
v -43.63378460 57.39924812 14.94999790
v -43.71149371 58.83574867 11.54975795
v -37.17204239 61.78040914 14.94999818
v -37.21000235 63.14868001 11.54975824
v -30.27450341 65.43726979 14.94999849
v -30.28691253 66.74611531 11.54975854
v -23.02202398 68.32691092 14.94999880
v -23.02065441 69.58728690 11.54975886
v -15.49962417 70.41548852 14.94999913
v -15.49355394 71.64000634 11.54975919
v -7.79551265 71.67851986 14.94999947
v -15.49355293 71.64000634 -11.54976054
v -15.49962286 70.41548852 -14.95000049
v -23.02065340 69.58728690 -11.54976087
v -23.02202267 68.32691092 -14.95000082
v -30.28691152 66.74611531 -11.54976119
v -30.27450210 65.43726979 -14.95000113
v -37.21000134 63.14868001 -11.54976149
v -37.17204108 61.78040914 -14.95000143
v -43.71149270 58.83574867 -11.54976178
v -43.63378329 57.39924812 -14.95000172
v -49.71772188 53.85618755 -11.54976204
v -49.58394023 52.34512875 -14.95000198
v -55.16062325 48.26640842 -11.54976228
v -54.95278306 46.67730854 -14.95000221
v -59.97853222 42.12975812 -11.54976249
v -59.67735021 40.46224715 -14.95000242
v -64.11686048 35.51575571 -11.54976267
v -63.70225989 33.77279766 -14.95000259
v -67.52871778 28.49935618 -11.54976282
v -66.98032430 26.68739789 -14.95000274
v -70.17545361 21.16003683 -11.54976293
v -69.47309132 19.28910715 -14.95000285
v -72.02706155 13.58096666 -11.54976301
v -71.15135941 11.66466688 -14.95000292
v -73.06259130 5.84801974 -11.54976306
v -71.99543714 3.90347595 -14.95000296
v -73.27027834 -1.95118819 -11.54976307
v -71.99543680 -3.90348225 -14.95000296
v -72.64778807 -9.72828706 -11.54976304
v -71.15135839 -11.66467310 -14.95000292
v -71.20217006 -17.39516379 -11.54976298
v -69.47308963 -19.28911322 -14.95000285
v -68.94980462 -24.86494366 -11.54976288
v -66.98032197 -26.68740375 -14.95000274
v -65.91620445 -32.05299284 -11.54976275
v -63.70225693 -33.77280323 -14.95000259
v -62.13575906 -38.87786374 -11.54976258
v -59.67734667 -40.46225236 -14.95000242
v -57.65127697 -45.26224388 -11.54976238
v -54.95277898 -46.67731335 -14.95000221
v -52.51358903 -51.13378373 -11.54976216
v -49.58393566 -52.34513309 -14.95000198
v -46.78090752 -56.42595114 -11.54976191
v -43.63377827 -57.39925194 -14.95000172
v -40.51816623 -61.07879053 -11.54976164
v -37.17203568 -61.78041239 -14.95000143
v -33.79634522 -65.03958278 -11.54976134
v -30.27449638 -65.43727244 -14.95000113
v -26.69160685 -68.26345179 -11.54976103
v -23.02201670 -68.32691293 -14.95000082
v -19.28442595 -70.71388329 -11.54976071
v -15.49961671 -70.41548987 -14.95000049
v -11.65875640 -72.36306814 -11.54976037
v -7.79550507 -71.67852054 -14.95000015
v -3.90098225 -73.19238298 -11.54976004
v 0.00000381 -72.10118103 -14.94999981
v 3.90098966 -73.19238264 -11.54975969
v 7.79551265 -71.67851986 -14.94999947
v 11.65876374 -72.36306712 -11.54975936
v 15.49962417 -70.41548852 -14.94999913
v 19.28443315 -70.71388160 -11.54975902
v 23.02202398 -68.32691092 -14.94999880
v 26.69161383 -68.26344946 -11.54975870
v 30.27450341 -65.43726979 -14.94999849
v 33.79635192 -65.03957982 -11.54975839
v 37.17204239 -61.78040914 -14.94999818
v 40.51817258 -61.07878699 -11.54975809
v 43.63378460 -57.39924812 -14.94999790
v 46.78091346 -56.42594705 -11.54975782
v 49.58394154 -52.34512875 -14.94999764
v 52.51359451 -51.13377914 -11.54975757
v 54.95278437 -46.67730854 -14.94999741
v 57.65128193 -45.26223884 -11.54975734
v 59.67735151 -40.46224715 -14.94999720
v 62.13576347 -38.87785831 -11.54975715
v 63.70226119 -33.77279766 -14.94999702
v 65.91620827 -32.05298708 -11.54975698
v 66.98032561 -26.68739789 -14.94999688
v 68.94980781 -24.86493763 -11.54975685
v 69.47309262 -19.28910715 -14.94999677
v 71.20217259 -17.39515756 -11.54975675
v 71.15136072 -11.66466688 -14.94999670
v 72.64778993 -9.72828071 -11.54975669
v 71.99543845 -3.90347595 -14.94999666
v 73.27027952 -1.95118179 -11.54975666
v 71.99543810 3.90348225 -14.94999666
v 73.06259180 5.84802613 -11.54975667
v 71.15135970 11.66467310 -14.94999670
v 72.02706137 13.58097296 -11.54975672
v 69.47309094 19.28911322 -14.94999677
v 70.17545277 21.16004297 -11.54975680
v 66.98032328 26.68740375 -14.94999688
v 67.52871630 28.49936208 -11.54975691
v 63.70225824 33.77280323 -14.94999702
v 64.11685839 35.51576132 -11.54975706
v 59.67734798 40.46225236 -14.94999720
v 59.97852955 42.12976336 -11.54975724
v 54.95278029 46.67731335 -14.94999741
v 55.16062004 48.26641324 -11.54975745
v 49.58393696 52.34513309 -14.94999764
v 49.71771818 53.85619190 -11.54975769
v 43.63377958 57.39925194 -14.94999790
v 43.71148856 58.83575249 -11.54975795
v 37.17203698 61.78041239 -14.94999818
v 37.20999683 63.14868327 -11.54975824
v 30.27449769 65.43727244 -14.94999849
v 30.28690669 66.74611796 -11.54975854
v 23.02201801 68.32691293 -14.94999880
v 23.02064833 69.58728891 -11.54975886
v 15.49961801 70.41548987 -14.94999913
v 15.49354767 71.64000770 -11.54975919
v 7.79550638 71.67852054 -14.94999947
v 7.79091138 72.88101993 -11.54975952
v -0.00000250 72.10118103 -14.94999981
v 7.79091138 72.88101993 -11.54975952
v 7.92648967 74.14930760 5.83737313
v 7.92648967 74.14930760 5.83737313
v 15.76317634 72.88671181 5.83737347
v 23.42125748 70.79827220 5.83737380
v 30.81395590 67.90765516 5.83737413
v 37.85753707 64.24761365 5.83737443
v 44.47216891 59.85963253 5.83737472
v 50.58290598 54.79341347 5.83737499
v 56.12052677 49.10636384 5.83737523
v 61.02227952 42.86291389 5.83737545
v 65.23264129 36.13381099 5.83737563
v 68.70387116 28.99531283 5.83737578
v 71.39665103 21.52827384 5.83737590
v 73.28050146 13.81731354 5.83737598
v 74.33403727 5.94979420 5.83737603
v 74.54534132 -1.98513575 5.83737604
v 73.91203326 -9.89757692 5.83737601
v 72.44125418 -17.69786709 5.83737595
v 70.14968194 -25.29763678 5.83737585
v 67.06330226 -32.61077588 5.83737571
v 63.21706156 -39.55442534 5.83737554
v 58.65454277 -46.04989749 5.83737534
v 53.42745029 -52.02361827 5.83737512
v 47.59500347 -57.40788824 5.83737486
v 41.22328432 -62.14168750 5.83737458
v 34.38448216 -66.17141573 5.83737428
v 27.15610210 -69.45139194 5.83737397
v 19.62002280 -71.94444952 5.83737364
v 11.86165343 -73.62235971 5.83737330
v 3.96887507 -74.46607954 5.83737295
v -3.96886907 -74.46607989 5.83737261
v -11.86164750 -73.62236075 5.83737226
v -19.62001702 -71.94445124 5.83737192
v -27.15609654 -69.45139431 5.83737159
v -34.38447689 -66.17141874 5.83737128
v -41.22327940 -62.14169110 5.83737098
v -47.59499897 -57.40789240 5.83737070
v -53.42744625 -52.02362294 5.83737044
v -58.65453926 -46.04990262 5.83737022
v -63.21705862 -39.55443086 5.83737002
v -67.06329992 -32.61078174 5.83736985
v -70.14968024 -25.29764291 5.83736971
v -72.44125314 -17.69787342 5.83736961
v -73.91203290 -9.89758338 5.83736955
v -74.54534166 -1.98514227 5.83736952
v -74.33403830 5.94978771 5.83736953
v -73.28050318 13.81730713 5.83736958
v -71.39665342 21.52826760 5.83736966
v -68.70387420 28.99530683 5.83736978
v -65.23264496 36.13380528 5.83736993
v -61.02228378 42.86290856 5.83737011
v -56.12053158 49.10635894 5.83737033
v -50.58291128 54.79340904 5.83737057
v -44.47217466 59.85962864 5.83737084
v -37.85754319 64.24761034 5.83737113
v -30.81396235 67.90765246 5.83737143
v -23.42126418 70.79827016 5.83737176
v -15.76318322 72.88671043 5.83737209
v 7.97200878 74.57511174 0.00000035
v 7.97200878 74.57511174 0.00000035
v -0.00000351 74.57176971 5.83737278
v 15.85369648 73.30525277 0.00000069
v 23.55574678 71.20481976 0.00000103
v 30.99090659 68.29760878 0.00000135
v 38.07492546 64.61656355 0.00000166
v 44.72754788 60.20337110 0.00000196
v 50.87338779 55.10806115 0.00000222
v 56.44280790 49.38835391 0.00000247
v 61.37270930 43.10905343 0.00000268
v 65.60722955 36.34131146 0.00000287
v 69.09839503 29.16181294 0.00000302
v 71.80666257 21.65190248 0.00000314
v 73.70130860 13.89665354 0.00000322
v 74.76090977 5.98396104 0.00000327
v 74.97341928 -1.99653572 0.00000328
v 74.33647199 -9.95441303 0.00000325
v 72.85723955 -17.79949633 0.00000318
v 70.55252186 -25.44291760 0.00000308
v 67.44841147 -32.79804698 0.00000295
v 63.58007986 -39.78156766 0.00000278
v 58.99136174 -46.31433611 0.00000258
v 53.73426285 -52.32235864 0.00000235
v 47.86831154 -57.73754674 0.00000209
v 41.46000182 -62.49854860 0.00000181
v 34.58194261 -66.55140535 0.00000151
v 27.31204338 -69.85021090 0.00000119
v 19.73269397 -72.35758886 0.00000086
v 11.92976322 -74.04512735 0.00000052
v 3.99166625 -74.89369947 0.00000017
v -3.99165971 -74.89369982 -0.00000017
v -11.92975674 -74.04512839 -0.00000052
v -19.73268765 -72.35759058 -0.00000086
v -27.31203728 -69.85021329 -0.00000119
v -34.58193679 -66.55140837 -0.00000151
v -41.45999635 -62.49855223 -0.00000181
v -47.86830650 -57.73755092 -0.00000209
v -53.73425827 -52.32236334 -0.00000235
v -58.99135769 -46.31434126 -0.00000258
v -63.58007639 -39.78157321 -0.00000278
v -67.44840860 -32.79805288 -0.00000295
v -70.55251964 -25.44292377 -0.00000308
v -72.85723799 -17.79950270 -0.00000318
v -74.33647112 -9.95441952 -0.00000325
v -74.97341910 -1.99654227 -0.00000328
v -74.76091030 5.98395450 -0.00000327
v -73.70130981 13.89664709 -0.00000322
v -71.80666446 21.65189620 -0.00000314
v -69.09839758 29.16180690 -0.00000302
v -65.60723273 36.34130573 -0.00000287
v -61.37271307 43.10904807 -0.00000268
v -56.44281222 49.38834897 -0.00000247
v -50.87339261 55.10805671 -0.00000222
v -44.72755314 60.20336719 -0.00000196
v -38.07493111 64.61656023 -0.00000166
v -30.99091256 68.29760607 -0.00000135
v -23.55575301 71.20481770 -0.00000103
v -15.85370289 73.30525138 -0.00000069
v 7.92649018 74.14930760 -5.83737243
v 7.92649018 74.14930760 -5.83737243
v -0.00000328 75.00000000 -0.00000000
v 15.76317685 72.88671181 -5.83737209
v 23.42125799 70.79827220 -5.83737176
v 30.81395641 67.90765516 -5.83737143
v 37.85753758 64.24761365 -5.83737113
v 44.47216942 59.85963253 -5.83737084
v 50.58290649 54.79341347 -5.83737057
v 56.12052728 49.10636384 -5.83737033
v 61.02228003 42.86291389 -5.83737011
v 65.23264180 36.13381099 -5.83736993
v 68.70387167 28.99531283 -5.83736978
v 71.39665154 21.52827384 -5.83736966
v 73.28050197 13.81731354 -5.83736958
v 74.33403778 5.94979420 -5.83736953
v 74.54534183 -1.98513575 -5.83736952
v 73.91203377 -9.89757692 -5.83736955
v 72.44125469 -17.69786709 -5.83736961
v 70.14968245 -25.29763678 -5.83736971
v 67.06330277 -32.61077588 -5.83736985
v 63.21706207 -39.55442534 -5.83737002
v 58.65454328 -46.04989749 -5.83737022
v 53.42745080 -52.02361827 -5.83737044
v 47.59500399 -57.40788824 -5.83737070
v 41.22328483 -62.14168750 -5.83737098
v 34.38448267 -66.17141573 -5.83737128
v 27.15610261 -69.45139194 -5.83737159
v 19.62002331 -71.94444952 -5.83737192
v 11.86165394 -73.62235971 -5.83737226
v 3.96887558 -74.46607954 -5.83737261
v -3.96886856 -74.46607989 -5.83737295
v -11.86164699 -73.62236075 -5.83737330
v -19.62001651 -71.94445124 -5.83737364
v -27.15609603 -69.45139431 -5.83737397
v -34.38447638 -66.17141874 -5.83737428
v -41.22327889 -62.14169110 -5.83737458
v -47.59499846 -57.40789240 -5.83737486
v -53.42744574 -52.02362294 -5.83737512
v -58.65453875 -46.04990262 -5.83737534
v -63.21705810 -39.55443086 -5.83737554
v -67.06329941 -32.61078174 -5.83737571
v -70.14967973 -25.29764291 -5.83737585
v -72.44125263 -17.69787342 -5.83737595
v -73.91203239 -9.89758338 -5.83737601
v -74.54534115 -1.98514227 -5.83737604
v -74.33403779 5.94978771 -5.83737603
v -73.28050267 13.81730713 -5.83737598
v -71.39665291 21.52826760 -5.83737590
v -68.70387369 28.99530683 -5.83737578
v -65.23264445 36.13380528 -5.83737563
v -61.02228327 42.86290856 -5.83737545
v -56.12053107 49.10635894 -5.83737523
v -50.58291077 54.79340904 -5.83737499
v -44.47217414 59.85962864 -5.83737472
v -37.85754268 64.24761034 -5.83737443
v -30.81396183 67.90765246 -5.83737413
v -23.42126367 70.79827016 -5.83737380
v -15.76318271 72.88671043 -5.83737347
v -0.00000300 74.57176971 -5.83737278
v 7.79550638 71.67852054 -14.94999947
v 1.69372622 54.97391136 -14.94999974
v -0.00000250 72.10118103 -14.94999981
v -5.07476170 54.76538064 -14.95000003
v -7.79551134 71.67851986 -14.95000015
v -11.76632192 53.72666117 -14.95000032
v -15.49962286 70.41548852 -14.95000049
v -23.02202267 68.32691092 -14.95000082
v -18.27952165 51.87348858 -14.95000061
v -30.27450210 65.43726979 -14.95000113
v -24.51561124 49.23397720 -14.95000088
v -37.17204108 61.78040914 -14.95000143
v -30.38007108 45.84812794 -14.95000114
v -43.63378329 57.39924812 -14.95000172
v -35.78400157 41.76726757 -14.95000137
v -49.58394023 52.34512875 -14.95000198
v -40.64548971 37.05325903 -14.95000159
v -54.95278306 46.67730854 -14.95000221
v -44.89083173 31.77755732 -14.95000177
v -59.67735021 40.46224715 -14.95000242
v -48.45566989 26.02014711 -14.95000193
v -63.70225989 33.77279766 -14.95000259
v -66.98032430 26.68739789 -14.95000274
v -51.28596900 19.86828771 -14.95000205
v -69.47309132 19.28910715 -14.95000285
v -53.33882897 13.41524749 -14.95000214
v -71.15135941 11.66466688 -14.95000292
v -54.58312952 6.75885343 -14.95000220
v -71.99543714 3.90347595 -14.95000296
v -54.99999935 -0.00000240 -14.95000221
v -71.99543680 -3.90348225 -14.95000296
v -54.58312893 -6.75885821 -14.95000220
v -71.15135839 -11.66467310 -14.95000292
v -53.33882780 -13.41525216 -14.95000214
v -69.47308963 -19.28911322 -14.95000285
v -51.28596726 -19.86829219 -14.95000205
v -66.98032197 -26.68740375 -14.95000274
v -48.45566761 -26.02015135 -14.95000193
v -63.70225693 -33.77280323 -14.95000259
v -59.67734667 -40.46225236 -14.95000242
v -44.89082895 -31.77756124 -14.95000177
v -54.95277898 -46.67731335 -14.95000221
v -40.64548647 -37.05326258 -14.95000159
v -49.58393566 -52.34513309 -14.95000198
v -35.78399792 -41.76727070 -14.95000137
v -43.63377827 -57.39925194 -14.95000172
v -30.38006708 -45.84813060 -14.95000114
v -37.17203568 -61.78041239 -14.95000143
v -24.51560694 -49.23397934 -14.95000088
v -30.27449638 -65.43727244 -14.95000113
v -18.27951711 -51.87349018 -14.95000061
v -23.02201670 -68.32691293 -14.95000082
v -11.76631723 -53.72666220 -14.95000032
v -15.49961671 -70.41548987 -14.95000049
v -7.79550507 -71.67852054 -14.95000015
v -5.07475691 -54.76538108 -14.95000003
v 0.00000381 -72.10118103 -14.94999981
v 1.69373103 -54.97391121 -14.94999974
v 7.79551265 -71.67851986 -14.94999947
v 8.43654363 -54.34909784 -14.94999944
v 15.49962417 -70.41548852 -14.94999913
v 15.05146323 -52.90040904 -14.94999915
v 23.02202398 -68.32691092 -14.94999880
v 21.43822194 -50.64979841 -14.94999887
v 30.27450341 -65.43726979 -14.94999849
v 27.50000274 -47.63139986 -14.94999861
v 37.17204239 -61.78040914 -14.94999818
v 33.14490385 -43.89094780 -14.94999836
v 43.63378460 -57.39924812 -14.94999790
v 49.58394154 -52.34512875 -14.94999764
v 38.28737115 -39.48515915 -14.94999814
v 54.95278437 -46.67730854 -14.94999741
v 42.84943224 -34.48080639 -14.94999794
v 59.67735151 -40.46224715 -14.94999720
v 46.76194192 -28.95376764 -14.94999777
v 63.70226119 -33.77279766 -14.94999702
v 49.96559309 -22.98781749 -14.94999763
v 66.98032561 -26.68739789 -14.94999688
v 52.41181321 -16.67339859 -14.94999752
v 69.47309262 -19.28910715 -14.94999677
v 54.06351962 -10.10621788 -14.94999745
v 71.15136072 -11.66466688 -14.94999670
v 54.89568028 -3.38584755 -14.94999741
v 71.99543845 -3.90347595 -14.94999666
v 54.89567998 3.38585235 -14.94999741
v 71.99543810 3.90348225 -14.94999666
v 71.15135970 11.66467310 -14.94999670
v 54.06351874 10.10622261 -14.94999745
v 69.47309094 19.28911322 -14.94999677
v 52.41181175 16.67340317 -14.94999752
v 66.98032328 26.68740375 -14.94999688
v 49.96559108 22.98782186 -14.94999763
v 63.70225824 33.77280323 -14.94999702
v 46.76193939 28.95377173 -14.94999777
v 59.67734798 40.46225236 -14.94999720
v 42.84942923 34.48081013 -14.94999794
v 54.95278029 46.67731335 -14.94999741
v 38.28736770 39.48516250 -14.94999814
v 49.58393696 52.34513309 -14.94999764
v 33.14490001 43.89095070 -14.94999836
v 43.63377958 57.39925194 -14.94999790
v 37.17203698 61.78041239 -14.94999818
v 27.49999857 47.63140226 -14.94999861
v 30.27449769 65.43727244 -14.94999849
v 21.43821751 50.64980028 -14.94999887
v 23.02201801 68.32691293 -14.94999880
v 15.05145861 52.90041036 -14.94999915
v 15.49961801 70.41548987 -14.94999913
v 8.43653888 54.34909857 -14.94999944
v -7.79551265 71.67851986 14.94999947
v -5.07476301 54.76538064 14.94999959
v -0.00000381 72.10118103 14.94999981
v 1.69372491 54.97391136 14.94999988
v 7.79550507 71.67852054 14.95000015
v 8.43653757 54.34909857 14.95000018
v 15.49961671 70.41548987 14.95000049
v 15.05145730 52.90041036 14.95000047
v 23.02201670 68.32691293 14.95000082
v 21.43821620 50.64980028 14.95000075
v 30.27449638 65.43727244 14.95000113
v 27.49999726 47.63140226 14.95000101
v 37.17203568 61.78041239 14.95000143
v 33.14489870 43.89095070 14.95000126
v 43.63377827 57.39925194 14.95000172
v 49.58393566 52.34513309 14.95000198
v 38.28736639 39.48516250 14.95000148
v 54.95277898 46.67731335 14.95000221
v 42.84942792 34.48081013 14.95000168
v 59.67734667 40.46225236 14.95000242
v 46.76193808 28.95377173 14.95000185
v 63.70225693 33.77280323 14.95000259
v 49.96558977 22.98782186 14.95000199
v 66.98032197 26.68740375 14.95000274
v 52.41181045 16.67340317 14.95000210
v 69.47308963 19.28911322 14.95000285
v 54.06351743 10.10622261 14.95000217
v 71.15135839 11.66467310 14.95000292
v 54.89567867 3.38585235 14.95000221
v 71.99543680 3.90348225 14.95000296
v 54.89567897 -3.38584755 14.95000221
v 71.99543714 -3.90347595 14.95000296
v 71.15135941 -11.66466688 14.95000292
v 54.06351831 -10.10621788 14.95000217
v 69.47309132 -19.28910715 14.95000285
v 52.41181190 -16.67339859 14.95000210
v 66.98032430 -26.68739789 14.95000274
v 49.96559178 -22.98781749 14.95000199
v 63.70225989 -33.77279766 14.95000259
v 46.76194061 -28.95376764 14.95000185
v 59.67735021 -40.46224715 14.95000242
v 42.84943094 -34.48080639 14.95000168
v 54.95278306 -46.67730854 14.95000221
v 38.28736985 -39.48515915 14.95000148
v 49.58394023 -52.34512875 14.95000198
v 33.14490254 -43.89094780 14.95000126
v 43.63378329 -57.39924812 14.95000172
v 37.17204108 -61.78040914 14.95000143
v 27.50000143 -47.63139986 14.95000101
v 30.27450210 -65.43726979 14.95000113
v 21.43822063 -50.64979841 14.95000075
v 23.02202267 -68.32691092 14.95000082
v 15.05146192 -52.90040904 14.95000047
v 15.49962286 -70.41548852 14.95000049
v 8.43654233 -54.34909784 14.95000018
v 7.79551134 -71.67851986 14.95000015
v 1.69372972 -54.97391121 14.94999988
v 0.00000250 -72.10118103 14.94999981
v -5.07475822 -54.76538108 14.94999959
v -7.79550638 -71.67852054 14.94999947
v -11.76631853 -53.72666220 14.94999929
v -15.49961801 -70.41548987 14.94999913
v -23.02201801 -68.32691293 14.94999880
v -18.27951842 -51.87349018 14.94999901
v -30.27449769 -65.43727244 14.94999849
v -24.51560824 -49.23397934 14.94999874
v -37.17203698 -61.78041239 14.94999818
v -30.38006838 -45.84813060 14.94999848
v -43.63377958 -57.39925194 14.94999790
v -35.78399922 -41.76727070 14.94999825
v -49.58393696 -52.34513309 14.94999764
v -40.64548777 -37.05326258 14.94999803
v -54.95278029 -46.67731335 14.94999741
v -44.89083026 -31.77756124 14.94999785
v -59.67734798 -40.46225236 14.94999720
v -48.45566892 -26.02015135 14.94999769
v -63.70225824 -33.77280323 14.94999702
v -66.98032328 -26.68740375 14.94999688
v -51.28596857 -19.86829219 14.94999757
v -69.47309094 -19.28911322 14.94999677
v -53.33882911 -13.41525216 14.94999748
v -71.15135970 -11.66467310 14.94999670
v -54.58313024 -6.75885821 14.94999742
v -71.99543810 -3.90348225 14.94999666
v -55.00000065 -0.00000240 14.94999741
v -71.99543845 3.90347595 14.94999666
v -54.58313083 6.75885343 14.94999742
v -71.15136072 11.66466688 14.94999670
v -53.33883028 13.41524749 14.94999748
v -69.47309262 19.28910715 14.94999677
v -51.28597030 19.86828771 14.94999757
v -66.98032561 26.68739789 14.94999688
v -48.45567119 26.02014711 14.94999769
v -63.70226119 33.77279766 14.94999702
v -59.67735151 40.46224715 14.94999720
v -44.89083304 31.77755732 14.94999785
v -54.95278437 46.67730854 14.94999741
v -40.64549101 37.05325903 14.94999803
v -49.58394154 52.34512875 14.94999764
v -35.78400288 41.76726757 14.94999825
v -43.63378460 57.39924812 14.94999790
v -30.38007239 45.84812794 14.94999848
v -37.17204239 61.78040914 14.94999818
v -24.51561255 49.23397720 14.94999874
v -30.27450341 65.43726979 14.94999849
v -18.27952296 51.87348858 14.94999901
v -23.02202398 68.32691092 14.94999880
v -11.76632323 53.72666117 14.94999929
v -15.49962417 70.41548852 14.94999913
v -54.58312952 6.75885343 -14.95000220
v -55.00000065 -0.00000240 14.94999741
v -54.99999935 -0.00000240 -14.95000221
v -54.58313024 -6.75885821 14.94999742
v -54.58312893 -6.75885821 -14.95000220
v -53.33882911 -13.41525216 14.94999748
v -53.33882780 -13.41525216 -14.95000214
v -51.28596857 -19.86829219 14.94999757
v -51.28596726 -19.86829219 -14.95000205
v -48.45566892 -26.02015135 14.94999769
v -48.45566761 -26.02015135 -14.95000193
v -44.89083026 -31.77756124 14.94999785
v -44.89082895 -31.77756124 -14.95000177
v -40.64548777 -37.05326258 14.94999803
v -40.64548647 -37.05326258 -14.95000159
v -35.78399922 -41.76727070 14.94999825
v -35.78399792 -41.76727070 -14.95000137
v -30.38006838 -45.84813060 14.94999848
v -30.38006708 -45.84813060 -14.95000114
v -24.51560824 -49.23397934 14.94999874
v -24.51560694 -49.23397934 -14.95000088
v -18.27951842 -51.87349018 14.94999901
v -18.27951711 -51.87349018 -14.95000061
v -11.76631853 -53.72666220 14.94999929
v -11.76631723 -53.72666220 -14.95000032
v -5.07475822 -54.76538108 14.94999959
v -5.07475691 -54.76538108 -14.95000003
v 1.69372972 -54.97391121 14.94999988
v 1.69373103 -54.97391121 -14.94999974
v 8.43654233 -54.34909784 14.95000018
v 8.43654363 -54.34909784 -14.94999944
v 15.05146192 -52.90040904 14.95000047
v 15.05146323 -52.90040904 -14.94999915
v 21.43822063 -50.64979841 14.95000075
v 21.43822194 -50.64979841 -14.94999887
v 27.50000143 -47.63139986 14.95000101
v 27.50000274 -47.63139986 -14.94999861
v 33.14490254 -43.89094780 14.95000126
v 33.14490385 -43.89094780 -14.94999836
v 38.28736985 -39.48515915 14.95000148
v 38.28737115 -39.48515915 -14.94999814
v 42.84943094 -34.48080639 14.95000168
v 42.84943224 -34.48080639 -14.94999794
v 46.76194061 -28.95376764 14.95000185
v 46.76194192 -28.95376764 -14.94999777
v 49.96559178 -22.98781749 14.95000199
v 49.96559309 -22.98781749 -14.94999763
v 52.41181190 -16.67339859 14.95000210
v 52.41181321 -16.67339859 -14.94999752
v 54.06351831 -10.10621788 14.95000217
v 54.06351962 -10.10621788 -14.94999745
v 54.89567897 -3.38584755 14.95000221
v 54.89568028 -3.38584755 -14.94999741
v 54.89568028 -3.38584755 -14.94999741
v 54.89567897 -3.38584755 14.95000221
v 54.89567867 3.38585235 14.95000221
v 54.89567998 3.38585235 -14.94999741
v 54.06351743 10.10622261 14.95000217
v 54.06351874 10.10622261 -14.94999745
v 52.41181045 16.67340317 14.95000210
v 52.41181175 16.67340317 -14.94999752
v 49.96558977 22.98782186 14.95000199
v 49.96559108 22.98782186 -14.94999763
v 46.76193808 28.95377173 14.95000185
v 46.76193939 28.95377173 -14.94999777
v 42.84942792 34.48081013 14.95000168
v 42.84942923 34.48081013 -14.94999794
v 38.28736639 39.48516250 14.95000148
v 38.28736770 39.48516250 -14.94999814
v 33.14489870 43.89095070 14.95000126
v 33.14490001 43.89095070 -14.94999836
v 27.49999726 47.63140226 14.95000101
v 27.49999857 47.63140226 -14.94999861
v 21.43821620 50.64980028 14.95000075
v 21.43821751 50.64980028 -14.94999887
v 15.05145730 52.90041036 14.95000047
v 15.05145861 52.90041036 -14.94999915
v 8.43653757 54.34909857 14.95000018
v 8.43653888 54.34909857 -14.94999944
v 1.69372491 54.97391136 14.94999988
v 1.69372622 54.97391136 -14.94999974
v -5.07476301 54.76538064 14.94999959
v -5.07476170 54.76538064 -14.95000003
v -11.76632323 53.72666117 14.94999929
v -11.76632192 53.72666117 -14.95000032
v -18.27952296 51.87348858 14.94999901
v -18.27952165 51.87348858 -14.95000061
v -24.51561255 49.23397720 14.94999874
v -24.51561124 49.23397720 -14.95000088
v -30.38007239 45.84812794 14.94999848
v -30.38007108 45.84812794 -14.95000114
v -35.78400288 41.76726757 14.94999825
v -35.78400157 41.76726757 -14.95000137
v -40.64549101 37.05325903 14.94999803
v -40.64548971 37.05325903 -14.95000159
v -44.89083304 31.77755732 14.94999785
v -44.89083173 31.77755732 -14.95000177
v -48.45567119 26.02014711 14.94999769
v -48.45566989 26.02014711 -14.95000193
v -51.28597030 19.86828771 14.94999757
v -51.28596900 19.86828771 -14.95000205
v -53.33883028 13.41524749 14.94999748
v -53.33882897 13.41524749 -14.95000214
v -54.58313083 6.75885343 14.94999742
vt 1.53219497 -22.74946022
vt 1.17165899 -22.76324081
vt 1.53219497 -23.56195068
vt 1.17165899 -23.56195068
vt 1.53219497 23.56195068
vt 1.17165899 23.56195068
vt 1.17165899 22.76324081
vt 0.58582902 23.56195068
vt 0.58582902 22.76324081
vt 0.00000000 23.56195068
vt 0.00000000 22.76324081
vt -0.58582902 23.56195068
vt -0.58582902 22.76324081
vt -1.17165899 23.56195068
vt -1.17165899 22.76324081
vt -1.53219497 23.56195068
vt -1.53219497 22.74946022
vt 1.17165899 -21.96453094
vt 1.53219497 -21.93697929
vt 1.17165899 -21.16581917
vt 1.53219497 -21.12450027
vt 1.17165899 -20.36710930
vt 1.53219497 -20.31201935
vt 1.17165899 -19.56839943
vt 1.53219497 -19.49954033
vt 1.17165899 -18.76968956
vt 1.53219497 -18.68705940
vt 1.17165899 -17.97097969
vt 1.53219497 -17.87458038
vt 1.17165899 -17.17226982
vt 1.53219497 -17.06209946
vt 1.17165899 -16.37355995
vt 1.53219497 -16.24962044
vt 1.17165899 -15.57485008
vt 1.53219497 -15.43714046
vt 1.17165899 -14.77612972
vt 1.53219497 -14.62465000
vt 1.17165899 -13.97741985
vt 1.53219497 -13.81217003
vt 1.17165899 -13.17870998
vt 1.53219497 -12.99969006
vt 1.17165899 -12.38000011
vt 1.53219497 -12.18721008
vt 1.17165899 -11.58129025
vt 1.53219497 -11.37473011
vt 1.17165899 -10.78258038
vt 1.53219497 -10.56225014
vt 1.17165899 -9.98387718
vt 1.53219497 -9.74977207
vt 1.17165899 -9.18516636
vt 1.53219497 -8.93729115
vt 1.17165899 -8.38645458
vt 1.53219497 -8.12481117
vt 1.17165899 -7.58774519
vt 1.53219497 -7.31232691
vt 1.17165899 -6.78903484
vt 1.53219497 -6.49984694
vt 1.17165899 -5.99032497
vt 1.53219497 -5.68736601
vt 1.17165899 -5.19161510
vt 1.53219497 -4.87488508
vt 1.17165899 -4.39290524
vt 1.53219497 -4.06240511
vt 1.17165899 -3.59419489
vt 1.53219497 -3.24992299
vt 1.17165899 -2.79548502
vt 1.53219497 -2.43744302
vt 1.17165899 -1.99677503
vt 1.53219497 -1.62496197
vt 1.17165899 -1.19806504
vt 1.53219497 -0.81248099
vt 1.17165899 -0.39935499
vt 1.53219497 0.00000000
vt 1.17165899 0.39935499
vt 1.53219497 0.81248099
vt 1.17165899 1.19806504
vt 1.53219497 1.62496197
vt 1.17165899 1.99677503
vt 1.53219497 2.43744302
vt 1.17165899 2.79548502
vt 1.53219497 3.24992299
vt 1.17165899 3.59419489
vt 1.53219497 4.06240511
vt 1.17165899 4.39290524
vt 1.53219497 4.87488508
vt 1.17165899 5.19161510
vt 1.53219497 5.68736601
vt 1.17165899 5.99032497
vt 1.53219497 6.49984694
vt 1.17165899 6.78903484
vt 1.53219497 7.31232691
vt 1.17165899 7.58774519
vt 1.53219497 8.12481117
vt 1.17165899 8.38645458
vt 1.53219497 8.93729115
vt 1.17165899 9.18516636
vt 1.53219497 9.74977207
vt 1.17165899 9.98387718
vt 1.53219497 10.56225014
vt 1.17165899 10.78258038
vt 1.53219497 11.37473011
vt 1.17165899 11.58129025
vt 1.53219497 12.18721008
vt 1.17165899 12.38000011
vt 1.53219497 12.99969006
vt 1.17165899 13.17870998
vt 1.53219497 13.81217003
vt 1.17165899 13.97741985
vt 1.53219497 14.62465000
vt 1.17165899 14.77612972
vt 1.53219497 15.43714046
vt 1.17165899 15.57485008
vt 1.53219497 16.24962044
vt 1.17165899 16.37355995
vt 1.53219497 17.06209946
vt 1.17165899 17.17226982
vt 1.53219497 17.87458038
vt 1.17165899 17.97097969
vt 1.53219497 18.68705940
vt 1.17165899 18.76968956
vt 1.53219497 19.49954033
vt 1.17165899 19.56839943
vt 1.53219497 20.31201935
vt 1.17165899 20.36710930
vt 1.53219497 21.12450027
vt 1.17165899 21.16581917
vt 1.53219497 21.93697929
vt 1.17165899 21.96453094
vt 1.53219497 22.74946022
vt -1.17165899 21.96453094
vt -1.53219497 21.93697929
vt -1.17165899 21.16581917
vt -1.53219497 21.12450027
vt -1.17165899 20.36710930
vt -1.53219497 20.31201935
vt -1.17165899 19.56839943
vt -1.53219497 19.49954033
vt -1.17165899 18.76968956
vt -1.53219497 18.68705940
vt -1.17165899 17.97097969
vt -1.53219497 17.87458038
vt -1.17165899 17.17226982
vt -1.53219497 17.06209946
vt -1.17165899 16.37355995
vt -1.53219497 16.24962044
vt -1.17165899 15.57485008
vt -1.53219497 15.43714046
vt -1.17165899 14.77612972
vt -1.53219497 14.62465000
vt -1.17165899 13.97741985
vt -1.53219497 13.81217003
vt -1.17165899 13.17870998
vt -1.53219497 12.99969006
vt -1.17165899 12.38000011
vt -1.53219497 12.18721008
vt -1.17165899 11.58129025
vt -1.53219497 11.37473011
vt -1.17165899 10.78258038
vt -1.53219497 10.56225014
vt -1.17165899 9.98387718
vt -1.53219497 9.74977207
vt -1.17165899 9.18516636
vt -1.53219497 8.93729115
vt -1.17165899 8.38645458
vt -1.53219497 8.12481117
vt -1.17165899 7.58774519
vt -1.53219497 7.31232691
vt -1.17165899 6.78903484
vt -1.53219497 6.49984694
vt -1.17165899 5.99032497
vt -1.53219497 5.68736601
vt -1.17165899 5.19161510
vt -1.53219497 4.87488508
vt -1.17165899 4.39290524
vt -1.53219497 4.06240511
vt -1.17165899 3.59419489
vt -1.53219497 3.24992299
vt -1.17165899 2.79548502
vt -1.53219497 2.43744302
vt -1.17165899 1.99677503
vt -1.53219497 1.62496197
vt -1.17165899 1.19806504
vt -1.53219497 0.81248099
vt -1.17165899 0.39935499
vt -1.53219497 0.00000000
vt -1.17165899 -0.39935499
vt -1.53219497 -0.81248099
vt -1.17165899 -1.19806504
vt -1.53219497 -1.62496197
vt -1.17165899 -1.99677503
vt -1.53219497 -2.43744302
vt -1.17165899 -2.79548502
vt -1.53219497 -3.24992299
vt -1.17165899 -3.59419489
vt -1.53219497 -4.06240511
vt -1.17165899 -4.39290524
vt -1.53219497 -4.87488508
vt -1.17165899 -5.19161510
vt -1.53219497 -5.68736601
vt -1.17165899 -5.99032497
vt -1.53219497 -6.49984694
vt -1.17165899 -6.78903484
vt -1.53219497 -7.31232691
vt -1.17165899 -7.58774519
vt -1.53219497 -8.12481117
vt -1.17165899 -8.38645458
vt -1.53219497 -8.93729115
vt -1.17165899 -9.18516636
vt -1.53219497 -9.74977207
vt -1.17165899 -9.98387718
vt -1.53219497 -10.56225014
vt -1.17165899 -10.78258038
vt -1.53219497 -11.37473011
vt -1.17165899 -11.58129025
vt -1.53219497 -12.18721008
vt -1.17165899 -12.38000011
vt -1.53219497 -12.99969006
vt -1.17165899 -13.17870998
vt -1.53219497 -13.81217003
vt -1.17165899 -13.97741985
vt -1.53219497 -14.62465000
vt -1.17165899 -14.77612972
vt -1.53219497 -15.43714046
vt -1.17165899 -15.57485008
vt -1.53219497 -16.24962044
vt -1.17165899 -16.37355995
vt -1.53219497 -17.06209946
vt -1.17165899 -17.17226982
vt -1.53219497 -17.87458038
vt -1.17165899 -17.97097969
vt -1.53219497 -18.68705940
vt -1.17165899 -18.76968956
vt -1.53219497 -19.49954033
vt -1.17165899 -19.56839943
vt -1.53219497 -20.31201935
vt -1.17165899 -20.36710930
vt -1.53219497 -21.12450027
vt -1.17165899 -21.16581917
vt -1.53219497 -21.93697929
vt -1.17165899 -21.96453094
vt -1.53219497 -22.74946022
vt -1.17165899 -22.76324081
vt -1.53219497 -23.56195068
vt -1.17165899 24.36066055
vt 0.58582902 24.36066055
vt 0.58582902 -22.76324081
vt 0.58582902 -21.96453094
vt 0.58582902 -21.16581917
vt 0.58582902 -20.36710930
vt 0.58582902 -19.56839943
vt 0.58582902 -18.76968956
vt 0.58582902 -17.97097969
vt 0.58582902 -17.17226982
vt 0.58582902 -16.37355995
vt 0.58582902 -15.57485008
vt 0.58582902 -14.77612972
vt 0.58582902 -13.97741985
vt 0.58582902 -13.17870998
vt 0.58582902 -12.38000011
vt 0.58582902 -11.58129025
vt 0.58582902 -10.78258038
vt 0.58582902 -9.98387718
vt 0.58582902 -9.18516636
vt 0.58582902 -8.38645458
vt 0.58582902 -7.58774519
vt 0.58582902 -6.78903484
vt 0.58582902 -5.99032497
vt 0.58582902 -5.19161510
vt 0.58582902 -4.39290524
vt 0.58582902 -3.59419489
vt 0.58582902 -2.79548502
vt 0.58582902 -1.99677503
vt 0.58582902 -1.19806504
vt 0.58582902 -0.39935499
vt 0.58582902 0.39935499
vt 0.58582902 1.19806504
vt 0.58582902 1.99677503
vt 0.58582902 2.79548502
vt 0.58582902 3.59419489
vt 0.58582902 4.39290524
vt 0.58582902 5.19161510
vt 0.58582902 5.99032497
vt 0.58582902 6.78903484
vt 0.58582902 7.58774519
vt 0.58582902 8.38645458
vt 0.58582902 9.18516636
vt 0.58582902 9.98387718
vt 0.58582902 10.78258038
vt 0.58582902 11.58129025
vt 0.58582902 12.38000011
vt 0.58582902 13.17870998
vt 0.58582902 13.97741985
vt 0.58582902 14.77612972
vt 0.58582902 15.57485008
vt 0.58582902 16.37355995
vt 0.58582902 17.17226982
vt 0.58582902 17.97097969
vt 0.58582902 18.76968956
vt 0.58582902 19.56839943
vt 0.58582902 20.36710930
vt 0.58582902 21.16581917
vt 0.58582902 21.96453094
vt 0.00000000 24.36066055
vt 0.00000000 -22.76324081
vt 0.58582902 -23.56195068
vt 0.00000000 -21.96453094
vt 0.00000000 -21.16581917
vt 0.00000000 -20.36710930
vt 0.00000000 -19.56839943
vt 0.00000000 -18.76968956
vt 0.00000000 -17.97097969
vt 0.00000000 -17.17226982
vt 0.00000000 -16.37355995
vt 0.00000000 -15.57485008
vt 0.00000000 -14.77612972
vt 0.00000000 -13.97741985
vt 0.00000000 -13.17870998
vt 0.00000000 -12.38000011
vt 0.00000000 -11.58129025
vt 0.00000000 -10.78258038
vt 0.00000000 -9.98387718
vt 0.00000000 -9.18516636
vt 0.00000000 -8.38645458
vt 0.00000000 -7.58774519
vt 0.00000000 -6.78903484
vt 0.00000000 -5.99032497
vt 0.00000000 -5.19161510
vt 0.00000000 -4.39290524
vt 0.00000000 -3.59419489
vt 0.00000000 -2.79548502
vt 0.00000000 -1.99677503
vt 0.00000000 -1.19806504
vt 0.00000000 -0.39935499
vt 0.00000000 0.39935499
vt 0.00000000 1.19806504
vt 0.00000000 1.99677503
vt 0.00000000 2.79548502
vt 0.00000000 3.59419489
vt 0.00000000 4.39290524
vt 0.00000000 5.19161510
vt 0.00000000 5.99032497
vt 0.00000000 6.78903484
vt 0.00000000 7.58774519
vt 0.00000000 8.38645458
vt 0.00000000 9.18516636
vt 0.00000000 9.98387718
vt 0.00000000 10.78258038
vt 0.00000000 11.58129025
vt 0.00000000 12.38000011
vt 0.00000000 13.17870998
vt 0.00000000 13.97741985
vt 0.00000000 14.77612972
vt 0.00000000 15.57485008
vt 0.00000000 16.37355995
vt 0.00000000 17.17226982
vt 0.00000000 17.97097969
vt 0.00000000 18.76968956
vt 0.00000000 19.56839943
vt 0.00000000 20.36710930
vt 0.00000000 21.16581917
vt 0.00000000 21.96453094
vt -0.58582902 24.36066055
vt -0.58582902 -22.76324081
vt 0.00000000 -23.56195068
vt -0.58582902 -21.96453094
vt -0.58582902 -21.16581917
vt -0.58582902 -20.36710930
vt -0.58582902 -19.56839943
vt -0.58582902 -18.76968956
vt -0.58582902 -17.97097969
vt -0.58582902 -17.17226982
vt -0.58582902 -16.37355995
vt -0.58582902 -15.57485008
vt -0.58582902 -14.77612972
vt -0.58582902 -13.97741985
vt -0.58582902 -13.17870998
vt -0.58582902 -12.38000011
vt -0.58582902 -11.58129025
vt -0.58582902 -10.78258038
vt -0.58582902 -9.98387718
vt -0.58582902 -9.18516636
vt -0.58582902 -8.38645458
vt -0.58582902 -7.58774519
vt -0.58582902 -6.78903484
vt -0.58582902 -5.99032497
vt -0.58582902 -5.19161510
vt -0.58582902 -4.39290524
vt -0.58582902 -3.59419489
vt -0.58582902 -2.79548502
vt -0.58582902 -1.99677503
vt -0.58582902 -1.19806504
vt -0.58582902 -0.39935499
vt -0.58582902 0.39935499
vt -0.58582902 1.19806504
vt -0.58582902 1.99677503
vt -0.58582902 2.79548502
vt -0.58582902 3.59419489
vt -0.58582902 4.39290524
vt -0.58582902 5.19161510
vt -0.58582902 5.99032497
vt -0.58582902 6.78903484
vt -0.58582902 7.58774519
vt -0.58582902 8.38645458
vt -0.58582902 9.18516636
vt -0.58582902 9.98387718
vt -0.58582902 10.78258038
vt -0.58582902 11.58129025
vt -0.58582902 12.38000011
vt -0.58582902 13.17870998
vt -0.58582902 13.97741985
vt -0.58582902 14.77612972
vt -0.58582902 15.57485008
vt -0.58582902 16.37355995
vt -0.58582902 17.17226982
vt -0.58582902 17.97097969
vt -0.58582902 18.76968956
vt -0.58582902 19.56839943
vt -0.58582902 20.36710930
vt -0.58582902 21.16581917
vt -0.58582902 21.96453094
vt -0.58582902 -23.56195068
vt -7.16785192 -7.25455093
vt -5.49739122 -6.64437294
vt -7.21011782 -6.47499990
vt -5.47653818 -5.96752405
vt -7.16785192 -5.69544888
vt -5.37266588 -5.29836798
vt -7.04154921 -4.92503786
vt -6.83269119 -4.17279816
vt -5.18734884 -4.64704800
vt -6.54372597 -3.44755006
vt -4.92339802 -4.02343893
vt -6.17804098 -2.75779605
vt -4.58481312 -3.43699288
vt -5.73992491 -2.11162305
vt -4.17672682 -2.89659905
vt -5.23451281 -1.51660597
vt -3.70532608 -2.41045094
vt -4.66773081 -0.97972202
vt -3.17775607 -1.98591697
vt -4.04622507 -0.50726497
vt -2.60201502 -1.62943304
vt -3.37728000 -0.10477390
vt -2.66874003 0.22303189
vt -1.98682904 -1.34640300
vt -1.92891097 0.47230899
vt -1.34152496 -1.14111698
vt -1.16646695 0.64013600
vt -0.67588598 -1.01668704
vt -0.39034799 0.72454399
vt 0.00000000 -0.97500002
vt 0.39034799 0.72454399
vt 0.67588598 -1.01668704
vt 1.16646695 0.64013600
vt 1.34152496 -1.14111698
vt 1.92891097 0.47230899
vt 1.98682904 -1.34640300
vt 2.66874003 0.22303189
vt 2.60201502 -1.62943304
vt 3.37728000 -0.10477390
vt 4.04622507 -0.50726497
vt 3.17775607 -1.98591697
vt 4.66773081 -0.97972202
vt 3.70532608 -2.41045094
vt 5.23451281 -1.51660597
vt 4.17672682 -2.89659905
vt 5.73992491 -2.11162305
vt 4.58481312 -3.43699288
vt 6.17804098 -2.75779605
vt 4.92339802 -4.02343893
vt 6.54372597 -3.44755006
vt 5.18734884 -4.64704800
vt 6.83269119 -4.17279816
vt 5.37266588 -5.29836798
vt 7.04154921 -4.92503786
vt 7.16785192 -5.69544888
vt 5.47653818 -5.96752405
vt 7.21011782 -6.47499990
vt 5.49739122 -6.64437294
vt 7.16785192 -7.25455093
vt 5.43490982 -7.31865406
vt 7.04154921 -8.02496433
vt 5.29004097 -7.98014593
vt 6.83269119 -8.77720165
vt 5.06498098 -8.61882401
vt 6.54372597 -9.50244999
vt 4.76314020 -9.22500229
vt 6.17804098 -10.19219971
vt 4.38909483 -9.78949070
vt 5.73992491 -10.83837986
vt 5.23451281 -11.43338966
vt 3.94851589 -10.30373955
vt 4.66773081 -11.97027969
vt 3.44808102 -10.75994015
vt 4.04622507 -12.44274044
vt 2.89537692 -11.15118980
vt 3.37728000 -12.84523010
vt 2.29878211 -11.47155952
vt 2.66874003 -13.17302990
vt 1.66734004 -11.71617985
vt 1.92891097 -13.42230988
vt 1.01062202 -11.88134956
vt 1.16646695 -13.59014034
vt 0.33858499 -11.96457005
vt 0.39034799 -13.67453957
vt -0.33858499 -11.96457005
vt -0.39034799 -13.67453957
vt -1.16646695 -13.59014034
vt -1.01062202 -11.88134956
vt -1.92891097 -13.42230988
vt -1.66734004 -11.71617985
vt -2.66874003 -13.17302990
vt -2.29878211 -11.47155952
vt -3.37728000 -12.84523010
vt -2.89537692 -11.15118980
vt -4.04622507 -12.44274044
vt -3.44808102 -10.75994015
vt -4.66773081 -11.97027969
vt -3.94851589 -10.30373955
vt -5.23451281 -11.43338966
vt -4.38909483 -9.78949070
vt -5.73992491 -10.83837986
vt -6.17804098 -10.19219971
vt -4.76314020 -9.22500229
vt -6.54372597 -9.50244999
vt -5.06498098 -8.61882401
vt -6.83269119 -8.77720165
vt -5.29004097 -7.98014593
vt -7.04154921 -8.02496433
vt -5.43490982 -7.31865406
vt 7.16785192 -5.69544888
vt 5.47653818 -5.96752405
vt 7.21011782 -6.47499990
vt 5.49739122 -6.64437294
vt 7.16785192 -7.25455093
vt 5.43490982 -7.31865406
vt 7.04154921 -8.02496433
vt 5.29004097 -7.98014593
vt 6.83269119 -8.77720165
vt 5.06498098 -8.61882401
vt 6.54372597 -9.50244999
vt 4.76314020 -9.22500229
vt 6.17804098 -10.19219971
vt 4.38909483 -9.78949070
vt 5.73992491 -10.83837986
vt 5.23451281 -11.43338966
vt 3.94851589 -10.30373955
vt 4.66773081 -11.97027969
vt 3.44808102 -10.75994015
vt 4.04622507 -12.44274044
vt 2.89537692 -11.15118980
vt 3.37728000 -12.84523010
vt 2.29878211 -11.47155952
vt 2.66874003 -13.17302990
vt 1.66734004 -11.71617985
vt 1.92891097 -13.42230988
vt 1.01062202 -11.88134956
vt 1.16646695 -13.59014034
vt 0.33858499 -11.96457005
vt 0.39034799 -13.67453957
vt -0.33858499 -11.96457005
vt -0.39034799 -13.67453957
vt -1.16646695 -13.59014034
vt -1.01062202 -11.88134956
vt -1.92891097 -13.42230988
vt -1.66734004 -11.71617985
vt -2.66874003 -13.17302990
vt -2.29878211 -11.47155952
vt -3.37728000 -12.84523010
vt -2.89537692 -11.15118980
vt -4.04622507 -12.44274044
vt -3.44808102 -10.75994015
vt -4.66773081 -11.97027969
vt -3.94851589 -10.30373955
vt -5.23451281 -11.43338966
vt -4.38909483 -9.78949070
vt -5.73992491 -10.83837986
vt -6.17804098 -10.19219971
vt -4.76314020 -9.22500229
vt -6.54372597 -9.50244999
vt -5.06498098 -8.61882401
vt -6.83269119 -8.77720165
vt -5.29004097 -7.98014593
vt -7.04154921 -8.02496433
vt -5.43490982 -7.31865406
vt -7.16785192 -7.25455093
vt -5.49739122 -6.64437294
vt -7.21011782 -6.47499990
vt -5.47653818 -5.96752405
vt -7.16785192 -5.69544888
vt -5.37266588 -5.29836798
vt -7.04154921 -4.92503786
vt -6.83269119 -4.17279816
vt -5.18734884 -4.64704800
vt -6.54372597 -3.44755006
vt -4.92339802 -4.02343893
vt -6.17804098 -2.75779605
vt -4.58481312 -3.43699288
vt -5.73992491 -2.11162305
vt -4.17672682 -2.89659905
vt -5.23451281 -1.51660597
vt -3.70532608 -2.41045094
vt -4.66773081 -0.97972202
vt -3.17775607 -1.98591697
vt -4.04622507 -0.50726497
vt -2.60201502 -1.62943304
vt -3.37728000 -0.10477390
vt -2.66874003 0.22303189
vt -1.98682904 -1.34640300
vt -1.92891097 0.47230899
vt -1.34152496 -1.14111698
vt -1.16646695 0.64013600
vt -0.67588598 -1.01668704
vt -0.39034799 0.72454399
vt 0.00000000 -0.97500002
vt 0.39034799 0.72454399
vt 0.67588598 -1.01668704
vt 1.16646695 0.64013600
vt 1.34152496 -1.14111698
vt 1.92891097 0.47230899
vt 1.98682904 -1.34640300
vt 2.66874003 0.22303189
vt 2.60201502 -1.62943304
vt 3.37728000 -0.10477390
vt 4.04622507 -0.50726497
vt 3.17775607 -1.98591697
vt 4.66773081 -0.97972202
vt 3.70532608 -2.41045094
vt 5.23451281 -1.51660597
vt 4.17672682 -2.89659905
vt 5.73992491 -2.11162305
vt 4.58481312 -3.43699288
vt 6.17804098 -2.75779605
vt 4.92339802 -4.02343893
vt 6.54372597 -3.44755006
vt 5.18734884 -4.64704800
vt 6.83269119 -4.17279816
vt 5.37266588 -5.29836798
vt 7.04154921 -4.92503786
vt -1.49500000 -0.67759800
vt 1.49500000 0.00000000
vt -1.49500000 0.00000000
vt 1.49500000 0.67759800
vt -1.49500000 0.67759800
vt 1.49500000 1.35519695
vt -1.49500000 1.35519695
vt 1.49500000 2.03279495
vt -1.49500000 2.03279495
vt 1.49500000 2.71039391
vt -1.49500000 2.71039391
vt 1.49500000 3.38799191
vt -1.49500000 3.38799191
vt 1.49500000 4.06558990
vt -1.49500000 4.06558990
vt 1.49500000 4.74318886
vt -1.49500000 4.74318886
vt 1.49500000 5.42078686
vt -1.49500000 5.42078686
vt 1.49500000 6.09838581
vt -1.49500000 6.09838581
vt 1.49500000 6.77598381
vt -1.49500000 6.77598381
vt 1.49500000 7.45358276
vt -1.49500000 7.45358276
vt 1.49500000 8.13118076
vt -1.49500000 8.13118076
vt 1.49500000 8.80877972
vt -1.49500000 8.80877972
vt 1.49500000 9.48637772
vt -1.49500000 9.48637772
vt 1.49500000 10.16397953
vt -1.49500000 10.16397953
vt 1.49500000 10.84156990
vt -1.49500000 10.84156990
vt 1.49500000 11.51916981
vt -1.49500000 11.51916981
vt 1.49500000 12.19676971
vt -1.49500000 12.19676971
vt 1.49500000 12.87436962
vt -1.49500000 12.87436962
vt 1.49500000 13.55196953
vt -1.49500000 13.55196953
vt 1.49500000 14.22957039
vt -1.49500000 14.22957039
vt 1.49500000 14.90717030
vt -1.49500000 14.90717030
vt 1.49500000 15.58475971
vt -1.49500000 15.58475971
vt 1.49500000 16.26235962
vt -1.49500000 16.26235962
vt 1.49500000 16.93996048
vt -1.49500000 16.93996048
vt -1.49500000 -17.61755943
vt 1.49500000 -17.61755943
vt 1.49500000 -16.93996048
vt -1.49500000 -16.93996048
vt 1.49500000 -16.26235962
vt -1.49500000 -16.26235962
vt 1.49500000 -15.58475971
vt -1.49500000 -15.58475971
vt 1.49500000 -14.90717030
vt -1.49500000 -14.90717030
vt 1.49500000 -14.22957039
vt -1.49500000 -14.22957039
vt 1.49500000 -13.55196953
vt -1.49500000 -13.55196953
vt 1.49500000 -12.87436962
vt -1.49500000 -12.87436962
vt 1.49500000 -12.19676971
vt -1.49500000 -12.19676971
vt 1.49500000 -11.51916981
vt -1.49500000 -11.51916981
vt 1.49500000 -10.84156990
vt -1.49500000 -10.84156990
vt 1.49500000 -10.16397953
vt -1.49500000 -10.16397953
vt 1.49500000 -9.48637772
vt -1.49500000 -9.48637772
vt 1.49500000 -8.80877972
vt -1.49500000 -8.80877972
vt 1.49500000 -8.13118076
vt -1.49500000 -8.13118076
vt 1.49500000 -7.45358276
vt -1.49500000 -7.45358276
vt 1.49500000 -6.77598381
vt -1.49500000 -6.77598381
vt 1.49500000 -6.09838581
vt -1.49500000 -6.09838581
vt 1.49500000 -5.42078686
vt -1.49500000 -5.42078686
vt 1.49500000 -4.74318886
vt -1.49500000 -4.74318886
vt 1.49500000 -4.06558990
vt -1.49500000 -4.06558990
vt 1.49500000 -3.38799191
vt -1.49500000 -3.38799191
vt 1.49500000 -2.71039391
vt -1.49500000 -2.71039391
vt 1.49500000 -2.03279495
vt -1.49500000 -2.03279495
vt 1.49500000 -1.35519695
vt -1.49500000 -1.35519695
vt 1.49500000 -0.67759800
f 1/1 2/2 3/3
f 3/3 2/2 4/4
f 5/5 6/6 7/7
f 7/7 6/6 8/8
f 7/7 8/8 9/9
f 9/9 8/8 10/10
f 9/9 10/10 11/11
f 11/11 10/10 12/12
f 11/11 12/12 13/13
f 13/13 12/12 14/14
f 13/13 14/14 15/15
f 15/15 14/14 16/16
f 15/15 16/16 17/17
f 2/2 1/1 18/18
f 18/18 1/1 19/19
f 18/18 19/19 20/20
f 20/20 19/19 21/21
f 20/20 21/21 22/22
f 22/22 21/21 23/23
f 22/22 23/23 24/24
f 24/24 23/23 25/25
f 24/24 25/25 26/26
f 26/26 25/25 27/27
f 26/26 27/27 28/28
f 28/28 27/27 29/29
f 28/28 29/29 30/30
f 30/30 29/29 31/31
f 30/30 31/31 32/32
f 32/32 31/31 33/33
f 32/32 33/33 34/34
f 34/34 33/33 35/35
f 34/34 35/35 36/36
f 36/36 35/35 37/37
f 36/36 37/37 38/38
f 38/38 37/37 39/39
f 38/38 39/39 40/40
f 40/40 39/39 41/41
f 40/40 41/41 42/42
f 42/42 41/41 43/43
f 42/42 43/43 44/44
f 44/44 43/43 45/45
f 44/44 45/45 46/46
f 46/46 45/45 47/47
f 46/46 47/47 48/48
f 48/48 47/47 49/49
f 48/48 49/49 50/50
f 50/50 49/49 51/51
f 50/50 51/51 52/52
f 52/52 51/51 53/53
f 52/52 53/53 54/54
f 54/54 53/53 55/55
f 54/54 55/55 56/56
f 56/56 55/55 57/57
f 56/56 57/57 58/58
f 58/58 57/57 59/59
f 58/58 59/59 60/60
f 60/60 59/59 61/61
f 60/60 61/61 62/62
f 62/62 61/61 63/63
f 62/62 63/63 64/64
f 64/64 63/63 65/65
f 64/64 65/65 66/66
f 66/66 65/65 67/67
f 66/66 67/67 68/68
f 68/68 67/67 69/69
f 68/68 69/69 70/70
f 70/70 69/69 71/71
f 70/70 71/71 72/72
f 72/72 71/71 73/73
f 72/72 73/73 74/74
f 74/74 73/73 75/75
f 74/74 75/75 76/76
f 76/76 75/75 77/77
f 76/76 77/77 78/78
f 78/78 77/77 79/79
f 78/78 79/79 80/80
f 80/80 79/79 81/81
f 80/80 81/81 82/82
f 82/82 81/81 83/83
f 82/82 83/83 84/84
f 84/84 83/83 85/85
f 84/84 85/85 86/86
f 86/86 85/85 87/87
f 86/86 87/87 88/88
f 88/88 87/87 89/89
f 88/88 89/89 90/90
f 90/90 89/89 91/91
f 90/90 91/91 92/92
f 92/92 91/91 93/93
f 92/92 93/93 94/94
f 94/94 93/93 95/95
f 94/94 95/95 96/96
f 96/96 95/95 97/97
f 96/96 97/97 98/98
f 98/98 97/97 99/99
f 98/98 99/99 100/100
f 100/100 99/99 101/101
f 100/100 101/101 102/102
f 102/102 101/101 103/103
f 102/102 103/103 104/104
f 104/104 103/103 105/105
f 104/104 105/105 106/106
f 106/106 105/105 107/107
f 106/106 107/107 108/108
f 108/108 107/107 109/109
f 108/108 109/109 110/110
f 110/110 109/109 111/111
f 110/110 111/111 112/112
f 112/112 111/111 113/113
f 112/112 113/113 114/114
f 114/114 113/113 115/115
f 114/114 115/115 116/116
f 116/116 115/115 117/117
f 116/116 117/117 118/118
f 118/118 117/117 119/119
f 118/118 119/119 120/120
f 120/120 119/119 121/121
f 120/120 121/121 122/122
f 122/122 121/121 123/123
f 122/122 123/123 124/124
f 124/124 123/123 125/125
f 124/124 125/125 126/126
f 126/126 125/125 127/127
f 126/126 127/127 128/128
f 128/128 127/127 129/129
f 128/128 129/129 7/7
f 7/7 129/129 5/5
f 15/15 17/17 130/130
f 130/130 17/17 131/131
f 130/130 131/131 132/132
f 132/132 131/131 133/133
f 132/132 133/133 134/134
f 134/134 133/133 135/135
f 134/134 135/135 136/136
f 136/136 135/135 137/137
f 136/136 137/137 138/138
f 138/138 137/137 139/139
f 138/138 139/139 140/140
f 140/140 139/139 141/141
f 140/140 141/141 142/142
f 142/142 141/141 143/143
f 142/142 143/143 144/144
f 144/144 143/143 145/145
f 144/144 145/145 146/146
f 146/146 145/145 147/147
f 146/146 147/147 148/148
f 148/148 147/147 149/149
f 148/148 149/149 150/150
f 150/150 149/149 151/151
f 150/150 151/151 152/152
f 152/152 151/151 153/153
f 152/152 153/153 154/154
f 154/154 153/153 155/155
f 154/154 155/155 156/156
f 156/156 155/155 157/157
f 156/156 157/157 158/158
f 158/158 157/157 159/159
f 158/158 159/159 160/160
f 160/160 159/159 161/161
f 160/160 161/161 162/162
f 162/162 161/161 163/163
f 162/162 163/163 164/164
f 164/164 163/163 165/165
f 164/164 165/165 166/166
f 166/166 165/165 167/167
f 166/166 167/167 168/168
f 168/168 167/167 169/169
f 168/168 169/169 170/170
f 170/170 169/169 171/171
f 170/170 171/171 172/172
f 172/172 171/171 173/173
f 172/172 173/173 174/174
f 174/174 173/173 175/175
f 174/174 175/175 176/176
f 176/176 175/175 177/177
f 176/176 177/177 178/178
f 178/178 177/177 179/179
f 178/178 179/179 180/180
f 180/180 179/179 181/181
f 180/180 181/181 182/182
f 182/182 181/181 183/183
f 182/182 183/183 184/184
f 184/184 183/183 185/185
f 184/184 185/185 186/186
f 186/186 185/185 187/187
f 186/186 187/187 188/188
f 188/188 187/187 189/189
f 188/188 189/189 190/190
f 190/190 189/189 191/191
f 190/190 191/191 192/192
f 192/192 191/191 193/193
f 192/192 193/193 194/194
f 194/194 193/193 195/195
f 194/194 195/195 196/196
f 196/196 195/195 197/197
f 196/196 197/197 198/198
f 198/198 197/197 199/199
f 198/198 199/199 200/200
f 200/200 199/199 201/201
f 200/200 201/201 202/202
f 202/202 201/201 203/203
f 202/202 203/203 204/204
f 204/204 203/203 205/205
f 204/204 205/205 206/206
f 206/206 205/205 207/207
f 206/206 207/207 208/208
f 208/208 207/207 209/209
f 208/208 209/209 210/210
f 210/210 209/209 211/211
f 210/210 211/211 212/212
f 212/212 211/211 213/213
f 212/212 213/213 214/214
f 214/214 213/213 215/215
f 214/214 215/215 216/216
f 216/216 215/215 217/217
f 216/216 217/217 218/218
f 218/218 217/217 219/219
f 218/218 219/219 220/220
f 220/220 219/219 221/221
f 220/220 221/221 222/222
f 222/222 221/221 223/223
f 222/222 223/223 224/224
f 224/224 223/223 225/225
f 224/224 225/225 226/226
f 226/226 225/225 227/227
f 226/226 227/227 228/228
f 228/228 227/227 229/229
f 228/228 229/229 230/230
f 230/230 229/229 231/231
f 230/230 231/231 232/232
f 232/232 231/231 233/233
f 232/232 233/233 234/234
f 234/234 233/233 235/235
f 234/234 235/235 236/236
f 236/236 235/235 237/237
f 236/236 237/237 238/238
f 238/238 237/237 239/239
f 238/238 239/239 240/240
f 240/240 239/239 241/241
f 240/240 241/241 242/242
f 242/242 241/241 243/243
f 244/244 16/16 14/14
f 8/8 6/6 245/245
f 246/246 4/4 2/2
f 246/246 2/2 247/247
f 247/247 2/2 18/18
f 247/247 18/18 248/248
f 248/248 18/18 20/20
f 248/248 20/20 249/249
f 249/249 20/20 22/22
f 249/249 22/22 250/250
f 250/250 22/22 24/24
f 250/250 24/24 251/251
f 251/251 24/24 26/26
f 251/251 26/26 252/252
f 252/252 26/26 28/28
f 252/252 28/28 253/253
f 253/253 28/28 30/30
f 253/253 30/30 254/254
f 254/254 30/30 32/32
f 254/254 32/32 255/255
f 255/255 32/32 34/34
f 255/255 34/34 256/256
f 256/256 34/34 36/36
f 256/256 36/36 257/257
f 257/257 36/36 38/38
f 257/257 38/38 258/258
f 258/258 38/38 40/40
f 258/258 40/40 259/259
f 259/259 40/40 42/42
f 259/259 42/42 260/260
f 260/260 42/42 44/44
f 260/260 44/44 261/261
f 261/261 44/44 46/46
f 261/261 46/46 262/262
f 262/262 46/46 48/48
f 262/262 48/48 263/263
f 263/263 48/48 50/50
f 263/263 50/50 264/264
f 264/264 50/50 52/52
f 264/264 52/52 265/265
f 265/265 52/52 54/54
f 265/265 54/54 266/266
f 266/266 54/54 56/56
f 266/266 56/56 267/267
f 267/267 56/56 58/58
f 267/267 58/58 268/268
f 268/268 58/58 60/60
f 268/268 60/60 269/269
f 269/269 60/60 62/62
f 269/269 62/62 270/270
f 270/270 62/62 64/64
f 270/270 64/64 271/271
f 271/271 64/64 66/66
f 271/271 66/66 272/272
f 272/272 66/66 68/68
f 272/272 68/68 273/273
f 273/273 68/68 70/70
f 273/273 70/70 274/274
f 274/274 70/70 72/72
f 274/274 72/72 275/275
f 275/275 72/72 74/74
f 275/275 74/74 276/276
f 276/276 74/74 76/76
f 276/276 76/76 277/277
f 277/277 76/76 78/78
f 277/277 78/78 278/278
f 278/278 78/78 80/80
f 278/278 80/80 279/279
f 279/279 80/80 82/82
f 279/279 82/82 280/280
f 280/280 82/82 84/84
f 280/280 84/84 281/281
f 281/281 84/84 86/86
f 281/281 86/86 282/282
f 282/282 86/86 88/88
f 282/282 88/88 283/283
f 283/283 88/88 90/90
f 283/283 90/90 284/284
f 284/284 90/90 92/92
f 284/284 92/92 285/285
f 285/285 92/92 94/94
f 285/285 94/94 286/286
f 286/286 94/94 96/96
f 286/286 96/96 287/287
f 287/287 96/96 98/98
f 287/287 98/98 288/288
f 288/288 98/98 100/100
f 288/288 100/100 289/289
f 289/289 100/100 102/102
f 289/289 102/102 290/290
f 290/290 102/102 104/104
f 290/290 104/104 291/291
f 291/291 104/104 106/106
f 291/291 106/106 292/292
f 292/292 106/106 108/108
f 292/292 108/108 293/293
f 293/293 108/108 110/110
f 293/293 110/110 294/294
f 294/294 110/110 112/112
f 294/294 112/112 295/295
f 295/295 112/112 114/114
f 295/295 114/114 296/296
f 296/296 114/114 116/116
f 296/296 116/116 297/297
f 297/297 116/116 118/118
f 297/297 118/118 298/298
f 298/298 118/118 120/120
f 298/298 120/120 299/299
f 299/299 120/120 122/122
f 299/299 122/122 300/300
f 300/300 122/122 124/124
f 300/300 124/124 301/301
f 301/301 124/124 126/126
f 301/301 126/126 302/302
f 302/302 126/126 128/128
f 302/302 128/128 9/9
f 9/9 128/128 7/7
f 10/10 8/8 303/303
f 304/304 305/305 246/246
f 304/304 246/246 306/306
f 306/306 246/246 247/247
f 306/306 247/247 307/307
f 307/307 247/247 248/248
f 307/307 248/248 308/308
f 308/308 248/248 249/249
f 308/308 249/249 309/309
f 309/309 249/249 250/250
f 309/309 250/250 310/310
f 310/310 250/250 251/251
f 310/310 251/251 311/311
f 311/311 251/251 252/252
f 311/311 252/252 312/312
f 312/312 252/252 253/253
f 312/312 253/253 313/313
f 313/313 253/253 254/254
f 313/313 254/254 314/314
f 314/314 254/254 255/255
f 314/314 255/255 315/315
f 315/315 255/255 256/256
f 315/315 256/256 316/316
f 316/316 256/256 257/257
f 316/316 257/257 317/317
f 317/317 257/257 258/258
f 317/317 258/258 318/318
f 318/318 258/258 259/259
f 318/318 259/259 319/319
f 319/319 259/259 260/260
f 319/319 260/260 320/320
f 320/320 260/260 261/261
f 320/320 261/261 321/321
f 321/321 261/261 262/262
f 321/321 262/262 322/322
f 322/322 262/262 263/263
f 322/322 263/263 323/323
f 323/323 263/263 264/264
f 323/323 264/264 324/324
f 324/324 264/264 265/265
f 324/324 265/265 325/325
f 325/325 265/265 266/266
f 325/325 266/266 326/326
f 326/326 266/266 267/267
f 326/326 267/267 327/327
f 327/327 267/267 268/268
f 327/327 268/268 328/328
f 328/328 268/268 269/269
f 328/328 269/269 329/329
f 329/329 269/269 270/270
f 329/329 270/270 330/330
f 330/330 270/270 271/271
f 330/330 271/271 331/331
f 331/331 271/271 272/272
f 331/331 272/272 332/332
f 332/332 272/272 273/273
f 332/332 273/273 333/333
f 333/333 273/273 274/274
f 333/333 274/274 334/334
f 334/334 274/274 275/275
f 334/334 275/275 335/335
f 335/335 275/275 276/276
f 335/335 276/276 336/336
f 336/336 276/276 277/277
f 336/336 277/277 337/337
f 337/337 277/277 278/278
f 337/337 278/278 338/338
f 338/338 278/278 279/279
f 338/338 279/279 339/339
f 339/339 279/279 280/280
f 339/339 280/280 340/340
f 340/340 280/280 281/281
f 340/340 281/281 341/341
f 341/341 281/281 282/282
f 341/341 282/282 342/342
f 342/342 282/282 283/283
f 342/342 283/283 343/343
f 343/343 283/283 284/284
f 343/343 284/284 344/344
f 344/344 284/284 285/285
f 344/344 285/285 345/345
f 345/345 285/285 286/286
f 345/345 286/286 346/346
f 346/346 286/286 287/287
f 346/346 287/287 347/347
f 347/347 287/287 288/288
f 347/347 288/288 348/348
f 348/348 288/288 289/289
f 348/348 289/289 349/349
f 349/349 289/289 290/290
f 349/349 290/290 350/350
f 350/350 290/290 291/291
f 350/350 291/291 351/351
f 351/351 291/291 292/292
f 351/351 292/292 352/352
f 352/352 292/292 293/293
f 352/352 293/293 353/353
f 353/353 293/293 294/294
f 353/353 294/294 354/354
f 354/354 294/294 295/295
f 354/354 295/295 355/355
f 355/355 295/295 296/296
f 355/355 296/296 356/356
f 356/356 296/296 297/297
f 356/356 297/297 357/357
f 357/357 297/297 298/298
f 357/357 298/298 358/358
f 358/358 298/298 299/299
f 358/358 299/299 359/359
f 359/359 299/299 300/300
f 359/359 300/300 360/360
f 360/360 300/300 301/301
f 360/360 301/301 361/361
f 361/361 301/301 302/302
f 361/361 302/302 11/11
f 11/11 302/302 9/9
f 244/244 14/14 12/12
f 12/12 10/10 362/362
f 363/363 364/364 304/304
f 363/363 304/304 365/365
f 365/365 304/304 306/306
f 365/365 306/306 366/366
f 366/366 306/306 307/307
f 366/366 307/307 367/367
f 367/367 307/307 308/308
f 367/367 308/308 368/368
f 368/368 308/308 309/309
f 368/368 309/309 369/369
f 369/369 309/309 310/310
f 369/369 310/310 370/370
f 370/370 310/310 311/311
f 370/370 311/311 371/371
f 371/371 311/311 312/312
f 371/371 312/312 372/372
f 372/372 312/312 313/313
f 372/372 313/313 373/373
f 373/373 313/313 314/314
f 373/373 314/314 374/374
f 374/374 314/314 315/315
f 374/374 315/315 375/375
f 375/375 315/315 316/316
f 375/375 316/316 376/376
f 376/376 316/316 317/317
f 376/376 317/317 377/377
f 377/377 317/317 318/318
f 377/377 318/318 378/378
f 378/378 318/318 319/319
f 378/378 319/319 379/379
f 379/379 319/319 320/320
f 379/379 320/320 380/380
f 380/380 320/320 321/321
f 380/380 321/321 381/381
f 381/381 321/321 322/322
f 381/381 322/322 382/382
f 382/382 322/322 323/323
f 382/382 323/323 383/383
f 383/383 323/323 324/324
f 383/383 324/324 384/384
f 384/384 324/324 325/325
f 384/384 325/325 385/385
f 385/385 325/325 326/326
f 385/385 326/326 386/386
f 386/386 326/326 327/327
f 386/386 327/327 387/387
f 387/387 327/327 328/328
f 387/387 328/328 388/388
f 388/388 328/328 329/329
f 388/388 329/329 389/389
f 389/389 329/329 330/330
f 389/389 330/330 390/390
f 390/390 330/330 331/331
f 390/390 331/331 391/391
f 391/391 331/331 332/332
f 391/391 332/332 392/392
f 392/392 332/332 333/333
f 392/392 333/333 393/393
f 393/393 333/333 334/334
f 393/393 334/334 394/394
f 394/394 334/334 335/335
f 394/394 335/335 395/395
f 395/395 335/335 336/336
f 395/395 336/336 396/396
f 396/396 336/336 337/337
f 396/396 337/337 397/397
f 397/397 337/337 338/338
f 397/397 338/338 398/398
f 398/398 338/338 339/339
f 398/398 339/339 399/399
f 399/399 339/339 340/340
f 399/399 340/340 400/400
f 400/400 340/340 341/341
f 400/400 341/341 401/401
f 401/401 341/341 342/342
f 401/401 342/342 402/402
f 402/402 342/342 343/343
f 402/402 343/343 403/403
f 403/403 343/343 344/344
f 403/403 344/344 404/404
f 404/404 344/344 345/345
f 404/404 345/345 405/405
f 405/405 345/345 346/346
f 405/405 346/346 406/406
f 406/406 346/346 347/347
f 406/406 347/347 407/407
f 407/407 347/347 348/348
f 407/407 348/348 408/408
f 408/408 348/348 349/349
f 408/408 349/349 409/409
f 409/409 349/349 350/350
f 409/409 350/350 410/410
f 410/410 350/350 351/351
f 410/410 351/351 411/411
f 411/411 351/351 352/352
f 411/411 352/352 412/412
f 412/412 352/352 353/353
f 412/412 353/353 413/413
f 413/413 353/353 354/354
f 413/413 354/354 414/414
f 414/414 354/354 355/355
f 414/414 355/355 415/415
f 415/415 355/355 356/356
f 415/415 356/356 416/416
f 416/416 356/356 357/357
f 416/416 357/357 417/417
f 417/417 357/357 358/358
f 417/417 358/358 418/418
f 418/418 358/358 359/359
f 418/418 359/359 419/419
f 419/419 359/359 360/360
f 419/419 360/360 420/420
f 420/420 360/360 361/361
f 420/420 361/361 13/13
f 13/13 361/361 11/11
f 240/240 242/242 363/363
f 363/363 242/242 421/421
f 240/240 363/363 365/365
f 238/238 240/240 365/365
f 238/238 365/365 366/366
f 236/236 238/238 366/366
f 236/236 366/366 367/367
f 234/234 236/236 367/367
f 234/234 367/367 368/368
f 232/232 234/234 368/368
f 232/232 368/368 369/369
f 230/230 232/232 369/369
f 230/230 369/369 370/370
f 228/228 230/230 370/370
f 228/228 370/370 371/371
f 226/226 228/228 371/371
f 226/226 371/371 372/372
f 224/224 226/226 372/372
f 224/224 372/372 373/373
f 222/222 224/224 373/373
f 222/222 373/373 374/374
f 220/220 222/222 374/374
f 220/220 374/374 375/375
f 218/218 220/220 375/375
f 218/218 375/375 376/376
f 216/216 218/218 376/376
f 216/216 376/376 377/377
f 214/214 216/216 377/377
f 214/214 377/377 378/378
f 212/212 214/214 378/378
f 212/212 378/378 379/379
f 210/210 212/212 379/379
f 210/210 379/379 380/380
f 208/208 210/210 380/380
f 208/208 380/380 381/381
f 206/206 208/208 381/381
f 206/206 381/381 382/382
f 204/204 206/206 382/382
f 204/204 382/382 383/383
f 202/202 204/204 383/383
f 202/202 383/383 384/384
f 200/200 202/202 384/384
f 200/200 384/384 385/385
f 198/198 200/200 385/385
f 198/198 385/385 386/386
f 196/196 198/198 386/386
f 196/196 386/386 387/387
f 194/194 196/196 387/387
f 194/194 387/387 388/388
f 192/192 194/194 388/388
f 192/192 388/388 389/389
f 190/190 192/192 389/389
f 190/190 389/389 390/390
f 188/188 190/190 390/390
f 188/188 390/390 391/391
f 186/186 188/188 391/391
f 186/186 391/391 392/392
f 184/184 186/186 392/392
f 184/184 392/392 393/393
f 182/182 184/184 393/393
f 182/182 393/393 394/394
f 180/180 182/182 394/394
f 180/180 394/394 395/395
f 178/178 180/180 395/395
f 178/178 395/395 396/396
f 176/176 178/178 396/396
f 176/176 396/396 397/397
f 174/174 176/176 397/397
f 174/174 397/397 398/398
f 172/172 174/174 398/398
f 172/172 398/398 399/399
f 170/170 172/172 399/399
f 170/170 399/399 400/400
f 168/168 170/170 400/400
f 168/168 400/400 401/401
f 166/166 168/168 401/401
f 166/166 401/401 402/402
f 164/164 166/166 402/402
f 164/164 402/402 403/403
f 162/162 164/164 403/403
f 162/162 403/403 404/404
f 160/160 162/162 404/404
f 160/160 404/404 405/405
f 158/158 160/160 405/405
f 158/158 405/405 406/406
f 156/156 158/158 406/406
f 156/156 406/406 407/407
f 154/154 156/156 407/407
f 154/154 407/407 408/408
f 152/152 154/154 408/408
f 152/152 408/408 409/409
f 150/150 152/152 409/409
f 150/150 409/409 410/410
f 148/148 150/150 410/410
f 148/148 410/410 411/411
f 146/146 148/148 411/411
f 146/146 411/411 412/412
f 144/144 146/146 412/412
f 144/144 412/412 413/413
f 142/142 144/144 413/413
f 142/142 413/413 414/414
f 140/140 142/142 414/414
f 140/140 414/414 415/415
f 138/138 140/140 415/415
f 138/138 415/415 416/416
f 136/136 138/138 416/416
f 136/136 416/416 417/417
f 134/134 136/136 417/417
f 134/134 417/417 418/418
f 132/132 134/134 418/418
f 132/132 418/418 419/419
f 130/130 132/132 419/419
f 130/130 419/419 420/420
f 15/15 130/130 420/420
f 15/15 420/420 13/13
f 422/422 423/423 424/424
f 424/424 423/423 425/425
f 424/424 425/425 426/426
f 426/426 425/425 427/427
f 426/426 427/427 428/428
f 428/428 427/427 429/429
f 429/429 427/427 430/430
f 429/429 430/430 431/431
f 431/431 430/430 432/432
f 431/431 432/432 433/433
f 433/433 432/432 434/434
f 433/433 434/434 435/435
f 435/435 434/434 436/436
f 435/435 436/436 437/437
f 437/437 436/436 438/438
f 437/437 438/438 439/439
f 439/439 438/438 440/440
f 439/439 440/440 441/441
f 441/441 440/440 442/442
f 441/441 442/442 443/443
f 443/443 442/442 444/444
f 444/444 442/442 445/445
f 444/444 445/445 446/446
f 446/446 445/445 447/447
f 446/446 447/447 448/448
f 448/448 447/447 449/449
f 448/448 449/449 450/450
f 450/450 449/449 451/451
f 450/450 451/451 452/452
f 452/452 451/451 453/453
f 452/452 453/453 454/454
f 454/454 453/453 455/455
f 454/454 455/455 456/456
f 456/456 455/455 457/457
f 456/456 457/457 458/458
f 458/458 457/457 459/459
f 458/458 459/459 460/460
f 460/460 459/459 461/461
f 461/461 459/459 462/462
f 461/461 462/462 463/463
f 463/463 462/462 464/464
f 463/463 464/464 465/465
f 465/465 464/464 466/466
f 465/465 466/466 467/467
f 467/467 466/466 468/468
f 467/467 468/468 469/469
f 469/469 468/468 470/470
f 469/469 470/470 471/471
f 471/471 470/470 472/472
f 471/471 472/472 473/473
f 473/473 472/472 474/474
f 473/473 474/474 475/475
f 475/475 474/474 476/476
f 476/476 474/474 477/477
f 476/476 477/477 478/478
f 478/478 477/477 479/479
f 478/478 479/479 480/480
f 480/480 479/479 481/481
f 480/480 481/481 482/482
f 482/482 481/481 483/483
f 482/482 483/483 484/484
f 484/484 483/483 485/485
f 484/484 485/485 486/486
f 486/486 485/485 487/487
f 486/486 487/487 488/488
f 488/488 487/487 489/489
f 488/488 489/489 490/490
f 490/490 489/489 491/491
f 491/491 489/489 492/492
f 491/491 492/492 493/493
f 493/493 492/492 494/494
f 493/493 494/494 495/495
f 495/495 494/494 496/496
f 495/495 496/496 497/497
f 497/497 496/496 498/498
f 497/497 498/498 499/499
f 499/499 498/498 500/500
f 499/499 500/500 501/501
f 501/501 500/500 502/502
f 501/501 502/502 503/503
f 503/503 502/502 504/504
f 503/503 504/504 505/505
f 505/505 504/504 506/506
f 505/505 506/506 507/507
f 507/507 506/506 508/508
f 508/508 506/506 509/509
f 508/508 509/509 510/510
f 510/510 509/509 511/511
f 510/510 511/511 512/512
f 512/512 511/511 513/513
f 512/512 513/513 514/514
f 514/514 513/513 515/515
f 514/514 515/515 516/516
f 516/516 515/515 517/517
f 516/516 517/517 518/518
f 518/518 517/517 519/519
f 518/518 519/519 520/520
f 520/520 519/519 521/521
f 520/520 521/521 522/522
f 522/522 521/521 523/523
f 523/523 521/521 524/524
f 523/523 524/524 525/525
f 525/525 524/524 526/526
f 525/525 526/526 527/527
f 527/527 526/526 528/528
f 527/527 528/528 529/529
f 529/529 528/528 530/530
f 529/529 530/530 422/422
f 422/422 530/530 423/423
f 531/531 532/532 533/533
f 533/533 532/532 534/534
f 533/533 534/534 535/535
f 535/535 534/534 536/536
f 535/535 536/536 537/537
f 537/537 536/536 538/538
f 537/537 538/538 539/539
f 539/539 538/538 540/540
f 539/539 540/540 541/541
f 541/541 540/540 542/542
f 541/541 542/542 543/543
f 543/543 542/542 544/544
f 543/543 544/544 545/545
f 545/545 544/544 546/546
f 546/546 544/544 547/547
f 546/546 547/547 548/548
f 548/548 547/547 549/549
f 548/548 549/549 550/550
f 550/550 549/549 551/551
f 550/550 551/551 552/552
f 552/552 551/551 553/553
f 552/552 553/553 554/554
f 554/554 553/553 555/555
f 554/554 555/555 556/556
f 556/556 555/555 557/557
f 556/556 557/557 558/558
f 558/558 557/557 559/559
f 558/558 559/559 560/560
f 560/560 559/559 561/561
f 560/560 561/561 562/562
f 562/562 561/561 563/563
f 563/563 561/561 564/564
f 563/563 564/564 565/565
f 565/565 564/564 566/566
f 565/565 566/566 567/567
f 567/567 566/566 568/568
f 567/567 568/568 569/569
f 569/569 568/568 570/570
f 569/569 570/570 571/571
f 571/571 570/570 572/572
f 571/571 572/572 573/573
f 573/573 572/572 574/574
f 573/573 574/574 575/575
f 575/575 574/574 576/576
f 575/575 576/576 577/577
f 577/577 576/576 578/578
f 578/578 576/576 579/579
f 578/578 579/579 580/580
f 580/580 579/579 581/581
f 580/580 581/581 582/582
f 582/582 581/581 583/583
f 582/582 583/583 584/584
f 584/584 583/583 585/585
f 584/584 585/585 586/586
f 586/586 585/585 587/587
f 586/586 587/587 588/588
f 588/588 587/587 589/589
f 588/588 589/589 590/590
f 590/590 589/589 591/591
f 590/590 591/591 592/592
f 592/592 591/591 593/593
f 593/593 591/591 594/594
f 593/593 594/594 595/595
f 595/595 594/594 596/596
f 595/595 596/596 597/597
f 597/597 596/596 598/598
f 597/597 598/598 599/599
f 599/599 598/598 600/600
f 599/599 600/600 601/601
f 601/601 600/600 602/602
f 601/601 602/602 603/603
f 603/603 602/602 604/604
f 603/603 604/604 605/605
f 605/605 604/604 606/606
f 605/605 606/606 607/607
f 607/607 606/606 608/608
f 608/608 606/606 609/609
f 608/608 609/609 610/610
f 610/610 609/609 611/611
f 610/610 611/611 612/612
f 612/612 611/611 613/613
f 612/612 613/613 614/614
f 614/614 613/613 615/615
f 614/614 615/615 616/616
f 616/616 615/615 617/617
f 616/616 617/617 618/618
f 618/618 617/617 619/619
f 618/618 619/619 620/620
f 620/620 619/619 621/621
f 620/620 621/621 622/622
f 622/622 621/621 623/623
f 622/622 623/623 624/624
f 624/624 623/623 625/625
f 625/625 623/623 626/626
f 625/625 626/626 627/627
f 627/627 626/626 628/628
f 627/627 628/628 629/629
f 629/629 628/628 630/630
f 629/629 630/630 631/631
f 631/631 630/630 632/632
f 631/631 632/632 633/633
f 633/633 632/632 634/634
f 633/633 634/634 635/635
f 635/635 634/634 636/636
f 635/635 636/636 637/637
f 637/637 636/636 638/638
f 637/637 638/638 639/639
f 639/639 638/638 531/531
f 531/531 638/638 532/532
f 640/640 641/641 642/642
f 642/642 641/641 643/643
f 642/642 643/643 644/644
f 644/644 643/643 645/645
f 644/644 645/645 646/646
f 646/646 645/645 647/647
f 646/646 647/647 648/648
f 648/648 647/647 649/649
f 648/648 649/649 650/650
f 650/650 649/649 651/651
f 650/650 651/651 652/652
f 652/652 651/651 653/653
f 652/652 653/653 654/654
f 654/654 653/653 655/655
f 654/654 655/655 656/656
f 656/656 655/655 657/657
f 656/656 657/657 658/658
f 658/658 657/657 659/659
f 658/658 659/659 660/660
f 660/660 659/659 661/661
f 660/660 661/661 662/662
f 662/662 661/661 663/663
f 662/662 663/663 664/664
f 664/664 663/663 665/665
f 664/664 665/665 666/666
f 666/666 665/665 667/667
f 666/666 667/667 668/668
f 668/668 667/667 669/669
f 668/668 669/669 670/670
f 670/670 669/669 671/671
f 670/670 671/671 672/672
f 672/672 671/671 673/673
f 672/672 673/673 674/674
f 674/674 673/673 675/675
f 674/674 675/675 676/676
f 676/676 675/675 677/677
f 676/676 677/677 678/678
f 678/678 677/677 679/679
f 678/678 679/679 680/680
f 680/680 679/679 681/681
f 680/680 681/681 682/682
f 682/682 681/681 683/683
f 682/682 683/683 684/684
f 684/684 683/683 685/685
f 684/684 685/685 686/686
f 686/686 685/685 687/687
f 686/686 687/687 688/688
f 688/688 687/687 689/689
f 688/688 689/689 690/690
f 690/690 689/689 691/691
f 690/690 691/691 692/692
f 693/693 694/694 695/695
f 693/693 695/695 696/696
f 696/696 695/695 697/697
f 696/696 697/697 698/698
f 698/698 697/697 699/699
f 698/698 699/699 700/700
f 700/700 699/699 701/701
f 700/700 701/701 702/702
f 702/702 701/701 703/703
f 702/702 703/703 704/704
f 704/704 703/703 705/705
f 704/704 705/705 706/706
f 706/706 705/705 707/707
f 706/706 707/707 708/708
f 708/708 707/707 709/709
f 708/708 709/709 710/710
f 710/710 709/709 711/711
f 710/710 711/711 712/712
f 712/712 711/711 713/713
f 712/712 713/713 714/714
f 714/714 713/713 715/715
f 714/714 715/715 716/716
f 716/716 715/715 717/717
f 716/716 717/717 718/718
f 718/718 717/717 719/719
f 718/718 719/719 720/720
f 720/720 719/719 721/721
f 720/720 721/721 722/722
f 722/722 721/721 723/723
f 722/722 723/723 724/724
f 724/724 723/723 725/725
f 724/724 725/725 726/726
f 726/726 725/725 727/727
f 726/726 727/727 728/728
f 728/728 727/727 729/729
f 728/728 729/729 730/730
f 730/730 729/729 731/731
f 730/730 731/731 732/732
f 732/732 731/731 733/733
f 732/732 733/733 734/734
f 734/734 733/733 735/735
f 734/734 735/735 736/736
f 736/736 735/735 737/737
f 736/736 737/737 738/738
f 738/738 737/737 739/739
f 738/738 739/739 740/740
f 740/740 739/739 741/741
f 740/740 741/741 742/742
f 742/742 741/741 743/743
f 742/742 743/743 640/640
f 640/640 743/743 641/641

