mtllib material.mtl
usemtl material_cabinet_ac_1
v -3.49999992 -1.79999996 0.00000000
v -3.49999992 -1.79999996 3.56999992
v -3.49799980 -1.79999996 0.00000000
v -3.49799980 -1.79999996 3.56999992
v -3.49999992 -1.69999996 3.56999992
v -3.49999992 -1.69999996 0.00000000
v -3.49799980 -1.69999996 3.56999992
v -3.49799980 -1.69999996 0.00000000
v -3.49999992 -1.79999996 3.56999992
v -3.49999992 -1.79999996 0.00000000
v -3.49999992 -2.76999994 3.56999992
v -3.49999992 -2.76999994 0.00000000
v -3.49999992 -2.96999993 3.36999992
v -3.49999992 -2.96999993 0.20000000
v -3.49999992 -2.84653680 0.01522409
v -3.49999992 -2.91142205 0.05857865
v -3.49999992 -2.95477593 0.12346329
v -3.49999992 -2.95477593 3.44653679
v -3.49999992 -2.91142205 3.51142082
v -3.49999992 -2.84653680 3.55477592
v -3.49999992 2.76999994 0.00000000
v -3.49999992 -1.69999996 0.00000000
v -3.49999992 2.96999993 0.20000000
v -3.49999992 -1.69999996 3.56999992
v -3.49999992 2.96999993 3.36999992
v -3.49999992 2.76999994 3.56999992
v -3.49999992 2.95477593 3.44653679
v -3.49999992 2.91142205 3.51142082
v -3.49999992 2.84653680 3.55477592
v -3.49999992 2.95477593 0.12346329
v -3.49999992 2.91142205 0.05857865
v -3.49999992 2.84653680 0.01522409
v -3.49999992 -1.69999996 3.56999992
v -3.49799980 -1.69999996 3.56999992
v -3.49999992 2.76999994 3.56999992
v -3.46999992 2.76999994 3.56999992
v -3.46999992 -2.76999994 3.56999992
v -3.49799980 -1.79999996 3.56999992
v -3.49999992 -2.76999994 3.56999992
v -3.49999992 -1.79999996 3.56999992
v -2.09999995 3.19999993 0.00000000
v -2.09999995 3.19999993 3.56999992
v -2.09999995 3.19799981 0.00000000
v -2.09999995 3.19799981 3.56999992
v -1.99999996 3.19999993 3.56999992
v -1.99999996 3.19999993 0.00000000
v -1.99999996 3.19799981 3.56999992
v -1.99999996 3.19799981 0.00000000
v 3.06999993 3.19999993 0.00000000
v -1.99999996 3.19999993 0.00000000
v 3.26999993 3.19999993 0.20000000
v -1.99999996 3.19999993 3.56999992
v 3.26999993 3.19999993 3.36999992
v 3.06999993 3.19999993 3.56999992
v 3.25477593 3.19999993 3.44653679
v 3.21142083 3.19999993 3.51142082
v 3.14653679 3.19999993 3.55477592
v 3.25477593 3.19999993 0.12346329
v 3.21142083 3.19999993 0.05857865
v 3.14653679 3.19999993 0.01522409
v -2.09999995 3.19999993 3.56999992
v -2.09999995 3.19999993 0.00000000
v -3.06999993 3.19999993 3.56999992
v -3.06999993 3.19999993 0.00000000
v -3.26999993 3.19999993 3.36999992
v -3.26999993 3.19999993 0.20000000
v -3.14653679 3.19999993 0.01522409
v -3.21142083 3.19999993 0.05857865
v -3.25477593 3.19999993 0.12346329
v -3.25477593 3.19999993 3.44653679
v -3.21142083 3.19999993 3.51142082
v -3.14653679 3.19999993 3.55477592
v 1.83718197 -0.06970848 0.00000000
v -3.49799980 -1.69999996 0.00000000
v 1.81999996 0.00000000 0.00000000
v -1.99999996 3.19799981 0.00000000
v 1.83718197 0.06970848 0.00000000
v 1.88479000 0.12344760 0.00000000
v 3.06999993 3.16999993 0.00000000
v 1.95191997 0.14890629 0.00000000
v 3.49799980 1.79999996 0.00000000
v 3.49799980 1.69999996 0.00000000
v 1.88479000 -0.12344760 0.00000000
v 1.99999996 -3.19799981 0.00000000
v -3.06999993 -3.16999993 0.00000000
v -3.49799980 -1.79999996 0.00000000
v -3.46999992 -2.76999994 0.00000000
v -3.49999992 -2.76999994 0.00000000
v 1.95191997 -0.14890629 0.00000000
v 2.09999995 -3.19799981 0.00000000
v 2.02319103 -0.14025240 0.00000000
v 3.46999992 -2.76999994 0.00000000
v 2.08227702 -0.09946841 0.00000000
v 3.49999992 -2.76999994 0.00000000
v 2.11564097 -0.03589735 0.00000000
v 3.49999992 1.69999996 0.00000000
v 2.11564097 0.03589735 0.00000000
v 2.08227702 0.09946841 0.00000000
v 2.02319103 0.14025240 0.00000000
v -3.49999992 -1.69999996 0.00000000
v -3.49999992 2.76999994 0.00000000
v -3.46999992 2.76999994 0.00000000
v -2.09999995 3.19799981 0.00000000
v -3.06999993 3.16999993 0.00000000
v -3.06999993 3.19999993 0.00000000
v -3.46999992 2.96999993 0.00000000
v -3.26999993 3.16999993 0.00000000
v -3.45477592 3.04653680 0.00000000
v -3.41142082 3.11142205 0.00000000
v -3.34653679 3.15477593 0.00000000
v -2.09999995 3.19999993 0.00000000
v -1.99999996 3.19999993 0.00000000
v 3.06999993 3.19999993 0.00000000
v 3.26999993 3.16999993 0.00000000
v 3.46999992 2.96999993 0.00000000
v 3.46999992 2.76999994 0.00000000
v 3.49999992 2.76999994 0.00000000
v 3.49999992 1.79999996 0.00000000
v 3.34653679 3.15477593 0.00000000
v 3.41142082 3.11142205 0.00000000
v 3.45477592 3.04653680 0.00000000
v 3.06999993 -3.16999993 0.00000000
v 3.46999992 -2.96999993 0.00000000
v 3.26999993 -3.16999993 0.00000000
v 3.45477592 -3.04653680 0.00000000
v 3.41142082 -3.11142205 0.00000000
v 3.34653679 -3.15477593 0.00000000
v 3.06999993 -3.19999993 0.00000000
v 2.09999995 -3.19999993 0.00000000
v 1.99999996 -3.19999993 0.00000000
v -3.06999993 -3.19999993 0.00000000
v -3.46999992 -2.96999993 0.00000000
v -3.26999993 -3.16999993 0.00000000
v -3.45477592 -3.04653680 0.00000000
v -3.41142082 -3.11142205 0.00000000
v -3.34653679 -3.15477593 0.00000000
v -3.49999992 -1.79999996 0.00000000
v 3.49999992 1.79999996 0.00000000
v 3.49999992 1.79999996 3.56999992
v 3.49799980 1.79999996 0.00000000
v 3.49799980 1.79999996 3.56999992
v 3.49999992 1.69999996 3.56999992
v 3.49999992 1.69999996 0.00000000
v 3.49799980 1.69999996 3.56999992
v 3.49799980 1.69999996 0.00000000
v 3.49999992 1.79999996 3.56999992
v 3.49999992 1.79999996 0.00000000
v 3.49999992 2.76999994 3.56999992
v 3.49999992 2.76999994 0.00000000
v 3.49999992 2.96999993 3.36999992
v 3.49999992 2.96999993 0.20000000
v 3.49999992 2.84653680 0.01522409
v 3.49999992 2.91142205 0.05857865
v 3.49999992 2.95477593 0.12346329
v 3.49999992 2.95477593 3.44653679
v 3.49999992 2.91142205 3.51142082
v 3.49999992 2.84653680 3.55477592
v 3.49999992 1.69999996 3.56999992
v 3.49999992 -2.96999993 3.36999992
v 3.49999992 1.69999996 0.00000000
v 3.49999992 -2.96999993 0.20000000
v 3.49999992 -2.76999994 0.00000000
v 3.49999992 -2.95477593 0.12346329
v 3.49999992 -2.91142205 0.05857865
v 3.49999992 -2.76999994 3.56999992
v 3.49999992 -2.95477593 3.44653679
v 3.49999992 -2.91142205 3.51142082
v 3.49999992 -2.84653680 3.55477592
v 3.49999992 -2.84653680 0.01522409
v 3.49999992 1.69999996 3.56999992
v 3.49799980 1.69999996 3.56999992
v 3.49999992 -2.76999994 3.56999992
v 3.46999992 -2.76999994 3.56999992
v 3.46999992 2.76999994 3.56999992
v 3.49799980 1.79999996 3.56999992
v 3.49999992 2.76999994 3.56999992
v 3.49999992 1.79999996 3.56999992
v 2.09999995 -3.19999993 0.00000000
v 2.09999995 -3.19999993 3.56999992
v 2.09999995 -3.19799981 0.00000000
v 2.09999995 -3.19799981 3.56999992
v 1.99999996 -3.19999993 3.56999992
v 1.99999996 -3.19999993 0.00000000
v 1.99999996 -3.19799981 3.56999992
v 1.99999996 -3.19799981 0.00000000
v 1.99999996 -3.19999993 3.56999992
v -3.26999993 -3.19999993 3.36999992
v 1.99999996 -3.19999993 0.00000000
v -3.26999993 -3.19999993 0.20000000
v -3.06999993 -3.19999993 0.00000000
v -3.25477593 -3.19999993 0.12346329
v -3.21142083 -3.19999993 0.05857865
v -3.06999993 -3.19999993 3.56999992
v -3.25477593 -3.19999993 3.44653679
v -3.21142083 -3.19999993 3.51142082
v -3.14653679 -3.19999993 3.55477592
v -3.14653679 -3.19999993 0.01522409
v 2.09999995 -3.19999993 3.56999992
v 2.09999995 -3.19999993 0.00000000
v 3.06999993 -3.19999993 3.56999992
v 3.06999993 -3.19999993 0.00000000
v 3.26999993 -3.19999993 3.36999992
v 3.26999993 -3.19999993 0.20000000
v 3.14653679 -3.19999993 0.01522409
v 3.21142083 -3.19999993 0.05857865
v 3.25477593 -3.19999993 0.12346329
v 3.25477593 -3.19999993 3.44653679
v 3.21142083 -3.19999993 3.51142082
v 3.14653679 -3.19999993 3.55477592
v -3.49999992 -2.96999993 3.36999992
v -3.46999992 -2.96999993 3.36999992
v -3.49999992 -2.95477593 3.44653679
v -3.46999992 -2.95477593 3.44653679
v -3.49999992 -2.91142205 3.51142082
v -3.46999992 -2.91142205 3.51142082
v -3.49999992 -2.84653680 3.55477592
v -3.46999992 -2.84653680 3.55477592
v -3.49999992 -2.76999994 3.56999992
v -3.46999992 -2.76999994 3.56999992
v 3.49999992 -2.76999994 3.56999992
v 3.46999992 -2.76999994 3.56999992
v 3.49999992 -2.84653680 3.55477592
v 3.46999992 -2.84653680 3.55477592
v 3.49999992 -2.91142205 3.51142082
v 3.46999992 -2.91142205 3.51142082
v 3.49999992 -2.95477593 3.44653679
v 3.46999992 -2.95477593 3.44653679
v 3.49999992 -2.96999993 3.36999992
v 3.46999992 -2.96999993 3.36999992
v 3.46999992 -2.96999993 3.36999992
v 3.46999992 -2.96999993 0.20000000
v 3.49999992 -2.96999993 3.36999992
v 3.49999992 -2.96999993 0.20000000
v -3.49999992 2.76999994 3.56999992
v -3.46999992 2.76999994 3.56999992
v -3.49999992 2.84653680 3.55477592
v -3.46999992 2.84653680 3.55477592
v -3.49999992 2.91142205 3.51142082
v -3.46999992 2.91142205 3.51142082
v -3.49999992 2.95477593 3.44653679
v -3.46999992 2.95477593 3.44653679
v -3.49999992 2.96999993 3.36999992
v -3.46999992 2.96999993 3.36999992
v 3.49999992 -2.96999993 0.20000000
v 3.46999992 -2.96999993 0.20000000
v 3.49999992 -2.95477593 0.12346329
v 3.46999992 -2.95477593 0.12346329
v 3.49999992 -2.91142205 0.05857865
v 3.46999992 -2.91142205 0.05857865
v 3.49999992 -2.84653680 0.01522409
v 3.46999992 -2.84653680 0.01522409
v 3.49999992 -2.76999994 0.00000000
v 3.46999992 -2.76999994 0.00000000
v -3.46999992 2.96999993 3.36999992
v -3.46999992 2.96999993 0.20000000
v -3.49999992 2.96999993 3.36999992
v -3.49999992 2.96999993 0.20000000
v -3.49999992 2.96999993 0.20000000
v -3.46999992 2.96999993 0.20000000
v -3.49999992 2.95477593 0.12346329
v -3.46999992 2.95477593 0.12346329
v -3.49999992 2.91142205 0.05857865
v -3.46999992 2.91142205 0.05857865
v -3.49999992 2.84653680 0.01522409
v -3.46999992 2.84653680 0.01522409
v -3.49999992 2.76999994 0.00000000
v -3.46999992 2.76999994 0.00000000
v 3.49999992 2.96999993 3.36999992
v 3.46999992 2.96999993 3.36999992
v 3.49999992 2.95477593 3.44653679
v 3.46999992 2.95477593 3.44653679
v 3.49999992 2.91142205 3.51142082
v 3.46999992 2.91142205 3.51142082
v 3.49999992 2.84653680 3.55477592
v 3.46999992 2.84653680 3.55477592
v 3.49999992 2.76999994 3.56999992
v 3.46999992 2.76999994 3.56999992
v 3.46999992 2.96999993 0.20000000
v 3.46999992 2.96999993 3.36999992
v 3.49999992 2.96999993 0.20000000
v 3.49999992 2.96999993 3.36999992
v 3.49999992 2.76999994 0.00000000
v 3.46999992 2.76999994 0.00000000
v 3.49999992 2.84653680 0.01522409
v 3.46999992 2.84653680 0.01522409
v 3.49999992 2.91142205 0.05857865
v 3.46999992 2.91142205 0.05857865
v 3.49999992 2.95477593 0.12346329
v 3.46999992 2.95477593 0.12346329
v 3.49999992 2.96999993 0.20000000
v 3.46999992 2.96999993 0.20000000
v -3.49999992 -2.76999994 0.00000000
v -3.46999992 -2.76999994 0.00000000
v -3.49999992 -2.84653680 0.01522409
v -3.46999992 -2.84653680 0.01522409
v -3.49999992 -2.91142205 0.05857865
v -3.46999992 -2.91142205 0.05857865
v -3.49999992 -2.95477593 0.12346329
v -3.46999992 -2.95477593 0.12346329
v -3.49999992 -2.96999993 0.20000000
v -3.46999992 -2.96999993 0.20000000
v -3.46999992 -2.96999993 0.20000000
v -3.46999992 -2.96999993 3.36999992
v -3.49999992 -2.96999993 0.20000000
v -3.49999992 -2.96999993 3.36999992
v 3.46999992 2.96999993 0.20000000
v 3.46999992 2.95477593 0.12346329
v 3.46999992 2.96999993 0.00000000
v 3.46999992 2.91142205 0.05857865
v 3.46999992 2.84653680 0.01522409
v 3.46999992 2.76999994 0.00000000
v 3.46999992 2.76999994 3.56999992
v 3.46999992 2.84653680 3.55477592
v 3.46999992 2.96999993 3.56999992
v 3.46999992 2.91142205 3.51142082
v 3.46999992 2.95477593 3.44653679
v 3.46999992 2.96999993 3.36999992
v 3.46999992 -2.76999994 0.00000000
v 3.46999992 -2.84653680 0.01522409
v 3.46999992 -2.96999993 0.00000000
v 3.46999992 -2.91142205 0.05857865
v 3.46999992 -2.95477593 0.12346329
v 3.46999992 -2.96999993 0.20000000
v -3.46999992 -2.96999993 0.20000000
v -3.46999992 -2.95477593 0.12346329
v -3.46999992 -2.96999993 0.00000000
v -3.46999992 -2.91142205 0.05857865
v -3.46999992 -2.84653680 0.01522409
v -3.46999992 -2.76999994 0.00000000
v -3.46999992 2.76999994 0.00000000
v -3.46999992 2.84653680 0.01522409
v -3.46999992 2.96999993 0.00000000
v -3.46999992 2.91142205 0.05857865
v -3.46999992 2.95477593 0.12346329
v -3.46999992 2.96999993 0.20000000
v -3.46999992 2.96999993 3.36999992
v -3.46999992 2.95477593 3.44653679
v -3.46999992 2.96999993 3.56999992
v -3.46999992 2.91142205 3.51142082
v -3.46999992 2.84653680 3.55477592
v -3.46999992 2.76999994 3.56999992
v -3.46999992 -2.76999994 3.56999992
v -3.46999992 -2.84653680 3.55477592
v -3.46999992 -2.96999993 3.56999992
v -3.46999992 -2.91142205 3.51142082
v -3.46999992 -2.95477593 3.44653679
v -3.46999992 -2.96999993 3.36999992
v -3.26999993 3.19999993 3.36999992
v -3.26999993 3.16999993 3.36999992
v -3.25477593 3.19999993 3.44653679
v -3.25477593 3.16999993 3.44653679
v -3.21142083 3.19999993 3.51142082
v -3.21142083 3.16999993 3.51142082
v -3.14653679 3.19999993 3.55477592
v -3.14653679 3.16999993 3.55477592
v -3.06999993 3.19999993 3.56999992
v -3.06999993 3.16999993 3.56999992
v -3.06999993 -3.19999993 3.56999992
v -3.06999993 -3.16999993 3.56999992
v -3.14653679 -3.19999993 3.55477592
v -3.14653679 -3.16999993 3.55477592
v -3.21142083 -3.19999993 3.51142082
v -3.21142083 -3.16999993 3.51142082
v -3.25477593 -3.19999993 3.44653679
v -3.25477593 -3.16999993 3.44653679
v -3.26999993 -3.19999993 3.36999992
v -3.26999993 -3.16999993 3.36999992
v -3.26999993 3.16999993 0.20000000
v -3.26999993 3.16999993 3.36999992
v -3.26999993 3.19999993 0.20000000
v -3.26999993 3.19999993 3.36999992
v -3.26999993 -3.16999993 3.36999992
v -3.26999993 -3.16999993 0.20000000
v -3.26999993 -3.19999993 3.36999992
v -3.26999993 -3.19999993 0.20000000
v -2.09999995 3.19999993 3.56999992
v -3.06999993 3.19999993 3.56999992
v -2.09999995 3.19799981 3.56999992
v -3.06999993 3.16999993 3.56999992
v -1.99999996 3.19799981 3.56999992
v 3.06999993 3.16999993 3.56999992
v 3.06999993 3.19999993 3.56999992
v -1.99999996 3.19999993 3.56999992
v -3.06999993 3.19999993 0.00000000
v -3.06999993 3.16999993 0.00000000
v -3.14653679 3.19999993 0.01522409
v -3.14653679 3.16999993 0.01522409
v -3.21142083 3.19999993 0.05857865
v -3.21142083 3.16999993 0.05857865
v -3.25477593 3.19999993 0.12346329
v -3.25477593 3.16999993 0.12346329
v -3.26999993 3.19999993 0.20000000
v -3.26999993 3.16999993 0.20000000
v -3.26999993 -3.19999993 0.20000000
v -3.26999993 -3.16999993 0.20000000
v -3.25477593 -3.19999993 0.12346329
v -3.25477593 -3.16999993 0.12346329
v -3.21142083 -3.19999993 0.05857865
v -3.21142083 -3.16999993 0.05857865
v -3.14653679 -3.19999993 0.01522409
v -3.14653679 -3.16999993 0.01522409
v -3.06999993 -3.19999993 0.00000000
v -3.06999993 -3.16999993 0.00000000
v 3.06999993 3.19999993 3.56999992
v 3.06999993 3.16999993 3.56999992
v 3.14653679 3.19999993 3.55477592
v 3.14653679 3.16999993 3.55477592
v 3.21142083 3.19999993 3.51142082
v 3.21142083 3.16999993 3.51142082
v 3.25477593 3.19999993 3.44653679
v 3.25477593 3.16999993 3.44653679
v 3.26999993 3.19999993 3.36999992
v 3.26999993 3.16999993 3.36999992
v 3.26999993 3.16999993 3.36999992
v 3.26999993 3.16999993 0.20000000
v 3.26999993 3.19999993 3.36999992
v 3.26999993 3.19999993 0.20000000
v 3.26999993 3.19999993 0.20000000
v 3.26999993 3.16999993 0.20000000
v 3.25477593 3.19999993 0.12346329
v 3.25477593 3.16999993 0.12346329
v 3.21142083 3.19999993 0.05857865
v 3.21142083 3.16999993 0.05857865
v 3.14653679 3.19999993 0.01522409
v 3.14653679 3.16999993 0.01522409
v 3.06999993 3.19999993 0.00000000
v 3.06999993 3.16999993 0.00000000
v 3.06999993 -3.19999993 0.00000000
v 3.06999993 -3.16999993 0.00000000
v 3.14653679 -3.19999993 0.01522409
v 3.14653679 -3.16999993 0.01522409
v 3.21142083 -3.19999993 0.05857865
v 3.21142083 -3.16999993 0.05857865
v 3.25477593 -3.19999993 0.12346329
v 3.25477593 -3.16999993 0.12346329
v 3.26999993 -3.19999993 0.20000000
v 3.26999993 -3.16999993 0.20000000
v 3.26999993 -3.16999993 0.20000000
v 3.26999993 -3.16999993 3.36999992
v 3.26999993 -3.19999993 0.20000000
v 3.26999993 -3.19999993 3.36999992
v 3.26999993 -3.19999993 3.36999992
v 3.26999993 -3.16999993 3.36999992
v 3.25477593 -3.19999993 3.44653679
v 3.25477593 -3.16999993 3.44653679
v 3.21142083 -3.19999993 3.51142082
v 3.21142083 -3.16999993 3.51142082
v 3.14653679 -3.19999993 3.55477592
v 3.14653679 -3.16999993 3.55477592
v 3.06999993 -3.19999993 3.56999992
v 3.06999993 -3.16999993 3.56999992
v 2.09999995 -3.19999993 3.56999992
v 3.06999993 -3.19999993 3.56999992
v 2.09999995 -3.19799981 3.56999992
v 3.06999993 -3.16999993 3.56999992
v 1.99999996 -3.19799981 3.56999992
v -3.06999993 -3.16999993 3.56999992
v -3.06999993 -3.19999993 3.56999992
v 1.99999996 -3.19999993 3.56999992
v 3.26999993 -3.16999993 0.20000000
v 3.25477593 -3.16999993 0.12346329
v 3.26999993 -3.16999993 0.00000000
v 3.21142083 -3.16999993 0.05857865
v 3.14653679 -3.16999993 0.01522409
v 3.06999993 -3.16999993 0.00000000
v 3.06999993 -3.16999993 3.56999992
v 3.14653679 -3.16999993 3.55477592
v 3.26999993 -3.16999993 3.56999992
v 3.21142083 -3.16999993 3.51142082
v 3.25477593 -3.16999993 3.44653679
v 3.26999993 -3.16999993 3.36999992
v -3.06999993 -3.16999993 0.00000000
v -3.14653679 -3.16999993 0.01522409
v -3.26999993 -3.16999993 0.00000000
v -3.21142083 -3.16999993 0.05857865
v -3.25477593 -3.16999993 0.12346329
v -3.26999993 -3.16999993 0.20000000
v -3.26999993 3.16999993 0.20000000
v -3.25477593 3.16999993 0.12346329
v -3.26999993 3.16999993 0.00000000
v -3.21142083 3.16999993 0.05857865
v -3.14653679 3.16999993 0.01522409
v -3.06999993 3.16999993 0.00000000
v 3.06999993 3.16999993 0.00000000
v 3.14653679 3.16999993 0.01522409
v 3.26999993 3.16999993 0.00000000
v 3.21142083 3.16999993 0.05857865
v 3.25477593 3.16999993 0.12346329
v 3.26999993 3.16999993 0.20000000
v 3.26999993 3.16999993 3.36999992
v 3.25477593 3.16999993 3.44653679
v 3.26999993 3.16999993 3.56999992
v 3.21142083 3.16999993 3.51142082
v 3.14653679 3.16999993 3.55477592
v 3.06999993 3.16999993 3.56999992
v -3.26999993 2.96999993 3.76999992
v 3.26999993 2.96999993 3.76999992
v -3.26999993 3.04653680 3.75477592
v 3.26999993 3.04653680 3.75477592
v -3.26999993 3.11142205 3.71142082
v 3.26999993 3.11142205 3.71142082
v -3.26999993 3.15477593 3.64653678
v 3.26999993 3.15477593 3.64653678
v -3.06999993 3.16999993 3.56999992
v 3.06999993 3.16999993 3.56999992
v 3.26999993 3.16999993 3.56999992
v -3.26999993 3.16999993 3.56999992
v 3.26999993 2.96999993 3.76999992
v 3.26999993 -2.96999993 3.76999992
v 3.34653679 2.96999993 3.75477592
v 3.34653679 -2.96999993 3.75477592
v 3.41142082 2.96999993 3.71142082
v 3.41142082 -2.96999993 3.71142082
v 3.45477592 2.96999993 3.64653678
v 3.45477592 -2.96999993 3.64653678
v 3.46999992 2.76999994 3.56999992
v 3.46999992 -2.76999994 3.56999992
v 3.46999992 -2.96999993 3.56999992
v 3.46999992 2.96999993 3.56999992
v 3.26999993 3.04653680 3.75477592
v 3.26999993 2.96999993 3.76999992
v 3.33065697 3.03566399 3.74891105
v 3.34653679 2.96999993 3.75477592
v 3.40065605 3.04653680 3.70065605
v 3.41142082 2.96999993 3.71142082
v 3.45477592 2.96999993 3.64653678
v 3.44891106 3.03566399 3.63065696
v 3.46999992 2.96999993 3.56999992
v 3.45477592 3.04653680 3.56999992
v 3.41876488 3.10043389 3.59925987
v 3.41142082 3.11142205 3.56999992
v 3.34653679 3.15477593 3.56999992
v 3.26999993 3.16999993 3.56999992
v 3.32411980 3.15477593 3.62411979
v 3.36999992 3.11142205 3.66999992
v 3.26999993 3.15477593 3.64653678
v 3.26999993 3.11142205 3.71142082
v 3.29925987 3.10043389 3.71876487
v 3.26999993 -2.96999993 3.76999992
v -3.26999993 -2.96999993 3.76999992
v 3.26999993 -3.04653680 3.75477592
v -3.26999993 -3.04653680 3.75477592
v 3.26999993 -3.11142205 3.71142082
v -3.26999993 -3.11142205 3.71142082
v 3.26999993 -3.15477593 3.64653678
v -3.26999993 -3.15477593 3.64653678
v 3.06999993 -3.16999993 3.56999992
v -3.06999993 -3.16999993 3.56999992
v -3.26999993 -3.16999993 3.56999992
v 3.26999993 -3.16999993 3.56999992
v 3.34653679 -2.96999993 3.75477592
v 3.26999993 -2.96999993 3.76999992
v 3.33065697 -3.03566399 3.74891105
v 3.26999993 -3.04653680 3.75477592
v 3.29925987 -3.10043389 3.71876487
v 3.26999993 -3.11142205 3.71142082
v 3.26999993 -3.15477593 3.64653678
v 3.26999993 -3.16999993 3.56999992
v 3.32411980 -3.15477593 3.62411979
v 3.36999992 -3.11142205 3.66999992
v 3.40065605 -3.04653680 3.70065605
v 3.34653679 -3.15477593 3.56999992
v 3.41876488 -3.10043389 3.59925987
v 3.44891106 -3.03566399 3.63065696
v 3.45477592 -2.96999993 3.64653678
v 3.41142082 -2.96999993 3.71142082
v 3.41142082 -3.11142205 3.56999992
v 3.45477592 -3.04653680 3.56999992
v 3.46999992 -2.96999993 3.56999992
v -3.26999993 -2.96999993 3.76999992
v -3.26999993 2.96999993 3.76999992
v -3.34653679 -2.96999993 3.75477592
v -3.34653679 2.96999993 3.75477592
v -3.41142082 -2.96999993 3.71142082
v -3.41142082 2.96999993 3.71142082
v -3.45477592 -2.96999993 3.64653678
v -3.45477592 2.96999993 3.64653678
v -3.46999992 -2.76999994 3.56999992
v -3.46999992 2.76999994 3.56999992
v -3.46999992 2.96999993 3.56999992
v -3.46999992 -2.96999993 3.56999992
v -3.26999993 -3.04653680 3.75477592
v -3.26999993 -2.96999993 3.76999992
v -3.33065697 -3.03566399 3.74891105
v -3.34653679 -2.96999993 3.75477592
v -3.40065605 -3.04653680 3.70065605
v -3.41142082 -2.96999993 3.71142082
v -3.45477592 -2.96999993 3.64653678
v -3.44891106 -3.03566399 3.63065696
v -3.46999992 -2.96999993 3.56999992
v -3.45477592 -3.04653680 3.56999992
v -3.41876488 -3.10043389 3.59925987
v -3.41142082 -3.11142205 3.56999992
v -3.34653679 -3.15477593 3.56999992
v -3.26999993 -3.16999993 3.56999992
v -3.32411980 -3.15477593 3.62411979
v -3.36999992 -3.11142205 3.66999992
v -3.26999993 -3.15477593 3.64653678
v -3.29925987 -3.10043389 3.71876487
v -3.26999993 -3.11142205 3.71142082
v -3.34653679 2.96999993 3.75477592
v -3.26999993 2.96999993 3.76999992
v -3.33065697 3.03566399 3.74891105
v -3.26999993 3.04653680 3.75477592
v -3.29925987 3.10043389 3.71876487
v -3.26999993 3.11142205 3.71142082
v -3.26999993 3.15477593 3.64653678
v -3.26999993 3.16999993 3.56999992
v -3.32411980 3.15477593 3.62411979
v -3.36999992 3.11142205 3.66999992
v -3.40065605 3.04653680 3.70065605
v -3.34653679 3.15477593 3.56999992
v -3.41142082 3.11142205 3.56999992
v -3.41876488 3.10043389 3.59925987
v -3.44891106 3.03566399 3.63065696
v -3.45477592 3.04653680 3.56999992
v -3.46999992 2.96999993 3.56999992
v -3.45477592 2.96999993 3.64653678
v -3.41142082 2.96999993 3.71142082
v 3.46999992 -2.96999993 3.56999992
v 3.45477592 -3.04653680 3.56999992
v 3.46999992 -2.96999993 3.36999992
v 3.45477592 -3.04653680 0.00000000
v 3.46999992 -2.96999993 0.20000000
v 3.46999992 -2.96999993 0.00000000
v 3.41142082 -3.11142205 0.00000000
v 3.41142082 -3.11142205 3.56999992
v 3.34653679 -3.15477593 0.00000000
v 3.34653679 -3.15477593 3.56999992
v 3.26999993 -3.16999993 0.20000000
v 3.26999993 -3.16999993 3.36999992
v 3.26999993 -3.16999993 3.56999992
v 3.26999993 -3.16999993 0.00000000
v -3.26999993 -3.16999993 3.36999992
v -3.25477593 -3.16999993 3.44653679
v -3.26999993 -3.16999993 3.56999992
v -3.21142083 -3.16999993 3.51142082
v -3.14653679 -3.16999993 3.55477592
v -3.06999993 -3.16999993 3.56999992
v -3.26999993 -3.16999993 3.56999992
v -3.34653679 -3.15477593 3.56999992
v -3.26999993 -3.16999993 3.36999992
v -3.34653679 -3.15477593 0.00000000
v -3.26999993 -3.16999993 0.20000000
v -3.26999993 -3.16999993 0.00000000
v -3.41142082 -3.11142205 0.00000000
v -3.41142082 -3.11142205 3.56999992
v -3.45477592 -3.04653680 0.00000000
v -3.45477592 -3.04653680 3.56999992
v -3.46999992 -2.96999993 0.20000000
v -3.46999992 -2.96999993 3.36999992
v -3.46999992 -2.96999993 3.56999992
v -3.46999992 -2.96999993 0.00000000
v 2.10281795 -0.06970848 3.76999992
v 3.26999993 -2.96999993 3.76999992
v 2.11999995 0.00000000 3.76999992
v 3.26999993 2.96999993 3.76999992
v 2.10281795 0.06970848 3.76999992
v 2.05520991 0.12344760 3.76999992
v 1.98808101 0.14890629 3.76999992
v 1.91680889 0.14025240 3.76999992
v -3.26999993 2.96999993 3.76999992
v 1.85772289 0.09946841 3.76999992
v 1.82435894 0.03589735 3.76999992
v -3.26999993 -2.96999993 3.76999992
v 1.82435894 -0.03589735 3.76999992
v 1.85772289 -0.09946841 3.76999992
v 1.91680889 -0.14025240 3.76999992
v 1.98808101 -0.14890629 3.76999992
v 2.05520991 -0.12344760 3.76999992
v 3.26999993 3.16999993 3.56999992
v 3.34653679 3.15477593 3.56999992
v 3.26999993 3.16999993 3.36999992
v 3.34653679 3.15477593 0.00000000
v 3.26999993 3.16999993 0.20000000
v 3.26999993 3.16999993 0.00000000
v 3.41142082 3.11142205 0.00000000
v 3.41142082 3.11142205 3.56999992
v 3.45477592 3.04653680 0.00000000
v 3.45477592 3.04653680 3.56999992
v 3.46999992 2.96999993 0.20000000
v 3.46999992 2.96999993 3.36999992
v 3.46999992 2.96999993 3.56999992
v 3.46999992 2.96999993 0.00000000
v -3.06999993 3.16999993 3.56999992
v -3.14653679 3.16999993 3.55477592
v -3.26999993 3.16999993 3.56999992
v -3.21142083 3.16999993 3.51142082
v -3.25477593 3.16999993 3.44653679
v -3.26999993 3.16999993 3.36999992
v -3.46999992 2.96999993 3.56999992
v -3.45477592 3.04653680 3.56999992
v -3.46999992 2.96999993 3.36999992
v -3.45477592 3.04653680 0.00000000
v -3.46999992 2.96999993 0.20000000
v -3.46999992 2.96999993 0.00000000
v -3.41142082 3.11142205 0.00000000
v -3.41142082 3.11142205 3.56999992
v -3.34653679 3.15477593 0.00000000
v -3.34653679 3.15477593 3.56999992
v -3.26999993 3.16999993 0.20000000
v -3.26999993 3.16999993 3.36999992
v -3.26999993 3.16999993 3.56999992
v -3.26999993 3.16999993 0.00000000
v 3.46999992 -2.96999993 3.36999992
v 3.46999992 -2.95477593 3.44653679
v 3.46999992 -2.96999993 3.56999992
v 3.46999992 -2.91142205 3.51142082
v 3.46999992 -2.84653680 3.55477592
v 3.46999992 -2.76999994 3.56999992
vt -35.70000076 0.00000000
vt 0.00000000 0.00000000
vt -35.70000076 0.01999998
vt 0.00000000 0.01999998
vt -35.70000076 0.00000000
vt 0.00000000 0.00000000
vt -35.70000076 0.01999998
vt 0.00000000 0.01999998
vt 17.85000038 -18.00000000
vt -17.85000038 -18.00000000
vt 17.85000038 -27.70000076
vt -17.85000038 -27.70000076
vt 15.85000038 -29.70000076
vt -15.85000038 -29.70000076
vt -17.69775963 -28.46537018
vt -17.26420975 -29.11421013
vt -16.61536980 -29.54776001
vt 16.61536980 -29.54776001
vt 17.26420975 -29.11421013
vt 17.69775963 -28.46537018
vt -17.85000038 27.70000076
vt -17.85000038 -17.00000000
vt -15.85000038 29.70000076
vt 17.85000038 -17.00000000
vt 15.85000038 29.70000076
vt 17.85000038 27.70000076
vt 16.61536980 29.54776001
vt 17.26420975 29.11421013
vt 17.69775963 28.46537018
vt -16.61536980 29.54776001
vt -17.26420975 29.11421013
vt -17.69775963 28.46537018
vt 44.70000076 -35.00000000
vt 44.70000076 -34.97999954
vt 0.00000000 -35.00000000
vt 0.00000000 -34.70000076
vt 55.40000153 -34.70000076
vt 45.70000076 -34.97999954
vt 55.40000153 -35.00000000
vt 45.70000076 -35.00000000
vt -35.70000076 0.00000000
vt 0.00000000 0.00000000
vt -35.70000076 0.01999998
vt 0.00000000 0.01999998
vt -35.70000076 0.00000000
vt 0.00000000 0.00000000
vt -35.70000076 0.01999998
vt 0.00000000 0.01999998
vt -17.85000038 30.70000076
vt -17.85000038 -20.00000000
vt -15.85000038 32.70000076
vt 17.85000038 -20.00000000
vt 15.85000038 32.70000076
vt 17.85000038 30.70000076
vt 16.61536980 32.54776001
vt 17.26420975 32.11420822
vt 17.69775963 31.46537018
vt -16.61536980 32.54776001
vt -17.26420975 32.11420822
vt -17.69775963 31.46537018
vt 17.85000038 -21.00000000
vt -17.85000038 -21.00000000
vt 17.85000038 -30.70000076
vt -17.85000038 -30.70000076
vt 15.85000038 -32.70000076
vt -15.85000038 -32.70000076
vt -17.69775963 -31.46537018
vt -17.26420975 -32.11420822
vt -16.61536980 -32.54776001
vt 16.61536980 -32.54776001
vt 17.26420975 -32.11420822
vt 17.69775963 -31.46537018
vt -18.37182045 -0.69708502
vt 34.97999954 -17.00000000
vt -18.20000076 0.00000000
vt 20.00000000 31.97999954
vt -18.37182045 0.69708502
vt -18.84790039 1.23447597
vt -30.70000076 31.70000076
vt -19.51919937 1.48906302
vt -34.97999954 18.00000000
vt -34.97999954 17.00000000
vt -18.84790039 -1.23447597
vt -20.00000000 -31.97999954
vt 30.70000076 -31.70000076
vt 34.97999954 -18.00000000
vt 34.70000076 -27.70000076
vt 35.00000000 -27.70000076
vt -19.51919937 -1.48906302
vt -21.00000000 -31.97999954
vt -20.23191071 -1.40252399
vt -34.70000076 -27.70000076
vt -20.82276917 -0.99468398
vt -35.00000000 -27.70000076
vt -21.15641022 -0.35897401
vt -35.00000000 17.00000000
vt -21.15641022 0.35897401
vt -20.82276917 0.99468398
vt -20.23191071 1.40252399
vt 35.00000000 -17.00000000
vt 35.00000000 27.70000076
vt 34.70000076 27.70000076
vt 21.00000000 31.97999954
vt 30.70000076 31.70000076
vt 30.70000076 32.00000000
vt 34.70000076 29.70000076
vt 32.70000076 31.70000076
vt 34.54776001 30.46537018
vt 34.11420822 31.11421013
vt 33.46537018 31.54776001
vt 21.00000000 32.00000000
vt 20.00000000 32.00000000
vt -30.70000076 32.00000000
vt -32.70000076 31.70000076
vt -34.70000076 29.70000076
vt -34.70000076 27.70000076
vt -35.00000000 27.70000076
vt -35.00000000 18.00000000
vt -33.46537018 31.54776001
vt -34.11420822 31.11421013
vt -34.54776001 30.46537018
vt -30.70000076 -31.70000076
vt -34.70000076 -29.70000076
vt -32.70000076 -31.70000076
vt -34.54776001 -30.46537018
vt -34.11420822 -31.11421013
vt -33.46537018 -31.54776001
vt -30.70000076 -32.00000000
vt -21.00000000 -32.00000000
vt -20.00000000 -32.00000000
vt 30.70000076 -32.00000000
vt 34.70000076 -29.70000076
vt 32.70000076 -31.70000076
vt 34.54776001 -30.46537018
vt 34.11420822 -31.11421013
vt 33.46537018 -31.54776001
vt 35.00000000 -18.00000000
vt -35.70000076 0.00000000
vt 0.00000000 0.00000000
vt -35.70000076 0.01999998
vt 0.00000000 0.01999998
vt -35.70000076 0.00000000
vt 0.00000000 0.00000000
vt -35.70000076 0.01999998
vt 0.00000000 0.01999998
vt -17.85000038 18.00000000
vt 17.85000038 18.00000000
vt -17.85000038 27.70000076
vt 17.85000038 27.70000076
vt -15.85000038 29.70000076
vt 15.85000038 29.70000076
vt 17.69775963 28.46537018
vt 17.26420975 29.11421013
vt 16.61536980 29.54776001
vt -16.61536980 29.54776001
vt -17.26420975 29.11421013
vt -17.69775963 28.46537018
vt -17.85000038 17.00000000
vt -15.85000038 -29.70000076
vt 17.85000038 17.00000000
vt 15.85000038 -29.70000076
vt 17.85000038 -27.70000076
vt 16.61536980 -29.54776001
vt 17.26420975 -29.11421013
vt -17.85000038 -27.70000076
vt -16.61536980 -29.54776001
vt -17.26420975 -29.11421013
vt -17.69775963 -28.46537018
vt 17.69775963 -28.46537018
vt 10.69999981 35.00000000
vt 10.69999981 34.97999954
vt 55.40000153 35.00000000
vt 55.40000153 34.70000076
vt 0.00000000 34.70000076
vt 9.69999981 34.97999954
vt 0.00000000 35.00000000
vt 9.69999981 35.00000000
vt -35.70000076 0.00000000
vt 0.00000000 0.00000000
vt -35.70000076 0.01999998
vt 0.00000000 0.01999998
vt -35.70000076 0.00000000
vt 0.00000000 0.00000000
vt -35.70000076 0.01999998
vt 0.00000000 0.01999998
vt -17.85000038 20.00000000
vt -15.85000038 -32.70000076
vt 17.85000038 20.00000000
vt 15.85000038 -32.70000076
vt 17.85000038 -30.70000076
vt 16.61536980 -32.54776001
vt 17.26420975 -32.11420822
vt -17.85000038 -30.70000076
vt -16.61536980 -32.54776001
vt -17.26420975 -32.11420822
vt -17.69775963 -31.46537018
vt 17.69775963 -31.46537018
vt -17.85000038 21.00000000
vt 17.85000038 21.00000000
vt -17.85000038 30.70000076
vt 17.85000038 30.70000076
vt -15.85000038 32.70000076
vt 15.85000038 32.70000076
vt 17.69775963 31.46537018
vt 17.26420975 32.11420822
vt 16.61536980 32.54776001
vt -16.61536980 32.54776001
vt -17.26420975 32.11420822
vt -17.69775963 31.46537018
vt 35.00000000 3.14159298
vt 34.70000076 3.14159298
vt 35.00000000 2.35619402
vt 34.70000076 2.35619402
vt 35.00000000 1.57079601
vt 34.70000076 1.57079601
vt 35.00000000 0.78539801
vt 34.70000076 0.78539801
vt 35.00000000 0.00000000
vt 34.70000076 0.00000000
vt -35.00000000 0.00000000
vt -34.70000076 0.00000000
vt -35.00000000 0.78539801
vt -34.70000076 0.78539801
vt -35.00000000 1.57079601
vt -34.70000076 1.57079601
vt -35.00000000 2.35619402
vt -34.70000076 2.35619402
vt -35.00000000 3.14159298
vt -34.70000076 3.14159298
vt 0.00000000 34.70000076
vt 31.70000076 34.70000076
vt 0.00000000 35.00000000
vt 31.70000076 35.00000000
vt 35.00000000 3.14159298
vt 34.70000076 3.14159298
vt 35.00000000 2.35619402
vt 34.70000076 2.35619402
vt 35.00000000 1.57079601
vt 34.70000076 1.57079601
vt 35.00000000 0.78539801
vt 34.70000076 0.78539801
vt 35.00000000 0.00000000
vt 34.70000076 0.00000000
vt -35.00000000 0.00000000
vt -34.70000076 0.00000000
vt -35.00000000 0.78539801
vt -34.70000076 0.78539801
vt -35.00000000 1.57079601
vt -34.70000076 1.57079601
vt -35.00000000 2.35619402
vt -34.70000076 2.35619402
vt -35.00000000 3.14159298
vt -34.70000076 3.14159298
vt 31.70000076 -34.70000076
vt 0.00000000 -34.70000076
vt 31.70000076 -35.00000000
vt 0.00000000 -35.00000000
vt 35.00000000 3.14159298
vt 34.70000076 3.14159298
vt 35.00000000 2.35619402
vt 34.70000076 2.35619402
vt 35.00000000 1.57079601
vt 34.70000076 1.57079601
vt 35.00000000 0.78539801
vt 34.70000076 0.78539801
vt 35.00000000 0.00000000
vt 34.70000076 0.00000000
vt -35.00000000 0.00000000
vt -34.70000076 0.00000000
vt -35.00000000 0.78539801
vt -34.70000076 0.78539801
vt -35.00000000 1.57079601
vt -34.70000076 1.57079601
vt -35.00000000 2.35619402
vt -34.70000076 2.35619402
vt -35.00000000 3.14159298
vt -34.70000076 3.14159298
vt 0.00000000 34.70000076
vt 31.70000076 34.70000076
vt 0.00000000 35.00000000
vt 31.70000076 35.00000000
vt -35.00000000 0.00000000
vt -34.70000076 0.00000000
vt -35.00000000 0.78539801
vt -34.70000076 0.78539801
vt -35.00000000 1.57079601
vt -34.70000076 1.57079601
vt -35.00000000 2.35619402
vt -34.70000076 2.35619402
vt -35.00000000 3.14159298
vt -34.70000076 3.14159298
vt 35.00000000 3.14159298
vt 34.70000076 3.14159298
vt 35.00000000 2.35619402
vt 34.70000076 2.35619402
vt 35.00000000 1.57079601
vt 34.70000076 1.57079601
vt 35.00000000 0.78539801
vt 34.70000076 0.78539801
vt 35.00000000 0.00000000
vt 34.70000076 0.00000000
vt 31.70000076 -34.70000076
vt 0.00000000 -34.70000076
vt 31.70000076 -35.00000000
vt 0.00000000 -35.00000000
vt 61.40000153 2.00000000
vt 61.24776077 1.23463297
vt 61.40000153 0.00000000
vt 60.81420898 0.58578598
vt 60.16537094 0.15224101
vt 59.40000153 0.00000000
vt 59.40000153 35.70000076
vt 60.16537094 35.54776001
vt 61.40000153 35.70000076
vt 60.81420898 35.11420822
vt 61.24776077 34.46537018
vt 61.40000153 33.70000076
vt 4.00000000 0.00000000
vt 3.23463297 0.15224101
vt 2.00000000 0.00000000
vt 2.58578610 0.58578598
vt 2.15224099 1.23463297
vt 2.00000000 2.00000000
vt 61.40000153 2.00000000
vt 61.24776077 1.23463297
vt 61.40000153 0.00000000
vt 60.81420898 0.58578598
vt 60.16537094 0.15224101
vt 59.40000153 0.00000000
vt 4.00000000 0.00000000
vt 3.23463297 0.15224101
vt 2.00000000 0.00000000
vt 2.58578610 0.58578598
vt 2.15224099 1.23463297
vt 2.00000000 2.00000000
vt 2.00000000 33.70000076
vt 2.15224099 34.46537018
vt 2.00000000 35.70000076
vt 2.58578610 35.11420822
vt 3.23463297 35.54776001
vt 4.00000000 35.70000076
vt 59.40000153 35.70000076
vt 60.16537094 35.54776001
vt 61.40000153 35.70000076
vt 60.81420898 35.11420822
vt 61.24776077 34.46537018
vt 61.40000153 33.70000076
vt -32.00000000 0.00000000
vt -31.70000076 0.00000000
vt -32.00000000 0.78539801
vt -31.70000076 0.78539801
vt -32.00000000 1.57079601
vt -31.70000076 1.57079601
vt -32.00000000 2.35619402
vt -31.70000076 2.35619402
vt -32.00000000 3.14159298
vt -31.70000076 3.14159298
vt 32.00000000 3.14159298
vt 31.70000076 3.14159298
vt 32.00000000 2.35619402
vt 31.70000076 2.35619402
vt 32.00000000 1.57079601
vt 31.70000076 1.57079601
vt 32.00000000 0.78539801
vt 31.70000076 0.78539801
vt 32.00000000 0.00000000
vt 31.70000076 0.00000000
vt 0.00000000 31.70000076
vt 31.70000076 31.70000076
vt 0.00000000 32.00000000
vt 31.70000076 32.00000000
vt 31.70000076 -31.70000076
vt 0.00000000 -31.70000076
vt 31.70000076 -32.00000000
vt 0.00000000 -32.00000000
vt 9.69999981 32.00000000
vt 0.00000000 32.00000000
vt 9.69999981 31.97999954
vt 0.00000000 31.70000076
vt 10.69999981 31.97999954
vt 61.40000153 31.70000076
vt 61.40000153 32.00000000
vt 10.69999981 32.00000000
vt -32.00000000 0.00000000
vt -31.70000076 0.00000000
vt -32.00000000 0.78539801
vt -31.70000076 0.78539801
vt -32.00000000 1.57079601
vt -31.70000076 1.57079601
vt -32.00000000 2.35619402
vt -31.70000076 2.35619402
vt -32.00000000 3.14159298
vt -31.70000076 3.14159298
vt 32.00000000 3.14159298
vt 31.70000076 3.14159298
vt 32.00000000 2.35619402
vt 31.70000076 2.35619402
vt 32.00000000 1.57079601
vt 31.70000076 1.57079601
vt 32.00000000 0.78539801
vt 31.70000076 0.78539801
vt 32.00000000 0.00000000
vt 31.70000076 0.00000000
vt -32.00000000 0.00000000
vt -31.70000076 0.00000000
vt -32.00000000 0.78539801
vt -31.70000076 0.78539801
vt -32.00000000 1.57079601
vt -31.70000076 1.57079601
vt -32.00000000 2.35619402
vt -31.70000076 2.35619402
vt -32.00000000 3.14159298
vt -31.70000076 3.14159298
vt 0.00000000 31.70000076
vt 31.70000076 31.70000076
vt 0.00000000 32.00000000
vt 31.70000076 32.00000000
vt -32.00000000 0.00000000
vt -31.70000076 0.00000000
vt -32.00000000 0.78539801
vt -31.70000076 0.78539801
vt -32.00000000 1.57079601
vt -31.70000076 1.57079601
vt -32.00000000 2.35619402
vt -31.70000076 2.35619402
vt -32.00000000 3.14159298
vt -31.70000076 3.14159298
vt 32.00000000 3.14159298
vt 31.70000076 3.14159298
vt 32.00000000 2.35619402
vt 31.70000076 2.35619402
vt 32.00000000 1.57079601
vt 31.70000076 1.57079601
vt 32.00000000 0.78539801
vt 31.70000076 0.78539801
vt 32.00000000 0.00000000
vt 31.70000076 0.00000000
vt 31.70000076 -31.70000076
vt 0.00000000 -31.70000076
vt 31.70000076 -32.00000000
vt 0.00000000 -32.00000000
vt 32.00000000 3.14159298
vt 31.70000076 3.14159298
vt 32.00000000 2.35619402
vt 31.70000076 2.35619402
vt 32.00000000 1.57079601
vt 31.70000076 1.57079601
vt 32.00000000 0.78539801
vt 31.70000076 0.78539801
vt 32.00000000 0.00000000
vt 31.70000076 0.00000000
vt 51.70000076 -32.00000000
vt 61.40000153 -32.00000000
vt 51.70000076 -31.97999954
vt 61.40000153 -31.70000076
vt 50.70000076 -31.97999954
vt 0.00000000 -31.70000076
vt 0.00000000 -32.00000000
vt 50.70000076 -32.00000000
vt 67.40000153 2.00000000
vt 67.24775696 1.23463297
vt 67.40000153 0.00000000
vt 66.81421661 0.58578598
vt 66.16536713 0.15224101
vt 65.40000153 0.00000000
vt 65.40000153 35.70000076
vt 66.16536713 35.54776001
vt 67.40000153 35.70000076
vt 66.81421661 35.11420822
vt 67.24775696 34.46537018
vt 67.40000153 33.70000076
vt 4.00000000 0.00000000
vt 3.23463297 0.15224101
vt 2.00000000 0.00000000
vt 2.58578610 0.58578598
vt 2.15224099 1.23463297
vt 2.00000000 2.00000000
vt 67.40000153 2.00000000
vt 67.24775696 1.23463297
vt 67.40000153 0.00000000
vt 66.81421661 0.58578598
vt 66.16536713 0.15224101
vt 65.40000153 0.00000000
vt 4.00000000 0.00000000
vt 3.23463297 0.15224101
vt 2.00000000 0.00000000
vt 2.58578610 0.58578598
vt 2.15224099 1.23463297
vt 2.00000000 2.00000000
vt 2.00000000 33.70000076
vt 2.15224099 34.46537018
vt 2.00000000 35.70000076
vt 2.58578610 35.11420822
vt 3.23463297 35.54776001
vt 4.00000000 35.70000076
vt -50.04999924 -1.57079601
vt 15.35000038 -1.57079601
vt -50.04999924 -0.78539801
vt 15.35000038 -0.78539801
vt -50.04999924 0.00000000
vt 15.35000038 0.00000000
vt -50.04999924 0.78539801
vt 15.35000038 0.78539801
vt -48.04999924 1.57079601
vt 13.35000038 1.57079601
vt 15.35000038 1.57079601
vt -50.04999924 1.57079601
vt -45.54999924 -1.57079601
vt 13.85000038 -1.57079601
vt -45.54999924 -0.78539801
vt 13.85000038 -0.78539801
vt -45.54999924 0.00000000
vt 13.85000038 0.00000000
vt -45.54999924 0.78539801
vt 13.85000038 0.78539801
vt -43.54999924 1.57079601
vt 11.85000038 1.57079601
vt 13.85000038 1.57079601
vt -45.54999924 1.57079601
vt -0.12951601 1.40689099
vt -0.84106898 1.74663305
vt -0.44556099 0.87331599
vt -1.12523496 0.92542797
vt -0.44556099 0.00000000
vt -1.23095906 0.00000000
vt -1.12523496 -0.92542797
vt -0.44556099 -0.87331599
vt -0.84106898 -1.74663305
vt -0.12951601 -1.40689099
vt 0.33983701 -0.87331599
vt 0.58568603 -1.08310795
vt 1.28229296 -0.67892301
vt 1.91063297 0.00000000
vt 1.12523496 0.00000000
vt 0.33983701 0.00000000
vt 1.28229296 0.67892301
vt 0.58568603 1.08310795
vt 0.33983701 0.87331599
vt -50.04999924 -1.57079601
vt 15.35000038 -1.57079601
vt -50.04999924 -0.78539801
vt 15.35000038 -0.78539801
vt -50.04999924 0.00000000
vt 15.35000038 0.00000000
vt -50.04999924 0.78539801
vt 15.35000038 0.78539801
vt -48.04999924 1.57079601
vt 13.35000038 1.57079601
vt 15.35000038 1.57079601
vt -50.04999924 1.57079601
vt 1.12523496 0.92542797
vt 0.84106898 1.74663305
vt 0.44556099 0.87331599
vt 0.12951601 1.40689099
vt -0.33983701 0.87331599
vt -0.58568603 1.08310795
vt -1.28229296 0.67892301
vt -1.91063297 0.00000000
vt -1.12523496 0.00000000
vt -0.33983701 0.00000000
vt 0.44556099 0.00000000
vt -1.28229296 -0.67892301
vt -0.33983701 -0.87331599
vt 0.44556099 -0.87331599
vt 1.12523496 -0.92542797
vt 1.23095906 0.00000000
vt -0.58568603 -1.08310795
vt 0.12951601 -1.40689099
vt 0.84106898 -1.74663305
vt -45.54999924 -1.57079601
vt 13.85000038 -1.57079601
vt -45.54999924 -0.78539801
vt 13.85000038 -0.78539801
vt -45.54999924 0.00000000
vt 13.85000038 0.00000000
vt -45.54999924 0.78539801
vt 13.85000038 0.78539801
vt -43.54999924 1.57079601
vt 11.85000038 1.57079601
vt 13.85000038 1.57079601
vt -45.54999924 1.57079601
vt 0.12951601 -1.40689099
vt 0.84106898 -1.74663305
vt 0.44556099 -0.87331599
vt 1.12523496 -0.92542797
vt 0.44556099 0.00000000
vt 1.23095906 0.00000000
vt 1.12523496 0.92542797
vt 0.44556099 0.87331599
vt 0.84106898 1.74663305
vt 0.12951601 1.40689099
vt -0.33983701 0.87331599
vt -0.58568603 1.08310795
vt -1.28229296 0.67892301
vt -1.91063297 0.00000000
vt -1.12523496 0.00000000
vt -0.33983701 0.00000000
vt -1.28229296 -0.67892301
vt -0.33983701 -0.87331599
vt -0.58568603 -1.08310795
vt -1.12523496 -0.92542797
vt -0.84106898 -1.74663305
vt -0.44556099 -0.87331599
vt -0.12951601 -1.40689099
vt 0.33983701 -0.87331599
vt 0.58568603 -1.08310795
vt 1.28229296 -0.67892301
vt 1.91063297 0.00000000
vt 1.12523496 0.00000000
vt 0.33983701 0.00000000
vt -0.44556099 0.00000000
vt 1.28229296 0.67892301
vt 0.58568603 1.08310795
vt 0.33983701 0.87331599
vt -0.44556099 0.87331599
vt -0.12951601 1.40689099
vt -0.84106898 1.74663305
vt -1.12523496 0.92542797
vt -1.23095906 0.00000000
vt -35.70000076 1.57079601
vt -35.70000076 0.78539801
vt -33.70000076 1.57079601
vt 0.00000000 0.78539801
vt -2.00000000 1.57079601
vt 0.00000000 1.57079601
vt 0.00000000 0.00000000
vt -35.70000076 0.00000000
vt 0.00000000 -0.78539801
vt -35.70000076 -0.78539801
vt -2.00000000 -1.57079601
vt -33.70000076 -1.57079601
vt -35.70000076 -1.57079601
vt 0.00000000 -1.57079601
vt 2.00000000 33.70000076
vt 2.15224099 34.46537018
vt 2.00000000 35.70000076
vt 2.58578610 35.11420822
vt 3.23463297 35.54776001
vt 4.00000000 35.70000076
vt -35.70000076 1.57079601
vt -35.70000076 0.78539801
vt -33.70000076 1.57079601
vt 0.00000000 0.78539801
vt -2.00000000 1.57079601
vt 0.00000000 1.57079601
vt 0.00000000 0.00000000
vt -35.70000076 0.00000000
vt 0.00000000 -0.78539801
vt -35.70000076 -0.78539801
vt -2.00000000 -1.57079601
vt -33.70000076 -1.57079601
vt -35.70000076 -1.57079601
vt 0.00000000 -1.57079601
vt 21.02819061 -0.69708502
vt 32.70000076 -29.70000076
vt 21.20000076 0.00000000
vt 32.70000076 29.70000076
vt 21.02819061 0.69708502
vt 20.55209923 1.23447597
vt 19.88080978 1.48906302
vt 19.16809082 1.40252399
vt -32.70000076 29.70000076
vt 18.57723045 0.99468398
vt 18.24358940 0.35897401
vt -32.70000076 -29.70000076
vt 18.24358940 -0.35897401
vt 18.57723045 -0.99468398
vt 19.16809082 -1.40252399
vt 19.88080978 -1.48906302
vt 20.55209923 -1.23447597
vt -35.70000076 1.57079601
vt -35.70000076 0.78539801
vt -33.70000076 1.57079601
vt 0.00000000 0.78539801
vt -2.00000000 1.57079601
vt 0.00000000 1.57079601
vt 0.00000000 0.00000000
vt -35.70000076 0.00000000
vt 0.00000000 -0.78539801
vt -35.70000076 -0.78539801
vt -2.00000000 -1.57079601
vt -33.70000076 -1.57079601
vt -35.70000076 -1.57079601
vt 0.00000000 -1.57079601
vt 65.40000153 35.70000076
vt 66.16536713 35.54776001
vt 67.40000153 35.70000076
vt 66.81421661 35.11420822
vt 67.24775696 34.46537018
vt 67.40000153 33.70000076
vt -35.70000076 1.57079601
vt -35.70000076 0.78539801
vt -33.70000076 1.57079601
vt 0.00000000 0.78539801
vt -2.00000000 1.57079601
vt 0.00000000 1.57079601
vt 0.00000000 0.00000000
vt -35.70000076 0.00000000
vt 0.00000000 -0.78539801
vt -35.70000076 -0.78539801
vt -2.00000000 -1.57079601
vt -33.70000076 -1.57079601
vt -35.70000076 -1.57079601
vt 0.00000000 -1.57079601
vt 2.00000000 33.70000076
vt 2.15224099 34.46537018
vt 2.00000000 35.70000076
vt 2.58578610 35.11420822
vt 3.23463297 35.54776001
vt 4.00000000 35.70000076
f 1/1 2/2 3/3
f 3/3 2/2 4/4
f 5/5 6/6 7/7
f 7/7 6/6 8/8
f 9/9 10/10 11/11
f 11/11 10/10 12/12
f 11/11 12/12 13/13
f 13/13 12/12 14/14
f 14/14 12/12 15/15
f 14/14 15/15 16/16
f 16/16 17/17 14/14
f 18/18 19/19 13/13
f 13/13 19/19 20/20
f 13/13 20/20 11/11
f 21/21 22/22 23/23
f 23/23 22/22 24/24
f 23/23 24/24 25/25
f 25/25 24/24 26/26
f 25/25 26/26 27/27
f 27/27 26/26 28/28
f 28/28 26/26 29/29
f 23/23 30/30 21/21
f 21/21 30/30 31/31
f 21/21 31/31 32/32
f 33/33 34/34 35/35
f 35/35 34/34 36/36
f 36/36 34/34 37/37
f 37/37 34/34 38/38
f 37/37 38/38 39/39
f 39/39 38/38 40/40
f 41/41 42/42 43/43
f 43/43 42/42 44/44
f 45/45 46/46 47/47
f 47/47 46/46 48/48
f 49/49 50/50 51/51
f 51/51 50/50 52/52
f 51/51 52/52 53/53
f 53/53 52/52 54/54
f 53/53 54/54 55/55
f 55/55 54/54 56/56
f 56/56 54/54 57/57
f 51/51 58/58 49/49
f 49/49 58/58 59/59
f 49/49 59/59 60/60
f 61/61 62/62 63/63
f 63/63 62/62 64/64
f 63/63 64/64 65/65
f 65/65 64/64 66/66
f 66/66 64/64 67/67
f 66/66 67/67 68/68
f 68/68 69/69 66/66
f 70/70 71/71 65/65
f 65/65 71/71 72/72
f 65/65 72/72 63/63
f 73/73 74/74 75/75
f 75/75 74/74 76/76
f 75/75 76/76 77/77
f 77/77 76/76 78/78
f 78/78 76/76 79/79
f 78/78 79/79 80/80
f 80/80 79/79 81/81
f 80/80 81/81 82/82
f 83/83 84/84 73/73
f 73/73 84/84 85/85
f 73/73 85/85 86/86
f 86/86 85/85 87/87
f 86/86 87/87 88/88
f 83/83 89/89 84/84
f 84/84 89/89 90/90
f 90/90 89/89 91/91
f 90/90 91/91 92/92
f 92/92 91/91 93/93
f 92/92 93/93 94/94
f 94/94 93/93 95/95
f 94/94 95/95 96/96
f 96/96 95/95 97/97
f 96/96 97/97 82/82
f 82/82 97/97 98/98
f 82/82 98/98 99/99
f 99/99 80/80 82/82
f 100/100 101/101 74/74
f 74/74 101/101 102/102
f 74/74 102/102 76/76
f 76/76 102/102 103/103
f 103/103 102/102 104/104
f 103/103 104/104 105/105
f 102/102 106/106 104/104
f 104/104 106/106 107/107
f 107/107 106/106 108/108
f 107/107 108/108 109/109
f 109/109 110/110 107/107
f 105/105 111/111 103/103
f 112/112 113/113 76/76
f 76/76 113/113 79/79
f 114/114 115/115 79/79
f 79/79 115/115 116/116
f 79/79 116/116 81/81
f 81/81 116/116 117/117
f 81/81 117/117 118/118
f 119/119 120/120 114/114
f 114/114 120/120 121/121
f 114/114 121/121 115/115
f 90/90 92/92 122/122
f 122/122 92/92 123/123
f 122/122 123/123 124/124
f 124/124 123/123 125/125
f 124/124 125/125 126/126
f 126/126 127/127 124/124
f 122/122 128/128 90/90
f 90/90 128/128 129/129
f 130/130 131/131 84/84
f 84/84 131/131 85/85
f 87/87 85/85 132/132
f 132/132 85/85 133/133
f 132/132 133/133 134/134
f 134/134 133/133 135/135
f 135/135 133/133 136/136
f 88/88 137/137 86/86
f 86/86 74/74 73/73
f 138/138 139/139 140/140
f 140/140 139/139 141/141
f 142/142 143/143 144/144
f 144/144 143/143 145/145
f 146/146 147/147 148/148
f 148/148 147/147 149/149
f 148/148 149/149 150/150
f 150/150 149/149 151/151
f 151/151 149/149 152/152
f 151/151 152/152 153/153
f 153/153 154/154 151/151
f 155/155 156/156 150/150
f 150/150 156/156 157/157
f 150/150 157/157 148/148
f 158/158 159/159 160/160
f 160/160 159/159 161/161
f 160/160 161/161 162/162
f 162/162 161/161 163/163
f 162/162 163/163 164/164
f 158/158 165/165 159/159
f 159/159 165/165 166/166
f 166/166 165/165 167/167
f 167/167 165/165 168/168
f 164/164 169/169 162/162
f 170/170 171/171 172/172
f 172/172 171/171 173/173
f 173/173 171/171 174/174
f 174/174 171/171 175/175
f 174/174 175/175 176/176
f 176/176 175/175 177/177
f 178/178 179/179 180/180
f 180/180 179/179 181/181
f 182/182 183/183 184/184
f 184/184 183/183 185/185
f 186/186 187/187 188/188
f 188/188 187/187 189/189
f 188/188 189/189 190/190
f 190/190 189/189 191/191
f 190/190 191/191 192/192
f 186/186 193/193 187/187
f 187/187 193/193 194/194
f 194/194 193/193 195/195
f 195/195 193/193 196/196
f 192/192 197/197 190/190
f 198/198 199/199 200/200
f 200/200 199/199 201/201
f 200/200 201/201 202/202
f 202/202 201/201 203/203
f 203/203 201/201 204/204
f 203/203 204/204 205/205
f 205/205 206/206 203/203
f 207/207 208/208 202/202
f 202/202 208/208 209/209
f 202/202 209/209 200/200
f 210/210 211/211 212/212
f 212/212 211/211 213/213
f 212/212 213/213 214/214
f 214/214 213/213 215/215
f 214/214 215/215 216/216
f 216/216 215/215 217/217
f 216/216 217/217 218/218
f 218/218 217/217 219/219
f 220/220 221/221 222/222
f 222/222 221/221 223/223
f 222/222 223/223 224/224
f 224/224 223/223 225/225
f 224/224 225/225 226/226
f 226/226 225/225 227/227
f 226/226 227/227 228/228
f 228/228 227/227 229/229
f 230/230 231/231 232/232
f 232/232 231/231 233/233
f 234/234 235/235 236/236
f 236/236 235/235 237/237
f 236/236 237/237 238/238
f 238/238 237/237 239/239
f 238/238 239/239 240/240
f 240/240 239/239 241/241
f 240/240 241/241 242/242
f 242/242 241/241 243/243
f 244/244 245/245 246/246
f 246/246 245/245 247/247
f 246/246 247/247 248/248
f 248/248 247/247 249/249
f 248/248 249/249 250/250
f 250/250 249/249 251/251
f 250/250 251/251 252/252
f 252/252 251/251 253/253
f 254/254 255/255 256/256
f 256/256 255/255 257/257
f 258/258 259/259 260/260
f 260/260 259/259 261/261
f 260/260 261/261 262/262
f 262/262 261/261 263/263
f 262/262 263/263 264/264
f 264/264 263/263 265/265
f 264/264 265/265 266/266
f 266/266 265/265 267/267
f 268/268 269/269 270/270
f 270/270 269/269 271/271
f 270/270 271/271 272/272
f 272/272 271/271 273/273
f 272/272 273/273 274/274
f 274/274 273/273 275/275
f 274/274 275/275 276/276
f 276/276 275/275 277/277
f 278/278 279/279 280/280
f 280/280 279/279 281/281
f 282/282 283/283 284/284
f 284/284 283/283 285/285
f 284/284 285/285 286/286
f 286/286 285/285 287/287
f 286/286 287/287 288/288
f 288/288 287/287 289/289
f 288/288 289/289 290/290
f 290/290 289/289 291/291
f 292/292 293/293 294/294
f 294/294 293/293 295/295
f 294/294 295/295 296/296
f 296/296 295/295 297/297
f 296/296 297/297 298/298
f 298/298 297/297 299/299
f 298/298 299/299 300/300
f 300/300 299/299 301/301
f 302/302 303/303 304/304
f 304/304 303/303 305/305
f 306/306 307/307 308/308
f 308/308 307/307 309/309
f 308/308 309/309 310/310
f 310/310 311/311 308/308
f 312/312 313/313 314/314
f 314/314 313/313 315/315
f 314/314 315/315 316/316
f 316/316 317/317 314/314
f 318/318 319/319 320/320
f 320/320 319/319 321/321
f 320/320 321/321 322/322
f 322/322 323/323 320/320
f 324/324 325/325 326/326
f 326/326 325/325 327/327
f 326/326 327/327 328/328
f 328/328 329/329 326/326
f 330/330 331/331 332/332
f 332/332 331/331 333/333
f 332/332 333/333 334/334
f 334/334 335/335 332/332
f 336/336 337/337 338/338
f 338/338 337/337 339/339
f 338/338 339/339 340/340
f 340/340 341/341 338/338
f 342/342 343/343 344/344
f 344/344 343/343 345/345
f 344/344 345/345 346/346
f 346/346 347/347 344/344
f 348/348 349/349 350/350
f 350/350 349/349 351/351
f 350/350 351/351 352/352
f 352/352 351/351 353/353
f 352/352 353/353 354/354
f 354/354 353/353 355/355
f 354/354 355/355 356/356
f 356/356 355/355 357/357
f 358/358 359/359 360/360
f 360/360 359/359 361/361
f 360/360 361/361 362/362
f 362/362 361/361 363/363
f 362/362 363/363 364/364
f 364/364 363/363 365/365
f 364/364 365/365 366/366
f 366/366 365/365 367/367
f 368/368 369/369 370/370
f 370/370 369/369 371/371
f 372/372 373/373 374/374
f 374/374 373/373 375/375
f 376/376 377/377 378/378
f 378/378 377/377 379/379
f 378/378 379/379 380/380
f 380/380 379/379 381/381
f 380/380 381/381 382/382
f 382/382 383/383 380/380
f 384/384 385/385 386/386
f 386/386 385/385 387/387
f 386/386 387/387 388/388
f 388/388 387/387 389/389
f 388/388 389/389 390/390
f 390/390 389/389 391/391
f 390/390 391/391 392/392
f 392/392 391/391 393/393
f 394/394 395/395 396/396
f 396/396 395/395 397/397
f 396/396 397/397 398/398
f 398/398 397/397 399/399
f 398/398 399/399 400/400
f 400/400 399/399 401/401
f 400/400 401/401 402/402
f 402/402 401/401 403/403
f 404/404 405/405 406/406
f 406/406 405/405 407/407
f 406/406 407/407 408/408
f 408/408 407/407 409/409
f 408/408 409/409 410/410
f 410/410 409/409 411/411
f 410/410 411/411 412/412
f 412/412 411/411 413/413
f 414/414 415/415 416/416
f 416/416 415/415 417/417
f 418/418 419/419 420/420
f 420/420 419/419 421/421
f 420/420 421/421 422/422
f 422/422 421/421 423/423
f 422/422 423/423 424/424
f 424/424 423/423 425/425
f 424/424 425/425 426/426
f 426/426 425/425 427/427
f 428/428 429/429 430/430
f 430/430 429/429 431/431
f 430/430 431/431 432/432
f 432/432 431/431 433/433
f 432/432 433/433 434/434
f 434/434 433/433 435/435
f 434/434 435/435 436/436
f 436/436 435/435 437/437
f 438/438 439/439 440/440
f 440/440 439/439 441/441
f 442/442 443/443 444/444
f 444/444 443/443 445/445
f 444/444 445/445 446/446
f 446/446 445/445 447/447
f 446/446 447/447 448/448
f 448/448 447/447 449/449
f 448/448 449/449 450/450
f 450/450 449/449 451/451
f 452/452 453/453 454/454
f 454/454 453/453 455/455
f 454/454 455/455 456/456
f 456/456 455/455 457/457
f 456/456 457/457 458/458
f 458/458 459/459 456/456
f 460/460 461/461 462/462
f 462/462 461/461 463/463
f 462/462 463/463 464/464
f 464/464 465/465 462/462
f 466/466 467/467 468/468
f 468/468 467/467 469/469
f 468/468 469/469 470/470
f 470/470 471/471 468/468
f 472/472 473/473 474/474
f 474/474 473/473 475/475
f 474/474 475/475 476/476
f 476/476 477/477 474/474
f 478/478 479/479 480/480
f 480/480 479/479 481/481
f 480/480 481/481 482/482
f 482/482 483/483 480/480
f 484/484 485/485 486/486
f 486/486 485/485 487/487
f 486/486 487/487 488/488
f 488/488 489/489 486/486
f 490/490 491/491 492/492
f 492/492 491/491 493/493
f 492/492 493/493 494/494
f 494/494 495/495 492/492
f 496/496 497/497 498/498
f 498/498 497/497 499/499
f 498/498 499/499 500/500
f 500/500 499/499 501/501
f 500/500 501/501 502/502
f 502/502 501/501 503/503
f 502/502 503/503 504/504
f 504/504 503/503 505/505
f 505/505 503/503 506/506
f 504/504 507/507 502/502
f 508/508 509/509 510/510
f 510/510 509/509 511/511
f 510/510 511/511 512/512
f 512/512 511/511 513/513
f 512/512 513/513 514/514
f 514/514 513/513 515/515
f 514/514 515/515 516/516
f 516/516 515/515 517/517
f 517/517 515/515 518/518
f 516/516 519/519 514/514
f 520/520 521/521 522/522
f 522/522 521/521 523/523
f 522/522 523/523 524/524
f 524/524 523/523 525/525
f 524/524 525/525 526/526
f 524/524 526/526 527/527
f 527/527 526/526 528/528
f 527/527 528/528 529/529
f 527/527 529/529 530/530
f 530/530 529/529 531/531
f 530/530 531/531 532/532
f 533/533 534/534 532/532
f 532/532 534/534 535/535
f 532/532 535/535 530/530
f 530/530 535/535 524/524
f 530/530 524/524 527/527
f 533/533 536/536 534/534
f 534/534 536/536 537/537
f 534/534 537/537 535/535
f 535/535 537/537 538/538
f 535/535 538/538 522/522
f 522/522 538/538 520/520
f 537/537 520/520 538/538
f 524/524 535/535 522/522
f 539/539 540/540 541/541
f 541/541 540/540 542/542
f 541/541 542/542 543/543
f 543/543 542/542 544/544
f 543/543 544/544 545/545
f 545/545 544/544 546/546
f 545/545 546/546 547/547
f 547/547 546/546 548/548
f 548/548 546/546 549/549
f 547/547 550/550 545/545
f 551/551 552/552 553/553
f 553/553 552/552 554/554
f 553/553 554/554 555/555
f 555/555 554/554 556/556
f 555/555 556/556 557/557
f 558/558 559/559 557/557
f 557/557 559/559 560/560
f 557/557 560/560 555/555
f 555/555 560/560 561/561
f 555/555 561/561 553/553
f 553/553 561/561 551/551
f 558/558 562/562 559/559
f 559/559 562/562 563/563
f 559/559 563/563 560/560
f 560/560 563/563 564/564
f 560/560 564/564 561/561
f 561/561 564/564 565/565
f 561/561 565/565 566/566
f 562/562 567/567 563/563
f 563/563 567/567 568/568
f 563/563 568/568 564/564
f 564/564 568/568 569/569
f 564/564 569/569 565/565
f 566/566 551/551 561/561
f 570/570 571/571 572/572
f 572/572 571/571 573/573
f 572/572 573/573 574/574
f 574/574 573/573 575/575
f 574/574 575/575 576/576
f 576/576 575/575 577/577
f 576/576 577/577 578/578
f 578/578 577/577 579/579
f 579/579 577/577 580/580
f 578/578 581/581 576/576
f 582/582 583/583 584/584
f 584/584 583/583 585/585
f 584/584 585/585 586/586
f 586/586 585/585 587/587
f 586/586 587/587 588/588
f 586/586 588/588 589/589
f 589/589 588/588 590/590
f 589/589 590/590 591/591
f 589/589 591/591 592/592
f 592/592 591/591 593/593
f 592/592 593/593 594/594
f 595/595 596/596 594/594
f 594/594 596/596 597/597
f 594/594 597/597 592/592
f 592/592 597/597 586/586
f 592/592 586/586 589/589
f 595/595 598/598 596/596
f 596/596 598/598 599/599
f 596/596 599/599 597/597
f 597/597 599/599 584/584
f 597/597 584/584 586/586
f 598/598 600/600 599/599
f 599/599 600/600 582/582
f 599/599 582/582 584/584
f 601/601 602/602 603/603
f 603/603 602/602 604/604
f 603/603 604/604 605/605
f 605/605 604/604 606/606
f 605/605 606/606 607/607
f 608/608 609/609 607/607
f 607/607 609/609 610/610
f 607/607 610/610 605/605
f 605/605 610/610 611/611
f 605/605 611/611 603/603
f 603/603 611/611 601/601
f 608/608 612/612 609/609
f 609/609 612/612 613/613
f 609/609 613/613 610/610
f 610/610 613/613 614/614
f 610/610 614/614 615/615
f 615/615 614/614 616/616
f 615/615 616/616 617/617
f 613/613 616/616 614/614
f 617/617 618/618 615/615
f 615/615 618/618 611/611
f 615/615 611/611 610/610
f 618/618 619/619 611/611
f 611/611 619/619 601/601
f 620/620 621/621 622/622
f 622/622 621/621 623/623
f 622/622 623/623 624/624
f 624/624 623/623 625/625
f 623/623 621/621 626/626
f 626/626 621/621 627/627
f 626/626 627/627 628/628
f 628/628 627/627 629/629
f 628/628 629/629 630/630
f 630/630 629/629 631/631
f 631/631 629/629 632/632
f 630/630 633/633 628/628
f 634/634 635/635 636/636
f 636/636 635/635 637/637
f 636/636 637/637 638/638
f 638/638 639/639 636/636
f 640/640 641/641 642/642
f 642/642 641/641 643/643
f 642/642 643/643 644/644
f 644/644 643/643 645/645
f 643/643 641/641 646/646
f 646/646 641/641 647/647
f 646/646 647/647 648/648
f 648/648 647/647 649/649
f 648/648 649/649 650/650
f 650/650 649/649 651/651
f 651/651 649/649 652/652
f 650/650 653/653 648/648
f 654/654 655/655 656/656
f 656/656 655/655 657/657
f 656/656 657/657 658/658
f 658/658 657/657 659/659
f 659/659 657/657 660/660
f 660/660 657/657 661/661
f 661/661 657/657 662/662
f 661/661 662/662 663/663
f 663/663 662/662 664/664
f 664/664 662/662 665/665
f 664/664 665/665 666/666
f 666/666 665/665 667/667
f 667/667 665/665 668/668
f 668/668 665/665 655/655
f 668/668 655/655 669/669
f 669/669 655/655 670/670
f 670/670 655/655 654/654
f 671/671 672/672 673/673
f 673/673 672/672 674/674
f 673/673 674/674 675/675
f 675/675 674/674 676/676
f 674/674 672/672 677/677
f 677/677 672/672 678/678
f 677/677 678/678 679/679
f 679/679 678/678 680/680
f 679/679 680/680 681/681
f 681/681 680/680 682/682
f 682/682 680/680 683/683
f 681/681 684/684 679/679
f 685/685 686/686 687/687
f 687/687 686/686 688/688
f 687/687 688/688 689/689
f 689/689 690/690 687/687
f 691/691 692/692 693/693
f 693/693 692/692 694/694
f 693/693 694/694 695/695
f 695/695 694/694 696/696
f 694/694 692/692 697/697
f 697/697 692/692 698/698
f 697/697 698/698 699/699
f 699/699 698/698 700/700
f 699/699 700/700 701/701
f 701/701 700/700 702/702
f 702/702 700/700 703/703
f 701/701 704/704 699/699
f 705/705 706/706 707/707
f 707/707 706/706 708/708
f 707/707 708/708 709/709
f 709/709 710/710 707/707

