mtllib material.mtl
usemtl material_cabinet_ac_2
v -3.49799980 -1.69999996 3.56999992
v -3.49799980 -1.69999996 0.00000000
v -3.49799980 -1.79999996 3.56999992
v -3.49799980 -1.79999996 0.00000000
v -2.09999995 3.19799981 0.00000000
v -2.09999995 3.19799981 3.56999992
v -1.99999996 3.19799981 0.00000000
v -1.99999996 3.19799981 3.56999992
v 3.49799980 1.69999996 3.56999992
v 3.49799980 1.69999996 0.00000000
v 3.49799980 1.79999996 3.56999992
v 3.49799980 1.79999996 0.00000000
v 2.09999995 -3.19799981 0.00000000
v 2.09999995 -3.19799981 3.56999992
v 1.99999996 -3.19799981 0.00000000
v 1.99999996 -3.19799981 3.56999992
vt 17.85000038 0.50000000
vt -17.85000038 0.50000000
vt 17.85000038 -0.50000000
vt -17.85000038 -0.50000000
vt -17.85000038 -0.50000000
vt 17.85000038 -0.50000000
vt -17.85000038 0.50000000
vt 17.85000038 0.50000000
vt -17.85000038 -0.50000000
vt 17.85000038 -0.50000000
vt -17.85000038 0.50000000
vt 17.85000038 0.50000000
vt 17.85000038 0.50000000
vt -17.85000038 0.50000000
vt 17.85000038 -0.50000000
vt -17.85000038 -0.50000000
f 1/1 2/2 3/3
f 3/3 2/2 4/4
f 5/5 6/6 7/7
f 7/7 6/6 8/8
f 9/9 10/10 11/11
f 11/11 10/10 12/12
f 13/13 14/14 15/15
f 15/15 14/14 16/16

