# https://github.com/mikedh/trimesh
mtllib mtl_cabinet_ac

o EMROX_SF-KL_Manipulator_Simple-mesh
usemtl material_cabinet_ac_0
v 2.10281795 0.06970848 3.76999992
v 2.11564097 0.03589735 0.00000000
v 2.11999995 0.00000000 3.76999992
v 2.11999995 0.00000000 3.76999992
v 2.11564097 0.03589735 0.00000000
v 2.11564097 -0.03589735 0.00000000
v 2.10281795 -0.06970848 3.76999992
v 2.08227702 -0.09946841 0.00000000
v 2.05520991 -0.12344760 3.76999992
v 2.02319103 -0.14025240 0.00000000
v 1.98808101 -0.14890629 3.76999992
v 1.95191997 -0.14890629 0.00000000
v 1.91680889 -0.14025240 3.76999992
v 1.88479000 -0.12344760 0.00000000
v 1.85772289 -0.09946841 3.76999992
v 1.83718197 -0.06970848 0.00000000
v 1.82435894 -0.03589735 3.76999992
v 1.81999996 0.00000000 0.00000000
v 1.82435894 0.03589735 3.76999992
v 1.83718197 0.06970848 0.00000000
v 1.85772289 0.09946841 3.76999992
v 1.88479000 0.12344760 0.00000000
v 1.91680889 0.14025240 3.76999992
v 1.95191997 0.14890629 0.00000000
v 1.98808101 0.14890629 3.76999992
v 2.02319103 0.14025240 0.00000000
v 2.05520991 0.12344760 3.76999992
v 2.08227702 0.09946841 0.00000000
vt 64.36512756 3.98740602
vt 102.06510162 4.34989786
vt 64.36512756 4.71238899
vt 64.36512756 -4.71238899
vt 102.06510162 -5.07488108
vt 102.06510162 -4.34989691
vt 64.36512756 -3.98740602
vt 102.06510162 -3.62491488
vt 64.36512756 -3.26242304
vt 102.06510162 -2.89993191
vt 64.36512756 -2.53744006
vt 102.06510162 -2.17494893
vt 64.36512756 -1.81245697
vt 102.06510162 -1.44996595
vt 64.36512756 -1.08747399
vt 102.06510162 -0.72498298
vt 64.36512756 -0.36249101
vt 102.06510162 0.00000000
vt 64.36512756 0.36249101
vt 102.06510162 0.72498298
vt 64.36512756 1.08747399
vt 102.06510162 1.44996595
vt 64.36512756 1.81245697
vt 102.06510162 2.17494893
vt 64.36512756 2.53744006
vt 102.06510162 2.89993191
vt 64.36512756 3.26242304
vt 102.06510162 3.62491488
f 1/1 2/2 3/3
f 4/4 5/5 6/6
f 4/4 6/6 7/7
f 7/7 6/6 8/8
f 7/7 8/8 9/9
f 9/9 8/8 10/10
f 9/9 10/10 11/11
f 11/11 10/10 12/12
f 11/11 12/12 13/13
f 13/13 12/12 14/14
f 13/13 14/14 15/15
f 15/15 14/14 16/16
f 15/15 16/16 17/17
f 17/17 16/16 18/18
f 17/17 18/18 19/19
f 19/19 18/18 20/20
f 19/19 20/20 21/21
f 21/21 20/20 22/22
f 21/21 22/22 23/23
f 23/23 22/22 24/24
f 23/23 24/24 25/25
f 25/25 24/24 26/26
f 25/25 26/26 27/27
f 27/27 26/26 28/28
f 27/27 28/28 1/1
f 1/1 28/28 2/2

o EMROX_SF-KL_Manipulator_Simple-mesh_1
usemtl material_cabinet_ac_1
v -3.49999992 -1.79999996 0.00000000
v -3.49999992 -1.79999996 3.56999992
v -3.49799980 -1.79999996 0.00000000
v -3.49799980 -1.79999996 3.56999992
v -3.49999992 -1.69999996 3.56999992
v -3.49999992 -1.69999996 0.00000000
v -3.49799980 -1.69999996 3.56999992
v -3.49799980 -1.69999996 0.00000000
v -3.49999992 -1.79999996 3.56999992
v -3.49999992 -1.79999996 0.00000000
v -3.49999992 -2.76999994 3.56999992
v -3.49999992 -2.76999994 0.00000000
v -3.49999992 -2.96999993 3.36999992
v -3.49999992 -2.96999993 0.20000000
v -3.49999992 -2.84653680 0.01522409
v -3.49999992 -2.91142205 0.05857865
v -3.49999992 -2.95477593 0.12346329
v -3.49999992 -2.95477593 3.44653679
v -3.49999992 -2.91142205 3.51142082
v -3.49999992 -2.84653680 3.55477592
v -3.49999992 2.76999994 0.00000000
v -3.49999992 -1.69999996 0.00000000
v -3.49999992 2.96999993 0.20000000
v -3.49999992 -1.69999996 3.56999992
v -3.49999992 2.96999993 3.36999992
v -3.49999992 2.76999994 3.56999992
v -3.49999992 2.95477593 3.44653679
v -3.49999992 2.91142205 3.51142082
v -3.49999992 2.84653680 3.55477592
v -3.49999992 2.95477593 0.12346329
v -3.49999992 2.91142205 0.05857865
v -3.49999992 2.84653680 0.01522409
v -3.49999992 -1.69999996 3.56999992
v -3.49799980 -1.69999996 3.56999992
v -3.49999992 2.76999994 3.56999992
v -3.46999992 2.76999994 3.56999992
v -3.46999992 -2.76999994 3.56999992
v -3.49799980 -1.79999996 3.56999992
v -3.49999992 -2.76999994 3.56999992
v -3.49999992 -1.79999996 3.56999992
v -2.09999995 3.19999993 0.00000000
v -2.09999995 3.19999993 3.56999992
v -2.09999995 3.19799981 0.00000000
v -2.09999995 3.19799981 3.56999992
v -1.99999996 3.19999993 3.56999992
v -1.99999996 3.19999993 0.00000000
v -1.99999996 3.19799981 3.56999992
v -1.99999996 3.19799981 0.00000000
v 3.06999993 3.19999993 0.00000000
v -1.99999996 3.19999993 0.00000000
v 3.26999993 3.19999993 0.20000000
v -1.99999996 3.19999993 3.56999992
v 3.26999993 3.19999993 3.36999992
v 3.06999993 3.19999993 3.56999992
v 3.25477593 3.19999993 3.44653679
v 3.21142083 3.19999993 3.51142082
v 3.14653679 3.19999993 3.55477592
v 3.25477593 3.19999993 0.12346329
v 3.21142083 3.19999993 0.05857865
v 3.14653679 3.19999993 0.01522409
v -2.09999995 3.19999993 3.56999992
v -2.09999995 3.19999993 0.00000000
v -3.06999993 3.19999993 3.56999992
v -3.06999993 3.19999993 0.00000000
v -3.26999993 3.19999993 3.36999992
v -3.26999993 3.19999993 0.20000000
v -3.14653679 3.19999993 0.01522409
v -3.21142083 3.19999993 0.05857865
v -3.25477593 3.19999993 0.12346329
v -3.25477593 3.19999993 3.44653679
v -3.21142083 3.19999993 3.51142082
v -3.14653679 3.19999993 3.55477592
v 1.83718197 -0.06970848 0.00000000
v -3.49799980 -1.69999996 0.00000000
v 1.81999996 0.00000000 0.00000000
v -1.99999996 3.19799981 0.00000000
v 1.83718197 0.06970848 0.00000000
v 1.88479000 0.12344760 0.00000000
v 3.06999993 3.16999993 0.00000000
v 1.95191997 0.14890629 0.00000000
v 3.49799980 1.79999996 0.00000000
v 3.49799980 1.69999996 0.00000000
v 1.88479000 -0.12344760 0.00000000
v 1.99999996 -3.19799981 0.00000000
v -3.06999993 -3.16999993 0.00000000
v -3.49799980 -1.79999996 0.00000000
v -3.46999992 -2.76999994 0.00000000
v -3.49999992 -2.76999994 0.00000000
v 1.95191997 -0.14890629 0.00000000
v 2.09999995 -3.19799981 0.00000000
v 2.02319103 -0.14025240 0.00000000
v 3.46999992 -2.76999994 0.00000000
v 2.08227702 -0.09946841 0.00000000
v 3.49999992 -2.76999994 0.00000000
v 2.11564097 -0.03589735 0.00000000
v 3.49999992 1.69999996 0.00000000
v 2.11564097 0.03589735 0.00000000
v 2.08227702 0.09946841 0.00000000
v 2.02319103 0.14025240 0.00000000
v -3.49999992 -1.69999996 0.00000000
v -3.49999992 2.76999994 0.00000000
v -3.46999992 2.76999994 0.00000000
v -2.09999995 3.19799981 0.00000000
v -3.06999993 3.16999993 0.00000000
v -3.06999993 3.19999993 0.00000000
v -3.46999992 2.96999993 0.00000000
v -3.26999993 3.16999993 0.00000000
v -3.45477592 3.04653680 0.00000000
v -3.41142082 3.11142205 0.00000000
v -3.34653679 3.15477593 0.00000000
v -2.09999995 3.19999993 0.00000000
v -1.99999996 3.19999993 0.00000000
v 3.06999993 3.19999993 0.00000000
v 3.26999993 3.16999993 0.00000000
v 3.46999992 2.96999993 0.00000000
v 3.46999992 2.76999994 0.00000000
v 3.49999992 2.76999994 0.00000000
v 3.49999992 1.79999996 0.00000000
v 3.34653679 3.15477593 0.00000000
v 3.41142082 3.11142205 0.00000000
v 3.45477592 3.04653680 0.00000000
v 3.06999993 -3.16999993 0.00000000
v 3.46999992 -2.96999993 0.00000000
v 3.26999993 -3.16999993 0.00000000
v 3.45477592 -3.04653680 0.00000000
v 3.41142082 -3.11142205 0.00000000
v 3.34653679 -3.15477593 0.00000000
v 3.06999993 -3.19999993 0.00000000
v 2.09999995 -3.19999993 0.00000000
v 1.99999996 -3.19999993 0.00000000
v -3.06999993 -3.19999993 0.00000000
v -3.46999992 -2.96999993 0.00000000
v -3.26999993 -3.16999993 0.00000000
v -3.45477592 -3.04653680 0.00000000
v -3.41142082 -3.11142205 0.00000000
v -3.34653679 -3.15477593 0.00000000
v -3.49999992 -1.79999996 0.00000000
v 3.49999992 1.79999996 0.00000000
v 3.49999992 1.79999996 3.56999992
v 3.49799980 1.79999996 0.00000000
v 3.49799980 1.79999996 3.56999992
v 3.49999992 1.69999996 3.56999992
v 3.49999992 1.69999996 0.00000000
v 3.49799980 1.69999996 3.56999992
v 3.49799980 1.69999996 0.00000000
v 3.49999992 1.79999996 3.56999992
v 3.49999992 1.79999996 0.00000000
v 3.49999992 2.76999994 3.56999992
v 3.49999992 2.76999994 0.00000000
v 3.49999992 2.96999993 3.36999992
v 3.49999992 2.96999993 0.20000000
v 3.49999992 2.84653680 0.01522409
v 3.49999992 2.91142205 0.05857865
v 3.49999992 2.95477593 0.12346329
v 3.49999992 2.95477593 3.44653679
v 3.49999992 2.91142205 3.51142082
v 3.49999992 2.84653680 3.55477592
v 3.49999992 1.69999996 3.56999992
v 3.49999992 -2.96999993 3.36999992
v 3.49999992 1.69999996 0.00000000
v 3.49999992 -2.96999993 0.20000000
v 3.49999992 -2.76999994 0.00000000
v 3.49999992 -2.95477593 0.12346329
v 3.49999992 -2.91142205 0.05857865
v 3.49999992 -2.76999994 3.56999992
v 3.49999992 -2.95477593 3.44653679
v 3.49999992 -2.91142205 3.51142082
v 3.49999992 -2.84653680 3.55477592
v 3.49999992 -2.84653680 0.01522409
v 3.49999992 1.69999996 3.56999992
v 3.49799980 1.69999996 3.56999992
v 3.49999992 -2.76999994 3.56999992
v 3.46999992 -2.76999994 3.56999992
v 3.46999992 2.76999994 3.56999992
v 3.49799980 1.79999996 3.56999992
v 3.49999992 2.76999994 3.56999992
v 3.49999992 1.79999996 3.56999992
v 2.09999995 -3.19999993 0.00000000
v 2.09999995 -3.19999993 3.56999992
v 2.09999995 -3.19799981 0.00000000
v 2.09999995 -3.19799981 3.56999992
v 1.99999996 -3.19999993 3.56999992
v 1.99999996 -3.19999993 0.00000000
v 1.99999996 -3.19799981 3.56999992
v 1.99999996 -3.19799981 0.00000000
v 1.99999996 -3.19999993 3.56999992
v -3.26999993 -3.19999993 3.36999992
v 1.99999996 -3.19999993 0.00000000
v -3.26999993 -3.19999993 0.20000000
v -3.06999993 -3.19999993 0.00000000
v -3.25477593 -3.19999993 0.12346329
v -3.21142083 -3.19999993 0.05857865
v -3.06999993 -3.19999993 3.56999992
v -3.25477593 -3.19999993 3.44653679
v -3.21142083 -3.19999993 3.51142082
v -3.14653679 -3.19999993 3.55477592
v -3.14653679 -3.19999993 0.01522409
v 2.09999995 -3.19999993 3.56999992
v 2.09999995 -3.19999993 0.00000000
v 3.06999993 -3.19999993 3.56999992
v 3.06999993 -3.19999993 0.00000000
v 3.26999993 -3.19999993 3.36999992
v 3.26999993 -3.19999993 0.20000000
v 3.14653679 -3.19999993 0.01522409
v 3.21142083 -3.19999993 0.05857865
v 3.25477593 -3.19999993 0.12346329
v 3.25477593 -3.19999993 3.44653679
v 3.21142083 -3.19999993 3.51142082
v 3.14653679 -3.19999993 3.55477592
v -3.49999992 -2.96999993 3.36999992
v -3.46999992 -2.96999993 3.36999992
v -3.49999992 -2.95477593 3.44653679
v -3.46999992 -2.95477593 3.44653679
v -3.49999992 -2.91142205 3.51142082
v -3.46999992 -2.91142205 3.51142082
v -3.49999992 -2.84653680 3.55477592
v -3.46999992 -2.84653680 3.55477592
v -3.49999992 -2.76999994 3.56999992
v -3.46999992 -2.76999994 3.56999992
v 3.49999992 -2.76999994 3.56999992
v 3.46999992 -2.76999994 3.56999992
v 3.49999992 -2.84653680 3.55477592
v 3.46999992 -2.84653680 3.55477592
v 3.49999992 -2.91142205 3.51142082
v 3.46999992 -2.91142205 3.51142082
v 3.49999992 -2.95477593 3.44653679
v 3.46999992 -2.95477593 3.44653679
v 3.49999992 -2.96999993 3.36999992
v 3.46999992 -2.96999993 3.36999992
v 3.46999992 -2.96999993 3.36999992
v 3.46999992 -2.96999993 0.20000000
v 3.49999992 -2.96999993 3.36999992
v 3.49999992 -2.96999993 0.20000000
v -3.49999992 2.76999994 3.56999992
v -3.46999992 2.76999994 3.56999992
v -3.49999992 2.84653680 3.55477592
v -3.46999992 2.84653680 3.55477592
v -3.49999992 2.91142205 3.51142082
v -3.46999992 2.91142205 3.51142082
v -3.49999992 2.95477593 3.44653679
v -3.46999992 2.95477593 3.44653679
v -3.49999992 2.96999993 3.36999992
v -3.46999992 2.96999993 3.36999992
v 3.49999992 -2.96999993 0.20000000
v 3.46999992 -2.96999993 0.20000000
v 3.49999992 -2.95477593 0.12346329
v 3.46999992 -2.95477593 0.12346329
v 3.49999992 -2.91142205 0.05857865
v 3.46999992 -2.91142205 0.05857865
v 3.49999992 -2.84653680 0.01522409
v 3.46999992 -2.84653680 0.01522409
v 3.49999992 -2.76999994 0.00000000
v 3.46999992 -2.76999994 0.00000000
v -3.46999992 2.96999993 3.36999992
v -3.46999992 2.96999993 0.20000000
v -3.49999992 2.96999993 3.36999992
v -3.49999992 2.96999993 0.20000000
v -3.49999992 2.96999993 0.20000000
v -3.46999992 2.96999993 0.20000000
v -3.49999992 2.95477593 0.12346329
v -3.46999992 2.95477593 0.12346329
v -3.49999992 2.91142205 0.05857865
v -3.46999992 2.91142205 0.05857865
v -3.49999992 2.84653680 0.01522409
v -3.46999992 2.84653680 0.01522409
v -3.49999992 2.76999994 0.00000000
v -3.46999992 2.76999994 0.00000000
v 3.49999992 2.96999993 3.36999992
v 3.46999992 2.96999993 3.36999992
v 3.49999992 2.95477593 3.44653679
v 3.46999992 2.95477593 3.44653679
v 3.49999992 2.91142205 3.51142082
v 3.46999992 2.91142205 3.51142082
v 3.49999992 2.84653680 3.55477592
v 3.46999992 2.84653680 3.55477592
v 3.49999992 2.76999994 3.56999992
v 3.46999992 2.76999994 3.56999992
v 3.46999992 2.96999993 0.20000000
v 3.46999992 2.96999993 3.36999992
v 3.49999992 2.96999993 0.20000000
v 3.49999992 2.96999993 3.36999992
v 3.49999992 2.76999994 0.00000000
v 3.46999992 2.76999994 0.00000000
v 3.49999992 2.84653680 0.01522409
v 3.46999992 2.84653680 0.01522409
v 3.49999992 2.91142205 0.05857865
v 3.46999992 2.91142205 0.05857865
v 3.49999992 2.95477593 0.12346329
v 3.46999992 2.95477593 0.12346329
v 3.49999992 2.96999993 0.20000000
v 3.46999992 2.96999993 0.20000000
v -3.49999992 -2.76999994 0.00000000
v -3.46999992 -2.76999994 0.00000000
v -3.49999992 -2.84653680 0.01522409
v -3.46999992 -2.84653680 0.01522409
v -3.49999992 -2.91142205 0.05857865
v -3.46999992 -2.91142205 0.05857865
v -3.49999992 -2.95477593 0.12346329
v -3.46999992 -2.95477593 0.12346329
v -3.49999992 -2.96999993 0.20000000
v -3.46999992 -2.96999993 0.20000000
v -3.46999992 -2.96999993 0.20000000
v -3.46999992 -2.96999993 3.36999992
v -3.49999992 -2.96999993 0.20000000
v -3.49999992 -2.96999993 3.36999992
v 3.46999992 2.96999993 0.20000000
v 3.46999992 2.95477593 0.12346329
v 3.46999992 2.96999993 0.00000000
v 3.46999992 2.91142205 0.05857865
v 3.46999992 2.84653680 0.01522409
v 3.46999992 2.76999994 0.00000000
v 3.46999992 2.76999994 3.56999992
v 3.46999992 2.84653680 3.55477592
v 3.46999992 2.96999993 3.56999992
v 3.46999992 2.91142205 3.51142082
v 3.46999992 2.95477593 3.44653679
v 3.46999992 2.96999993 3.36999992
v 3.46999992 -2.76999994 0.00000000
v 3.46999992 -2.84653680 0.01522409
v 3.46999992 -2.96999993 0.00000000
v 3.46999992 -2.91142205 0.05857865
v 3.46999992 -2.95477593 0.12346329
v 3.46999992 -2.96999993 0.20000000
v -3.46999992 -2.96999993 0.20000000
v -3.46999992 -2.95477593 0.12346329
v -3.46999992 -2.96999993 0.00000000
v -3.46999992 -2.91142205 0.05857865
v -3.46999992 -2.84653680 0.01522409
v -3.46999992 -2.76999994 0.00000000
v -3.46999992 2.76999994 0.00000000
v -3.46999992 2.84653680 0.01522409
v -3.46999992 2.96999993 0.00000000
v -3.46999992 2.91142205 0.05857865
v -3.46999992 2.95477593 0.12346329
v -3.46999992 2.96999993 0.20000000
v -3.46999992 2.96999993 3.36999992
v -3.46999992 2.95477593 3.44653679
v -3.46999992 2.96999993 3.56999992
v -3.46999992 2.91142205 3.51142082
v -3.46999992 2.84653680 3.55477592
v -3.46999992 2.76999994 3.56999992
v -3.46999992 -2.76999994 3.56999992
v -3.46999992 -2.84653680 3.55477592
v -3.46999992 -2.96999993 3.56999992
v -3.46999992 -2.91142205 3.51142082
v -3.46999992 -2.95477593 3.44653679
v -3.46999992 -2.96999993 3.36999992
v -3.26999993 3.19999993 3.36999992
v -3.26999993 3.16999993 3.36999992
v -3.25477593 3.19999993 3.44653679
v -3.25477593 3.16999993 3.44653679
v -3.21142083 3.19999993 3.51142082
v -3.21142083 3.16999993 3.51142082
v -3.14653679 3.19999993 3.55477592
v -3.14653679 3.16999993 3.55477592
v -3.06999993 3.19999993 3.56999992
v -3.06999993 3.16999993 3.56999992
v -3.06999993 -3.19999993 3.56999992
v -3.06999993 -3.16999993 3.56999992
v -3.14653679 -3.19999993 3.55477592
v -3.14653679 -3.16999993 3.55477592
v -3.21142083 -3.19999993 3.51142082
v -3.21142083 -3.16999993 3.51142082
v -3.25477593 -3.19999993 3.44653679
v -3.25477593 -3.16999993 3.44653679
v -3.26999993 -3.19999993 3.36999992
v -3.26999993 -3.16999993 3.36999992
v -3.26999993 3.16999993 0.20000000
v -3.26999993 3.16999993 3.36999992
v -3.26999993 3.19999993 0.20000000
v -3.26999993 3.19999993 3.36999992
v -3.26999993 -3.16999993 3.36999992
v -3.26999993 -3.16999993 0.20000000
v -3.26999993 -3.19999993 3.36999992
v -3.26999993 -3.19999993 0.20000000
v -2.09999995 3.19999993 3.56999992
v -3.06999993 3.19999993 3.56999992
v -2.09999995 3.19799981 3.56999992
v -3.06999993 3.16999993 3.56999992
v -1.99999996 3.19799981 3.56999992
v 3.06999993 3.16999993 3.56999992
v 3.06999993 3.19999993 3.56999992
v -1.99999996 3.19999993 3.56999992
v -3.06999993 3.19999993 0.00000000
v -3.06999993 3.16999993 0.00000000
v -3.14653679 3.19999993 0.01522409
v -3.14653679 3.16999993 0.01522409
v -3.21142083 3.19999993 0.05857865
v -3.21142083 3.16999993 0.05857865
v -3.25477593 3.19999993 0.12346329
v -3.25477593 3.16999993 0.12346329
v -3.26999993 3.19999993 0.20000000
v -3.26999993 3.16999993 0.20000000
v -3.26999993 -3.19999993 0.20000000
v -3.26999993 -3.16999993 0.20000000
v -3.25477593 -3.19999993 0.12346329
v -3.25477593 -3.16999993 0.12346329
v -3.21142083 -3.19999993 0.05857865
v -3.21142083 -3.16999993 0.05857865
v -3.14653679 -3.19999993 0.01522409
v -3.14653679 -3.16999993 0.01522409
v -3.06999993 -3.19999993 0.00000000
v -3.06999993 -3.16999993 0.00000000
v 3.06999993 3.19999993 3.56999992
v 3.06999993 3.16999993 3.56999992
v 3.14653679 3.19999993 3.55477592
v 3.14653679 3.16999993 3.55477592
v 3.21142083 3.19999993 3.51142082
v 3.21142083 3.16999993 3.51142082
v 3.25477593 3.19999993 3.44653679
v 3.25477593 3.16999993 3.44653679
v 3.26999993 3.19999993 3.36999992
v 3.26999993 3.16999993 3.36999992
v 3.26999993 3.16999993 3.36999992
v 3.26999993 3.16999993 0.20000000
v 3.26999993 3.19999993 3.36999992
v 3.26999993 3.19999993 0.20000000
v 3.26999993 3.19999993 0.20000000
v 3.26999993 3.16999993 0.20000000
v 3.25477593 3.19999993 0.12346329
v 3.25477593 3.16999993 0.12346329
v 3.21142083 3.19999993 0.05857865
v 3.21142083 3.16999993 0.05857865
v 3.14653679 3.19999993 0.01522409
v 3.14653679 3.16999993 0.01522409
v 3.06999993 3.19999993 0.00000000
v 3.06999993 3.16999993 0.00000000
v 3.06999993 -3.19999993 0.00000000
v 3.06999993 -3.16999993 0.00000000
v 3.14653679 -3.19999993 0.01522409
v 3.14653679 -3.16999993 0.01522409
v 3.21142083 -3.19999993 0.05857865
v 3.21142083 -3.16999993 0.05857865
v 3.25477593 -3.19999993 0.12346329
v 3.25477593 -3.16999993 0.12346329
v 3.26999993 -3.19999993 0.20000000
v 3.26999993 -3.16999993 0.20000000
v 3.26999993 -3.16999993 0.20000000
v 3.26999993 -3.16999993 3.36999992
v 3.26999993 -3.19999993 0.20000000
v 3.26999993 -3.19999993 3.36999992
v 3.26999993 -3.19999993 3.36999992
v 3.26999993 -3.16999993 3.36999992
v 3.25477593 -3.19999993 3.44653679
v 3.25477593 -3.16999993 3.44653679
v 3.21142083 -3.19999993 3.51142082
v 3.21142083 -3.16999993 3.51142082
v 3.14653679 -3.19999993 3.55477592
v 3.14653679 -3.16999993 3.55477592
v 3.06999993 -3.19999993 3.56999992
v 3.06999993 -3.16999993 3.56999992
v 2.09999995 -3.19999993 3.56999992
v 3.06999993 -3.19999993 3.56999992
v 2.09999995 -3.19799981 3.56999992
v 3.06999993 -3.16999993 3.56999992
v 1.99999996 -3.19799981 3.56999992
v -3.06999993 -3.16999993 3.56999992
v -3.06999993 -3.19999993 3.56999992
v 1.99999996 -3.19999993 3.56999992
v 3.26999993 -3.16999993 0.20000000
v 3.25477593 -3.16999993 0.12346329
v 3.26999993 -3.16999993 0.00000000
v 3.21142083 -3.16999993 0.05857865
v 3.14653679 -3.16999993 0.01522409
v 3.06999993 -3.16999993 0.00000000
v 3.06999993 -3.16999993 3.56999992
v 3.14653679 -3.16999993 3.55477592
v 3.26999993 -3.16999993 3.56999992
v 3.21142083 -3.16999993 3.51142082
v 3.25477593 -3.16999993 3.44653679
v 3.26999993 -3.16999993 3.36999992
v -3.06999993 -3.16999993 0.00000000
v -3.14653679 -3.16999993 0.01522409
v -3.26999993 -3.16999993 0.00000000
v -3.21142083 -3.16999993 0.05857865
v -3.25477593 -3.16999993 0.12346329
v -3.26999993 -3.16999993 0.20000000
v -3.26999993 3.16999993 0.20000000
v -3.25477593 3.16999993 0.12346329
v -3.26999993 3.16999993 0.00000000
v -3.21142083 3.16999993 0.05857865
v -3.14653679 3.16999993 0.01522409
v -3.06999993 3.16999993 0.00000000
v 3.06999993 3.16999993 0.00000000
v 3.14653679 3.16999993 0.01522409
v 3.26999993 3.16999993 0.00000000
v 3.21142083 3.16999993 0.05857865
v 3.25477593 3.16999993 0.12346329
v 3.26999993 3.16999993 0.20000000
v 3.26999993 3.16999993 3.36999992
v 3.25477593 3.16999993 3.44653679
v 3.26999993 3.16999993 3.56999992
v 3.21142083 3.16999993 3.51142082
v 3.14653679 3.16999993 3.55477592
v 3.06999993 3.16999993 3.56999992
v -3.26999993 2.96999993 3.76999992
v 3.26999993 2.96999993 3.76999992
v -3.26999993 3.04653680 3.75477592
v 3.26999993 3.04653680 3.75477592
v -3.26999993 3.11142205 3.71142082
v 3.26999993 3.11142205 3.71142082
v -3.26999993 3.15477593 3.64653678
v 3.26999993 3.15477593 3.64653678
v -3.06999993 3.16999993 3.56999992
v 3.06999993 3.16999993 3.56999992
v 3.26999993 3.16999993 3.56999992
v -3.26999993 3.16999993 3.56999992
v 3.26999993 2.96999993 3.76999992
v 3.26999993 -2.96999993 3.76999992
v 3.34653679 2.96999993 3.75477592
v 3.34653679 -2.96999993 3.75477592
v 3.41142082 2.96999993 3.71142082
v 3.41142082 -2.96999993 3.71142082
v 3.45477592 2.96999993 3.64653678
v 3.45477592 -2.96999993 3.64653678
v 3.46999992 2.76999994 3.56999992
v 3.46999992 -2.76999994 3.56999992
v 3.46999992 -2.96999993 3.56999992
v 3.46999992 2.96999993 3.56999992
v 3.26999993 3.04653680 3.75477592
v 3.26999993 2.96999993 3.76999992
v 3.33065697 3.03566399 3.74891105
v 3.34653679 2.96999993 3.75477592
v 3.40065605 3.04653680 3.70065605
v 3.41142082 2.96999993 3.71142082
v 3.45477592 2.96999993 3.64653678
v 3.44891106 3.03566399 3.63065696
v 3.46999992 2.96999993 3.56999992
v 3.45477592 3.04653680 3.56999992
v 3.41876488 3.10043389 3.59925987
v 3.41142082 3.11142205 3.56999992
v 3.34653679 3.15477593 3.56999992
v 3.26999993 3.16999993 3.56999992
v 3.32411980 3.15477593 3.62411979
v 3.36999992 3.11142205 3.66999992
v 3.26999993 3.15477593 3.64653678
v 3.26999993 3.11142205 3.71142082
v 3.29925987 3.10043389 3.71876487
v 3.26999993 -2.96999993 3.76999992
v -3.26999993 -2.96999993 3.76999992
v 3.26999993 -3.04653680 3.75477592
v -3.26999993 -3.04653680 3.75477592
v 3.26999993 -3.11142205 3.71142082
v -3.26999993 -3.11142205 3.71142082
v 3.26999993 -3.15477593 3.64653678
v -3.26999993 -3.15477593 3.64653678
v 3.06999993 -3.16999993 3.56999992
v -3.06999993 -3.16999993 3.56999992
v -3.26999993 -3.16999993 3.56999992
v 3.26999993 -3.16999993 3.56999992
v 3.34653679 -2.96999993 3.75477592
v 3.26999993 -2.96999993 3.76999992
v 3.33065697 -3.03566399 3.74891105
v 3.26999993 -3.04653680 3.75477592
v 3.29925987 -3.10043389 3.71876487
v 3.26999993 -3.11142205 3.71142082
v 3.26999993 -3.15477593 3.64653678
v 3.26999993 -3.16999993 3.56999992
v 3.32411980 -3.15477593 3.62411979
v 3.36999992 -3.11142205 3.66999992
v 3.40065605 -3.04653680 3.70065605
v 3.34653679 -3.15477593 3.56999992
v 3.41876488 -3.10043389 3.59925987
v 3.44891106 -3.03566399 3.63065696
v 3.45477592 -2.96999993 3.64653678
v 3.41142082 -2.96999993 3.71142082
v 3.41142082 -3.11142205 3.56999992
v 3.45477592 -3.04653680 3.56999992
v 3.46999992 -2.96999993 3.56999992
v -3.26999993 -2.96999993 3.76999992
v -3.26999993 2.96999993 3.76999992
v -3.34653679 -2.96999993 3.75477592
v -3.34653679 2.96999993 3.75477592
v -3.41142082 -2.96999993 3.71142082
v -3.41142082 2.96999993 3.71142082
v -3.45477592 -2.96999993 3.64653678
v -3.45477592 2.96999993 3.64653678
v -3.46999992 -2.76999994 3.56999992
v -3.46999992 2.76999994 3.56999992
v -3.46999992 2.96999993 3.56999992
v -3.46999992 -2.96999993 3.56999992
v -3.26999993 -3.04653680 3.75477592
v -3.26999993 -2.96999993 3.76999992
v -3.33065697 -3.03566399 3.74891105
v -3.34653679 -2.96999993 3.75477592
v -3.40065605 -3.04653680 3.70065605
v -3.41142082 -2.96999993 3.71142082
v -3.45477592 -2.96999993 3.64653678
v -3.44891106 -3.03566399 3.63065696
v -3.46999992 -2.96999993 3.56999992
v -3.45477592 -3.04653680 3.56999992
v -3.41876488 -3.10043389 3.59925987
v -3.41142082 -3.11142205 3.56999992
v -3.34653679 -3.15477593 3.56999992
v -3.26999993 -3.16999993 3.56999992
v -3.32411980 -3.15477593 3.62411979
v -3.36999992 -3.11142205 3.66999992
v -3.26999993 -3.15477593 3.64653678
v -3.29925987 -3.10043389 3.71876487
v -3.26999993 -3.11142205 3.71142082
v -3.34653679 2.96999993 3.75477592
v -3.26999993 2.96999993 3.76999992
v -3.33065697 3.03566399 3.74891105
v -3.26999993 3.04653680 3.75477592
v -3.29925987 3.10043389 3.71876487
v -3.26999993 3.11142205 3.71142082
v -3.26999993 3.15477593 3.64653678
v -3.26999993 3.16999993 3.56999992
v -3.32411980 3.15477593 3.62411979
v -3.36999992 3.11142205 3.66999992
v -3.40065605 3.04653680 3.70065605
v -3.34653679 3.15477593 3.56999992
v -3.41142082 3.11142205 3.56999992
v -3.41876488 3.10043389 3.59925987
v -3.44891106 3.03566399 3.63065696
v -3.45477592 3.04653680 3.56999992
v -3.46999992 2.96999993 3.56999992
v -3.45477592 2.96999993 3.64653678
v -3.41142082 2.96999993 3.71142082
v 3.46999992 -2.96999993 3.56999992
v 3.45477592 -3.04653680 3.56999992
v 3.46999992 -2.96999993 3.36999992
v 3.45477592 -3.04653680 0.00000000
v 3.46999992 -2.96999993 0.20000000
v 3.46999992 -2.96999993 0.00000000
v 3.41142082 -3.11142205 0.00000000
v 3.41142082 -3.11142205 3.56999992
v 3.34653679 -3.15477593 0.00000000
v 3.34653679 -3.15477593 3.56999992
v 3.26999993 -3.16999993 0.20000000
v 3.26999993 -3.16999993 3.36999992
v 3.26999993 -3.16999993 3.56999992
v 3.26999993 -3.16999993 0.00000000
v -3.26999993 -3.16999993 3.36999992
v -3.25477593 -3.16999993 3.44653679
v -3.26999993 -3.16999993 3.56999992
v -3.21142083 -3.16999993 3.51142082
v -3.14653679 -3.16999993 3.55477592
v -3.06999993 -3.16999993 3.56999992
v -3.26999993 -3.16999993 3.56999992
v -3.34653679 -3.15477593 3.56999992
v -3.26999993 -3.16999993 3.36999992
v -3.34653679 -3.15477593 0.00000000
v -3.26999993 -3.16999993 0.20000000
v -3.26999993 -3.16999993 0.00000000
v -3.41142082 -3.11142205 0.00000000
v -3.41142082 -3.11142205 3.56999992
v -3.45477592 -3.04653680 0.00000000
v -3.45477592 -3.04653680 3.56999992
v -3.46999992 -2.96999993 0.20000000
v -3.46999992 -2.96999993 3.36999992
v -3.46999992 -2.96999993 3.56999992
v -3.46999992 -2.96999993 0.00000000
v 2.10281795 -0.06970848 3.76999992
v 3.26999993 -2.96999993 3.76999992
v 2.11999995 0.00000000 3.76999992
v 3.26999993 2.96999993 3.76999992
v 2.10281795 0.06970848 3.76999992
v 2.05520991 0.12344760 3.76999992
v 1.98808101 0.14890629 3.76999992
v 1.91680889 0.14025240 3.76999992
v -3.26999993 2.96999993 3.76999992
v 1.85772289 0.09946841 3.76999992
v 1.82435894 0.03589735 3.76999992
v -3.26999993 -2.96999993 3.76999992
v 1.82435894 -0.03589735 3.76999992
v 1.85772289 -0.09946841 3.76999992
v 1.91680889 -0.14025240 3.76999992
v 1.98808101 -0.14890629 3.76999992
v 2.05520991 -0.12344760 3.76999992
v 3.26999993 3.16999993 3.56999992
v 3.34653679 3.15477593 3.56999992
v 3.26999993 3.16999993 3.36999992
v 3.34653679 3.15477593 0.00000000
v 3.26999993 3.16999993 0.20000000
v 3.26999993 3.16999993 0.00000000
v 3.41142082 3.11142205 0.00000000
v 3.41142082 3.11142205 3.56999992
v 3.45477592 3.04653680 0.00000000
v 3.45477592 3.04653680 3.56999992
v 3.46999992 2.96999993 0.20000000
v 3.46999992 2.96999993 3.36999992
v 3.46999992 2.96999993 3.56999992
v 3.46999992 2.96999993 0.00000000
v -3.06999993 3.16999993 3.56999992
v -3.14653679 3.16999993 3.55477592
v -3.26999993 3.16999993 3.56999992
v -3.21142083 3.16999993 3.51142082
v -3.25477593 3.16999993 3.44653679
v -3.26999993 3.16999993 3.36999992
v -3.46999992 2.96999993 3.56999992
v -3.45477592 3.04653680 3.56999992
v -3.46999992 2.96999993 3.36999992
v -3.45477592 3.04653680 0.00000000
v -3.46999992 2.96999993 0.20000000
v -3.46999992 2.96999993 0.00000000
v -3.41142082 3.11142205 0.00000000
v -3.41142082 3.11142205 3.56999992
v -3.34653679 3.15477593 0.00000000
v -3.34653679 3.15477593 3.56999992
v -3.26999993 3.16999993 0.20000000
v -3.26999993 3.16999993 3.36999992
v -3.26999993 3.16999993 3.56999992
v -3.26999993 3.16999993 0.00000000
v 3.46999992 -2.96999993 3.36999992
v 3.46999992 -2.95477593 3.44653679
v 3.46999992 -2.96999993 3.56999992
v 3.46999992 -2.91142205 3.51142082
v 3.46999992 -2.84653680 3.55477592
v 3.46999992 -2.76999994 3.56999992
vt -35.70000076 0.00000000
vt 0.00000000 0.00000000
vt -35.70000076 0.01999998
vt 0.00000000 0.01999998
vt -35.70000076 0.00000000
vt 0.00000000 0.00000000
vt -35.70000076 0.01999998
vt 0.00000000 0.01999998
vt 17.85000038 -18.00000000
vt -17.85000038 -18.00000000
vt 17.85000038 -27.70000076
vt -17.85000038 -27.70000076
vt 15.85000038 -29.70000076
vt -15.85000038 -29.70000076
vt -17.69775963 -28.46537018
vt -17.26420975 -29.11421013
vt -16.61536980 -29.54776001
vt 16.61536980 -29.54776001
vt 17.26420975 -29.11421013
vt 17.69775963 -28.46537018
vt -17.85000038 27.70000076
vt -17.85000038 -17.00000000
vt -15.85000038 29.70000076
vt 17.85000038 -17.00000000
vt 15.85000038 29.70000076
vt 17.85000038 27.70000076
vt 16.61536980 29.54776001
vt 17.26420975 29.11421013
vt 17.69775963 28.46537018
vt -16.61536980 29.54776001
vt -17.26420975 29.11421013
vt -17.69775963 28.46537018
vt 44.70000076 -35.00000000
vt 44.70000076 -34.97999954
vt 0.00000000 -35.00000000
vt 0.00000000 -34.70000076
vt 55.40000153 -34.70000076
vt 45.70000076 -34.97999954
vt 55.40000153 -35.00000000
vt 45.70000076 -35.00000000
vt -35.70000076 0.00000000
vt 0.00000000 0.00000000
vt -35.70000076 0.01999998
vt 0.00000000 0.01999998
vt -35.70000076 0.00000000
vt 0.00000000 0.00000000
vt -35.70000076 0.01999998
vt 0.00000000 0.01999998
vt -17.85000038 30.70000076
vt -17.85000038 -20.00000000
vt -15.85000038 32.70000076
vt 17.85000038 -20.00000000
vt 15.85000038 32.70000076
vt 17.85000038 30.70000076
vt 16.61536980 32.54776001
vt 17.26420975 32.11420822
vt 17.69775963 31.46537018
vt -16.61536980 32.54776001
vt -17.26420975 32.11420822
vt -17.69775963 31.46537018
vt 17.85000038 -21.00000000
vt -17.85000038 -21.00000000
vt 17.85000038 -30.70000076
vt -17.85000038 -30.70000076
vt 15.85000038 -32.70000076
vt -15.85000038 -32.70000076
vt -17.69775963 -31.46537018
vt -17.26420975 -32.11420822
vt -16.61536980 -32.54776001
vt 16.61536980 -32.54776001
vt 17.26420975 -32.11420822
vt 17.69775963 -31.46537018
vt -18.37182045 -0.69708502
vt 34.97999954 -17.00000000
vt -18.20000076 0.00000000
vt 20.00000000 31.97999954
vt -18.37182045 0.69708502
vt -18.84790039 1.23447597
vt -30.70000076 31.70000076
vt -19.51919937 1.48906302
vt -34.97999954 18.00000000
vt -34.97999954 17.00000000
vt -18.84790039 -1.23447597
vt -20.00000000 -31.97999954
vt 30.70000076 -31.70000076
vt 34.97999954 -18.00000000
vt 34.70000076 -27.70000076
vt 35.00000000 -27.70000076
vt -19.51919937 -1.48906302
vt -21.00000000 -31.97999954
vt -20.23191071 -1.40252399
vt -34.70000076 -27.70000076
vt -20.82276917 -0.99468398
vt -35.00000000 -27.70000076
vt -21.15641022 -0.35897401
vt -35.00000000 17.00000000
vt -21.15641022 0.35897401
vt -20.82276917 0.99468398
vt -20.23191071 1.40252399
vt 35.00000000 -17.00000000
vt 35.00000000 27.70000076
vt 34.70000076 27.70000076
vt 21.00000000 31.97999954
vt 30.70000076 31.70000076
vt 30.70000076 32.00000000
vt 34.70000076 29.70000076
vt 32.70000076 31.70000076
vt 34.54776001 30.46537018
vt 34.11420822 31.11421013
vt 33.46537018 31.54776001
vt 21.00000000 32.00000000
vt 20.00000000 32.00000000
vt -30.70000076 32.00000000
vt -32.70000076 31.70000076
vt -34.70000076 29.70000076
vt -34.70000076 27.70000076
vt -35.00000000 27.70000076
vt -35.00000000 18.00000000
vt -33.46537018 31.54776001
vt -34.11420822 31.11421013
vt -34.54776001 30.46537018
vt -30.70000076 -31.70000076
vt -34.70000076 -29.70000076
vt -32.70000076 -31.70000076
vt -34.54776001 -30.46537018
vt -34.11420822 -31.11421013
vt -33.46537018 -31.54776001
vt -30.70000076 -32.00000000
vt -21.00000000 -32.00000000
vt -20.00000000 -32.00000000
vt 30.70000076 -32.00000000
vt 34.70000076 -29.70000076
vt 32.70000076 -31.70000076
vt 34.54776001 -30.46537018
vt 34.11420822 -31.11421013
vt 33.46537018 -31.54776001
vt 35.00000000 -18.00000000
vt -35.70000076 0.00000000
vt 0.00000000 0.00000000
vt -35.70000076 0.01999998
vt 0.00000000 0.01999998
vt -35.70000076 0.00000000
vt 0.00000000 0.00000000
vt -35.70000076 0.01999998
vt 0.00000000 0.01999998
vt -17.85000038 18.00000000
vt 17.85000038 18.00000000
vt -17.85000038 27.70000076
vt 17.85000038 27.70000076
vt -15.85000038 29.70000076
vt 15.85000038 29.70000076
vt 17.69775963 28.46537018
vt 17.26420975 29.11421013
vt 16.61536980 29.54776001
vt -16.61536980 29.54776001
vt -17.26420975 29.11421013
vt -17.69775963 28.46537018
vt -17.85000038 17.00000000
vt -15.85000038 -29.70000076
vt 17.85000038 17.00000000
vt 15.85000038 -29.70000076
vt 17.85000038 -27.70000076
vt 16.61536980 -29.54776001
vt 17.26420975 -29.11421013
vt -17.85000038 -27.70000076
vt -16.61536980 -29.54776001
vt -17.26420975 -29.11421013
vt -17.69775963 -28.46537018
vt 17.69775963 -28.46537018
vt 10.69999981 35.00000000
vt 10.69999981 34.97999954
vt 55.40000153 35.00000000
vt 55.40000153 34.70000076
vt 0.00000000 34.70000076
vt 9.69999981 34.97999954
vt 0.00000000 35.00000000
vt 9.69999981 35.00000000
vt -35.70000076 0.00000000
vt 0.00000000 0.00000000
vt -35.70000076 0.01999998
vt 0.00000000 0.01999998
vt -35.70000076 0.00000000
vt 0.00000000 0.00000000
vt -35.70000076 0.01999998
vt 0.00000000 0.01999998
vt -17.85000038 20.00000000
vt -15.85000038 -32.70000076
vt 17.85000038 20.00000000
vt 15.85000038 -32.70000076
vt 17.85000038 -30.70000076
vt 16.61536980 -32.54776001
vt 17.26420975 -32.11420822
vt -17.85000038 -30.70000076
vt -16.61536980 -32.54776001
vt -17.26420975 -32.11420822
vt -17.69775963 -31.46537018
vt 17.69775963 -31.46537018
vt -17.85000038 21.00000000
vt 17.85000038 21.00000000
vt -17.85000038 30.70000076
vt 17.85000038 30.70000076
vt -15.85000038 32.70000076
vt 15.85000038 32.70000076
vt 17.69775963 31.46537018
vt 17.26420975 32.11420822
vt 16.61536980 32.54776001
vt -16.61536980 32.54776001
vt -17.26420975 32.11420822
vt -17.69775963 31.46537018
vt 35.00000000 3.14159298
vt 34.70000076 3.14159298
vt 35.00000000 2.35619402
vt 34.70000076 2.35619402
vt 35.00000000 1.57079601
vt 34.70000076 1.57079601
vt 35.00000000 0.78539801
vt 34.70000076 0.78539801
vt 35.00000000 0.00000000
vt 34.70000076 0.00000000
vt -35.00000000 0.00000000
vt -34.70000076 0.00000000
vt -35.00000000 0.78539801
vt -34.70000076 0.78539801
vt -35.00000000 1.57079601
vt -34.70000076 1.57079601
vt -35.00000000 2.35619402
vt -34.70000076 2.35619402
vt -35.00000000 3.14159298
vt -34.70000076 3.14159298
vt 0.00000000 34.70000076
vt 31.70000076 34.70000076
vt 0.00000000 35.00000000
vt 31.70000076 35.00000000
vt 35.00000000 3.14159298
vt 34.70000076 3.14159298
vt 35.00000000 2.35619402
vt 34.70000076 2.35619402
vt 35.00000000 1.57079601
vt 34.70000076 1.57079601
vt 35.00000000 0.78539801
vt 34.70000076 0.78539801
vt 35.00000000 0.00000000
vt 34.70000076 0.00000000
vt -35.00000000 0.00000000
vt -34.70000076 0.00000000
vt -35.00000000 0.78539801
vt -34.70000076 0.78539801
vt -35.00000000 1.57079601
vt -34.70000076 1.57079601
vt -35.00000000 2.35619402
vt -34.70000076 2.35619402
vt -35.00000000 3.14159298
vt -34.70000076 3.14159298
vt 31.70000076 -34.70000076
vt 0.00000000 -34.70000076
vt 31.70000076 -35.00000000
vt 0.00000000 -35.00000000
vt 35.00000000 3.14159298
vt 34.70000076 3.14159298
vt 35.00000000 2.35619402
vt 34.70000076 2.35619402
vt 35.00000000 1.57079601
vt 34.70000076 1.57079601
vt 35.00000000 0.78539801
vt 34.70000076 0.78539801
vt 35.00000000 0.00000000
vt 34.70000076 0.00000000
vt -35.00000000 0.00000000
vt -34.70000076 0.00000000
vt -35.00000000 0.78539801
vt -34.70000076 0.78539801
vt -35.00000000 1.57079601
vt -34.70000076 1.57079601
vt -35.00000000 2.35619402
vt -34.70000076 2.35619402
vt -35.00000000 3.14159298
vt -34.70000076 3.14159298
vt 0.00000000 34.70000076
vt 31.70000076 34.70000076
vt 0.00000000 35.00000000
vt 31.70000076 35.00000000
vt -35.00000000 0.00000000
vt -34.70000076 0.00000000
vt -35.00000000 0.78539801
vt -34.70000076 0.78539801
vt -35.00000000 1.57079601
vt -34.70000076 1.57079601
vt -35.00000000 2.35619402
vt -34.70000076 2.35619402
vt -35.00000000 3.14159298
vt -34.70000076 3.14159298
vt 35.00000000 3.14159298
vt 34.70000076 3.14159298
vt 35.00000000 2.35619402
vt 34.70000076 2.35619402
vt 35.00000000 1.57079601
vt 34.70000076 1.57079601
vt 35.00000000 0.78539801
vt 34.70000076 0.78539801
vt 35.00000000 0.00000000
vt 34.70000076 0.00000000
vt 31.70000076 -34.70000076
vt 0.00000000 -34.70000076
vt 31.70000076 -35.00000000
vt 0.00000000 -35.00000000
vt 61.40000153 2.00000000
vt 61.24776077 1.23463297
vt 61.40000153 0.00000000
vt 60.81420898 0.58578598
vt 60.16537094 0.15224101
vt 59.40000153 0.00000000
vt 59.40000153 35.70000076
vt 60.16537094 35.54776001
vt 61.40000153 35.70000076
vt 60.81420898 35.11420822
vt 61.24776077 34.46537018
vt 61.40000153 33.70000076
vt 4.00000000 0.00000000
vt 3.23463297 0.15224101
vt 2.00000000 0.00000000
vt 2.58578610 0.58578598
vt 2.15224099 1.23463297
vt 2.00000000 2.00000000
vt 61.40000153 2.00000000
vt 61.24776077 1.23463297
vt 61.40000153 0.00000000
vt 60.81420898 0.58578598
vt 60.16537094 0.15224101
vt 59.40000153 0.00000000
vt 4.00000000 0.00000000
vt 3.23463297 0.15224101
vt 2.00000000 0.00000000
vt 2.58578610 0.58578598
vt 2.15224099 1.23463297
vt 2.00000000 2.00000000
vt 2.00000000 33.70000076
vt 2.15224099 34.46537018
vt 2.00000000 35.70000076
vt 2.58578610 35.11420822
vt 3.23463297 35.54776001
vt 4.00000000 35.70000076
vt 59.40000153 35.70000076
vt 60.16537094 35.54776001
vt 61.40000153 35.70000076
vt 60.81420898 35.11420822
vt 61.24776077 34.46537018
vt 61.40000153 33.70000076
vt -32.00000000 0.00000000
vt -31.70000076 0.00000000
vt -32.00000000 0.78539801
vt -31.70000076 0.78539801
vt -32.00000000 1.57079601
vt -31.70000076 1.57079601
vt -32.00000000 2.35619402
vt -31.70000076 2.35619402
vt -32.00000000 3.14159298
vt -31.70000076 3.14159298
vt 32.00000000 3.14159298
vt 31.70000076 3.14159298
vt 32.00000000 2.35619402
vt 31.70000076 2.35619402
vt 32.00000000 1.57079601
vt 31.70000076 1.57079601
vt 32.00000000 0.78539801
vt 31.70000076 0.78539801
vt 32.00000000 0.00000000
vt 31.70000076 0.00000000
vt 0.00000000 31.70000076
vt 31.70000076 31.70000076
vt 0.00000000 32.00000000
vt 31.70000076 32.00000000
vt 31.70000076 -31.70000076
vt 0.00000000 -31.70000076
vt 31.70000076 -32.00000000
vt 0.00000000 -32.00000000
vt 9.69999981 32.00000000
vt 0.00000000 32.00000000
vt 9.69999981 31.97999954
vt 0.00000000 31.70000076
vt 10.69999981 31.97999954
vt 61.40000153 31.70000076
vt 61.40000153 32.00000000
vt 10.69999981 32.00000000
vt -32.00000000 0.00000000
vt -31.70000076 0.00000000
vt -32.00000000 0.78539801
vt -31.70000076 0.78539801
vt -32.00000000 1.57079601
vt -31.70000076 1.57079601
vt -32.00000000 2.35619402
vt -31.70000076 2.35619402
vt -32.00000000 3.14159298
vt -31.70000076 3.14159298
vt 32.00000000 3.14159298
vt 31.70000076 3.14159298
vt 32.00000000 2.35619402
vt 31.70000076 2.35619402
vt 32.00000000 1.57079601
vt 31.70000076 1.57079601
vt 32.00000000 0.78539801
vt 31.70000076 0.78539801
vt 32.00000000 0.00000000
vt 31.70000076 0.00000000
vt -32.00000000 0.00000000
vt -31.70000076 0.00000000
vt -32.00000000 0.78539801
vt -31.70000076 0.78539801
vt -32.00000000 1.57079601
vt -31.70000076 1.57079601
vt -32.00000000 2.35619402
vt -31.70000076 2.35619402
vt -32.00000000 3.14159298
vt -31.70000076 3.14159298
vt 0.00000000 31.70000076
vt 31.70000076 31.70000076
vt 0.00000000 32.00000000
vt 31.70000076 32.00000000
vt -32.00000000 0.00000000
vt -31.70000076 0.00000000
vt -32.00000000 0.78539801
vt -31.70000076 0.78539801
vt -32.00000000 1.57079601
vt -31.70000076 1.57079601
vt -32.00000000 2.35619402
vt -31.70000076 2.35619402
vt -32.00000000 3.14159298
vt -31.70000076 3.14159298
vt 32.00000000 3.14159298
vt 31.70000076 3.14159298
vt 32.00000000 2.35619402
vt 31.70000076 2.35619402
vt 32.00000000 1.57079601
vt 31.70000076 1.57079601
vt 32.00000000 0.78539801
vt 31.70000076 0.78539801
vt 32.00000000 0.00000000
vt 31.70000076 0.00000000
vt 31.70000076 -31.70000076
vt 0.00000000 -31.70000076
vt 31.70000076 -32.00000000
vt 0.00000000 -32.00000000
vt 32.00000000 3.14159298
vt 31.70000076 3.14159298
vt 32.00000000 2.35619402
vt 31.70000076 2.35619402
vt 32.00000000 1.57079601
vt 31.70000076 1.57079601
vt 32.00000000 0.78539801
vt 31.70000076 0.78539801
vt 32.00000000 0.00000000
vt 31.70000076 0.00000000
vt 51.70000076 -32.00000000
vt 61.40000153 -32.00000000
vt 51.70000076 -31.97999954
vt 61.40000153 -31.70000076
vt 50.70000076 -31.97999954
vt 0.00000000 -31.70000076
vt 0.00000000 -32.00000000
vt 50.70000076 -32.00000000
vt 67.40000153 2.00000000
vt 67.24775696 1.23463297
vt 67.40000153 0.00000000
vt 66.81421661 0.58578598
vt 66.16536713 0.15224101
vt 65.40000153 0.00000000
vt 65.40000153 35.70000076
vt 66.16536713 35.54776001
vt 67.40000153 35.70000076
vt 66.81421661 35.11420822
vt 67.24775696 34.46537018
vt 67.40000153 33.70000076
vt 4.00000000 0.00000000
vt 3.23463297 0.15224101
vt 2.00000000 0.00000000
vt 2.58578610 0.58578598
vt 2.15224099 1.23463297
vt 2.00000000 2.00000000
vt 67.40000153 2.00000000
vt 67.24775696 1.23463297
vt 67.40000153 0.00000000
vt 66.81421661 0.58578598
vt 66.16536713 0.15224101
vt 65.40000153 0.00000000
vt 4.00000000 0.00000000
vt 3.23463297 0.15224101
vt 2.00000000 0.00000000
vt 2.58578610 0.58578598
vt 2.15224099 1.23463297
vt 2.00000000 2.00000000
vt 2.00000000 33.70000076
vt 2.15224099 34.46537018
vt 2.00000000 35.70000076
vt 2.58578610 35.11420822
vt 3.23463297 35.54776001
vt 4.00000000 35.70000076
vt -50.04999924 -1.57079601
vt 15.35000038 -1.57079601
vt -50.04999924 -0.78539801
vt 15.35000038 -0.78539801
vt -50.04999924 0.00000000
vt 15.35000038 0.00000000
vt -50.04999924 0.78539801
vt 15.35000038 0.78539801
vt -48.04999924 1.57079601
vt 13.35000038 1.57079601
vt 15.35000038 1.57079601
vt -50.04999924 1.57079601
vt -45.54999924 -1.57079601
vt 13.85000038 -1.57079601
vt -45.54999924 -0.78539801
vt 13.85000038 -0.78539801
vt -45.54999924 0.00000000
vt 13.85000038 0.00000000
vt -45.54999924 0.78539801
vt 13.85000038 0.78539801
vt -43.54999924 1.57079601
vt 11.85000038 1.57079601
vt 13.85000038 1.57079601
vt -45.54999924 1.57079601
vt -0.12951601 1.40689099
vt -0.84106898 1.74663305
vt -0.44556099 0.87331599
vt -1.12523496 0.92542797
vt -0.44556099 0.00000000
vt -1.23095906 0.00000000
vt -1.12523496 -0.92542797
vt -0.44556099 -0.87331599
vt -0.84106898 -1.74663305
vt -0.12951601 -1.40689099
vt 0.33983701 -0.87331599
vt 0.58568603 -1.08310795
vt 1.28229296 -0.67892301
vt 1.91063297 0.00000000
vt 1.12523496 0.00000000
vt 0.33983701 0.00000000
vt 1.28229296 0.67892301
vt 0.58568603 1.08310795
vt 0.33983701 0.87331599
vt -50.04999924 -1.57079601
vt 15.35000038 -1.57079601
vt -50.04999924 -0.78539801
vt 15.35000038 -0.78539801
vt -50.04999924 0.00000000
vt 15.35000038 0.00000000
vt -50.04999924 0.78539801
vt 15.35000038 0.78539801
vt -48.04999924 1.57079601
vt 13.35000038 1.57079601
vt 15.35000038 1.57079601
vt -50.04999924 1.57079601
vt 1.12523496 0.92542797
vt 0.84106898 1.74663305
vt 0.44556099 0.87331599
vt 0.12951601 1.40689099
vt -0.33983701 0.87331599
vt -0.58568603 1.08310795
vt -1.28229296 0.67892301
vt -1.91063297 0.00000000
vt -1.12523496 0.00000000
vt -0.33983701 0.00000000
vt 0.44556099 0.00000000
vt -1.28229296 -0.67892301
vt -0.33983701 -0.87331599
vt 0.44556099 -0.87331599
vt 1.12523496 -0.92542797
vt 1.23095906 0.00000000
vt -0.58568603 -1.08310795
vt 0.12951601 -1.40689099
vt 0.84106898 -1.74663305
vt -45.54999924 -1.57079601
vt 13.85000038 -1.57079601
vt -45.54999924 -0.78539801
vt 13.85000038 -0.78539801
vt -45.54999924 0.00000000
vt 13.85000038 0.00000000
vt -45.54999924 0.78539801
vt 13.85000038 0.78539801
vt -43.54999924 1.57079601
vt 11.85000038 1.57079601
vt 13.85000038 1.57079601
vt -45.54999924 1.57079601
vt 0.12951601 -1.40689099
vt 0.84106898 -1.74663305
vt 0.44556099 -0.87331599
vt 1.12523496 -0.92542797
vt 0.44556099 0.00000000
vt 1.23095906 0.00000000
vt 1.12523496 0.92542797
vt 0.44556099 0.87331599
vt 0.84106898 1.74663305
vt 0.12951601 1.40689099
vt -0.33983701 0.87331599
vt -0.58568603 1.08310795
vt -1.28229296 0.67892301
vt -1.91063297 0.00000000
vt -1.12523496 0.00000000
vt -0.33983701 0.00000000
vt -1.28229296 -0.67892301
vt -0.33983701 -0.87331599
vt -0.58568603 -1.08310795
vt -1.12523496 -0.92542797
vt -0.84106898 -1.74663305
vt -0.44556099 -0.87331599
vt -0.12951601 -1.40689099
vt 0.33983701 -0.87331599
vt 0.58568603 -1.08310795
vt 1.28229296 -0.67892301
vt 1.91063297 0.00000000
vt 1.12523496 0.00000000
vt 0.33983701 0.00000000
vt -0.44556099 0.00000000
vt 1.28229296 0.67892301
vt 0.58568603 1.08310795
vt 0.33983701 0.87331599
vt -0.44556099 0.87331599
vt -0.12951601 1.40689099
vt -0.84106898 1.74663305
vt -1.12523496 0.92542797
vt -1.23095906 0.00000000
vt -35.70000076 1.57079601
vt -35.70000076 0.78539801
vt -33.70000076 1.57079601
vt 0.00000000 0.78539801
vt -2.00000000 1.57079601
vt 0.00000000 1.57079601
vt 0.00000000 0.00000000
vt -35.70000076 0.00000000
vt 0.00000000 -0.78539801
vt -35.70000076 -0.78539801
vt -2.00000000 -1.57079601
vt -33.70000076 -1.57079601
vt -35.70000076 -1.57079601
vt 0.00000000 -1.57079601
vt 2.00000000 33.70000076
vt 2.15224099 34.46537018
vt 2.00000000 35.70000076
vt 2.58578610 35.11420822
vt 3.23463297 35.54776001
vt 4.00000000 35.70000076
vt -35.70000076 1.57079601
vt -35.70000076 0.78539801
vt -33.70000076 1.57079601
vt 0.00000000 0.78539801
vt -2.00000000 1.57079601
vt 0.00000000 1.57079601
vt 0.00000000 0.00000000
vt -35.70000076 0.00000000
vt 0.00000000 -0.78539801
vt -35.70000076 -0.78539801
vt -2.00000000 -1.57079601
vt -33.70000076 -1.57079601
vt -35.70000076 -1.57079601
vt 0.00000000 -1.57079601
vt 21.02819061 -0.69708502
vt 32.70000076 -29.70000076
vt 21.20000076 0.00000000
vt 32.70000076 29.70000076
vt 21.02819061 0.69708502
vt 20.55209923 1.23447597
vt 19.88080978 1.48906302
vt 19.16809082 1.40252399
vt -32.70000076 29.70000076
vt 18.57723045 0.99468398
vt 18.24358940 0.35897401
vt -32.70000076 -29.70000076
vt 18.24358940 -0.35897401
vt 18.57723045 -0.99468398
vt 19.16809082 -1.40252399
vt 19.88080978 -1.48906302
vt 20.55209923 -1.23447597
vt -35.70000076 1.57079601
vt -35.70000076 0.78539801
vt -33.70000076 1.57079601
vt 0.00000000 0.78539801
vt -2.00000000 1.57079601
vt 0.00000000 1.57079601
vt 0.00000000 0.00000000
vt -35.70000076 0.00000000
vt 0.00000000 -0.78539801
vt -35.70000076 -0.78539801
vt -2.00000000 -1.57079601
vt -33.70000076 -1.57079601
vt -35.70000076 -1.57079601
vt 0.00000000 -1.57079601
vt 65.40000153 35.70000076
vt 66.16536713 35.54776001
vt 67.40000153 35.70000076
vt 66.81421661 35.11420822
vt 67.24775696 34.46537018
vt 67.40000153 33.70000076
vt -35.70000076 1.57079601
vt -35.70000076 0.78539801
vt -33.70000076 1.57079601
vt 0.00000000 0.78539801
vt -2.00000000 1.57079601
vt 0.00000000 1.57079601
vt 0.00000000 0.00000000
vt -35.70000076 0.00000000
vt 0.00000000 -0.78539801
vt -35.70000076 -0.78539801
vt -2.00000000 -1.57079601
vt -33.70000076 -1.57079601
vt -35.70000076 -1.57079601
vt 0.00000000 -1.57079601
vt 2.00000000 33.70000076
vt 2.15224099 34.46537018
vt 2.00000000 35.70000076
vt 2.58578610 35.11420822
vt 3.23463297 35.54776001
vt 4.00000000 35.70000076
f 29/29 30/30 31/31
f 31/31 30/30 32/32
f 33/33 34/34 35/35
f 35/35 34/34 36/36
f 37/37 38/38 39/39
f 39/39 38/38 40/40
f 39/39 40/40 41/41
f 41/41 40/40 42/42
f 42/42 40/40 43/43
f 42/42 43/43 44/44
f 44/44 45/45 42/42
f 46/46 47/47 41/41
f 41/41 47/47 48/48
f 41/41 48/48 39/39
f 49/49 50/50 51/51
f 51/51 50/50 52/52
f 51/51 52/52 53/53
f 53/53 52/52 54/54
f 53/53 54/54 55/55
f 55/55 54/54 56/56
f 56/56 54/54 57/57
f 51/51 58/58 49/49
f 49/49 58/58 59/59
f 49/49 59/59 60/60
f 61/61 62/62 63/63
f 63/63 62/62 64/64
f 64/64 62/62 65/65
f 65/65 62/62 66/66
f 65/65 66/66 67/67
f 67/67 66/66 68/68
f 69/69 70/70 71/71
f 71/71 70/70 72/72
f 73/73 74/74 75/75
f 75/75 74/74 76/76
f 77/77 78/78 79/79
f 79/79 78/78 80/80
f 79/79 80/80 81/81
f 81/81 80/80 82/82
f 81/81 82/82 83/83
f 83/83 82/82 84/84
f 84/84 82/82 85/85
f 79/79 86/86 77/77
f 77/77 86/86 87/87
f 77/77 87/87 88/88
f 89/89 90/90 91/91
f 91/91 90/90 92/92
f 91/91 92/92 93/93
f 93/93 92/92 94/94
f 94/94 92/92 95/95
f 94/94 95/95 96/96
f 96/96 97/97 94/94
f 98/98 99/99 93/93
f 93/93 99/99 100/100
f 93/93 100/100 91/91
f 101/101 102/102 103/103
f 103/103 102/102 104/104
f 103/103 104/104 105/105
f 105/105 104/104 106/106
f 106/106 104/104 107/107
f 106/106 107/107 108/108
f 108/108 107/107 109/109
f 108/108 109/109 110/110
f 111/111 112/112 101/101
f 101/101 112/112 113/113
f 101/101 113/113 114/114
f 114/114 113/113 115/115
f 114/114 115/115 116/116
f 111/111 117/117 112/112
f 112/112 117/117 118/118
f 118/118 117/117 119/119
f 118/118 119/119 120/120
f 120/120 119/119 121/121
f 120/120 121/121 122/122
f 122/122 121/121 123/123
f 122/122 123/123 124/124
f 124/124 123/123 125/125
f 124/124 125/125 110/110
f 110/110 125/125 126/126
f 110/110 126/126 127/127
f 127/127 108/108 110/110
f 128/128 129/129 102/102
f 102/102 129/129 130/130
f 102/102 130/130 104/104
f 104/104 130/130 131/131
f 131/131 130/130 132/132
f 131/131 132/132 133/133
f 130/130 134/134 132/132
f 132/132 134/134 135/135
f 135/135 134/134 136/136
f 135/135 136/136 137/137
f 137/137 138/138 135/135
f 133/133 139/139 131/131
f 140/140 141/141 104/104
f 104/104 141/141 107/107
f 142/142 143/143 107/107
f 107/107 143/143 144/144
f 107/107 144/144 109/109
f 109/109 144/144 145/145
f 109/109 145/145 146/146
f 147/147 148/148 142/142
f 142/142 148/148 149/149
f 142/142 149/149 143/143
f 118/118 120/120 150/150
f 150/150 120/120 151/151
f 150/150 151/151 152/152
f 152/152 151/151 153/153
f 152/152 153/153 154/154
f 154/154 155/155 152/152
f 150/150 156/156 118/118
f 118/118 156/156 157/157
f 158/158 159/159 112/112
f 112/112 159/159 113/113
f 115/115 113/113 160/160
f 160/160 113/113 161/161
f 160/160 161/161 162/162
f 162/162 161/161 163/163
f 163/163 161/161 164/164
f 116/116 165/165 114/114
f 114/114 102/102 101/101
f 166/166 167/167 168/168
f 168/168 167/167 169/169
f 170/170 171/171 172/172
f 172/172 171/171 173/173
f 174/174 175/175 176/176
f 176/176 175/175 177/177
f 176/176 177/177 178/178
f 178/178 177/177 179/179
f 179/179 177/177 180/180
f 179/179 180/180 181/181
f 181/181 182/182 179/179
f 183/183 184/184 178/178
f 178/178 184/184 185/185
f 178/178 185/185 176/176
f 186/186 187/187 188/188
f 188/188 187/187 189/189
f 188/188 189/189 190/190
f 190/190 189/189 191/191
f 190/190 191/191 192/192
f 186/186 193/193 187/187
f 187/187 193/193 194/194
f 194/194 193/193 195/195
f 195/195 193/193 196/196
f 192/192 197/197 190/190
f 198/198 199/199 200/200
f 200/200 199/199 201/201
f 201/201 199/199 202/202
f 202/202 199/199 203/203
f 202/202 203/203 204/204
f 204/204 203/203 205/205
f 206/206 207/207 208/208
f 208/208 207/207 209/209
f 210/210 211/211 212/212
f 212/212 211/211 213/213
f 214/214 215/215 216/216
f 216/216 215/215 217/217
f 216/216 217/217 218/218
f 218/218 217/217 219/219
f 218/218 219/219 220/220
f 214/214 221/221 215/215
f 215/215 221/221 222/222
f 222/222 221/221 223/223
f 223/223 221/221 224/224
f 220/220 225/225 218/218
f 226/226 227/227 228/228
f 228/228 227/227 229/229
f 228/228 229/229 230/230
f 230/230 229/229 231/231
f 231/231 229/229 232/232
f 231/231 232/232 233/233
f 233/233 234/234 231/231
f 235/235 236/236 230/230
f 230/230 236/236 237/237
f 230/230 237/237 228/228
f 238/238 239/239 240/240
f 240/240 239/239 241/241
f 240/240 241/241 242/242
f 242/242 241/241 243/243
f 242/242 243/243 244/244
f 244/244 243/243 245/245
f 244/244 245/245 246/246
f 246/246 245/245 247/247
f 248/248 249/249 250/250
f 250/250 249/249 251/251
f 250/250 251/251 252/252
f 252/252 251/251 253/253
f 252/252 253/253 254/254
f 254/254 253/253 255/255
f 254/254 255/255 256/256
f 256/256 255/255 257/257
f 258/258 259/259 260/260
f 260/260 259/259 261/261
f 262/262 263/263 264/264
f 264/264 263/263 265/265
f 264/264 265/265 266/266
f 266/266 265/265 267/267
f 266/266 267/267 268/268
f 268/268 267/267 269/269
f 268/268 269/269 270/270
f 270/270 269/269 271/271
f 272/272 273/273 274/274
f 274/274 273/273 275/275
f 274/274 275/275 276/276
f 276/276 275/275 277/277
f 276/276 277/277 278/278
f 278/278 277/277 279/279
f 278/278 279/279 280/280
f 280/280 279/279 281/281
f 282/282 283/283 284/284
f 284/284 283/283 285/285
f 286/286 287/287 288/288
f 288/288 287/287 289/289
f 288/288 289/289 290/290
f 290/290 289/289 291/291
f 290/290 291/291 292/292
f 292/292 291/291 293/293
f 292/292 293/293 294/294
f 294/294 293/293 295/295
f 296/296 297/297 298/298
f 298/298 297/297 299/299
f 298/298 299/299 300/300
f 300/300 299/299 301/301
f 300/300 301/301 302/302
f 302/302 301/301 303/303
f 302/302 303/303 304/304
f 304/304 303/303 305/305
f 306/306 307/307 308/308
f 308/308 307/307 309/309
f 310/310 311/311 312/312
f 312/312 311/311 313/313
f 312/312 313/313 314/314
f 314/314 313/313 315/315
f 314/314 315/315 316/316
f 316/316 315/315 317/317
f 316/316 317/317 318/318
f 318/318 317/317 319/319
f 320/320 321/321 322/322
f 322/322 321/321 323/323
f 322/322 323/323 324/324
f 324/324 323/323 325/325
f 324/324 325/325 326/326
f 326/326 325/325 327/327
f 326/326 327/327 328/328
f 328/328 327/327 329/329
f 330/330 331/331 332/332
f 332/332 331/331 333/333
f 334/334 335/335 336/336
f 336/336 335/335 337/337
f 336/336 337/337 338/338
f 338/338 339/339 336/336
f 340/340 341/341 342/342
f 342/342 341/341 343/343
f 342/342 343/343 344/344
f 344/344 345/345 342/342
f 346/346 347/347 348/348
f 348/348 347/347 349/349
f 348/348 349/349 350/350
f 350/350 351/351 348/348
f 352/352 353/353 354/354
f 354/354 353/353 355/355
f 354/354 355/355 356/356
f 356/356 357/357 354/354
f 358/358 359/359 360/360
f 360/360 359/359 361/361
f 360/360 361/361 362/362
f 362/362 363/363 360/360
f 364/364 365/365 366/366
f 366/366 365/365 367/367
f 366/366 367/367 368/368
f 368/368 369/369 366/366
f 370/370 371/371 372/372
f 372/372 371/371 373/373
f 372/372 373/373 374/374
f 374/374 375/375 372/372
f 376/376 377/377 378/378
f 378/378 377/377 379/379
f 378/378 379/379 380/380
f 380/380 379/379 381/381
f 380/380 381/381 382/382
f 382/382 381/381 383/383
f 382/382 383/383 384/384
f 384/384 383/383 385/385
f 386/386 387/387 388/388
f 388/388 387/387 389/389
f 388/388 389/389 390/390
f 390/390 389/389 391/391
f 390/390 391/391 392/392
f 392/392 391/391 393/393
f 392/392 393/393 394/394
f 394/394 393/393 395/395
f 396/396 397/397 398/398
f 398/398 397/397 399/399
f 400/400 401/401 402/402
f 402/402 401/401 403/403
f 404/404 405/405 406/406
f 406/406 405/405 407/407
f 406/406 407/407 408/408
f 408/408 407/407 409/409
f 408/408 409/409 410/410
f 410/410 411/411 408/408
f 412/412 413/413 414/414
f 414/414 413/413 415/415
f 414/414 415/415 416/416
f 416/416 415/415 417/417
f 416/416 417/417 418/418
f 418/418 417/417 419/419
f 418/418 419/419 420/420
f 420/420 419/419 421/421
f 422/422 423/423 424/424
f 424/424 423/423 425/425
f 424/424 425/425 426/426
f 426/426 425/425 427/427
f 426/426 427/427 428/428
f 428/428 427/427 429/429
f 428/428 429/429 430/430
f 430/430 429/429 431/431
f 432/432 433/433 434/434
f 434/434 433/433 435/435
f 434/434 435/435 436/436
f 436/436 435/435 437/437
f 436/436 437/437 438/438
f 438/438 437/437 439/439
f 438/438 439/439 440/440
f 440/440 439/439 441/441
f 442/442 443/443 444/444
f 444/444 443/443 445/445
f 446/446 447/447 448/448
f 448/448 447/447 449/449
f 448/448 449/449 450/450
f 450/450 449/449 451/451
f 450/450 451/451 452/452
f 452/452 451/451 453/453
f 452/452 453/453 454/454
f 454/454 453/453 455/455
f 456/456 457/457 458/458
f 458/458 457/457 459/459
f 458/458 459/459 460/460
f 460/460 459/459 461/461
f 460/460 461/461 462/462
f 462/462 461/461 463/463
f 462/462 463/463 464/464
f 464/464 463/463 465/465
f 466/466 467/467 468/468
f 468/468 467/467 469/469
f 470/470 471/471 472/472
f 472/472 471/471 473/473
f 472/472 473/473 474/474
f 474/474 473/473 475/475
f 474/474 475/475 476/476
f 476/476 475/475 477/477
f 476/476 477/477 478/478
f 478/478 477/477 479/479
f 480/480 481/481 482/482
f 482/482 481/481 483/483
f 482/482 483/483 484/484
f 484/484 483/483 485/485
f 484/484 485/485 486/486
f 486/486 487/487 484/484
f 488/488 489/489 490/490
f 490/490 489/489 491/491
f 490/490 491/491 492/492
f 492/492 493/493 490/490
f 494/494 495/495 496/496
f 496/496 495/495 497/497
f 496/496 497/497 498/498
f 498/498 499/499 496/496
f 500/500 501/501 502/502
f 502/502 501/501 503/503
f 502/502 503/503 504/504
f 504/504 505/505 502/502
f 506/506 507/507 508/508
f 508/508 507/507 509/509
f 508/508 509/509 510/510
f 510/510 511/511 508/508
f 512/512 513/513 514/514
f 514/514 513/513 515/515
f 514/514 515/515 516/516
f 516/516 517/517 514/514
f 518/518 519/519 520/520
f 520/520 519/519 521/521
f 520/520 521/521 522/522
f 522/522 523/523 520/520
f 524/524 525/525 526/526
f 526/526 525/525 527/527
f 526/526 527/527 528/528
f 528/528 527/527 529/529
f 528/528 529/529 530/530
f 530/530 529/529 531/531
f 530/530 531/531 532/532
f 532/532 531/531 533/533
f 533/533 531/531 534/534
f 532/532 535/535 530/530
f 536/536 537/537 538/538
f 538/538 537/537 539/539
f 538/538 539/539 540/540
f 540/540 539/539 541/541
f 540/540 541/541 542/542
f 542/542 541/541 543/543
f 542/542 543/543 544/544
f 544/544 543/543 545/545
f 545/545 543/543 546/546
f 544/544 547/547 542/542
f 548/548 549/549 550/550
f 550/550 549/549 551/551
f 550/550 551/551 552/552
f 552/552 551/551 553/553
f 552/552 553/553 554/554
f 552/552 554/554 555/555
f 555/555 554/554 556/556
f 555/555 556/556 557/557
f 555/555 557/557 558/558
f 558/558 557/557 559/559
f 558/558 559/559 560/560
f 561/561 562/562 560/560
f 560/560 562/562 563/563
f 560/560 563/563 558/558
f 558/558 563/563 552/552
f 558/558 552/552 555/555
f 561/561 564/564 562/562
f 562/562 564/564 565/565
f 562/562 565/565 563/563
f 563/563 565/565 566/566
f 563/563 566/566 550/550
f 550/550 566/566 548/548
f 565/565 548/548 566/566
f 552/552 563/563 550/550
f 567/567 568/568 569/569
f 569/569 568/568 570/570
f 569/569 570/570 571/571
f 571/571 570/570 572/572
f 571/571 572/572 573/573
f 573/573 572/572 574/574
f 573/573 574/574 575/575
f 575/575 574/574 576/576
f 576/576 574/574 577/577
f 575/575 578/578 573/573
f 579/579 580/580 581/581
f 581/581 580/580 582/582
f 581/581 582/582 583/583
f 583/583 582/582 584/584
f 583/583 584/584 585/585
f 586/586 587/587 585/585
f 585/585 587/587 588/588
f 585/585 588/588 583/583
f 583/583 588/588 589/589
f 583/583 589/589 581/581
f 581/581 589/589 579/579
f 586/586 590/590 587/587
f 587/587 590/590 591/591
f 587/587 591/591 588/588
f 588/588 591/591 592/592
f 588/588 592/592 589/589
f 589/589 592/592 593/593
f 589/589 593/593 594/594
f 590/590 595/595 591/591
f 591/591 595/595 596/596
f 591/591 596/596 592/592
f 592/592 596/596 597/597
f 592/592 597/597 593/593
f 594/594 579/579 589/589
f 598/598 599/599 600/600
f 600/600 599/599 601/601
f 600/600 601/601 602/602
f 602/602 601/601 603/603
f 602/602 603/603 604/604
f 604/604 603/603 605/605
f 604/604 605/605 606/606
f 606/606 605/605 607/607
f 607/607 605/605 608/608
f 606/606 609/609 604/604
f 610/610 611/611 612/612
f 612/612 611/611 613/613
f 612/612 613/613 614/614
f 614/614 613/613 615/615
f 614/614 615/615 616/616
f 614/614 616/616 617/617
f 617/617 616/616 618/618
f 617/617 618/618 619/619
f 617/617 619/619 620/620
f 620/620 619/619 621/621
f 620/620 621/621 622/622
f 623/623 624/624 622/622
f 622/622 624/624 625/625
f 622/622 625/625 620/620
f 620/620 625/625 614/614
f 620/620 614/614 617/617
f 623/623 626/626 624/624
f 624/624 626/626 627/627
f 624/624 627/627 625/625
f 625/625 627/627 612/612
f 625/625 612/612 614/614
f 626/626 628/628 627/627
f 627/627 628/628 610/610
f 627/627 610/610 612/612
f 629/629 630/630 631/631
f 631/631 630/630 632/632
f 631/631 632/632 633/633
f 633/633 632/632 634/634
f 633/633 634/634 635/635
f 636/636 637/637 635/635
f 635/635 637/637 638/638
f 635/635 638/638 633/633
f 633/633 638/638 639/639
f 633/633 639/639 631/631
f 631/631 639/639 629/629
f 636/636 640/640 637/637
f 637/637 640/640 641/641
f 637/637 641/641 638/638
f 638/638 641/641 642/642
f 638/638 642/642 643/643
f 643/643 642/642 644/644
f 643/643 644/644 645/645
f 641/641 644/644 642/642
f 645/645 646/646 643/643
f 643/643 646/646 639/639
f 643/643 639/639 638/638
f 646/646 647/647 639/639
f 639/639 647/647 629/629
f 648/648 649/649 650/650
f 650/650 649/649 651/651
f 650/650 651/651 652/652
f 652/652 651/651 653/653
f 651/651 649/649 654/654
f 654/654 649/649 655/655
f 654/654 655/655 656/656
f 656/656 655/655 657/657
f 656/656 657/657 658/658
f 658/658 657/657 659/659
f 659/659 657/657 660/660
f 658/658 661/661 656/656
f 662/662 663/663 664/664
f 664/664 663/663 665/665
f 664/664 665/665 666/666
f 666/666 667/667 664/664
f 668/668 669/669 670/670
f 670/670 669/669 671/671
f 670/670 671/671 672/672
f 672/672 671/671 673/673
f 671/671 669/669 674/674
f 674/674 669/669 675/675
f 674/674 675/675 676/676
f 676/676 675/675 677/677
f 676/676 677/677 678/678
f 678/678 677/677 679/679
f 679/679 677/677 680/680
f 678/678 681/681 676/676
f 682/682 683/683 684/684
f 684/684 683/683 685/685
f 684/684 685/685 686/686
f 686/686 685/685 687/687
f 687/687 685/685 688/688
f 688/688 685/685 689/689
f 689/689 685/685 690/690
f 689/689 690/690 691/691
f 691/691 690/690 692/692
f 692/692 690/690 693/693
f 692/692 693/693 694/694
f 694/694 693/693 695/695
f 695/695 693/693 696/696
f 696/696 693/693 683/683
f 696/696 683/683 697/697
f 697/697 683/683 698/698
f 698/698 683/683 682/682
f 699/699 700/700 701/701
f 701/701 700/700 702/702
f 701/701 702/702 703/703
f 703/703 702/702 704/704
f 702/702 700/700 705/705
f 705/705 700/700 706/706
f 705/705 706/706 707/707
f 707/707 706/706 708/708
f 707/707 708/708 709/709
f 709/709 708/708 710/710
f 710/710 708/708 711/711
f 709/709 712/712 707/707
f 713/713 714/714 715/715
f 715/715 714/714 716/716
f 715/715 716/716 717/717
f 717/717 718/718 715/715
f 719/719 720/720 721/721
f 721/721 720/720 722/722
f 721/721 722/722 723/723
f 723/723 722/722 724/724
f 722/722 720/720 725/725
f 725/725 720/720 726/726
f 725/725 726/726 727/727
f 727/727 726/726 728/728
f 727/727 728/728 729/729
f 729/729 728/728 730/730
f 730/730 728/728 731/731
f 729/729 732/732 727/727
f 733/733 734/734 735/735
f 735/735 734/734 736/736
f 735/735 736/736 737/737
f 737/737 738/738 735/735

o EMROX_SF-KL_Manipulator_Simple-mesh_2
usemtl material_cabinet_ac_2
v -3.49799980 -1.69999996 3.56999992
v -3.49799980 -1.69999996 0.00000000
v -3.49799980 -1.79999996 3.56999992
v -3.49799980 -1.79999996 0.00000000
v -2.09999995 3.19799981 0.00000000
v -2.09999995 3.19799981 3.56999992
v -1.99999996 3.19799981 0.00000000
v -1.99999996 3.19799981 3.56999992
v 3.49799980 1.69999996 3.56999992
v 3.49799980 1.69999996 0.00000000
v 3.49799980 1.79999996 3.56999992
v 3.49799980 1.79999996 0.00000000
v 2.09999995 -3.19799981 0.00000000
v 2.09999995 -3.19799981 3.56999992
v 1.99999996 -3.19799981 0.00000000
v 1.99999996 -3.19799981 3.56999992
vt 17.85000038 0.50000000
vt -17.85000038 0.50000000
vt 17.85000038 -0.50000000
vt -17.85000038 -0.50000000
vt -17.85000038 -0.50000000
vt 17.85000038 -0.50000000
vt -17.85000038 0.50000000
vt 17.85000038 0.50000000
vt -17.85000038 -0.50000000
vt 17.85000038 -0.50000000
vt -17.85000038 0.50000000
vt 17.85000038 0.50000000
vt 17.85000038 0.50000000
vt -17.85000038 0.50000000
vt 17.85000038 -0.50000000
vt -17.85000038 -0.50000000
f 739/739 740/740 741/741
f 741/741 740/740 742/742
f 743/743 744/744 745/745
f 745/745 744/744 746/746
f 747/747 748/748 749/749
f 749/749 748/748 750/750
f 751/751 752/752 753/753
f 753/753 752/752 754/754

