mtllib material.mtl
usemtl material_ur_to_robotiq_adapter_1
v 0.03549736 -0.00042977 0.00026949
v 0.03549998 -0.00002897 0.00025009
v 0.03548008 -0.00118816 0.00531816
v 0.03547865 0.00123083 0.00041226
v 0.03548055 0.00117367 0.00468183
v 0.03549039 0.00082483 0.00032216
v 0.03549754 0.00041452 0.00026812
v 0.03546279 0.00162458 0.00053646
v 0.03544318 0.00200689 0.00069478
v 0.03542047 0.00237495 0.00088638
v 0.03546279 0.00162458 0.00946349
v 0.03547865 0.00123083 0.00958776
v 0.03549039 0.00082483 0.00967783
v 0.03549754 0.00041341 0.00973195
v 0.03549998 0.00000000 0.00974995
v 0.03549736 -0.00042746 0.00973070
v 0.03549039 -0.00082483 0.00967783
v 0.03547865 -0.00122982 0.00958800
v 0.03546279 -0.00162458 0.00946349
v 0.03544318 -0.00200683 0.00930524
v 0.03542047 -0.00237495 0.00911361
v 0.03549998 0.00000000 0.00025000
v 0.03546279 -0.00162458 0.00053646
v 0.03547877 -0.00122785 0.00041144
v 0.03549039 -0.00082483 0.00032216
v 0.03540694 -0.00256777 0.00512403
v 0.03518074 -0.00474995 0.00500000
v 0.03518319 -0.00473195 0.00458652
v 0.03519040 -0.00467783 0.00417513
v 0.03520226 -0.00458777 0.00376916
v 0.03521829 -0.00446349 0.00337535
v 0.03523796 -0.00430524 0.00299317
v 0.03526085 -0.00411361 0.00262499
v 0.03528618 -0.00389004 0.00227415
v 0.03531295 -0.00363868 0.00194675
v 0.03534066 -0.00335944 0.00164193
v 0.03536850 -0.00305319 0.00136125
v 0.03539240 -0.00276160 0.00886470
v 0.03536850 -0.00305319 0.00863868
v 0.03534078 -0.00335854 0.00835889
v 0.03531295 -0.00363868 0.00805324
v 0.03528606 -0.00389087 0.00772452
v 0.03526085 -0.00411361 0.00737494
v 0.03523796 -0.00430512 0.00700706
v 0.03521829 -0.00446349 0.00662458
v 0.03520226 -0.00458801 0.00622976
v 0.03519040 -0.00467783 0.00582480
v 0.03518319 -0.00473201 0.00541294
v 0.03539246 -0.00276047 0.00113445
v 0.03541505 -0.00245327 0.00093258
v 0.03542047 -0.00237501 0.00088638
v 0.03544306 -0.00200856 0.00069559
v 0.03519040 0.00467783 0.00417513
v 0.03518319 0.00473177 0.00458455
v 0.03540790 0.00255525 0.00488478
v 0.03518074 0.00474995 0.00500000
v 0.03518319 0.00473177 0.00541556
v 0.03519040 0.00467783 0.00582480
v 0.03520220 0.00458854 0.00622785
v 0.03521829 0.00446349 0.00662458
v 0.03523808 0.00430435 0.00700867
v 0.03526085 0.00411361 0.00737494
v 0.03528594 0.00389189 0.00772309
v 0.03531295 0.00363868 0.00805324
v 0.03534078 0.00335795 0.00835949
v 0.03536850 0.00305319 0.00863868
v 0.03539437 0.00273538 0.00111669
v 0.03536850 0.00305319 0.00136125
v 0.03534078 0.00335812 0.00164062
v 0.03531295 0.00363868 0.00194675
v 0.03528594 0.00389182 0.00227678
v 0.03526085 0.00411361 0.00262499
v 0.03523808 0.00430441 0.00299144
v 0.03521829 0.00446349 0.00337535
v 0.03520220 0.00458854 0.00377214
v 0.03539437 0.00273550 0.00888318
v 0.03541904 0.00239545 0.00910169
v 0.03542047 0.00237495 0.00911361
v 0.03544318 0.00200671 0.00930530
f 1 2 3
f 4 5 6
f 6 5 7
f 4 8 5
f 5 8 9
f 5 9 10
f 5 11 12
f 12 13 5
f 5 13 14
f 5 14 15
f 16 17 3
f 3 17 18
f 18 19 3
f 3 19 20
f 3 20 21
f 16 3 15
f 15 3 2
f 15 2 5
f 5 22 7
f 23 24 3
f 3 24 25
f 3 25 1
f 26 27 28
f 28 29 26
f 26 29 30
f 26 30 31
f 31 32 26
f 26 32 33
f 26 33 34
f 34 35 26
f 26 35 36
f 26 36 37
f 21 38 26
f 26 38 39
f 26 39 40
f 40 41 26
f 26 41 42
f 26 42 43
f 43 44 26
f 26 44 45
f 26 45 46
f 46 47 26
f 26 47 48
f 26 48 27
f 37 49 26
f 26 49 50
f 26 50 21
f 21 50 51
f 21 51 3
f 3 51 52
f 3 52 23
f 53 54 55
f 55 54 56
f 55 56 57
f 57 58 55
f 55 58 59
f 55 59 60
f 60 61 55
f 55 61 62
f 55 62 63
f 63 64 55
f 55 64 65
f 55 65 66
f 55 10 67
f 67 68 55
f 55 68 69
f 55 69 70
f 70 71 55
f 55 71 72
f 55 72 73
f 73 74 55
f 55 74 75
f 55 75 53
f 66 76 55
f 55 76 77
f 55 77 10
f 10 78 5
f 5 78 79
f 5 79 11

