mtllib material.mtl
usemtl material_diff_caster_0
v 40.75000000 40.49999679 -42.53884431
v 40.75000000 40.50000257 34.04326705
v 40.75000000 76.07694550 -60.60369684
v 40.75000000 97.40388997 -33.74896594
v 40.75000000 77.13621823 -61.09778414
v 40.75000000 78.22610772 -61.52005595
v 40.75000000 79.34176169 -61.86863545
v 40.75000000 80.47820576 -62.14196622
v 40.75000000 81.63034350 -62.33882757
v 40.75000000 82.79305559 -62.45833450
v 40.75000000 83.96116166 -62.49996819
v 40.75000000 85.12943559 -62.46352648
v 40.75000000 86.29266650 -62.34917720
v 40.75000000 87.44567402 -62.15743534
v 40.75000000 88.58331595 -61.88914777
v 40.75000000 89.70050347 -61.54552755
v 40.75000000 90.79226223 -61.12808532
v 40.75000000 91.85372467 -60.63870551
v 40.75000000 92.88014531 -60.07955871
v 40.75000000 93.86695413 -59.45314735
v 40.75000000 94.80975661 -58.76224852
v 40.75000000 95.70432606 -58.00995596
v 40.75000000 96.54667232 -57.19963803
v 40.75000000 97.33305697 -56.33488818
v 40.75000000 98.05996286 -55.41956688
v 40.75000000 98.12503553 -34.66881921
v 40.75000000 98.72414750 -54.45777875
v 40.75000000 98.78317755 -35.63476927
v 40.75000000 99.32264306 -53.45378863
v 40.75000000 99.37536344 -36.64248645
v 40.75000000 99.85278688 -52.41208640
v 40.75000000 99.89896871 -37.68748847
v 40.75000000 100.31219858 -51.33731836
v 40.75000000 100.35159772 -38.76511759
v 40.75000000 100.69889452 -50.23427579
v 40.75000000 100.73139653 -39.87055585
v 40.75000000 101.01099788 -49.10789871
v 40.75000000 101.03649593 -40.99887848
v 40.75000000 101.24729557 -47.96318819
v 40.75000000 101.26559893 -42.14504625
v 40.75000000 101.40659742 -46.80524829
v 40.75000000 101.41759927 -43.30395892
v 40.75000000 101.48829306 -45.63926700
v 40.75000000 101.49199341 -44.47042850
v -40.75000000 40.49999679 -42.53884431
v -40.75000000 76.07694550 -60.60369684
v -40.75000000 40.50000257 34.04326705
v -40.75000000 97.40388997 -33.74896594
v -40.75000000 77.13621823 -61.09778414
v -40.75000000 78.22610772 -61.52005595
v -40.75000000 79.34176169 -61.86863545
v -40.75000000 80.47820576 -62.14196622
v -40.75000000 81.63034350 -62.33882757
v -40.75000000 82.79305559 -62.45833450
v -40.75000000 83.96116166 -62.49996819
v -40.75000000 85.12943559 -62.46352648
v -40.75000000 86.29266650 -62.34917720
v -40.75000000 87.44567402 -62.15743534
v -40.75000000 88.58331595 -61.88914777
v -40.75000000 89.70050347 -61.54552755
v -40.75000000 90.79226223 -61.12808532
v -40.75000000 91.85372467 -60.63870551
v -40.75000000 92.88014531 -60.07955871
v -40.75000000 93.86695413 -59.45314735
v -40.75000000 94.80975661 -58.76224852
v -40.75000000 95.70432606 -58.00995596
v -40.75000000 96.54667232 -57.19963803
v -40.75000000 97.33305697 -56.33488818
v -40.75000000 98.05996286 -55.41956688
v -40.75000000 98.12503553 -34.66881921
v -40.75000000 98.72414750 -54.45777875
v -40.75000000 98.78317755 -35.63476927
v -40.75000000 99.32264306 -53.45378863
v -40.75000000 99.37536344 -36.64248645
v -40.75000000 99.85278688 -52.41208640
v -40.75000000 99.89896871 -37.68748847
v -40.75000000 100.31219858 -51.33731836
v -40.75000000 100.35159772 -38.76511759
v -40.75000000 100.69889452 -50.23427579
v -40.75000000 100.73139653 -39.87055585
v -40.75000000 101.01099788 -49.10789871
v -40.75000000 101.03649593 -40.99887848
v -40.75000000 101.24729557 -47.96318819
v -40.75000000 101.26559893 -42.14504625
v -40.75000000 101.40659742 -46.80524829
v -40.75000000 101.41759927 -43.30395892
v -40.75000000 101.48829306 -45.63926700
v -40.75000000 101.49199341 -44.47042850
v -40.75000000 40.49999679 -42.53884431
v -40.75000000 40.50000257 34.04326705
v 40.75000000 40.49999679 -42.53884431
v 40.75000000 40.50000257 34.04326705
v 40.75000000 97.40388997 -33.74896594
v 40.75000000 40.50000257 34.04326705
v 45.75000000 97.40388997 -33.74896594
v 45.75000000 35.50000302 39.99999732
v 0.00000000 35.50000302 39.99999732
v -40.75000000 40.50000257 34.04326705
v -45.75000000 35.50000302 39.99999732
v -45.75000000 97.40388997 -33.74896594
v -40.75000000 97.40388997 -33.74896594
v -45.75000000 97.40388997 -33.74896594
v -40.75000000 97.40388997 -33.74896594
v -45.75000000 98.12503553 -34.66881921
v -40.75000000 98.12503553 -34.66881921
v -45.75000000 98.78317755 -35.63476927
v -40.75000000 98.78317755 -35.63476927
v -45.75000000 99.37536344 -36.64248645
v -40.75000000 99.37536344 -36.64248645
v -45.75000000 99.89896871 -37.68748847
v -40.75000000 99.89896871 -37.68748847
v -45.75000000 100.35159772 -38.76511759
v -40.75000000 100.35159772 -38.76511759
v -45.75000000 100.73139653 -39.87055585
v -40.75000000 100.73139653 -39.87055585
v -45.75000000 101.03649593 -40.99887848
v -40.75000000 101.03649593 -40.99887848
v -45.75000000 101.26559893 -42.14504625
v -40.75000000 101.26559893 -42.14504625
v -45.75000000 101.41759927 -43.30395892
v -40.75000000 101.41759927 -43.30395892
v -45.75000000 101.49199341 -44.47042850
v -40.75000000 101.49199341 -44.47042850
v -45.75000000 101.48829306 -45.63926700
v -40.75000000 101.48829306 -45.63926700
v -45.75000000 101.40659742 -46.80524829
v -40.75000000 101.40659742 -46.80524829
v -45.75000000 101.24729557 -47.96318819
v -40.75000000 101.24729557 -47.96318819
v -45.75000000 101.01099788 -49.10789871
v -40.75000000 101.01099788 -49.10789871
v -45.75000000 100.69889452 -50.23427579
v -40.75000000 100.69889452 -50.23427579
v -45.75000000 100.31219858 -51.33731836
v -40.75000000 100.31219858 -51.33731836
v -45.75000000 99.85278688 -52.41208640
v -40.75000000 99.85278688 -52.41208640
v -45.75000000 99.32264306 -53.45378863
v -40.75000000 99.32264306 -53.45378863
v -45.75000000 98.72414750 -54.45777875
v -40.75000000 98.72414750 -54.45777875
v -45.75000000 98.05996286 -55.41956688
v -40.75000000 98.05996286 -55.41956688
v -45.75000000 97.33305697 -56.33488818
v -40.75000000 97.33305697 -56.33488818
v -45.75000000 96.54667232 -57.19963803
v -40.75000000 96.54667232 -57.19963803
v -45.75000000 95.70432606 -58.00995596
v -40.75000000 95.70432606 -58.00995596
v -45.75000000 94.80975661 -58.76224852
v -40.75000000 94.80975661 -58.76224852
v -45.75000000 93.86695413 -59.45314735
v -40.75000000 93.86695413 -59.45314735
v -45.75000000 92.88014531 -60.07955871
v -40.75000000 92.88014531 -60.07955871
v -45.75000000 91.85372467 -60.63870551
v -40.75000000 91.85372467 -60.63870551
v -45.75000000 90.79226223 -61.12808532
v -40.75000000 90.79226223 -61.12808532
v -45.75000000 89.70050347 -61.54552755
v -40.75000000 89.70050347 -61.54552755
v -45.75000000 88.58331595 -61.88914777
v -40.75000000 88.58331595 -61.88914777
v -45.75000000 87.44567402 -62.15743534
v -40.75000000 87.44567402 -62.15743534
v -45.75000000 86.29266650 -62.34917720
v -40.75000000 86.29266650 -62.34917720
v -45.75000000 85.12943559 -62.46352648
v -40.75000000 85.12943559 -62.46352648
v -45.75000000 83.96116166 -62.49996819
v -40.75000000 83.96116166 -62.49996819
v -45.75000000 82.79305559 -62.45833450
v -40.75000000 82.79305559 -62.45833450
v -45.75000000 81.63034350 -62.33882757
v -40.75000000 81.63034350 -62.33882757
v -45.75000000 80.47820576 -62.14196622
v -40.75000000 80.47820576 -62.14196622
v -45.75000000 79.34176169 -61.86863545
v -40.75000000 79.34176169 -61.86863545
v -45.75000000 78.22610772 -61.52005595
v -40.75000000 78.22610772 -61.52005595
v -45.75000000 77.13621823 -61.09778414
v -40.75000000 77.13621823 -61.09778414
v -45.75000000 76.07694550 -60.60369684
v -40.75000000 76.07694550 -60.60369684
v 45.75000000 76.07694550 -60.60369684
v 40.75000000 76.07694550 -60.60369684
v 45.75000000 77.13621823 -61.09778414
v 40.75000000 77.13621823 -61.09778414
v 45.75000000 78.22610772 -61.52005595
v 40.75000000 78.22610772 -61.52005595
v 45.75000000 79.34176169 -61.86863545
v 40.75000000 79.34176169 -61.86863545
v 45.75000000 80.47820576 -62.14196622
v 40.75000000 80.47820576 -62.14196622
v 45.75000000 81.63034350 -62.33882757
v 40.75000000 81.63034350 -62.33882757
v 45.75000000 82.79305559 -62.45833450
v 40.75000000 82.79305559 -62.45833450
v 45.75000000 83.96116166 -62.49996819
v 40.75000000 83.96116166 -62.49996819
v 45.75000000 85.12943559 -62.46352648
v 40.75000000 85.12943559 -62.46352648
v 45.75000000 86.29266650 -62.34917720
v 40.75000000 86.29266650 -62.34917720
v 45.75000000 87.44567402 -62.15743534
v 40.75000000 87.44567402 -62.15743534
v 45.75000000 88.58331595 -61.88914777
v 40.75000000 88.58331595 -61.88914777
v 45.75000000 89.70050347 -61.54552755
v 40.75000000 89.70050347 -61.54552755
v 45.75000000 90.79226223 -61.12808532
v 40.75000000 90.79226223 -61.12808532
v 45.75000000 91.85372467 -60.63870551
v 40.75000000 91.85372467 -60.63870551
v 45.75000000 92.88014531 -60.07955871
v 40.75000000 92.88014531 -60.07955871
v 45.75000000 93.86695413 -59.45314735
v 40.75000000 93.86695413 -59.45314735
v 45.75000000 94.80975661 -58.76224852
v 40.75000000 94.80975661 -58.76224852
v 45.75000000 95.70432606 -58.00995596
v 40.75000000 95.70432606 -58.00995596
v 45.75000000 96.54667232 -57.19963803
v 40.75000000 96.54667232 -57.19963803
v 45.75000000 97.33305697 -56.33488818
v 40.75000000 97.33305697 -56.33488818
v 45.75000000 98.05996286 -55.41956688
v 40.75000000 98.05996286 -55.41956688
v 45.75000000 98.72414750 -54.45777875
v 40.75000000 98.72414750 -54.45777875
v 45.75000000 99.32264306 -53.45378863
v 40.75000000 99.32264306 -53.45378863
v 45.75000000 99.85278688 -52.41208640
v 40.75000000 99.85278688 -52.41208640
v 45.75000000 100.31219858 -51.33731836
v 40.75000000 100.31219858 -51.33731836
v 45.75000000 100.69889452 -50.23427579
v 40.75000000 100.69889452 -50.23427579
v 45.75000000 101.01099788 -49.10789871
v 40.75000000 101.01099788 -49.10789871
v 45.75000000 101.24729557 -47.96318819
v 40.75000000 101.24729557 -47.96318819
v 45.75000000 101.40659742 -46.80524829
v 40.75000000 101.40659742 -46.80524829
v 45.75000000 101.48829306 -45.63926700
v 40.75000000 101.48829306 -45.63926700
v 45.75000000 101.49199341 -44.47042850
v 40.75000000 101.49199341 -44.47042850
v 45.75000000 101.41759927 -43.30395892
v 40.75000000 101.41759927 -43.30395892
v 45.75000000 101.26559893 -42.14504625
v 40.75000000 101.26559893 -42.14504625
v 45.75000000 101.03649593 -40.99887848
v 40.75000000 101.03649593 -40.99887848
v 45.75000000 100.73139653 -39.87055585
v 40.75000000 100.73139653 -39.87055585
v 45.75000000 100.35159772 -38.76511759
v 40.75000000 100.35159772 -38.76511759
v 45.75000000 99.89896871 -37.68748847
v 40.75000000 99.89896871 -37.68748847
v 45.75000000 99.37536344 -36.64248645
v 40.75000000 99.37536344 -36.64248645
v 45.75000000 98.78317755 -35.63476927
v 40.75000000 98.78317755 -35.63476927
v 45.75000000 98.12503553 -34.66881921
v 40.75000000 98.12503553 -34.66881921
v 45.75000000 97.40388997 -33.74896594
v 40.75000000 97.40388997 -33.74896594
v 0.00000000 35.49999698 -40.00000268
v -1.76933396 35.49999698 -39.96085244
v -45.75000000 35.49999698 -40.00000268
v -3.53520393 35.49999699 -39.84347421
v -5.29415417 35.49999701 -39.64810449
v -7.04274082 35.49999703 -39.37512094
v -8.77754211 35.49999705 -39.02505380
v -10.49516010 35.49999709 -38.59860116
v -12.19223022 35.49999712 -38.09658319
v -13.86544037 35.49999717 -37.51999169
v -15.51150036 35.49999722 -36.86995202
v -17.12719917 35.49999727 -36.14774209
v -18.70936966 35.49999733 -35.35477334
v -20.25491905 35.49999740 -34.49258309
v -21.76082039 35.49999747 -33.56288415
v -23.22411919 35.49999754 -32.56747323
v -24.64195061 35.49999762 -31.50832253
v -26.01155090 35.49999771 -30.38748246
v -27.33023071 35.49999779 -29.20716363
v -28.59540939 35.49999789 -27.96967202
v -29.80462074 35.49999799 -26.67742234
v -30.95548058 35.49999809 -25.33295327
v -32.04573822 35.49999819 -23.93889314
v -33.07326889 35.49999830 -22.49797326
v -34.03606033 35.49999841 -21.01301271
v -34.93222046 35.49999853 -19.48691255
v -35.75999832 35.49999865 -17.92267304
v -36.51778030 35.49999877 -16.32334214
v -37.20407104 35.49999889 -14.69206315
v -37.81753922 35.49999902 -13.03202230
v -38.35697174 35.49999914 -11.34647256
v -38.82131958 35.49999927 -9.63871175
v -39.20967865 35.49999940 -7.91207963
v -39.52127838 35.49999953 -6.16995984
v -39.75550842 35.49999967 -4.41576272
v -39.91193008 35.49999980 -2.65292078
v -39.99021149 35.49999993 -0.88488567
v -39.99021149 35.50000007 0.88488031
v -45.75000000 35.50000302 39.99999732
v -39.91193008 35.50000020 2.65291542
v -39.75550842 35.50000033 4.41575736
v -39.52127838 35.50000047 6.16995448
v -39.20967865 35.50000060 7.91207427
v -38.82131958 35.50000073 9.63870639
v -38.35697174 35.50000086 11.34646720
v -37.81753922 35.50000098 13.03201693
v -37.20407104 35.50000111 14.69205779
v -36.51778030 35.50000123 16.32333678
v -35.75999832 35.50000135 17.92266768
v -34.93222046 35.50000147 19.48690719
v -34.03606033 35.50000159 21.01300734
v -33.07326889 35.50000170 22.49796790
v -32.04573822 35.50000181 23.93888778
v -30.95548058 35.50000191 25.33294791
v -29.80462074 35.50000201 26.67741698
v -28.59540939 35.50000211 27.96966666
v -27.33023071 35.50000221 29.20715827
v -26.01155090 35.50000229 30.38747710
v -24.64195061 35.50000238 31.50831717
v -23.22411919 35.50000246 32.56746787
v -21.76082039 35.50000253 33.56287879
v -20.25491905 35.50000260 34.49257773
v -18.70936966 35.50000267 35.35476798
v -17.12719917 35.50000273 36.14773673
v -15.51150036 35.50000278 36.86994666
v -13.86544037 35.50000283 37.51998633
v -12.19223022 35.50000288 38.09657783
v -10.49516010 35.50000291 38.59859580
v -8.77754211 35.50000295 39.02504844
v -7.04274082 35.50000297 39.37511558
v -5.29415417 35.50000299 39.64809913
v -3.53520393 35.50000301 39.84346885
v -1.76933396 35.50000302 39.96084708
v 0.00000000 35.50000302 39.99999732
v 1.76933396 35.50000302 39.96084708
v 45.75000000 35.50000302 39.99999732
v 3.53520393 35.50000301 39.84346885
v 5.29415417 35.50000299 39.64809913
v 7.04274082 35.50000297 39.37511558
v 8.77754211 35.50000295 39.02504844
v 10.49516010 35.50000291 38.59859580
v 12.19223022 35.50000288 38.09657783
v 13.86544037 35.50000283 37.51998633
v 15.51150036 35.50000278 36.86994666
v 17.12719917 35.50000273 36.14773673
v 18.70936966 35.50000267 35.35476798
v 20.25491905 35.50000260 34.49257773
v 21.76082039 35.50000253 33.56287879
v 23.22411919 35.50000246 32.56746787
v 24.64195061 35.50000238 31.50831717
v 26.01155090 35.50000229 30.38747710
v 27.33023071 35.50000221 29.20715827
v 28.59540939 35.50000211 27.96966666
v 29.80462074 35.50000201 26.67741698
v 30.95548058 35.50000191 25.33294791
v 32.04573822 35.50000181 23.93888778
v 33.07326889 35.50000170 22.49796790
v 34.03606033 35.50000159 21.01300734
v 34.93222046 35.50000147 19.48690719
v 35.75999832 35.50000135 17.92266768
v 36.51778030 35.50000123 16.32333678
v 37.20407104 35.50000111 14.69205779
v 37.81753922 35.50000098 13.03201693
v 38.35697174 35.50000086 11.34646720
v 38.82131958 35.50000073 9.63870639
v 39.20967865 35.50000060 7.91207427
v 39.52127838 35.50000047 6.16995448
v 39.75550842 35.50000033 4.41575736
v 39.91193008 35.50000020 2.65291542
v 39.99021149 35.50000007 0.88488031
v 39.99021149 35.49999993 -0.88488567
v 45.75000000 35.49999698 -40.00000268
v 39.91193008 35.49999980 -2.65292078
v 39.75550842 35.49999967 -4.41576272
v 39.52127838 35.49999953 -6.16995984
v 39.20967865 35.49999940 -7.91207963
v 38.82131958 35.49999927 -9.63871175
v 38.35697174 35.49999914 -11.34647256
v 37.81753922 35.49999902 -13.03202230
v 37.20407104 35.49999889 -14.69206315
v 36.51778030 35.49999877 -16.32334214
v 35.75999832 35.49999865 -17.92267304
v 34.93222046 35.49999853 -19.48691255
v 34.03606033 35.49999841 -21.01301271
v 33.07326889 35.49999830 -22.49797326
v 32.04573822 35.49999819 -23.93889314
v 30.95548058 35.49999809 -25.33295327
v 29.80462074 35.49999799 -26.67742234
v 28.59540939 35.49999789 -27.96967202
v 27.33023071 35.49999779 -29.20716363
v 26.01155090 35.49999771 -30.38748246
v 24.64195061 35.49999762 -31.50832253
v 23.22411919 35.49999754 -32.56747323
v 21.76082039 35.49999747 -33.56288415
v 20.25491905 35.49999740 -34.49258309
v 18.70936966 35.49999733 -35.35477334
v 17.12719917 35.49999727 -36.14774209
v 15.51150036 35.49999722 -36.86995202
v 13.86544037 35.49999717 -37.51999169
v 12.19223022 35.49999712 -38.09658319
v 10.49516010 35.49999709 -38.59860116
v 8.77754211 35.49999705 -39.02505380
v 7.04274082 35.49999703 -39.37512094
v 5.29415417 35.49999701 -39.64810449
v 3.53520393 35.49999699 -39.84347421
v 1.76933396 35.49999698 -39.96085244
v -45.75000000 35.49999698 -40.00000268
v -45.75000000 35.50000302 39.99999732
v -45.75000000 76.07694550 -60.60369684
v -45.75000000 97.40388997 -33.74896594
v -45.75000000 77.13621823 -61.09778414
v -45.75000000 78.22610772 -61.52005595
v -45.75000000 79.34176169 -61.86863545
v -45.75000000 80.47820576 -62.14196622
v -45.75000000 81.63034350 -62.33882757
v -45.75000000 82.79305559 -62.45833450
v -45.75000000 83.96116166 -62.49996819
v -45.75000000 85.12943559 -62.46352648
v -45.75000000 86.29266650 -62.34917720
v -45.75000000 87.44567402 -62.15743534
v -45.75000000 88.58331595 -61.88914777
v -45.75000000 89.70050347 -61.54552755
v -45.75000000 90.79226223 -61.12808532
v -45.75000000 91.85372467 -60.63870551
v -45.75000000 92.88014531 -60.07955871
v -45.75000000 93.86695413 -59.45314735
v -45.75000000 94.80975661 -58.76224852
v -45.75000000 95.70432606 -58.00995596
v -45.75000000 96.54667232 -57.19963803
v -45.75000000 97.33305697 -56.33488818
v -45.75000000 98.05996286 -55.41956688
v -45.75000000 98.12503553 -34.66881921
v -45.75000000 98.72414750 -54.45777875
v -45.75000000 98.78317755 -35.63476927
v -45.75000000 99.32264306 -53.45378863
v -45.75000000 99.37536344 -36.64248645
v -45.75000000 99.85278688 -52.41208640
v -45.75000000 99.89896871 -37.68748847
v -45.75000000 100.31219858 -51.33731836
v -45.75000000 100.35159772 -38.76511759
v -45.75000000 100.69889452 -50.23427579
v -45.75000000 100.73139653 -39.87055585
v -45.75000000 101.01099788 -49.10789871
v -45.75000000 101.03649593 -40.99887848
v -45.75000000 101.24729557 -47.96318819
v -45.75000000 101.26559893 -42.14504625
v -45.75000000 101.40659742 -46.80524829
v -45.75000000 101.41759927 -43.30395892
v -45.75000000 101.48829306 -45.63926700
v -45.75000000 101.49199341 -44.47042850
v 40.75000000 76.07694550 -60.60369684
v 45.75000000 76.07694550 -60.60369684
v 40.75000000 40.49999679 -42.53884431
v 45.75000000 35.49999698 -40.00000268
v 0.00000000 35.49999698 -40.00000268
v -40.75000000 40.49999679 -42.53884431
v -45.75000000 35.49999698 -40.00000268
v -45.75000000 76.07694550 -60.60369684
v -40.75000000 76.07694550 -60.60369684
v 45.75000000 35.49999698 -40.00000268
v 45.75000000 76.07694550 -60.60369684
v 45.75000000 35.50000302 39.99999732
v 45.75000000 97.40388997 -33.74896594
v 45.75000000 77.13621823 -61.09778414
v 45.75000000 78.22610772 -61.52005595
v 45.75000000 79.34176169 -61.86863545
v 45.75000000 80.47820576 -62.14196622
v 45.75000000 81.63034350 -62.33882757
v 45.75000000 82.79305559 -62.45833450
v 45.75000000 83.96116166 -62.49996819
v 45.75000000 85.12943559 -62.46352648
v 45.75000000 86.29266650 -62.34917720
v 45.75000000 87.44567402 -62.15743534
v 45.75000000 88.58331595 -61.88914777
v 45.75000000 89.70050347 -61.54552755
v 45.75000000 90.79226223 -61.12808532
v 45.75000000 91.85372467 -60.63870551
v 45.75000000 92.88014531 -60.07955871
v 45.75000000 93.86695413 -59.45314735
v 45.75000000 94.80975661 -58.76224852
v 45.75000000 95.70432606 -58.00995596
v 45.75000000 96.54667232 -57.19963803
v 45.75000000 97.33305697 -56.33488818
v 45.75000000 98.05996286 -55.41956688
v 45.75000000 98.12503553 -34.66881921
v 45.75000000 98.72414750 -54.45777875
v 45.75000000 98.78317755 -35.63476927
v 45.75000000 99.32264306 -53.45378863
v 45.75000000 99.37536344 -36.64248645
v 45.75000000 99.85278688 -52.41208640
v 45.75000000 99.89896871 -37.68748847
v 45.75000000 100.31219858 -51.33731836
v 45.75000000 100.35159772 -38.76511759
v 45.75000000 100.69889452 -50.23427579
v 45.75000000 100.73139653 -39.87055585
v 45.75000000 101.01099788 -49.10789871
v 45.75000000 101.03649593 -40.99887848
v 45.75000000 101.24729557 -47.96318819
v 45.75000000 101.26559893 -42.14504625
v 45.75000000 101.40659742 -46.80524829
v 45.75000000 101.41759927 -43.30395892
v 45.75000000 101.48829306 -45.63926700
v 45.75000000 101.49199341 -44.47042850
v 1.76933396 35.49999698 -39.96085244
v 0.88488299 -0.00000302 -39.99021149
v 0.00000000 35.49999698 -40.00000268
v -0.88488299 -0.00000302 -39.99021149
v -1.76933396 35.49999698 -39.96085244
v -2.65291810 -0.00000301 -39.91193008
v -3.53520393 35.49999699 -39.84347421
v -4.41576004 -0.00000300 -39.75550842
v -5.29415417 35.49999701 -39.64810449
v -6.16995716 -0.00000298 -39.52127838
v -7.04274082 35.49999703 -39.37512094
v -7.91207695 -0.00000296 -39.20967865
v -8.77754211 35.49999705 -39.02505380
v -9.63870907 -0.00000293 -38.82131958
v -10.49516010 35.49999709 -38.59860116
v -11.34646988 -0.00000290 -38.35697174
v -12.19223022 35.49999712 -38.09658319
v -13.03201962 -0.00000286 -37.81753922
v -13.86544037 35.49999717 -37.51999169
v -14.69206047 -0.00000281 -37.20407104
v -15.51150036 35.49999722 -36.86995202
v -16.32333946 -0.00000276 -36.51778030
v -17.12719917 35.49999727 -36.14774209
v -17.92267036 -0.00000270 -35.75999832
v -18.70936966 35.49999733 -35.35477334
v -19.48690987 -0.00000264 -34.93222046
v -20.25491905 35.49999740 -34.49258309
v -21.01301003 -0.00000257 -34.03606033
v -21.76082039 35.49999747 -33.56288415
v -22.49797058 -0.00000250 -33.07326889
v -23.22411919 35.49999754 -32.56747323
v -23.93889046 -0.00000242 -32.04573822
v -24.64195061 35.49999762 -31.50832253
v -25.33295059 -0.00000234 -30.95548058
v -26.01155090 35.49999771 -30.38748246
v -26.67741966 -0.00000225 -29.80462074
v -27.33023071 35.49999779 -29.20716363
v -27.96966934 -0.00000216 -28.59540939
v -28.59540939 35.49999789 -27.96967202
v -29.20716095 -0.00000206 -27.33023071
v -29.80462074 35.49999799 -26.67742234
v -30.38747978 -0.00000196 -26.01155090
v -30.95548058 35.49999809 -25.33295327
v -31.50831985 -0.00000186 -24.64195061
v -32.04573822 35.49999819 -23.93889314
v -32.56747055 -0.00000175 -23.22411919
v -33.07326889 35.49999830 -22.49797326
v -33.56288147 -0.00000164 -21.76082039
v -34.03606033 35.49999841 -21.01301271
v -34.49258041 -0.00000153 -20.25491905
v -34.93222046 35.49999853 -19.48691255
v -35.35477066 -0.00000141 -18.70936966
v -35.75999832 35.49999865 -17.92267304
v -36.14773941 -0.00000129 -17.12719917
v -36.51778030 35.49999877 -16.32334214
v -36.86994934 -0.00000117 -15.51150036
v -37.20407104 35.49999889 -14.69206315
v -37.51998901 -0.00000105 -13.86544037
v -37.81753922 35.49999902 -13.03202230
v -38.09658051 -0.00000092 -12.19223022
v -38.35697174 35.49999914 -11.34647256
v -38.59859848 -0.00000079 -10.49516010
v -38.82131958 35.49999927 -9.63871175
v -39.02505112 -0.00000066 -8.77754211
v -39.20967865 35.49999940 -7.91207963
v -39.37511826 -0.00000053 -7.04274082
v -39.52127838 35.49999953 -6.16995984
v -39.64810181 -0.00000040 -5.29415417
v -39.75550842 35.49999967 -4.41576272
v -39.84347153 -0.00000027 -3.53520393
v -39.91193008 35.49999980 -2.65292078
v -39.96084976 -0.00000013 -1.76933396
v -39.99021149 35.49999993 -0.88488567
v -40.00000000 0.00000000 0.00000000
v -39.99021149 35.50000007 0.88488031
v -39.99021149 35.50000007 0.88488031
v -40.00000000 0.00000000 0.00000000
v -39.96084976 0.00000013 1.76933396
v -39.91193008 35.50000020 2.65291542
v -39.84347153 0.00000027 3.53520393
v -39.75550842 35.50000033 4.41575736
v -39.64810181 0.00000040 5.29415417
v -39.52127838 35.50000047 6.16995448
v -39.37511826 0.00000053 7.04274082
v -39.20967865 35.50000060 7.91207427
v -39.02505112 0.00000066 8.77754211
v -38.82131958 35.50000073 9.63870639
v -38.59859848 0.00000079 10.49516010
v -38.35697174 35.50000086 11.34646720
v -38.09658051 0.00000092 12.19223022
v -37.81753922 35.50000098 13.03201693
v -37.51998901 0.00000105 13.86544037
v -37.20407104 35.50000111 14.69205779
v -36.86994934 0.00000117 15.51150036
v -36.51778030 35.50000123 16.32333678
v -36.14773941 0.00000129 17.12719917
v -35.75999832 35.50000135 17.92266768
v -35.35477066 0.00000141 18.70936966
v -34.93222046 35.50000147 19.48690719
v -34.49258041 0.00000153 20.25491905
v -34.03606033 35.50000159 21.01300734
v -33.56288147 0.00000164 21.76082039
v -33.07326889 35.50000170 22.49796790
v -32.56747055 0.00000175 23.22411919
v -32.04573822 35.50000181 23.93888778
v -31.50831985 0.00000186 24.64195061
v -30.95548058 35.50000191 25.33294791
v -30.38747978 0.00000196 26.01155090
v -29.80462074 35.50000201 26.67741698
v -29.20716095 0.00000206 27.33023071
v -28.59540939 35.50000211 27.96966666
v -27.96966934 0.00000216 28.59540939
v -27.33023071 35.50000221 29.20715827
v -26.67741966 0.00000225 29.80462074
v -26.01155090 35.50000229 30.38747710
v -25.33295059 0.00000234 30.95548058
v -24.64195061 35.50000238 31.50831717
v -23.93889046 0.00000242 32.04573822
v -23.22411919 35.50000246 32.56746787
v -22.49797058 0.00000250 33.07326889
v -21.76082039 35.50000253 33.56287879
v -21.01301003 0.00000257 34.03606033
v -20.25491905 35.50000260 34.49257773
v -19.48690987 0.00000264 34.93222046
v -18.70936966 35.50000267 35.35476798
v -17.92267036 0.00000270 35.75999832
v -17.12719917 35.50000273 36.14773673
v -16.32333946 0.00000276 36.51778030
v -15.51150036 35.50000278 36.86994666
v -14.69206047 0.00000281 37.20407104
v -13.86544037 35.50000283 37.51998633
v -13.03201962 0.00000286 37.81753922
v -12.19223022 35.50000288 38.09657783
v -11.34646988 0.00000290 38.35697174
v -10.49516010 35.50000291 38.59859580
v -9.63870907 0.00000293 38.82131958
v -8.77754211 35.50000295 39.02504844
v -7.91207695 0.00000296 39.20967865
v -7.04274082 35.50000297 39.37511558
v -6.16995716 0.00000298 39.52127838
v -5.29415417 35.50000299 39.64809913
v -4.41576004 0.00000300 39.75550842
v -3.53520393 35.50000301 39.84346885
v -2.65291810 0.00000301 39.91193008
v -1.76933396 35.50000302 39.96084708
v -0.88488299 0.00000302 39.99021149
v 0.00000000 35.50000302 39.99999732
v 0.88488299 0.00000302 39.99021149
v 1.76933396 35.50000302 39.96084708
v 2.65291810 0.00000301 39.91193008
v 3.53520393 35.50000301 39.84346885
v 4.41576004 0.00000300 39.75550842
v 5.29415417 35.50000299 39.64809913
v 6.16995716 0.00000298 39.52127838
v 7.04274082 35.50000297 39.37511558
v 7.91207695 0.00000296 39.20967865
v 8.77754211 35.50000295 39.02504844
v 9.63870907 0.00000293 38.82131958
v 10.49516010 35.50000291 38.59859580
v 11.34646988 0.00000290 38.35697174
v 12.19223022 35.50000288 38.09657783
v 13.03201962 0.00000286 37.81753922
v 13.86544037 35.50000283 37.51998633
v 14.69206047 0.00000281 37.20407104
v 15.51150036 35.50000278 36.86994666
v 16.32333946 0.00000276 36.51778030
v 17.12719917 35.50000273 36.14773673
v 17.92267036 0.00000270 35.75999832
v 18.70936966 35.50000267 35.35476798
v 19.48690987 0.00000264 34.93222046
v 20.25491905 35.50000260 34.49257773
v 21.01301003 0.00000257 34.03606033
v 21.76082039 35.50000253 33.56287879
v 22.49797058 0.00000250 33.07326889
v 23.22411919 35.50000246 32.56746787
v 23.93889046 0.00000242 32.04573822
v 24.64195061 35.50000238 31.50831717
v 25.33295059 0.00000234 30.95548058
v 26.01155090 35.50000229 30.38747710
v 26.67741966 0.00000225 29.80462074
v 27.33023071 35.50000221 29.20715827
v 27.96966934 0.00000216 28.59540939
v 28.59540939 35.50000211 27.96966666
v 29.20716095 0.00000206 27.33023071
v 29.80462074 35.50000201 26.67741698
v 30.38747978 0.00000196 26.01155090
v 30.95548058 35.50000191 25.33294791
v 31.50831985 0.00000186 24.64195061
v 32.04573822 35.50000181 23.93888778
v 32.56747055 0.00000175 23.22411919
v 33.07326889 35.50000170 22.49796790
v 33.56288147 0.00000164 21.76082039
v 34.03606033 35.50000159 21.01300734
v 34.49258041 0.00000153 20.25491905
v 34.93222046 35.50000147 19.48690719
v 35.35477066 0.00000141 18.70936966
v 35.75999832 35.50000135 17.92266768
v 36.14773941 0.00000129 17.12719917
v 36.51778030 35.50000123 16.32333678
v 36.86994934 0.00000117 15.51150036
v 37.20407104 35.50000111 14.69205779
v 37.51998901 0.00000105 13.86544037
v 37.81753922 35.50000098 13.03201693
v 38.09658051 0.00000092 12.19223022
v 38.35697174 35.50000086 11.34646720
v 38.59859848 0.00000079 10.49516010
v 38.82131958 35.50000073 9.63870639
v 39.02505112 0.00000066 8.77754211
v 39.20967865 35.50000060 7.91207427
v 39.37511826 0.00000053 7.04274082
v 39.52127838 35.50000047 6.16995448
v 39.64810181 0.00000040 5.29415417
v 39.75550842 35.50000033 4.41575736
v 39.84347153 0.00000027 3.53520393
v 39.91193008 35.50000020 2.65291542
v 39.96084976 0.00000013 1.76933396
v 39.99021149 35.50000007 0.88488031
v 40.00000000 0.00000000 0.00000000
v 39.99021149 35.49999993 -0.88488567
v 39.96084976 -0.00000013 -1.76933396
v 39.91193008 35.49999980 -2.65292078
v 39.84347153 -0.00000027 -3.53520393
v 39.75550842 35.49999967 -4.41576272
v 39.64810181 -0.00000040 -5.29415417
v 39.52127838 35.49999953 -6.16995984
v 39.37511826 -0.00000053 -7.04274082
v 39.20967865 35.49999940 -7.91207963
v 39.02505112 -0.00000066 -8.77754211
v 38.82131958 35.49999927 -9.63871175
v 38.59859848 -0.00000079 -10.49516010
v 38.35697174 35.49999914 -11.34647256
v 38.09658051 -0.00000092 -12.19223022
v 37.81753922 35.49999902 -13.03202230
v 37.51998901 -0.00000105 -13.86544037
v 37.20407104 35.49999889 -14.69206315
v 36.86994934 -0.00000117 -15.51150036
v 36.51778030 35.49999877 -16.32334214
v 36.14773941 -0.00000129 -17.12719917
v 35.75999832 35.49999865 -17.92267304
v 35.35477066 -0.00000141 -18.70936966
v 34.93222046 35.49999853 -19.48691255
v 34.49258041 -0.00000153 -20.25491905
v 34.03606033 35.49999841 -21.01301271
v 33.56288147 -0.00000164 -21.76082039
v 33.07326889 35.49999830 -22.49797326
v 32.56747055 -0.00000175 -23.22411919
v 32.04573822 35.49999819 -23.93889314
v 31.50831985 -0.00000186 -24.64195061
v 30.95548058 35.49999809 -25.33295327
v 30.38747978 -0.00000196 -26.01155090
v 29.80462074 35.49999799 -26.67742234
v 29.20716095 -0.00000206 -27.33023071
v 28.59540939 35.49999789 -27.96967202
v 27.96966934 -0.00000216 -28.59540939
v 27.33023071 35.49999779 -29.20716363
v 26.67741966 -0.00000225 -29.80462074
v 26.01155090 35.49999771 -30.38748246
v 25.33295059 -0.00000234 -30.95548058
v 24.64195061 35.49999762 -31.50832253
v 23.93889046 -0.00000242 -32.04573822
v 23.22411919 35.49999754 -32.56747323
v 22.49797058 -0.00000250 -33.07326889
v 21.76082039 35.49999747 -33.56288415
v 21.01301003 -0.00000257 -34.03606033
v 20.25491905 35.49999740 -34.49258309
v 19.48690987 -0.00000264 -34.93222046
v 18.70936966 35.49999733 -35.35477334
v 17.92267036 -0.00000270 -35.75999832
v 17.12719917 35.49999727 -36.14774209
v 16.32333946 -0.00000276 -36.51778030
v 15.51150036 35.49999722 -36.86995202
v 14.69206047 -0.00000281 -37.20407104
v 13.86544037 35.49999717 -37.51999169
v 13.03201962 -0.00000286 -37.81753922
v 12.19223022 35.49999712 -38.09658319
v 11.34646988 -0.00000290 -38.35697174
v 10.49516010 35.49999709 -38.59860116
v 9.63870907 -0.00000293 -38.82131958
v 8.77754211 35.49999705 -39.02505380
v 7.91207695 -0.00000296 -39.20967865
v 7.04274082 35.49999703 -39.37512094
v 6.16995716 -0.00000298 -39.52127838
v 5.29415417 35.49999701 -39.64810449
v 4.41576004 -0.00000300 -39.75550842
v 3.53520393 35.49999699 -39.84347421
v 2.65291810 -0.00000301 -39.91193008
v 39.96084976 0.00000013 1.76933396
v -39.96084976 0.00000013 1.76933396
v 40.00000000 0.00000000 0.00000000
v -40.00000000 0.00000000 0.00000000
v 39.96084976 -0.00000013 -1.76933396
v -39.96084976 -0.00000013 -1.76933396
v 39.84347153 -0.00000027 -3.53520393
v -39.84347153 -0.00000027 -3.53520393
v 39.64810181 -0.00000040 -5.29415417
v -39.64810181 -0.00000040 -5.29415417
v 39.37511826 -0.00000053 -7.04274082
v -39.37511826 -0.00000053 -7.04274082
v 39.02505112 -0.00000066 -8.77754211
v -39.02505112 -0.00000066 -8.77754211
v 38.59859848 -0.00000079 -10.49516010
v -38.59859848 -0.00000079 -10.49516010
v 38.09658051 -0.00000092 -12.19223022
v -38.09658051 -0.00000092 -12.19223022
v 37.51998901 -0.00000105 -13.86544037
v -37.51998901 -0.00000105 -13.86544037
v 36.86994934 -0.00000117 -15.51150036
v -36.86994934 -0.00000117 -15.51150036
v 36.14773941 -0.00000129 -17.12719917
v -36.14773941 -0.00000129 -17.12719917
v 35.35477066 -0.00000141 -18.70936966
v -35.35477066 -0.00000141 -18.70936966
v 34.49258041 -0.00000153 -20.25491905
v -34.49258041 -0.00000153 -20.25491905
v 33.56288147 -0.00000164 -21.76082039
v -33.56288147 -0.00000164 -21.76082039
v 32.56747055 -0.00000175 -23.22411919
v -32.56747055 -0.00000175 -23.22411919
v 31.50831985 -0.00000186 -24.64195061
v -31.50831985 -0.00000186 -24.64195061
v 30.38747978 -0.00000196 -26.01155090
v -30.38747978 -0.00000196 -26.01155090
v 29.20716095 -0.00000206 -27.33023071
v -29.20716095 -0.00000206 -27.33023071
v 27.96966934 -0.00000216 -28.59540939
v -27.96966934 -0.00000216 -28.59540939
v 26.67741966 -0.00000225 -29.80462074
v -26.67741966 -0.00000225 -29.80462074
v 25.33295059 -0.00000234 -30.95548058
v -25.33295059 -0.00000234 -30.95548058
v 23.93889046 -0.00000242 -32.04573822
v -23.93889046 -0.00000242 -32.04573822
v 22.49797058 -0.00000250 -33.07326889
v -22.49797058 -0.00000250 -33.07326889
v 21.01301003 -0.00000257 -34.03606033
v -21.01301003 -0.00000257 -34.03606033
v 19.48690987 -0.00000264 -34.93222046
v -19.48690987 -0.00000264 -34.93222046
v 17.92267036 -0.00000270 -35.75999832
v -17.92267036 -0.00000270 -35.75999832
v 16.32333946 -0.00000276 -36.51778030
v -16.32333946 -0.00000276 -36.51778030
v 14.69206047 -0.00000281 -37.20407104
v -14.69206047 -0.00000281 -37.20407104
v 13.03201962 -0.00000286 -37.81753922
v -13.03201962 -0.00000286 -37.81753922
v 11.34646988 -0.00000290 -38.35697174
v -11.34646988 -0.00000290 -38.35697174
v 9.63870907 -0.00000293 -38.82131958
v -9.63870907 -0.00000293 -38.82131958
v 7.91207695 -0.00000296 -39.20967865
v -7.91207695 -0.00000296 -39.20967865
v 6.16995716 -0.00000298 -39.52127838
v -6.16995716 -0.00000298 -39.52127838
v 4.41576004 -0.00000300 -39.75550842
v -4.41576004 -0.00000300 -39.75550842
v 2.65291810 -0.00000301 -39.91193008
v -2.65291810 -0.00000301 -39.91193008
v 0.88488299 -0.00000302 -39.99021149
v -0.88488299 -0.00000302 -39.99021149
v -39.84347153 0.00000027 3.53520393
v 39.84347153 0.00000027 3.53520393
v -39.64810181 0.00000040 5.29415417
v 39.64810181 0.00000040 5.29415417
v -39.37511826 0.00000053 7.04274082
v 39.37511826 0.00000053 7.04274082
v -39.02505112 0.00000066 8.77754211
v 39.02505112 0.00000066 8.77754211
v -38.59859848 0.00000079 10.49516010
v 38.59859848 0.00000079 10.49516010
v -38.09658051 0.00000092 12.19223022
v 38.09658051 0.00000092 12.19223022
v -37.51998901 0.00000105 13.86544037
v 37.51998901 0.00000105 13.86544037
v -36.86994934 0.00000117 15.51150036
v 36.86994934 0.00000117 15.51150036
v -36.14773941 0.00000129 17.12719917
v 36.14773941 0.00000129 17.12719917
v -35.35477066 0.00000141 18.70936966
v 35.35477066 0.00000141 18.70936966
v -34.49258041 0.00000153 20.25491905
v 34.49258041 0.00000153 20.25491905
v -33.56288147 0.00000164 21.76082039
v 33.56288147 0.00000164 21.76082039
v -32.56747055 0.00000175 23.22411919
v 32.56747055 0.00000175 23.22411919
v -31.50831985 0.00000186 24.64195061
v 31.50831985 0.00000186 24.64195061
v -30.38747978 0.00000196 26.01155090
v 30.38747978 0.00000196 26.01155090
v -29.20716095 0.00000206 27.33023071
v 29.20716095 0.00000206 27.33023071
v -27.96966934 0.00000216 28.59540939
v 27.96966934 0.00000216 28.59540939
v -26.67741966 0.00000225 29.80462074
v 26.67741966 0.00000225 29.80462074
v -25.33295059 0.00000234 30.95548058
v 25.33295059 0.00000234 30.95548058
v -23.93889046 0.00000242 32.04573822
v 23.93889046 0.00000242 32.04573822
v -22.49797058 0.00000250 33.07326889
v 22.49797058 0.00000250 33.07326889
v -21.01301003 0.00000257 34.03606033
v 21.01301003 0.00000257 34.03606033
v -19.48690987 0.00000264 34.93222046
v 19.48690987 0.00000264 34.93222046
v -17.92267036 0.00000270 35.75999832
v 17.92267036 0.00000270 35.75999832
v -16.32333946 0.00000276 36.51778030
v 16.32333946 0.00000276 36.51778030
v -14.69206047 0.00000281 37.20407104
v 14.69206047 0.00000281 37.20407104
v -13.03201962 0.00000286 37.81753922
v 13.03201962 0.00000286 37.81753922
v -11.34646988 0.00000290 38.35697174
v 11.34646988 0.00000290 38.35697174
v -9.63870907 0.00000293 38.82131958
v 9.63870907 0.00000293 38.82131958
v -7.91207695 0.00000296 39.20967865
v 7.91207695 0.00000296 39.20967865
v -6.16995716 0.00000298 39.52127838
v 6.16995716 0.00000298 39.52127838
v -4.41576004 0.00000300 39.75550842
v 4.41576004 0.00000300 39.75550842
v -2.65291810 0.00000301 39.91193008
v 2.65291810 0.00000301 39.91193008
v -0.88488299 0.00000302 39.99021149
v 0.88488299 0.00000302 39.99021149
vt 5.00000000 1.74611604
vt 5.00000000 9.40432835
vt 1.44230604 -0.06036895
vt -0.69038802 2.62510395
vt 1.33637798 -0.10977800
vt 1.22738898 -0.15200600
vt 1.11582303 -0.18686400
vt 1.00217998 -0.21419600
vt 0.88696498 -0.23388200
vt 0.77069402 -0.24583299
vt 0.65388399 -0.24999601
vt 0.53705603 -0.24635200
vt 0.42073300 -0.23491700
vt 0.30543199 -0.21574301
vt 0.19166800 -0.18891400
vt 0.07994896 -0.15455200
vt -0.02922695 -0.11280800
vt -0.13537291 -0.06386995
vt -0.23801491 -0.00795496
vt -0.33669600 0.05468595
vt -0.43097499 0.12377600
vt -0.52043200 0.19900499
vt -0.60466802 0.28003699
vt -0.68330598 0.36651200
vt -0.75599700 0.45804399
vt -0.76250398 2.53311801
vt -0.82241499 0.55422300
vt -0.82831699 2.43652391
vt -0.88226497 0.65462202
vt -0.88753599 2.33575201
vt -0.93527901 0.75879198
vt -0.93989700 2.23125196
vt -0.98122197 0.86626899
vt -0.98516399 2.12348890
vt -1.01988697 0.97657198
vt -1.02313697 2.01294494
vt -1.05110300 1.08921099
vt -1.05364597 1.90011299
vt -1.07473099 1.20368195
vt -1.07655501 1.78549600
vt -1.09066403 1.31947505
vt -1.09176195 1.66960502
vt -1.09883201 1.43607402
vt -1.09919906 1.55295706
vt -5.00000000 1.74611604
vt -1.44230604 -0.06036895
vt -5.00000000 9.40432835
vt 0.69038802 2.62510395
vt -1.33637798 -0.10977800
vt -1.22738898 -0.15200600
vt -1.11582303 -0.18686400
vt -1.00217998 -0.21419600
vt -0.88696498 -0.23388200
vt -0.77069402 -0.24583299
vt -0.65388399 -0.24999601
vt -0.53705603 -0.24635200
vt -0.42073300 -0.23491700
vt -0.30543199 -0.21574301
vt -0.19166800 -0.18891400
vt -0.07994896 -0.15455200
vt 0.02922695 -0.11280800
vt 0.13537291 -0.06386995
vt 0.23801491 -0.00795496
vt 0.33669600 0.05468595
vt 0.43097499 0.12377600
vt 0.52043200 0.19900499
vt 0.60466802 0.28003699
vt 0.68330598 0.36651200
vt 0.75599700 0.45804399
vt 0.76250398 2.53311801
vt 0.82241499 0.55422300
vt 0.82831699 2.43652391
vt 0.88226497 0.65462202
vt 0.88753599 2.33575201
vt 0.93527901 0.75879198
vt 0.93989700 2.23125196
vt 0.98122197 0.86626899
vt 0.98516399 2.12348890
vt 1.01988697 0.97657198
vt 1.02313697 2.01294494
vt 1.05110300 1.08921099
vt 1.05364597 1.90011299
vt 1.07473099 1.20368195
vt 1.07655501 1.78549600
vt 1.09066403 1.31947505
vt 1.09176195 1.66960502
vt 1.09883201 1.43607402
vt 1.09919906 1.55295706
vt -8.25388527 -4.07499981
vt -0.59567302 -4.07499981
vt -8.25388527 4.07499981
vt -0.59567302 4.07499981
vt 0.00000000 4.07499981
vt 8.85089684 4.07499981
vt 0.00000000 4.57499981
vt 9.62860298 4.57499981
vt 9.62860298 0.00000000
vt 8.85089684 -4.07499981
vt 9.62860298 -4.57499981
vt 0.00000000 -4.57499981
vt 0.00000000 -4.07499981
vt 4.57499981 -1.52686906
vt 4.07499981 -1.52686906
vt 4.57499981 -1.64377403
vt 4.07499981 -1.64377403
vt 4.57499981 -1.76067996
vt 4.07499981 -1.76067996
vt 4.57499981 -1.87758601
vt 4.07499981 -1.87758601
vt 4.57499981 -1.99449205
vt 4.07499981 -1.99449205
vt 4.57499981 -2.11139798
vt 4.07499981 -2.11139798
vt 4.57499981 -2.22830391
vt 4.07499981 -2.22830391
vt 4.57499981 -2.34521008
vt 4.07499981 -2.34521008
vt 4.57499981 -2.46211600
vt 4.07499981 -2.46211600
vt 4.57499981 -2.57902193
vt 4.07499981 -2.57902193
vt 4.57499981 -2.69592810
vt 4.07499981 -2.69592810
vt 4.57499981 -2.81283402
vt 4.07499981 -2.81283402
vt 4.57499981 -2.92973995
vt 4.07499981 -2.92973995
vt 4.57499981 -3.04664612
vt 4.07499981 -3.04664612
vt 4.57499981 -3.16355205
vt 4.07499981 -3.16355205
vt 4.57499981 -3.28045797
vt 4.07499981 -3.28045797
vt 4.57499981 -3.39736390
vt 4.07499981 -3.39736390
vt 4.57499981 -3.51427007
vt 4.07499981 -3.51427007
vt 4.57499981 -3.63117599
vt 4.07499981 -3.63117599
vt 4.57499981 -3.74808192
vt 4.07499981 -3.74808192
vt 4.57499981 -3.86498690
vt 4.07499981 -3.86498690
vt 4.57499981 -3.98189306
vt 4.07499981 -3.98189306
vt 4.57499981 -4.09879923
vt 4.07499981 -4.09879923
vt 4.57499981 -4.21570492
vt 4.07499981 -4.21570492
vt 4.57499981 -4.33261108
vt 4.07499981 -4.33261108
vt 4.57499981 -4.44951677
vt 4.07499981 -4.44951677
vt 4.57499981 -4.56642294
vt 4.07499981 -4.56642294
vt 4.57499981 -4.68332911
vt 4.07499981 -4.68332911
vt 4.57499981 -4.80023479
vt 4.07499981 -4.80023479
vt 4.57499981 -4.91714096
vt 4.07499981 -4.91714096
vt 4.57499981 -5.03404713
vt 4.07499981 -5.03404713
vt 4.57499981 -5.15095282
vt 4.07499981 -5.15095282
vt 4.57499981 -5.26785898
vt 4.07499981 -5.26785898
vt 4.57499981 -5.38476515
vt 4.07499981 -5.38476515
vt 4.57499981 -5.50167084
vt 4.07499981 -5.50167084
vt 4.57499981 -5.61857700
vt 4.07499981 -5.61857700
vt 4.57499981 -5.73548317
vt 4.07499981 -5.73548317
vt 4.57499981 -5.85238886
vt 4.07499981 -5.85238886
vt 4.57499981 -5.96929502
vt 4.07499981 -5.96929502
vt 4.57499981 -6.08620119
vt 4.07499981 -6.08620119
vt 4.57499981 -6.20310593
vt 4.07499981 -6.20310593
vt 4.57499981 -6.32001209
vt 4.07499981 -6.32001209
vt -4.57499981 4.67556190
vt -4.07499981 4.67556190
vt -4.57499981 4.79246807
vt -4.07499981 4.79246807
vt -4.57499981 4.90937424
vt -4.07499981 4.90937424
vt -4.57499981 5.02627993
vt -4.07499981 5.02627993
vt -4.57499981 5.14318609
vt -4.07499981 5.14318609
vt -4.57499981 5.26009178
vt -4.07499981 5.26009178
vt -4.57499981 5.37699795
vt -4.07499981 5.37699795
vt -4.57499981 5.49390316
vt -4.07499981 5.49390316
vt -4.57499981 5.61080885
vt -4.07499981 5.61080885
vt -4.57499981 5.72771502
vt -4.07499981 5.72771502
vt -4.57499981 5.84462118
vt -4.07499981 5.84462118
vt -4.57499981 5.96152687
vt -4.07499981 5.96152687
vt -4.57499981 6.07843304
vt -4.07499981 6.07843304
vt -4.57499981 6.19533920
vt -4.07499981 6.19533920
vt -4.57499981 6.31224489
vt -4.07499981 6.31224489
vt -4.57499981 6.42915106
vt -4.07499981 6.42915106
vt -4.57499981 6.54605722
vt -4.07499981 6.54605722
vt -4.57499981 6.66296291
vt -4.07499981 6.66296291
vt -4.57499981 6.77986908
vt -4.07499981 6.77986908
vt -4.57499981 6.89677477
vt -4.07499981 6.89677477
vt -4.57499981 7.01368093
vt -4.07499981 7.01368093
vt -4.57499981 7.13058710
vt -4.07499981 7.13058710
vt -4.57499981 7.24749279
vt -4.07499981 7.24749279
vt -4.57499981 7.36439896
vt -4.07499981 7.36439896
vt -4.57499981 7.48130512
vt -4.07499981 7.48130512
vt -4.57499981 7.59821081
vt -4.07499981 7.59821081
vt -4.57499981 7.71511698
vt -4.07499981 7.71511698
vt -4.57499981 7.83202219
vt -4.07499981 7.83202219
vt -4.57499981 7.94892788
vt -4.07499981 7.94892788
vt -4.57499981 8.06583405
vt -4.07499981 8.06583405
vt -4.57499981 8.18274117
vt -4.07499981 8.18274117
vt -4.57499981 8.29964733
vt -4.07499981 8.29964733
vt -4.57499981 8.41655159
vt -4.07499981 8.41655159
vt -4.57499981 8.53345776
vt -4.07499981 8.53345776
vt -4.57499981 8.65036392
vt -4.07499981 8.65036392
vt -4.57499981 8.76727104
vt -4.07499981 8.76727104
vt -4.57499981 8.88417721
vt -4.07499981 8.88417721
vt -4.57499981 9.00108337
vt -4.07499981 9.00108337
vt -4.57499981 9.11798763
vt -4.07499981 9.11798763
vt -4.57499981 9.23489380
vt -4.07499981 9.23489380
vt -4.57499981 9.35179996
vt -4.07499981 9.35179996
vt -4.57499981 9.46870708
vt -4.07499981 9.46870708
vt 8.00000000 0.00000000
vt 7.99608517 -0.17693301
vt 8.00000000 -4.57499981
vt 7.98434687 -0.35352001
vt 7.96480989 -0.52941501
vt 7.93751192 -0.70427400
vt 7.90250492 -0.87775397
vt 7.85985994 -1.04951596
vt 7.80965805 -1.21922302
vt 7.75199890 -1.38654399
vt 7.68699503 -1.55114996
vt 7.61477423 -1.71272004
vt 7.53547716 -1.87093699
vt 7.44925785 -2.02549195
vt 7.35628796 -2.17608190
vt 7.25674820 -2.32241201
vt 7.15083218 -2.46419501
vt 7.03874779 -2.60115504
vt 6.92071581 -2.73302293
vt 6.79696703 -2.85954094
vt 6.66774178 -2.98046207
vt 6.53329515 -3.09554791
vt 6.39388895 -3.20457411
vt 6.24979687 -3.30732703
vt 6.10130119 -3.40360594
vt 5.94869089 -3.49322200
vt 5.79226685 -3.57599998
vt 5.63233423 -3.65177798
vt 5.46920586 -3.72040796
vt 5.30320215 -3.78175402
vt 5.13464689 -3.83569789
vt 4.96387100 -3.88213301
vt 4.79120779 -3.92096806
vt 4.61699581 -3.95212793
vt 4.44157600 -3.97555208
vt 4.26529217 -3.99119306
vt 4.08848810 -3.99902105
vt 3.91151190 -3.99902105
vt 0.00000000 -4.57499981
vt 3.73470807 -3.99119306
vt 3.55842400 -3.97555208
vt 3.38300395 -3.95212793
vt 3.20879197 -3.92096806
vt 3.03612900 -3.88213301
vt 2.86535311 -3.83569789
vt 2.69679809 -3.78175402
vt 2.53079391 -3.72040796
vt 2.36766601 -3.65177798
vt 2.20773292 -3.57599998
vt 2.05130911 -3.49322200
vt 1.89869905 -3.40360594
vt 1.75020301 -3.30732703
vt 1.60611105 -3.20457411
vt 1.46670496 -3.09554791
vt 1.33225799 -2.98046207
vt 1.20303297 -2.85954094
vt 1.07928395 -2.73302293
vt 0.96125197 -2.60115504
vt 0.84916800 -2.46419501
vt 0.74325198 -2.32241201
vt 0.64371198 -2.17608190
vt 0.55074197 -2.02549195
vt 0.46452299 -1.87093699
vt 0.38522601 -1.71272004
vt 0.31300500 -1.55114996
vt 0.24800099 -1.38654399
vt 0.19034199 -1.21922302
vt 0.14013989 -1.04951596
vt 0.09749495 -0.87775397
vt 0.06248795 -0.70427400
vt 0.03518998 -0.52941501
vt 0.01565295 -0.35352001
vt 0.00391495 -0.17693301
vt 0.00000000 0.00000000
vt 0.00391495 0.17693301
vt 0.00000000 4.57499981
vt 0.01565295 0.35352001
vt 0.03518998 0.52941501
vt 0.06248795 0.70427400
vt 0.09749495 0.87775397
vt 0.14013989 1.04951596
vt 0.19034199 1.21922302
vt 0.24800099 1.38654399
vt 0.31300500 1.55114996
vt 0.38522601 1.71272004
vt 0.46452299 1.87093699
vt 0.55074197 2.02549195
vt 0.64371198 2.17608190
vt 0.74325198 2.32241201
vt 0.84916800 2.46419501
vt 0.96125197 2.60115504
vt 1.07928395 2.73302293
vt 1.20303297 2.85954094
vt 1.33225799 2.98046207
vt 1.46670496 3.09554791
vt 1.60611105 3.20457411
vt 1.75020301 3.30732703
vt 1.89869905 3.40360594
vt 2.05130911 3.49322200
vt 2.20773292 3.57599998
vt 2.36766601 3.65177798
vt 2.53079391 3.72040796
vt 2.69679809 3.78175402
vt 2.86535311 3.83569789
vt 3.03612900 3.88213301
vt 3.20879197 3.92096806
vt 3.38300395 3.95212793
vt 3.55842400 3.97555208
vt 3.73470807 3.99119306
vt 3.91151190 3.99902105
vt 4.08848810 3.99902105
vt 8.00000000 4.57499981
vt 4.26529217 3.99119306
vt 4.44157600 3.97555208
vt 4.61699581 3.95212793
vt 4.79120779 3.92096806
vt 4.96387100 3.88213301
vt 5.13464689 3.83569789
vt 5.30320215 3.78175402
vt 5.46920586 3.72040796
vt 5.63233423 3.65177798
vt 5.79226685 3.57599998
vt 5.94869089 3.49322200
vt 6.10130119 3.40360594
vt 6.24979687 3.30732703
vt 6.39388895 3.20457411
vt 6.53329515 3.09554791
vt 6.66774178 2.98046207
vt 6.79696703 2.85954094
vt 6.92071581 2.73302293
vt 7.03874779 2.60115504
vt 7.15083218 2.46419501
vt 7.25674820 2.32241201
vt 7.35628796 2.17608190
vt 7.44925785 2.02549195
vt 7.53547716 1.87093699
vt 7.61477423 1.71272004
vt 7.68699503 1.55114996
vt 7.75199890 1.38654399
vt 7.80965805 1.21922302
vt 7.85985994 1.04951596
vt 7.90250492 0.87775397
vt 7.93751192 0.70427400
vt 7.96480989 0.52941501
vt 7.98434687 0.35352001
vt 7.99608517 0.17693301
vt 3.29999995 -2.87500000
vt 3.29999995 5.12500000
vt -0.75769401 -4.93536901
vt -2.89038801 -2.24989605
vt -0.86362201 -4.98477793
vt -0.97261101 -5.02700615
vt -1.08417702 -5.06186390
vt -1.19781995 -5.08919621
vt -1.31303501 -5.10888195
vt -1.42930603 -5.12083292
vt -1.54611599 -5.12499619
vt -1.66294396 -5.12135220
vt -1.77926695 -5.10991716
vt -1.89456797 -5.09074306
vt -2.00833201 -5.06391382
vt -2.12005091 -5.02955198
vt -2.22922707 -4.98780823
vt -2.33537292 -4.93886995
vt -2.43801498 -4.88295507
vt -2.53669596 -4.82031393
vt -2.63097501 -4.75122404
vt -2.72043204 -4.67599487
vt -2.80466795 -4.59496307
vt -2.88330603 -4.50848818
vt -2.95599699 -4.41695595
vt -2.96250391 -2.34188199
vt -3.02241492 -4.32077694
vt -3.02831697 -2.43847609
vt -3.08226490 -4.22037792
vt -3.08753610 -2.53924799
vt -3.13527894 -4.11620808
vt -3.13989711 -2.64374804
vt -3.18122196 -4.00873089
vt -3.18516397 -2.75151110
vt -3.21988702 -3.89842796
vt -3.22313690 -2.86205506
vt -3.25110292 -3.78578901
vt -3.25364590 -2.97488689
vt -3.27473092 -3.67131805
vt -3.27655506 -3.08950400
vt -3.29066396 -3.55552506
vt -3.29176211 -3.20539498
vt -3.29883194 -3.43892598
vt -3.29919910 -3.32204294
vt 4.55082417 4.07499981
vt 4.55082417 4.57499981
vt 0.56076503 4.07499981
vt 0.00000000 4.57499981
vt 0.00000000 0.00000000
vt 0.56076503 -4.07499981
vt 0.00000000 -4.57499981
vt 4.55082417 -4.57499981
vt 4.55082417 -4.07499981
vt -3.29999995 -2.87500000
vt 0.75769401 -4.93536901
vt -3.29999995 5.12500000
vt 2.89038801 -2.24989605
vt 0.86362201 -4.98477793
vt 0.97261101 -5.02700615
vt 1.08417702 -5.06186390
vt 1.19781995 -5.08919621
vt 1.31303501 -5.10888195
vt 1.42930603 -5.12083292
vt 1.54611599 -5.12499619
vt 1.66294396 -5.12135220
vt 1.77926695 -5.10991716
vt 1.89456797 -5.09074306
vt 2.00833201 -5.06391382
vt 2.12005091 -5.02955198
vt 2.22922707 -4.98780823
vt 2.33537292 -4.93886995
vt 2.43801498 -4.88295507
vt 2.53669596 -4.82031393
vt 2.63097501 -4.75122404
vt 2.72043204 -4.67599487
vt 2.80466795 -4.59496307
vt 2.88330603 -4.50848818
vt 2.95599699 -4.41695595
vt 2.96250391 -2.34188199
vt 3.02241492 -4.32077694
vt 3.02831697 -2.43847609
vt 3.08226490 -4.22037792
vt 3.08753610 -2.53924799
vt 3.13527894 -4.11620808
vt 3.13989711 -2.64374804
vt 3.18122196 -4.00873089
vt 3.18516397 -2.75151110
vt 3.21988702 -3.89842796
vt 3.22313690 -2.86205506
vt 3.25110292 -3.78578901
vt 3.25364590 -2.97488689
vt 3.27473092 -3.67131805
vt 3.27655506 -3.08950400
vt 3.29066396 -3.55552506
vt 3.29176211 -3.20539498
vt 3.29883194 -3.43892598
vt 3.29919910 -3.32204294
vt -3.54999995 6.10619402
vt 0.00000000 6.19469023
vt -3.54999995 6.28318501
vt 0.00000000 6.37168121
vt -3.54999995 6.46017599
vt 0.00000000 6.54867220
vt -3.54999995 6.63716793
vt 0.00000000 6.72566319
vt -3.54999995 6.81415892
vt 0.00000000 6.90265417
vt -3.54999995 6.99114990
vt 0.00000000 7.07964516
vt -3.54999995 7.16814089
vt 0.00000000 7.25663710
vt -3.54999995 7.34513187
vt 0.00000000 7.43362808
vt -3.54999995 7.52212286
vt 0.00000000 7.61061907
vt -3.54999995 7.69911385
vt 0.00000000 7.78761005
vt -3.54999995 7.87610579
vt 0.00000000 7.96460104
vt -3.54999995 8.05309677
vt 0.00000000 8.14159203
vt -3.54999995 8.23008919
vt 0.00000000 8.31858253
vt -3.54999995 8.40707874
vt 0.00000000 8.49557400
vt -3.54999995 8.58407116
vt 0.00000000 8.67256737
vt -3.54999995 8.76106071
vt 0.00000000 8.84955692
vt -3.54999995 8.93805313
vt 0.00000000 9.02654934
vt -3.54999995 9.11504269
vt 0.00000000 9.20353889
vt -3.54999995 9.29203606
vt 0.00000000 9.38053131
vt -3.54999995 9.46902561
vt 0.00000000 9.55752087
vt -3.54999995 9.64601803
vt 0.00000000 9.73451328
vt -3.54999995 9.82300758
vt 0.00000000 9.91150379
vt -3.54999995 10.00000000
vt 0.00000000 10.08850002
vt -3.54999995 10.17698956
vt 0.00000000 10.26548958
vt -3.54999995 10.35398006
vt 0.00000000 10.44248009
vt -3.54999995 10.53096962
vt 0.00000000 10.61946964
vt -3.54999995 10.70796013
vt 0.00000000 10.79646015
vt -3.54999995 10.88496017
vt 0.00000000 10.97344971
vt -3.54999995 11.06194973
vt 0.00000000 11.15044022
vt -3.54999995 11.23894024
vt 0.00000000 11.32742977
vt -3.54999995 11.41592979
vt 0.00000000 11.50442028
vt -3.54999995 11.59292030
vt 0.00000000 11.68140984
vt -3.54999995 11.76990986
vt 0.00000000 11.85840988
vt -3.54999995 11.94690037
vt 0.00000000 12.03540039
vt -3.54999995 12.12388992
vt 0.00000000 12.21238995
vt -3.54999995 12.30088043
vt 0.00000000 12.38938046
vt -3.54999995 12.47786999
vt 0.00000000 12.56637001
vt -3.54999995 12.65487003
vt -3.54999995 -12.47786999
vt 0.00000000 -12.56637001
vt 0.00000000 -12.38938046
vt -3.54999995 -12.30088043
vt 0.00000000 -12.21238995
vt -3.54999995 -12.12388992
vt 0.00000000 -12.03540039
vt -3.54999995 -11.94690037
vt 0.00000000 -11.85840988
vt -3.54999995 -11.76990986
vt 0.00000000 -11.68140984
vt -3.54999995 -11.59292030
vt 0.00000000 -11.50442028
vt -3.54999995 -11.41592979
vt 0.00000000 -11.32742977
vt -3.54999995 -11.23894024
vt 0.00000000 -11.15044022
vt -3.54999995 -11.06194973
vt 0.00000000 -10.97344971
vt -3.54999995 -10.88496017
vt 0.00000000 -10.79646015
vt -3.54999995 -10.70796013
vt 0.00000000 -10.61946964
vt -3.54999995 -10.53096962
vt 0.00000000 -10.44248009
vt -3.54999995 -10.35398006
vt 0.00000000 -10.26548958
vt -3.54999995 -10.17698956
vt 0.00000000 -10.08850002
vt -3.54999995 -10.00000000
vt 0.00000000 -9.91150379
vt -3.54999995 -9.82300758
vt 0.00000000 -9.73451328
vt -3.54999995 -9.64601803
vt 0.00000000 -9.55752087
vt -3.54999995 -9.46902561
vt 0.00000000 -9.38053131
vt -3.54999995 -9.29203606
vt 0.00000000 -9.20353889
vt -3.54999995 -9.11504269
vt 0.00000000 -9.02654934
vt -3.54999995 -8.93805313
vt 0.00000000 -8.84955692
vt -3.54999995 -8.76106071
vt 0.00000000 -8.67256737
vt -3.54999995 -8.58407116
vt 0.00000000 -8.49557400
vt -3.54999995 -8.40707874
vt 0.00000000 -8.31858253
vt -3.54999995 -8.23008919
vt 0.00000000 -8.14159203
vt -3.54999995 -8.05309677
vt 0.00000000 -7.96460104
vt -3.54999995 -7.87610579
vt 0.00000000 -7.78761005
vt -3.54999995 -7.69911385
vt 0.00000000 -7.61061907
vt -3.54999995 -7.52212286
vt 0.00000000 -7.43362808
vt -3.54999995 -7.34513187
vt 0.00000000 -7.25663710
vt -3.54999995 -7.16814089
vt 0.00000000 -7.07964516
vt -3.54999995 -6.99114990
vt 0.00000000 -6.90265417
vt -3.54999995 -6.81415892
vt 0.00000000 -6.72566319
vt -3.54999995 -6.63716793
vt 0.00000000 -6.54867220
vt -3.54999995 -6.46017599
vt 0.00000000 -6.37168121
vt -3.54999995 -6.28318501
vt 0.00000000 -6.19469023
vt -3.54999995 -6.10619402
vt 0.00000000 -6.01769876
vt -3.54999995 -5.92920303
vt 0.00000000 -5.84070683
vt -3.54999995 -5.75221205
vt 0.00000000 -5.66371584
vt -3.54999995 -5.57522106
vt 0.00000000 -5.48672485
vt -3.54999995 -5.39823008
vt 0.00000000 -5.30973387
vt -3.54999995 -5.22123814
vt 0.00000000 -5.13274288
vt -3.54999995 -5.04424715
vt 0.00000000 -4.95575190
vt -3.54999995 -4.86725616
vt 0.00000000 -4.77876091
vt -3.54999995 -4.69026518
vt 0.00000000 -4.60176992
vt -3.54999995 -4.51327419
vt 0.00000000 -4.42477798
vt -3.54999995 -4.33628321
vt 0.00000000 -4.24778700
vt -3.54999995 -4.15929222
vt 0.00000000 -4.07079601
vt -3.54999995 -3.98230100
vt 0.00000000 -3.89380503
vt -3.54999995 -3.80530906
vt 0.00000000 -3.71681404
vt -3.54999995 -3.62831807
vt 0.00000000 -3.53982306
vt -3.54999995 -3.45132709
vt 0.00000000 -3.36283207
vt -3.54999995 -3.27433610
vt 0.00000000 -3.18583989
vt -3.54999995 -3.09734511
vt 0.00000000 -3.00884891
vt -3.54999995 -2.92035389
vt 0.00000000 -2.83185792
vt -3.54999995 -2.74336290
vt 0.00000000 -2.65486693
vt -3.54999995 -2.56637096
vt 0.00000000 -2.47787595
vt -3.54999995 -2.38937998
vt 0.00000000 -2.30088496
vt -3.54999995 -2.21238899
vt 0.00000000 -2.12389398
vt -3.54999995 -2.03539801
vt 0.00000000 -1.94690204
vt -3.54999995 -1.85840702
vt 0.00000000 -1.76991105
vt -3.54999995 -1.68141603
vt 0.00000000 -1.59291995
vt -3.54999995 -1.50442505
vt 0.00000000 -1.41592896
vt -3.54999995 -1.32743394
vt 0.00000000 -1.23893797
vt -3.54999995 -1.15044200
vt 0.00000000 -1.06194699
vt -3.54999995 -0.97345102
vt 0.00000000 -0.88495600
vt -3.54999995 -0.79645997
vt 0.00000000 -0.70796502
vt -3.54999995 -0.61946899
vt 0.00000000 -0.53097302
vt -3.54999995 -0.44247800
vt 0.00000000 -0.35398200
vt -3.54999995 -0.26548699
vt 0.00000000 -0.17699100
vt -3.54999995 -0.08849596
vt 0.00000000 0.00000000
vt -3.54999995 0.08849596
vt 0.00000000 0.17699100
vt -3.54999995 0.26548699
vt 0.00000000 0.35398200
vt -3.54999995 0.44247800
vt 0.00000000 0.53097302
vt -3.54999995 0.61946899
vt 0.00000000 0.70796502
vt -3.54999995 0.79645997
vt 0.00000000 0.88495600
vt -3.54999995 0.97345102
vt 0.00000000 1.06194699
vt -3.54999995 1.15044200
vt 0.00000000 1.23893797
vt -3.54999995 1.32743394
vt 0.00000000 1.41592896
vt -3.54999995 1.50442505
vt 0.00000000 1.59291995
vt -3.54999995 1.68141603
vt 0.00000000 1.76991105
vt -3.54999995 1.85840702
vt 0.00000000 1.94690204
vt -3.54999995 2.03539801
vt 0.00000000 2.12389398
vt -3.54999995 2.21238899
vt 0.00000000 2.30088496
vt -3.54999995 2.38937998
vt 0.00000000 2.47787595
vt -3.54999995 2.56637096
vt 0.00000000 2.65486693
vt -3.54999995 2.74336290
vt 0.00000000 2.83185792
vt -3.54999995 2.92035389
vt 0.00000000 3.00884891
vt -3.54999995 3.09734511
vt 0.00000000 3.18583989
vt -3.54999995 3.27433610
vt 0.00000000 3.36283207
vt -3.54999995 3.45132709
vt 0.00000000 3.53982306
vt -3.54999995 3.62831807
vt 0.00000000 3.71681404
vt -3.54999995 3.80530906
vt 0.00000000 3.89380503
vt -3.54999995 3.98230100
vt 0.00000000 4.07079601
vt -3.54999995 4.15929222
vt 0.00000000 4.24778700
vt -3.54999995 4.33628321
vt 0.00000000 4.42477798
vt -3.54999995 4.51327419
vt 0.00000000 4.60176992
vt -3.54999995 4.69026518
vt 0.00000000 4.77876091
vt -3.54999995 4.86725616
vt 0.00000000 4.95575190
vt -3.54999995 5.04424715
vt 0.00000000 5.13274288
vt -3.54999995 5.22123814
vt 0.00000000 5.30973387
vt -3.54999995 5.39823008
vt 0.00000000 5.48672485
vt -3.54999995 5.57522106
vt 0.00000000 5.66371584
vt -3.54999995 5.75221205
vt 0.00000000 5.84070683
vt -3.54999995 5.92920303
vt 0.00000000 6.01769876
vt 3.99608493 0.17693301
vt -3.99608493 0.17693301
vt 4.00000000 0.00000000
vt -4.00000000 0.00000000
vt 3.99608493 -0.17693301
vt -3.99608493 -0.17693301
vt 3.98434711 -0.35352001
vt -3.98434711 -0.35352001
vt 3.96480989 -0.52941501
vt -3.96480989 -0.52941501
vt 3.93751192 -0.70427400
vt -3.93751192 -0.70427400
vt 3.90250492 -0.87775397
vt -3.90250492 -0.87775397
vt 3.85985994 -1.04951596
vt -3.85985994 -1.04951596
vt 3.80965805 -1.21922302
vt -3.80965805 -1.21922302
vt 3.75199890 -1.38654399
vt -3.75199890 -1.38654399
vt 3.68699503 -1.55114996
vt -3.68699503 -1.55114996
vt 3.61477399 -1.71272004
vt -3.61477399 -1.71272004
vt 3.53547692 -1.87093699
vt -3.53547692 -1.87093699
vt 3.44925809 -2.02549195
vt -3.44925809 -2.02549195
vt 3.35628796 -2.17608190
vt -3.35628796 -2.17608190
vt 3.25674796 -2.32241201
vt -3.25674796 -2.32241201
vt 3.15083194 -2.46419501
vt -3.15083194 -2.46419501
vt 3.03874803 -2.60115504
vt -3.03874803 -2.60115504
vt 2.92071605 -2.73302293
vt -2.92071605 -2.73302293
vt 2.79696703 -2.85954094
vt -2.79696703 -2.85954094
vt 2.66774201 -2.98046207
vt -2.66774201 -2.98046207
vt 2.53329492 -3.09554791
vt -2.53329492 -3.09554791
vt 2.39388895 -3.20457411
vt -2.39388895 -3.20457411
vt 2.24979711 -3.30732703
vt -2.24979711 -3.30732703
vt 2.10130095 -3.40360594
vt -2.10130095 -3.40360594
vt 1.94869101 -3.49322200
vt -1.94869101 -3.49322200
vt 1.79226696 -3.57599998
vt -1.79226696 -3.57599998
vt 1.63233399 -3.65177798
vt -1.63233399 -3.65177798
vt 1.46920598 -3.72040796
vt -1.46920598 -3.72040796
vt 1.30320203 -3.78175402
vt -1.30320203 -3.78175402
vt 1.13464701 -3.83569789
vt -1.13464701 -3.83569789
vt 0.96387100 -3.88213301
vt -0.96387100 -3.88213301
vt 0.79120803 -3.92096806
vt -0.79120803 -3.92096806
vt 0.61699599 -3.95212793
vt -0.61699599 -3.95212793
vt 0.44157600 -3.97555208
vt -0.44157600 -3.97555208
vt 0.26529199 -3.99119306
vt -0.26529199 -3.99119306
vt 0.08848798 -3.99902105
vt -0.08848798 -3.99902105
vt -3.98434711 0.35352001
vt 3.98434711 0.35352001
vt -3.96480989 0.52941501
vt 3.96480989 0.52941501
vt -3.93751192 0.70427400
vt 3.93751192 0.70427400
vt -3.90250492 0.87775397
vt 3.90250492 0.87775397
vt -3.85985994 1.04951596
vt 3.85985994 1.04951596
vt -3.80965805 1.21922302
vt 3.80965805 1.21922302
vt -3.75199890 1.38654399
vt 3.75199890 1.38654399
vt -3.68699503 1.55114996
vt 3.68699503 1.55114996
vt -3.61477399 1.71272004
vt 3.61477399 1.71272004
vt -3.53547692 1.87093699
vt 3.53547692 1.87093699
vt -3.44925809 2.02549195
vt 3.44925809 2.02549195
vt -3.35628796 2.17608190
vt 3.35628796 2.17608190
vt -3.25674796 2.32241201
vt 3.25674796 2.32241201
vt -3.15083194 2.46419501
vt 3.15083194 2.46419501
vt -3.03874803 2.60115504
vt 3.03874803 2.60115504
vt -2.92071605 2.73302293
vt 2.92071605 2.73302293
vt -2.79696703 2.85954094
vt 2.79696703 2.85954094
vt -2.66774201 2.98046207
vt 2.66774201 2.98046207
vt -2.53329492 3.09554791
vt 2.53329492 3.09554791
vt -2.39388895 3.20457411
vt 2.39388895 3.20457411
vt -2.24979711 3.30732703
vt 2.24979711 3.30732703
vt -2.10130095 3.40360594
vt 2.10130095 3.40360594
vt -1.94869101 3.49322200
vt 1.94869101 3.49322200
vt -1.79226696 3.57599998
vt 1.79226696 3.57599998
vt -1.63233399 3.65177798
vt 1.63233399 3.65177798
vt -1.46920598 3.72040796
vt 1.46920598 3.72040796
vt -1.30320203 3.78175402
vt 1.30320203 3.78175402
vt -1.13464701 3.83569789
vt 1.13464701 3.83569789
vt -0.96387100 3.88213301
vt 0.96387100 3.88213301
vt -0.79120803 3.92096806
vt 0.79120803 3.92096806
vt -0.61699599 3.95212793
vt 0.61699599 3.95212793
vt -0.44157600 3.97555208
vt 0.44157600 3.97555208
vt -0.26529199 3.99119306
vt 0.26529199 3.99119306
vt -0.08848798 3.99902105
vt 0.08848798 3.99902105
f 1/1 2/2 3/3
f 3/3 2/2 4/4
f 3/3 4/4 5/5
f 5/5 4/4 6/6
f 6/6 4/4 7/7
f 7/7 4/4 8/8
f 8/8 4/4 9/9
f 9/9 4/4 10/10
f 10/10 4/4 11/11
f 11/11 4/4 12/12
f 12/12 4/4 13/13
f 13/13 4/4 14/14
f 14/14 4/4 15/15
f 15/15 4/4 16/16
f 16/16 4/4 17/17
f 17/17 4/4 18/18
f 18/18 4/4 19/19
f 19/19 4/4 20/20
f 20/20 4/4 21/21
f 21/21 4/4 22/22
f 22/22 4/4 23/23
f 23/23 4/4 24/24
f 24/24 4/4 25/25
f 25/25 4/4 26/26
f 25/25 26/26 27/27
f 27/27 26/26 28/28
f 27/27 28/28 29/29
f 29/29 28/28 30/30
f 29/29 30/30 31/31
f 31/31 30/30 32/32
f 31/31 32/32 33/33
f 33/33 32/32 34/34
f 33/33 34/34 35/35
f 35/35 34/34 36/36
f 35/35 36/36 37/37
f 37/37 36/36 38/38
f 37/37 38/38 39/39
f 39/39 38/38 40/40
f 39/39 40/40 41/41
f 41/41 40/40 42/42
f 41/41 42/42 43/43
f 43/43 42/42 44/44
f 45/45 46/46 47/47
f 47/47 46/46 48/48
f 48/48 46/46 49/49
f 48/48 49/49 50/50
f 50/50 51/51 48/48
f 48/48 51/51 52/52
f 48/48 52/52 53/53
f 53/53 54/54 48/48
f 48/48 54/54 55/55
f 48/48 55/55 56/56
f 56/56 57/57 48/48
f 48/48 57/57 58/58
f 48/48 58/58 59/59
f 59/59 60/60 48/48
f 48/48 60/60 61/61
f 48/48 61/61 62/62
f 62/62 63/63 48/48
f 48/48 63/63 64/64
f 48/48 64/64 65/65
f 65/65 66/66 48/48
f 48/48 66/66 67/67
f 48/48 67/67 68/68
f 68/68 69/69 48/48
f 48/48 69/69 70/70
f 70/70 69/69 71/71
f 70/70 71/71 72/72
f 72/72 71/71 73/73
f 72/72 73/73 74/74
f 74/74 73/73 75/75
f 74/74 75/75 76/76
f 76/76 75/75 77/77
f 76/76 77/77 78/78
f 78/78 77/77 79/79
f 78/78 79/79 80/80
f 80/80 79/79 81/81
f 80/80 81/81 82/82
f 82/82 81/81 83/83
f 82/82 83/83 84/84
f 84/84 83/83 85/85
f 84/84 85/85 86/86
f 86/86 85/85 87/87
f 86/86 87/87 88/88
f 89/89 90/90 91/91
f 91/91 90/90 92/92
f 93/93 94/94 95/95
f 95/95 94/94 96/96
f 96/96 94/94 97/97
f 97/97 94/94 98/98
f 97/97 98/98 99/99
f 99/99 98/98 100/100
f 100/100 98/98 101/101
f 102/102 103/103 104/104
f 104/104 103/103 105/105
f 104/104 105/105 106/106
f 106/106 105/105 107/107
f 106/106 107/107 108/108
f 108/108 107/107 109/109
f 108/108 109/109 110/110
f 110/110 109/109 111/111
f 110/110 111/111 112/112
f 112/112 111/111 113/113
f 112/112 113/113 114/114
f 114/114 113/113 115/115
f 114/114 115/115 116/116
f 116/116 115/115 117/117
f 116/116 117/117 118/118
f 118/118 117/117 119/119
f 118/118 119/119 120/120
f 120/120 119/119 121/121
f 120/120 121/121 122/122
f 122/122 121/121 123/123
f 122/122 123/123 124/124
f 124/124 123/123 125/125
f 124/124 125/125 126/126
f 126/126 125/125 127/127
f 126/126 127/127 128/128
f 128/128 127/127 129/129
f 128/128 129/129 130/130
f 130/130 129/129 131/131
f 130/130 131/131 132/132
f 132/132 131/131 133/133
f 132/132 133/133 134/134
f 134/134 133/133 135/135
f 134/134 135/135 136/136
f 136/136 135/135 137/137
f 136/136 137/137 138/138
f 138/138 137/137 139/139
f 138/138 139/139 140/140
f 140/140 139/139 141/141
f 140/140 141/141 142/142
f 142/142 141/141 143/143
f 142/142 143/143 144/144
f 144/144 143/143 145/145
f 144/144 145/145 146/146
f 146/146 145/145 147/147
f 146/146 147/147 148/148
f 148/148 147/147 149/149
f 148/148 149/149 150/150
f 150/150 149/149 151/151
f 150/150 151/151 152/152
f 152/152 151/151 153/153
f 152/152 153/153 154/154
f 154/154 153/153 155/155
f 154/154 155/155 156/156
f 156/156 155/155 157/157
f 156/156 157/157 158/158
f 158/158 157/157 159/159
f 158/158 159/159 160/160
f 160/160 159/159 161/161
f 160/160 161/161 162/162
f 162/162 161/161 163/163
f 162/162 163/163 164/164
f 164/164 163/163 165/165
f 164/164 165/165 166/166
f 166/166 165/165 167/167
f 166/166 167/167 168/168
f 168/168 167/167 169/169
f 168/168 169/169 170/170
f 170/170 169/169 171/171
f 170/170 171/171 172/172
f 172/172 171/171 173/173
f 172/172 173/173 174/174
f 174/174 173/173 175/175
f 174/174 175/175 176/176
f 176/176 175/175 177/177
f 176/176 177/177 178/178
f 178/178 177/177 179/179
f 178/178 179/179 180/180
f 180/180 179/179 181/181
f 180/180 181/181 182/182
f 182/182 181/181 183/183
f 182/182 183/183 184/184
f 184/184 183/183 185/185
f 186/186 187/187 188/188
f 188/188 187/187 189/189
f 188/188 189/189 190/190
f 190/190 189/189 191/191
f 190/190 191/191 192/192
f 192/192 191/191 193/193
f 192/192 193/193 194/194
f 194/194 193/193 195/195
f 194/194 195/195 196/196
f 196/196 195/195 197/197
f 196/196 197/197 198/198
f 198/198 197/197 199/199
f 198/198 199/199 200/200
f 200/200 199/199 201/201
f 200/200 201/201 202/202
f 202/202 201/201 203/203
f 202/202 203/203 204/204
f 204/204 203/203 205/205
f 204/204 205/205 206/206
f 206/206 205/205 207/207
f 206/206 207/207 208/208
f 208/208 207/207 209/209
f 208/208 209/209 210/210
f 210/210 209/209 211/211
f 210/210 211/211 212/212
f 212/212 211/211 213/213
f 212/212 213/213 214/214
f 214/214 213/213 215/215
f 214/214 215/215 216/216
f 216/216 215/215 217/217
f 216/216 217/217 218/218
f 218/218 217/217 219/219
f 218/218 219/219 220/220
f 220/220 219/219 221/221
f 220/220 221/221 222/222
f 222/222 221/221 223/223
f 222/222 223/223 224/224
f 224/224 223/223 225/225
f 224/224 225/225 226/226
f 226/226 225/225 227/227
f 226/226 227/227 228/228
f 228/228 227/227 229/229
f 228/228 229/229 230/230
f 230/230 229/229 231/231
f 230/230 231/231 232/232
f 232/232 231/231 233/233
f 232/232 233/233 234/234
f 234/234 233/233 235/235
f 234/234 235/235 236/236
f 236/236 235/235 237/237
f 236/236 237/237 238/238
f 238/238 237/237 239/239
f 238/238 239/239 240/240
f 240/240 239/239 241/241
f 240/240 241/241 242/242
f 242/242 241/241 243/243
f 242/242 243/243 244/244
f 244/244 243/243 245/245
f 244/244 245/245 246/246
f 246/246 245/245 247/247
f 246/246 247/247 248/248
f 248/248 247/247 249/249
f 248/248 249/249 250/250
f 250/250 249/249 251/251
f 250/250 251/251 252/252
f 252/252 251/251 253/253
f 252/252 253/253 254/254
f 254/254 253/253 255/255
f 254/254 255/255 256/256
f 256/256 255/255 257/257
f 256/256 257/257 258/258
f 258/258 257/257 259/259
f 258/258 259/259 260/260
f 260/260 259/259 261/261
f 260/260 261/261 262/262
f 262/262 261/261 263/263
f 262/262 263/263 264/264
f 264/264 263/263 265/265
f 264/264 265/265 266/266
f 266/266 265/265 267/267
f 266/266 267/267 268/268
f 268/268 267/267 269/269
f 270/270 271/271 272/272
f 272/272 271/271 273/273
f 272/272 273/273 274/274
f 274/274 275/275 272/272
f 272/272 275/275 276/276
f 272/272 276/276 277/277
f 277/277 278/278 272/272
f 272/272 278/278 279/279
f 272/272 279/279 280/280
f 280/280 281/281 272/272
f 272/272 281/281 282/282
f 272/272 282/282 283/283
f 283/283 284/284 272/272
f 272/272 284/284 285/285
f 272/272 285/285 286/286
f 286/286 287/287 272/272
f 272/272 287/287 288/288
f 272/272 288/288 289/289
f 289/289 290/290 272/272
f 272/272 290/290 291/291
f 272/272 291/291 292/292
f 292/292 293/293 272/272
f 272/272 293/293 294/294
f 272/272 294/294 295/295
f 295/295 296/296 272/272
f 272/272 296/296 297/297
f 272/272 297/297 298/298
f 298/298 299/299 272/272
f 272/272 299/299 300/300
f 272/272 300/300 301/301
f 301/301 302/302 272/272
f 272/272 302/302 303/303
f 272/272 303/303 304/304
f 304/304 305/305 272/272
f 272/272 305/305 306/306
f 272/272 306/306 307/307
f 272/272 307/307 308/308
f 308/308 307/307 309/309
f 308/308 309/309 310/310
f 310/310 311/311 308/308
f 308/308 311/311 312/312
f 308/308 312/312 313/313
f 313/313 314/314 308/308
f 308/308 314/314 315/315
f 308/308 315/315 316/316
f 316/316 317/317 308/308
f 308/308 317/317 318/318
f 308/308 318/318 319/319
f 319/319 320/320 308/308
f 308/308 320/320 321/321
f 308/308 321/321 322/322
f 322/322 323/323 308/308
f 308/308 323/323 324/324
f 308/308 324/324 325/325
f 325/325 326/326 308/308
f 308/308 326/326 327/327
f 308/308 327/327 328/328
f 328/328 329/329 308/308
f 308/308 329/329 330/330
f 308/308 330/330 331/331
f 331/331 332/332 308/308
f 308/308 332/332 333/333
f 308/308 333/333 334/334
f 334/334 335/335 308/308
f 308/308 335/335 336/336
f 308/308 336/336 337/337
f 337/337 338/338 308/308
f 308/308 338/338 339/339
f 308/308 339/339 340/340
f 340/340 341/341 308/308
f 308/308 341/341 342/342
f 308/308 342/342 343/343
f 343/343 344/344 345/345
f 345/345 344/344 346/346
f 345/345 346/346 347/347
f 347/347 348/348 345/345
f 345/345 348/348 349/349
f 345/345 349/349 350/350
f 350/350 351/351 345/345
f 345/345 351/351 352/352
f 345/345 352/352 353/353
f 353/353 354/354 345/345
f 345/345 354/354 355/355
f 345/345 355/355 356/356
f 356/356 357/357 345/345
f 345/345 357/357 358/358
f 345/345 358/358 359/359
f 359/359 360/360 345/345
f 345/345 360/360 361/361
f 345/345 361/361 362/362
f 362/362 363/363 345/345
f 345/345 363/363 364/364
f 345/345 364/364 365/365
f 365/365 366/366 345/345
f 345/345 366/366 367/367
f 345/345 367/367 368/368
f 368/368 369/369 345/345
f 345/345 369/369 370/370
f 345/345 370/370 371/371
f 371/371 372/372 345/345
f 345/345 372/372 373/373
f 345/345 373/373 374/374
f 374/374 375/375 345/345
f 345/345 375/375 376/376
f 345/345 376/376 377/377
f 377/377 378/378 345/345
f 345/345 378/378 379/379
f 345/345 379/379 380/380
f 345/345 380/380 381/381
f 381/381 380/380 382/382
f 381/381 382/382 383/383
f 383/383 384/384 381/381
f 381/381 384/384 385/385
f 381/381 385/385 386/386
f 386/386 387/387 381/381
f 381/381 387/387 388/388
f 381/381 388/388 389/389
f 389/389 390/390 381/381
f 381/381 390/390 391/391
f 381/381 391/391 392/392
f 392/392 393/393 381/381
f 381/381 393/393 394/394
f 381/381 394/394 395/395
f 395/395 396/396 381/381
f 381/381 396/396 397/397
f 381/381 397/397 398/398
f 398/398 399/399 381/381
f 381/381 399/399 400/400
f 381/381 400/400 401/401
f 401/401 402/402 381/381
f 381/381 402/402 403/403
f 381/381 403/403 404/404
f 404/404 405/405 381/381
f 381/381 405/405 406/406
f 381/381 406/406 407/407
f 407/407 408/408 381/381
f 381/381 408/408 409/409
f 381/381 409/409 410/410
f 410/410 411/411 381/381
f 381/381 411/411 412/412
f 381/381 412/412 413/413
f 413/413 414/414 381/381
f 381/381 414/414 415/415
f 381/381 415/415 270/270
f 416/416 417/417 418/418
f 418/418 417/417 419/419
f 418/418 419/419 420/420
f 420/420 419/419 421/421
f 421/421 419/419 422/422
f 422/422 419/419 423/423
f 423/423 419/419 424/424
f 424/424 419/419 425/425
f 425/425 419/419 426/426
f 426/426 419/419 427/427
f 427/427 419/419 428/428
f 428/428 419/419 429/429
f 429/429 419/419 430/430
f 430/430 419/419 431/431
f 431/431 419/419 432/432
f 432/432 419/419 433/433
f 433/433 419/419 434/434
f 434/434 419/419 435/435
f 435/435 419/419 436/436
f 436/436 419/419 437/437
f 437/437 419/419 438/438
f 438/438 419/419 439/439
f 439/439 419/419 440/440
f 440/440 419/419 441/441
f 440/440 441/441 442/442
f 442/442 441/441 443/443
f 442/442 443/443 444/444
f 444/444 443/443 445/445
f 444/444 445/445 446/446
f 446/446 445/445 447/447
f 446/446 447/447 448/448
f 448/448 447/447 449/449
f 448/448 449/449 450/450
f 450/450 449/449 451/451
f 450/450 451/451 452/452
f 452/452 451/451 453/453
f 452/452 453/453 454/454
f 454/454 453/453 455/455
f 454/454 455/455 456/456
f 456/456 455/455 457/457
f 456/456 457/457 458/458
f 458/458 457/457 459/459
f 460/460 461/461 462/462
f 462/462 461/461 463/463
f 462/462 463/463 464/464
f 462/462 464/464 465/465
f 465/465 464/464 466/466
f 465/465 466/466 467/467
f 467/467 468/468 465/465
f 469/469 470/470 471/471
f 471/471 470/470 472/472
f 472/472 470/470 473/473
f 472/472 473/473 474/474
f 474/474 475/475 472/472
f 472/472 475/475 476/476
f 472/472 476/476 477/477
f 477/477 478/478 472/472
f 472/472 478/478 479/479
f 472/472 479/479 480/480
f 480/480 481/481 472/472
f 472/472 481/481 482/482
f 472/472 482/482 483/483
f 483/483 484/484 472/472
f 472/472 484/484 485/485
f 472/472 485/485 486/486
f 486/486 487/487 472/472
f 472/472 487/487 488/488
f 472/472 488/488 489/489
f 489/489 490/490 472/472
f 472/472 490/490 491/491
f 472/472 491/491 492/492
f 492/492 493/493 472/472
f 472/472 493/493 494/494
f 494/494 493/493 495/495
f 494/494 495/495 496/496
f 496/496 495/495 497/497
f 496/496 497/497 498/498
f 498/498 497/497 499/499
f 498/498 499/499 500/500
f 500/500 499/499 501/501
f 500/500 501/501 502/502
f 502/502 501/501 503/503
f 502/502 503/503 504/504
f 504/504 503/503 505/505
f 504/504 505/505 506/506
f 506/506 505/505 507/507
f 506/506 507/507 508/508
f 508/508 507/507 509/509
f 508/508 509/509 510/510
f 510/510 509/509 511/511
f 510/510 511/511 512/512
f 513/513 514/514 515/515
f 515/515 514/514 516/516
f 515/515 516/516 517/517
f 517/517 516/516 518/518
f 517/517 518/518 519/519
f 519/519 518/518 520/520
f 519/519 520/520 521/521
f 521/521 520/520 522/522
f 521/521 522/522 523/523
f 523/523 522/522 524/524
f 523/523 524/524 525/525
f 525/525 524/524 526/526
f 525/525 526/526 527/527
f 527/527 526/526 528/528
f 527/527 528/528 529/529
f 529/529 528/528 530/530
f 529/529 530/530 531/531
f 531/531 530/530 532/532
f 531/531 532/532 533/533
f 533/533 532/532 534/534
f 533/533 534/534 535/535
f 535/535 534/534 536/536
f 535/535 536/536 537/537
f 537/537 536/536 538/538
f 537/537 538/538 539/539
f 539/539 538/538 540/540
f 539/539 540/540 541/541
f 541/541 540/540 542/542
f 541/541 542/542 543/543
f 543/543 542/542 544/544
f 543/543 544/544 545/545
f 545/545 544/544 546/546
f 545/545 546/546 547/547
f 547/547 546/546 548/548
f 547/547 548/548 549/549
f 549/549 548/548 550/550
f 549/549 550/550 551/551
f 551/551 550/550 552/552
f 551/551 552/552 553/553
f 553/553 552/552 554/554
f 553/553 554/554 555/555
f 555/555 554/554 556/556
f 555/555 556/556 557/557
f 557/557 556/556 558/558
f 557/557 558/558 559/559
f 559/559 558/558 560/560
f 559/559 560/560 561/561
f 561/561 560/560 562/562
f 561/561 562/562 563/563
f 563/563 562/562 564/564
f 563/563 564/564 565/565
f 565/565 564/564 566/566
f 565/565 566/566 567/567
f 567/567 566/566 568/568
f 567/567 568/568 569/569
f 569/569 568/568 570/570
f 569/569 570/570 571/571
f 571/571 570/570 572/572
f 571/571 572/572 573/573
f 573/573 572/572 574/574
f 573/573 574/574 575/575
f 575/575 574/574 576/576
f 575/575 576/576 577/577
f 577/577 576/576 578/578
f 577/577 578/578 579/579
f 579/579 578/578 580/580
f 579/579 580/580 581/581
f 581/581 580/580 582/582
f 581/581 582/582 583/583
f 583/583 582/582 584/584
f 583/583 584/584 585/585
f 585/585 584/584 586/586
f 585/585 586/586 587/587
f 588/588 589/589 590/590
f 588/588 590/590 591/591
f 591/591 590/590 592/592
f 591/591 592/592 593/593
f 593/593 592/592 594/594
f 593/593 594/594 595/595
f 595/595 594/594 596/596
f 595/595 596/596 597/597
f 597/597 596/596 598/598
f 597/597 598/598 599/599
f 599/599 598/598 600/600
f 599/599 600/600 601/601
f 601/601 600/600 602/602
f 601/601 602/602 603/603
f 603/603 602/602 604/604
f 603/603 604/604 605/605
f 605/605 604/604 606/606
f 605/605 606/606 607/607
f 607/607 606/606 608/608
f 607/607 608/608 609/609
f 609/609 608/608 610/610
f 609/609 610/610 611/611
f 611/611 610/610 612/612
f 611/611 612/612 613/613
f 613/613 612/612 614/614
f 613/613 614/614 615/615
f 615/615 614/614 616/616
f 615/615 616/616 617/617
f 617/617 616/616 618/618
f 617/617 618/618 619/619
f 619/619 618/618 620/620
f 619/619 620/620 621/621
f 621/621 620/620 622/622
f 621/621 622/622 623/623
f 623/623 622/622 624/624
f 623/623 624/624 625/625
f 625/625 624/624 626/626
f 625/625 626/626 627/627
f 627/627 626/626 628/628
f 627/627 628/628 629/629
f 629/629 628/628 630/630
f 629/629 630/630 631/631
f 631/631 630/630 632/632
f 631/631 632/632 633/633
f 633/633 632/632 634/634
f 633/633 634/634 635/635
f 635/635 634/634 636/636
f 635/635 636/636 637/637
f 637/637 636/636 638/638
f 637/637 638/638 639/639
f 639/639 638/638 640/640
f 639/639 640/640 641/641
f 641/641 640/640 642/642
f 641/641 642/642 643/643
f 643/643 642/642 644/644
f 643/643 644/644 645/645
f 645/645 644/644 646/646
f 645/645 646/646 647/647
f 647/647 646/646 648/648
f 647/647 648/648 649/649
f 649/649 648/648 650/650
f 649/649 650/650 651/651
f 651/651 650/650 652/652
f 651/651 652/652 653/653
f 653/653 652/652 654/654
f 653/653 654/654 655/655
f 655/655 654/654 656/656
f 655/655 656/656 657/657
f 657/657 656/656 658/658
f 657/657 658/658 659/659
f 659/659 658/658 660/660
f 659/659 660/660 661/661
f 661/661 660/660 662/662
f 661/661 662/662 663/663
f 663/663 662/662 664/664
f 663/663 664/664 665/665
f 665/665 664/664 666/666
f 665/665 666/666 667/667
f 667/667 666/666 668/668
f 667/667 668/668 669/669
f 669/669 668/668 670/670
f 669/669 670/670 671/671
f 671/671 670/670 672/672
f 671/671 672/672 673/673
f 673/673 672/672 674/674
f 673/673 674/674 675/675
f 675/675 674/674 676/676
f 675/675 676/676 677/677
f 677/677 676/676 678/678
f 677/677 678/678 679/679
f 679/679 678/678 680/680
f 679/679 680/680 681/681
f 681/681 680/680 682/682
f 681/681 682/682 683/683
f 683/683 682/682 684/684
f 683/683 684/684 685/685
f 685/685 684/684 686/686
f 685/685 686/686 687/687
f 687/687 686/686 688/688
f 687/687 688/688 689/689
f 689/689 688/688 690/690
f 689/689 690/690 691/691
f 691/691 690/690 692/692
f 691/691 692/692 693/693
f 693/693 692/692 694/694
f 693/693 694/694 695/695
f 695/695 694/694 696/696
f 695/695 696/696 697/697
f 697/697 696/696 698/698
f 697/697 698/698 699/699
f 699/699 698/698 700/700
f 699/699 700/700 701/701
f 701/701 700/700 702/702
f 701/701 702/702 703/703
f 703/703 702/702 704/704
f 703/703 704/704 705/705
f 705/705 704/704 706/706
f 705/705 706/706 707/707
f 707/707 706/706 708/708
f 707/707 708/708 709/709
f 709/709 708/708 710/710
f 709/709 710/710 711/711
f 711/711 710/710 712/712
f 711/711 712/712 713/713
f 713/713 712/712 714/714
f 713/713 714/714 715/715
f 715/715 714/714 716/716
f 715/715 716/716 717/717
f 717/717 716/716 718/718
f 717/717 718/718 719/719
f 719/719 718/718 720/720
f 719/719 720/720 721/721
f 721/721 720/720 722/722
f 721/721 722/722 723/723
f 723/723 722/722 724/724
f 723/723 724/724 725/725
f 725/725 724/724 726/726
f 725/725 726/726 727/727
f 727/727 726/726 728/728
f 727/727 728/728 729/729
f 729/729 728/728 730/730
f 729/729 730/730 731/731
f 731/731 730/730 732/732
f 731/731 732/732 733/733
f 733/733 732/732 734/734
f 733/733 734/734 735/735
f 735/735 734/734 736/736
f 735/735 736/736 737/737
f 737/737 736/736 738/738
f 737/737 738/738 739/739
f 739/739 738/738 740/740
f 739/739 740/740 741/741
f 741/741 740/740 742/742
f 741/741 742/742 743/743
f 743/743 742/742 744/744
f 743/743 744/744 745/745
f 745/745 744/744 746/746
f 745/745 746/746 747/747
f 747/747 746/746 748/748
f 747/747 748/748 749/749
f 749/749 748/748 750/750
f 749/749 750/750 751/751
f 751/751 750/750 752/752
f 751/751 752/752 753/753
f 753/753 752/752 754/754
f 753/753 754/754 755/755
f 755/755 754/754 756/756
f 755/755 756/756 757/757
f 757/757 756/756 758/758
f 757/757 758/758 759/759
f 759/759 758/758 760/760
f 759/759 760/760 761/761
f 761/761 760/760 762/762
f 761/761 762/762 763/763
f 763/763 762/762 764/764
f 763/763 764/764 765/765
f 765/765 764/764 766/766
f 765/765 766/766 767/767
f 767/767 766/766 768/768
f 767/767 768/768 769/769
f 769/769 768/768 770/770
f 769/769 770/770 771/771
f 771/771 770/770 772/772
f 771/771 772/772 773/773
f 773/773 772/772 774/774
f 773/773 774/774 775/775
f 775/775 774/774 776/776
f 775/775 776/776 777/777
f 777/777 776/776 778/778
f 777/777 778/778 779/779
f 779/779 778/778 780/780
f 779/779 780/780 781/781
f 781/781 780/780 782/782
f 781/781 782/782 783/783
f 783/783 782/782 784/784
f 783/783 784/784 785/785
f 785/785 784/784 786/786
f 785/785 786/786 787/787
f 787/787 786/786 788/788
f 787/787 788/788 789/789
f 789/789 788/788 790/790
f 789/789 790/790 791/791
f 791/791 790/790 792/792
f 791/791 792/792 793/793
f 793/793 792/792 794/794
f 793/793 794/794 795/795
f 795/795 794/794 796/796
f 795/795 796/796 797/797
f 797/797 796/796 798/798
f 797/797 798/798 513/513
f 513/513 798/798 514/514
f 799/799 800/800 801/801
f 801/801 800/800 802/802
f 801/801 802/802 803/803
f 803/803 802/802 804/804
f 803/803 804/804 805/805
f 805/805 804/804 806/806
f 805/805 806/806 807/807
f 807/807 806/806 808/808
f 807/807 808/808 809/809
f 809/809 808/808 810/810
f 809/809 810/810 811/811
f 811/811 810/810 812/812
f 811/811 812/812 813/813
f 813/813 812/812 814/814
f 813/813 814/814 815/815
f 815/815 814/814 816/816
f 815/815 816/816 817/817
f 817/817 816/816 818/818
f 817/817 818/818 819/819
f 819/819 818/818 820/820
f 819/819 820/820 821/821
f 821/821 820/820 822/822
f 821/821 822/822 823/823
f 823/823 822/822 824/824
f 823/823 824/824 825/825
f 825/825 824/824 826/826
f 825/825 826/826 827/827
f 827/827 826/826 828/828
f 827/827 828/828 829/829
f 829/829 828/828 830/830
f 829/829 830/830 831/831
f 831/831 830/830 832/832
f 831/831 832/832 833/833
f 833/833 832/832 834/834
f 833/833 834/834 835/835
f 835/835 834/834 836/836
f 835/835 836/836 837/837
f 837/837 836/836 838/838
f 837/837 838/838 839/839
f 839/839 838/838 840/840
f 839/839 840/840 841/841
f 841/841 840/840 842/842
f 841/841 842/842 843/843
f 843/843 842/842 844/844
f 843/843 844/844 845/845
f 845/845 844/844 846/846
f 845/845 846/846 847/847
f 847/847 846/846 848/848
f 847/847 848/848 849/849
f 849/849 848/848 850/850
f 849/849 850/850 851/851
f 851/851 850/850 852/852
f 851/851 852/852 853/853
f 853/853 852/852 854/854
f 853/853 854/854 855/855
f 855/855 854/854 856/856
f 855/855 856/856 857/857
f 857/857 856/856 858/858
f 857/857 858/858 859/859
f 859/859 858/858 860/860
f 859/859 860/860 861/861
f 861/861 860/860 862/862
f 861/861 862/862 863/863
f 863/863 862/862 864/864
f 863/863 864/864 865/865
f 865/865 864/864 866/866
f 865/865 866/866 867/867
f 867/867 866/866 868/868
f 867/867 868/868 869/869
f 869/869 868/868 870/870
f 869/869 870/870 871/871
f 871/871 870/870 872/872
f 800/800 799/799 873/873
f 873/873 799/799 874/874
f 873/873 874/874 875/875
f 875/875 874/874 876/876
f 875/875 876/876 877/877
f 877/877 876/876 878/878
f 877/877 878/878 879/879
f 879/879 878/878 880/880
f 879/879 880/880 881/881
f 881/881 880/880 882/882
f 881/881 882/882 883/883
f 883/883 882/882 884/884
f 883/883 884/884 885/885
f 885/885 884/884 886/886
f 885/885 886/886 887/887
f 887/887 886/886 888/888
f 887/887 888/888 889/889
f 889/889 888/888 890/890
f 889/889 890/890 891/891
f 891/891 890/890 892/892
f 891/891 892/892 893/893
f 893/893 892/892 894/894
f 893/893 894/894 895/895
f 895/895 894/894 896/896
f 895/895 896/896 897/897
f 897/897 896/896 898/898
f 897/897 898/898 899/899
f 899/899 898/898 900/900
f 899/899 900/900 901/901
f 901/901 900/900 902/902
f 901/901 902/902 903/903
f 903/903 902/902 904/904
f 903/903 904/904 905/905
f 905/905 904/904 906/906
f 905/905 906/906 907/907
f 907/907 906/906 908/908
f 907/907 908/908 909/909
f 909/909 908/908 910/910
f 909/909 910/910 911/911
f 911/911 910/910 912/912
f 911/911 912/912 913/913
f 913/913 912/912 914/914
f 913/913 914/914 915/915
f 915/915 914/914 916/916
f 915/915 916/916 917/917
f 917/917 916/916 918/918
f 917/917 918/918 919/919
f 919/919 918/918 920/920
f 919/919 920/920 921/921
f 921/921 920/920 922/922
f 921/921 922/922 923/923
f 923/923 922/922 924/924
f 923/923 924/924 925/925
f 925/925 924/924 926/926
f 925/925 926/926 927/927
f 927/927 926/926 928/928
f 927/927 928/928 929/929
f 929/929 928/928 930/930
f 929/929 930/930 931/931
f 931/931 930/930 932/932
f 931/931 932/932 933/933
f 933/933 932/932 934/934
f 933/933 934/934 935/935
f 935/935 934/934 936/936
f 935/935 936/936 937/937
f 937/937 936/936 938/938
f 937/937 938/938 939/939
f 939/939 938/938 940/940

