mtllib material.mtl
usemtl material_diff_caster_2
v 35.25000000 48.03956633 -46.68740444
v 35.25000000 119.96039992 -46.68740987
v 35.25000000 47.99999660 -45.00000362
v 35.25000000 119.99999660 -45.00000906
v 35.25000000 48.03956658 -43.31260281
v 35.25000000 119.96040017 -43.31260824
v 35.25000000 48.15817709 -41.62891370
v 35.25000000 119.84179373 -41.62891911
v 35.25000000 48.35558780 -39.95262511
v 35.25000000 119.64439853 -39.95263049
v 35.25000000 48.63134858 -38.28744493
v 35.25000000 119.36869523 -38.28745027
v 35.25000000 48.98484907 -36.63701237
v 35.25000000 119.01509581 -36.63701765
v 35.25000000 49.41532634 -35.00496284
v 35.25000000 118.58469890 -35.00496806
v 35.25000000 49.92183815 -33.39488216
v 35.25000000 118.07819877 -33.39488730
v 35.25000000 50.50324772 -31.81032371
v 35.25000000 117.49680088 -31.81032877
v 35.25000000 51.15828858 -30.25475316
v 35.25000000 116.84169541 -30.25475812
v 35.25000000 51.88553784 -28.73159419
v 35.25000000 116.11449978 -28.73159904
v 35.25000000 52.68336663 -27.24419419
v 35.25000000 115.31659493 -27.24419892
v 35.25000000 53.55003925 -25.79583382
v 35.25000000 114.44999500 -25.79583841
v 35.25000000 54.48365981 -24.38968498
v 35.25000000 113.51629455 -24.38968943
v 35.25000000 55.48214929 -23.02883376
v 35.25000000 112.51789682 -23.02883807
v 35.25000000 56.54332951 -21.71628425
v 35.25000000 111.45670155 -21.71628840
v 35.25000000 57.66486967 -20.45492417
v 35.25000000 110.33509672 -20.45492815
v 35.25000000 58.84429786 -19.24751535
v 35.25000000 109.15569923 -19.24751915
v 35.25000000 60.07902009 -18.09671474
v 35.25000000 107.92099625 -18.09671835
v 35.25000000 61.36633935 -17.00505529
v 35.25000000 106.63369623 -17.00505871
v 35.25000000 62.70339845 -15.97493454
v 35.25000000 105.29659914 -15.97493776
v 35.25000000 64.08727914 -15.00861461
v 35.25000000 103.91269571 -15.00861762
v 35.25000000 65.51492966 -14.10822505
v 35.25000000 102.48509873 -14.10822784
v 35.25000000 66.98322196 -13.27573519
v 35.25000000 101.01679892 -13.27573776
v 35.25000000 68.48890592 -12.51299517
v 35.25000000 99.51109982 -12.51299751
v 35.25000000 70.02870089 -11.82166533
v 35.25000000 97.97131258 -11.82166744
v 35.25000000 71.59918891 -11.20325534
v 35.25000000 96.40080940 -11.20325721
v 35.25000000 73.19695964 -10.65915565
v 35.25000000 94.80304638 -10.65915728
v 35.25000000 74.81845779 -10.19053547
v 35.25000000 93.18154067 -10.19053686
v 35.25000000 76.46015093 -9.79843335
v 35.25000000 91.53984759 -9.79843449
v 35.25000000 78.11842275 -9.48371619
v 35.25000000 89.88159108 -9.48371707
v 35.25000000 79.78961112 -9.24706775
v 35.25000000 88.21040274 -9.24706839
v 35.25000000 81.47006157 -9.08901448
v 35.25000000 86.52995232 -9.08901486
v 35.25000000 83.15606621 -9.00990065
v 35.25000000 84.84394005 -9.00990078
v 35.25000000 119.84179322 -48.37109898
v 35.25000000 48.15817658 -48.37109357
v 35.25000000 119.64439777 -50.04737994
v 35.25000000 48.35558704 -50.04737456
v 35.25000000 119.36869422 -51.71256776
v 35.25000000 48.63134757 -51.71256242
v 35.25000000 119.01509454 -53.36300032
v 35.25000000 48.98484781 -53.36299503
v 35.25000000 118.58469739 -54.99504985
v 35.25000000 49.41532483 -54.99504462
v 35.25000000 118.07819702 -56.60513053
v 35.25000000 49.92183639 -56.60512538
v 35.25000000 117.49679889 -58.18968706
v 35.25000000 50.50324573 -58.18968201
v 35.25000000 116.84169318 -59.74525952
v 35.25000000 51.15828635 -59.74525456
v 35.25000000 116.11449733 -61.26841850
v 35.25000000 51.88553538 -61.26841365
v 35.25000000 115.31659225 -62.75581849
v 35.25000000 52.68336394 -62.75581376
v 35.25000000 114.44999210 -64.20417887
v 35.25000000 53.55003635 -64.20417427
v 35.25000000 113.51629143 -65.61033724
v 35.25000000 54.48365670 -65.61033279
v 35.25000000 112.51789350 -66.97117701
v 35.25000000 55.48214598 -66.97117271
v 35.25000000 111.45669803 -68.28373034
v 35.25000000 56.54332599 -68.28372619
v 35.25000000 110.33509302 -69.54509042
v 35.25000000 57.66486597 -69.54508645
v 35.25000000 109.15569534 -70.75251068
v 35.25000000 58.84429397 -70.75250688
v 35.25000000 107.92099219 -71.90329794
v 35.25000000 60.07901603 -71.90329433
v 35.25000000 106.63369200 -72.99495739
v 35.25000000 61.36633513 -72.99495397
v 35.25000000 105.29659475 -74.02507814
v 35.25000000 62.70339407 -74.02507492
v 35.25000000 103.91269118 -74.99140952
v 35.25000000 64.08727461 -74.99140651
v 35.25000000 102.48509406 -75.89180003
v 35.25000000 65.51492500 -75.89179724
v 35.25000000 101.01679413 -76.72428131
v 35.25000000 66.98321717 -76.72427874
v 35.25000000 99.51109492 -77.48702991
v 35.25000000 68.48890101 -77.48702757
v 35.25000000 97.97130757 -78.17835975
v 35.25000000 70.02869588 -78.17835764
v 35.25000000 96.40080429 -78.79676021
v 35.25000000 71.59918381 -78.79675834
v 35.25000000 94.80304119 -79.34085799
v 35.25000000 73.19695446 -79.34085636
v 35.25000000 93.18153542 -79.80947817
v 35.25000000 74.81845253 -79.80947678
v 35.25000000 91.53984227 -80.20157551
v 35.25000000 76.46014562 -80.20157438
v 35.25000000 89.88158572 -80.51629554
v 35.25000000 78.11841738 -80.51629466
v 35.25000000 88.21039735 -80.75294398
v 35.25000000 79.78960572 -80.75294334
v 35.25000000 86.52994689 -80.91100965
v 35.25000000 81.47005615 -80.91100926
v 35.25000000 84.84393462 -80.99011871
v 35.25000000 83.15606078 -80.99011858
v 5.25000000 79.03942527 -45.62667680
v 5.25000000 48.03956633 -46.68740444
v 5.25000000 78.99999660 -45.00000596
v 5.25000000 47.99999660 -45.00000362
v 5.25000000 48.03956658 -43.31260281
v 5.25000000 79.15707811 -46.24345614
v 5.25000000 48.63134757 -51.71256242
v 5.25000000 48.35558704 -50.04737456
v 5.25000000 48.15817658 -48.37109357
v 5.25000000 79.35111646 -46.84062412
v 5.25000000 49.92183639 -56.60512538
v 5.25000000 49.41532483 -54.99504462
v 5.25000000 48.98484781 -53.36299503
v 5.25000000 79.61846566 -47.40877753
v 5.25000000 51.15828635 -59.74525456
v 5.25000000 50.50324573 -58.18968201
v 5.25000000 79.95491429 -47.93893655
v 5.25000000 53.55003635 -64.20417427
v 5.25000000 52.68336394 -62.75581376
v 5.25000000 51.88553538 -61.26841365
v 5.25000000 80.35515992 -48.42274700
v 5.25000000 56.54332599 -68.28372619
v 5.25000000 55.48214598 -66.97117271
v 5.25000000 54.48365670 -65.61033279
v 5.25000000 80.81287778 -48.85256424
v 5.25000000 58.84429397 -70.75250688
v 5.25000000 57.66486597 -69.54508645
v 5.25000000 81.32086573 -49.22164768
v 5.25000000 62.70339407 -74.02507492
v 5.25000000 61.36633513 -72.99495397
v 5.25000000 60.07901603 -71.90329433
v 5.25000000 81.87109764 -49.52413796
v 5.25000000 66.98321717 -76.72427874
v 5.25000000 65.51492500 -75.89179724
v 5.25000000 64.08727461 -74.99140651
v 5.25000000 82.45491415 -49.75528577
v 5.25000000 70.02869588 -78.17835764
v 5.25000000 68.48890101 -77.48702757
v 5.25000000 83.06309895 -49.91143663
v 5.25000000 74.81845253 -79.80947678
v 5.25000000 73.19695446 -79.34085636
v 5.25000000 71.59918381 -78.79675834
v 5.25000000 83.68604664 -49.99013770
v 5.25000000 79.78960572 -80.75294334
v 5.25000000 78.11841738 -80.51629466
v 5.25000000 76.46014562 -80.20157438
v 5.25000000 84.31394581 -49.99013774
v 5.25000000 83.15606078 -80.99011858
v 5.25000000 81.47005615 -80.91100926
v 5.25000000 84.93690877 -49.91143677
v 5.25000000 119.64439777 -50.04737994
v 5.25000000 119.36869422 -51.71256776
v 5.25000000 119.01509454 -53.36300032
v 5.25000000 85.54507834 -49.75528600
v 5.25000000 86.12889488 -49.52413828
v 5.25000000 86.67912684 -49.22164808
v 5.25000000 87.18711484 -48.85256472
v 5.25000000 87.64484803 -48.42274755
v 5.25000000 88.04507847 -47.93893716
v 5.25000000 88.38152718 -47.40877819
v 5.25000000 88.64887647 -46.84062483
v 5.25000000 88.84291490 -46.24345687
v 5.25000000 88.96056784 -45.62667755
v 5.25000000 119.84179322 -48.37109898
v 5.25000000 119.96039992 -46.68740987
v 5.25000000 88.99999660 -45.00000672
v 5.25000000 119.99999660 -45.00000906
v 5.25000000 119.96040017 -43.31260824
v 5.25000000 88.96056794 -44.37333588
v 5.25000000 119.84179373 -41.62891911
v 5.25000000 119.64439853 -39.95263049
v 5.25000000 119.36869523 -38.28745027
v 5.25000000 88.84291509 -43.75655654
v 5.25000000 119.01509581 -36.63701765
v 5.25000000 118.58469890 -35.00496806
v 5.25000000 118.07819877 -33.39488730
v 5.25000000 88.64887675 -43.15938856
v 5.25000000 117.49680088 -31.81032877
v 5.25000000 116.84169541 -30.25475812
v 5.25000000 88.38152755 -42.59123516
v 5.25000000 116.11449978 -28.73159904
v 5.25000000 115.31659493 -27.24419892
v 5.25000000 114.44999500 -25.79583841
v 5.25000000 88.04507892 -42.06107614
v 5.25000000 113.51629455 -24.38968943
v 5.25000000 112.51789682 -23.02883807
v 5.25000000 111.45670155 -21.71628840
v 5.25000000 87.64484855 -41.57726568
v 5.25000000 110.33509672 -20.45492815
v 5.25000000 109.15569923 -19.24751915
v 5.25000000 87.18711542 -41.14743700
v 5.25000000 107.92099625 -18.09671835
v 5.25000000 106.63369623 -17.00505871
v 5.25000000 105.29659914 -15.97493776
v 5.25000000 86.67912748 -40.77836500
v 5.25000000 103.91269571 -15.00861762
v 5.25000000 102.48509873 -14.10822784
v 5.25000000 101.01679892 -13.27573776
v 5.25000000 86.12889556 -40.47586710
v 5.25000000 99.51109982 -12.51299751
v 5.25000000 97.97131258 -11.82166744
v 5.25000000 85.54507905 -40.24472692
v 5.25000000 96.40080940 -11.20325721
v 5.25000000 94.80304638 -10.65915728
v 5.25000000 93.18154067 -10.19053686
v 5.25000000 84.93690951 -40.08856461
v 5.25000000 91.53984759 -9.79843449
v 5.25000000 89.88159108 -9.48371707
v 5.25000000 88.21040274 -9.24706839
v 5.25000000 84.31394656 -40.00986736
v 5.25000000 86.52995232 -9.08901486
v 5.25000000 84.84394005 -9.00990078
v 5.25000000 83.68604739 -40.00986731
v 5.25000000 83.15606621 -9.00990065
v 5.25000000 81.47006157 -9.08901448
v 5.25000000 79.78961112 -9.24706775
v 5.25000000 83.06309970 -40.08856447
v 5.25000000 78.11842275 -9.48371619
v 5.25000000 76.46015093 -9.79843335
v 5.25000000 74.81845779 -10.19053547
v 5.25000000 73.19695964 -10.65915565
v 5.25000000 71.59918891 -11.20325534
v 5.25000000 70.02870089 -11.82166533
v 5.25000000 68.48890592 -12.51299517
v 5.25000000 66.98322196 -13.27573519
v 5.25000000 65.51492966 -14.10822505
v 5.25000000 64.08727914 -15.00861461
v 5.25000000 62.70339845 -15.97493454
v 5.25000000 61.36633935 -17.00505529
v 5.25000000 60.07902009 -18.09671474
v 5.25000000 58.84429786 -19.24751535
v 5.25000000 57.66486967 -20.45492417
v 5.25000000 56.54332951 -21.71628425
v 5.25000000 55.48214929 -23.02883376
v 5.25000000 54.48365981 -24.38968498
v 5.25000000 53.55003925 -25.79583382
v 5.25000000 52.68336663 -27.24419419
v 5.25000000 51.88553784 -28.73159419
v 5.25000000 51.15828858 -30.25475316
v 5.25000000 50.50324772 -31.81032371
v 5.25000000 49.92183815 -33.39488216
v 5.25000000 49.41532634 -35.00496284
v 5.25000000 48.98484907 -36.63701237
v 5.25000000 82.45491487 -40.24472668
v 5.25000000 81.87109832 -40.47586678
v 5.25000000 81.32086637 -40.77836460
v 5.25000000 80.81287836 -41.14743652
v 5.25000000 80.35516044 -41.57726513
v 5.25000000 79.95491473 -42.06107552
v 5.25000000 79.61846602 -42.59123450
v 5.25000000 79.35111674 -43.15938786
v 5.25000000 79.15707830 -43.75655581
v 5.25000000 48.63134858 -38.28744493
v 5.25000000 79.03942536 -44.37333513
v 5.25000000 48.35558780 -39.95262511
v 5.25000000 48.15817709 -41.62891370
v 5.25000000 118.58469739 -54.99504985
v 5.25000000 118.07819702 -56.60513053
v 5.25000000 117.49679889 -58.18968706
v 5.25000000 116.84169318 -59.74525952
v 5.25000000 116.11449733 -61.26841850
v 5.25000000 115.31659225 -62.75581849
v 5.25000000 114.44999210 -64.20417887
v 5.25000000 113.51629143 -65.61033724
v 5.25000000 112.51789350 -66.97117701
v 5.25000000 111.45669803 -68.28373034
v 5.25000000 110.33509302 -69.54509042
v 5.25000000 109.15569534 -70.75251068
v 5.25000000 107.92099219 -71.90329794
v 5.25000000 106.63369200 -72.99495739
v 5.25000000 105.29659475 -74.02507814
v 5.25000000 103.91269118 -74.99140952
v 5.25000000 102.48509406 -75.89180003
v 5.25000000 101.01679413 -76.72428131
v 5.25000000 99.51109492 -77.48702991
v 5.25000000 97.97130757 -78.17835975
v 5.25000000 96.40080429 -78.79676021
v 5.25000000 94.80304119 -79.34085799
v 5.25000000 93.18153542 -79.80947817
v 5.25000000 91.53984227 -80.20157551
v 5.25000000 89.88158572 -80.51629554
v 5.25000000 88.21039735 -80.75294398
v 5.25000000 86.52994689 -80.91100965
v 5.25000000 84.84393462 -80.99011871
v -35.25000000 48.03956658 -43.31260281
v -35.25000000 119.96040017 -43.31260824
v -35.25000000 47.99999660 -45.00000362
v -35.25000000 119.99999660 -45.00000906
v -35.25000000 48.03956633 -46.68740444
v -35.25000000 119.96039992 -46.68740987
v -35.25000000 48.15817658 -48.37109357
v -35.25000000 119.84179322 -48.37109898
v -35.25000000 48.35558704 -50.04737456
v -35.25000000 119.64439777 -50.04737994
v -35.25000000 48.63134757 -51.71256242
v -35.25000000 119.36869422 -51.71256776
v -35.25000000 48.98484781 -53.36299503
v -35.25000000 119.01509454 -53.36300032
v -35.25000000 49.41532483 -54.99504462
v -35.25000000 118.58469739 -54.99504985
v -35.25000000 49.92183639 -56.60512538
v -35.25000000 118.07819702 -56.60513053
v -35.25000000 50.50324573 -58.18968201
v -35.25000000 117.49679889 -58.18968706
v -35.25000000 51.15828635 -59.74525456
v -35.25000000 116.84169318 -59.74525952
v -35.25000000 51.88553538 -61.26841365
v -35.25000000 116.11449733 -61.26841850
v -35.25000000 52.68336394 -62.75581376
v -35.25000000 115.31659225 -62.75581849
v -35.25000000 53.55003635 -64.20417427
v -35.25000000 114.44999210 -64.20417887
v -35.25000000 54.48365670 -65.61033279
v -35.25000000 113.51629143 -65.61033724
v -35.25000000 55.48214598 -66.97117271
v -35.25000000 112.51789350 -66.97117701
v -35.25000000 56.54332599 -68.28372619
v -35.25000000 111.45669803 -68.28373034
v -35.25000000 57.66486597 -69.54508645
v -35.25000000 110.33509302 -69.54509042
v -35.25000000 58.84429397 -70.75250688
v -35.25000000 109.15569534 -70.75251068
v -35.25000000 60.07901603 -71.90329433
v -35.25000000 107.92099219 -71.90329794
v -35.25000000 61.36633513 -72.99495397
v -35.25000000 106.63369200 -72.99495739
v -35.25000000 62.70339407 -74.02507492
v -35.25000000 105.29659475 -74.02507814
v -35.25000000 64.08727461 -74.99140651
v -35.25000000 103.91269118 -74.99140952
v -35.25000000 65.51492500 -75.89179724
v -35.25000000 102.48509406 -75.89180003
v -35.25000000 66.98321717 -76.72427874
v -35.25000000 101.01679413 -76.72428131
v -35.25000000 68.48890101 -77.48702757
v -35.25000000 99.51109492 -77.48702991
v -35.25000000 70.02869588 -78.17835764
v -35.25000000 97.97130757 -78.17835975
v -35.25000000 71.59918381 -78.79675834
v -35.25000000 96.40080429 -78.79676021
v -35.25000000 73.19695446 -79.34085636
v -35.25000000 94.80304119 -79.34085799
v -35.25000000 74.81845253 -79.80947678
v -35.25000000 93.18153542 -79.80947817
v -35.25000000 76.46014562 -80.20157438
v -35.25000000 91.53984227 -80.20157551
v -35.25000000 78.11841738 -80.51629466
v -35.25000000 89.88158572 -80.51629554
v -35.25000000 79.78960572 -80.75294334
v -35.25000000 88.21039735 -80.75294398
v -35.25000000 81.47005615 -80.91100926
v -35.25000000 86.52994689 -80.91100965
v -35.25000000 83.15606078 -80.99011858
v -35.25000000 84.84393462 -80.99011871
v -35.25000000 119.84179373 -41.62891911
v -35.25000000 48.15817709 -41.62891370
v -35.25000000 119.64439853 -39.95263049
v -35.25000000 48.35558780 -39.95262511
v -35.25000000 119.36869523 -38.28745027
v -35.25000000 48.63134858 -38.28744493
v -35.25000000 119.01509581 -36.63701765
v -35.25000000 48.98484907 -36.63701237
v -35.25000000 118.58469890 -35.00496806
v -35.25000000 49.41532634 -35.00496284
v -35.25000000 118.07819877 -33.39488730
v -35.25000000 49.92183815 -33.39488216
v -35.25000000 117.49680088 -31.81032877
v -35.25000000 50.50324772 -31.81032371
v -35.25000000 116.84169541 -30.25475812
v -35.25000000 51.15828858 -30.25475316
v -35.25000000 116.11449978 -28.73159904
v -35.25000000 51.88553784 -28.73159419
v -35.25000000 115.31659493 -27.24419892
v -35.25000000 52.68336663 -27.24419419
v -35.25000000 114.44999500 -25.79583841
v -35.25000000 53.55003925 -25.79583382
v -35.25000000 113.51629455 -24.38968943
v -35.25000000 54.48365981 -24.38968498
v -35.25000000 112.51789682 -23.02883807
v -35.25000000 55.48214929 -23.02883376
v -35.25000000 111.45670155 -21.71628840
v -35.25000000 56.54332951 -21.71628425
v -35.25000000 110.33509672 -20.45492815
v -35.25000000 57.66486967 -20.45492417
v -35.25000000 109.15569923 -19.24751915
v -35.25000000 58.84429786 -19.24751535
v -35.25000000 107.92099625 -18.09671835
v -35.25000000 60.07902009 -18.09671474
v -35.25000000 106.63369623 -17.00505871
v -35.25000000 61.36633935 -17.00505529
v -35.25000000 105.29659914 -15.97493776
v -35.25000000 62.70339845 -15.97493454
v -35.25000000 103.91269571 -15.00861762
v -35.25000000 64.08727914 -15.00861461
v -35.25000000 102.48509873 -14.10822784
v -35.25000000 65.51492966 -14.10822505
v -35.25000000 101.01679892 -13.27573776
v -35.25000000 66.98322196 -13.27573519
v -35.25000000 99.51109982 -12.51299751
v -35.25000000 68.48890592 -12.51299517
v -35.25000000 97.97131258 -11.82166744
v -35.25000000 70.02870089 -11.82166533
v -35.25000000 96.40080940 -11.20325721
v -35.25000000 71.59918891 -11.20325534
v -35.25000000 94.80304638 -10.65915728
v -35.25000000 73.19695964 -10.65915565
v -35.25000000 93.18154067 -10.19053686
v -35.25000000 74.81845779 -10.19053547
v -35.25000000 91.53984759 -9.79843449
v -35.25000000 76.46015093 -9.79843335
v -35.25000000 89.88159108 -9.48371707
v -35.25000000 78.11842275 -9.48371619
v -35.25000000 88.21040274 -9.24706839
v -35.25000000 79.78961112 -9.24706775
v -35.25000000 86.52995232 -9.08901486
v -35.25000000 81.47006157 -9.08901448
v -35.25000000 84.84394005 -9.00990078
v -35.25000000 83.15606621 -9.00990065
v -5.25000000 79.03942536 -44.37333513
v -5.25000000 48.03956658 -43.31260281
v -5.25000000 78.99999660 -45.00000596
v -5.25000000 47.99999660 -45.00000362
v -5.25000000 48.03956633 -46.68740444
v -5.25000000 79.15707830 -43.75655581
v -5.25000000 48.63134858 -38.28744493
v -5.25000000 48.35558780 -39.95262511
v -5.25000000 48.15817709 -41.62891370
v -5.25000000 79.35111674 -43.15938786
v -5.25000000 49.92183815 -33.39488216
v -5.25000000 49.41532634 -35.00496284
v -5.25000000 48.98484907 -36.63701237
v -5.25000000 79.61846602 -42.59123450
v -5.25000000 51.15828858 -30.25475316
v -5.25000000 50.50324772 -31.81032371
v -5.25000000 79.95491473 -42.06107552
v -5.25000000 53.55003925 -25.79583382
v -5.25000000 52.68336663 -27.24419419
v -5.25000000 51.88553784 -28.73159419
v -5.25000000 80.35516044 -41.57726513
v -5.25000000 56.54332951 -21.71628425
v -5.25000000 55.48214929 -23.02883376
v -5.25000000 54.48365981 -24.38968498
v -5.25000000 80.81287836 -41.14743652
v -5.25000000 58.84429786 -19.24751535
v -5.25000000 57.66486967 -20.45492417
v -5.25000000 81.32086637 -40.77836460
v -5.25000000 62.70339845 -15.97493454
v -5.25000000 61.36633935 -17.00505529
v -5.25000000 60.07902009 -18.09671474
v -5.25000000 81.87109832 -40.47586678
v -5.25000000 66.98322196 -13.27573519
v -5.25000000 65.51492966 -14.10822505
v -5.25000000 64.08727914 -15.00861461
v -5.25000000 82.45491487 -40.24472668
v -5.25000000 70.02870089 -11.82166533
v -5.25000000 68.48890592 -12.51299517
v -5.25000000 83.06309970 -40.08856447
v -5.25000000 74.81845779 -10.19053547
v -5.25000000 73.19695964 -10.65915565
v -5.25000000 71.59918891 -11.20325534
v -5.25000000 83.68604739 -40.00986731
v -5.25000000 79.78961112 -9.24706775
v -5.25000000 78.11842275 -9.48371619
v -5.25000000 76.46015093 -9.79843335
v -5.25000000 84.31394656 -40.00986736
v -5.25000000 83.15606621 -9.00990065
v -5.25000000 81.47006157 -9.08901448
v -5.25000000 84.93690951 -40.08856461
v -5.25000000 88.21040274 -9.24706839
v -5.25000000 86.52995232 -9.08901486
v -5.25000000 84.84394005 -9.00990078
v -5.25000000 85.54507905 -40.24472692
v -5.25000000 117.49680088 -31.81032877
v -5.25000000 116.84169541 -30.25475812
v -5.25000000 116.11449978 -28.73159904
v -5.25000000 86.12889556 -40.47586710
v -5.25000000 119.01509581 -36.63701765
v -5.25000000 118.58469890 -35.00496806
v -5.25000000 118.07819877 -33.39488730
v -5.25000000 86.67912748 -40.77836500
v -5.25000000 87.18711542 -41.14743700
v -5.25000000 87.64484855 -41.57726568
v -5.25000000 88.04507892 -42.06107614
v -5.25000000 88.38152755 -42.59123516
v -5.25000000 88.64887675 -43.15938856
v -5.25000000 88.84291509 -43.75655654
v -5.25000000 119.36869523 -38.28745027
v -5.25000000 88.96056794 -44.37333588
v -5.25000000 119.64439853 -39.95263049
v -5.25000000 119.84179373 -41.62891911
v -5.25000000 119.96040017 -43.31260824
v -5.25000000 88.99999660 -45.00000672
v -5.25000000 119.99999660 -45.00000906
v -5.25000000 119.96039992 -46.68740987
v -5.25000000 88.96056784 -45.62667755
v -5.25000000 119.84179322 -48.37109898
v -5.25000000 119.64439777 -50.04737994
v -5.25000000 119.36869422 -51.71256776
v -5.25000000 88.84291490 -46.24345687
v -5.25000000 119.01509454 -53.36300032
v -5.25000000 118.58469739 -54.99504985
v -5.25000000 118.07819702 -56.60513053
v -5.25000000 88.64887647 -46.84062483
v -5.25000000 117.49679889 -58.18968706
v -5.25000000 116.84169318 -59.74525952
v -5.25000000 88.38152718 -47.40877819
v -5.25000000 116.11449733 -61.26841850
v -5.25000000 115.31659225 -62.75581849
v -5.25000000 114.44999210 -64.20417887
v -5.25000000 88.04507847 -47.93893716
v -5.25000000 113.51629143 -65.61033724
v -5.25000000 112.51789350 -66.97117701
v -5.25000000 111.45669803 -68.28373034
v -5.25000000 87.64484803 -48.42274755
v -5.25000000 110.33509302 -69.54509042
v -5.25000000 109.15569534 -70.75251068
v -5.25000000 87.18711484 -48.85256472
v -5.25000000 107.92099219 -71.90329794
v -5.25000000 106.63369200 -72.99495739
v -5.25000000 105.29659475 -74.02507814
v -5.25000000 86.67912684 -49.22164808
v -5.25000000 103.91269118 -74.99140952
v -5.25000000 102.48509406 -75.89180003
v -5.25000000 101.01679413 -76.72428131
v -5.25000000 86.12889488 -49.52413828
v -5.25000000 99.51109492 -77.48702991
v -5.25000000 97.97130757 -78.17835975
v -5.25000000 85.54507834 -49.75528600
v -5.25000000 96.40080429 -78.79676021
v -5.25000000 94.80304119 -79.34085799
v -5.25000000 93.18153542 -79.80947817
v -5.25000000 84.93690877 -49.91143677
v -5.25000000 91.53984227 -80.20157551
v -5.25000000 89.88158572 -80.51629554
v -5.25000000 88.21039735 -80.75294398
v -5.25000000 84.31394581 -49.99013774
v -5.25000000 86.52994689 -80.91100965
v -5.25000000 84.84393462 -80.99011871
v -5.25000000 83.68604664 -49.99013770
v -5.25000000 83.15606078 -80.99011858
v -5.25000000 81.47005615 -80.91100926
v -5.25000000 79.78960572 -80.75294334
v -5.25000000 78.11841738 -80.51629466
v -5.25000000 76.46014562 -80.20157438
v -5.25000000 74.81845253 -79.80947678
v -5.25000000 73.19695446 -79.34085636
v -5.25000000 71.59918381 -78.79675834
v -5.25000000 70.02869588 -78.17835764
v -5.25000000 68.48890101 -77.48702757
v -5.25000000 66.98321717 -76.72427874
v -5.25000000 65.51492500 -75.89179724
v -5.25000000 64.08727461 -74.99140651
v -5.25000000 62.70339407 -74.02507492
v -5.25000000 61.36633513 -72.99495397
v -5.25000000 60.07901603 -71.90329433
v -5.25000000 58.84429397 -70.75250688
v -5.25000000 57.66486597 -69.54508645
v -5.25000000 56.54332599 -68.28372619
v -5.25000000 55.48214598 -66.97117271
v -5.25000000 54.48365670 -65.61033279
v -5.25000000 53.55003635 -64.20417427
v -5.25000000 52.68336394 -62.75581376
v -5.25000000 51.88553538 -61.26841365
v -5.25000000 51.15828635 -59.74525456
v -5.25000000 50.50324573 -58.18968201
v -5.25000000 49.92183639 -56.60512538
v -5.25000000 49.41532483 -54.99504462
v -5.25000000 48.98484781 -53.36299503
v -5.25000000 48.63134757 -51.71256242
v -5.25000000 48.35558704 -50.04737456
v -5.25000000 83.06309895 -49.91143663
v -5.25000000 82.45491415 -49.75528577
v -5.25000000 81.87109764 -49.52413796
v -5.25000000 81.32086573 -49.22164768
v -5.25000000 80.81287778 -48.85256424
v -5.25000000 80.35515992 -48.42274700
v -5.25000000 79.95491429 -47.93893655
v -5.25000000 79.61846566 -47.40877753
v -5.25000000 79.35111646 -46.84062412
v -5.25000000 79.15707811 -46.24345614
v -5.25000000 79.03942527 -45.62667680
v -5.25000000 48.15817658 -48.37109357
v -5.25000000 115.31659493 -27.24419892
v -5.25000000 114.44999500 -25.79583841
v -5.25000000 113.51629455 -24.38968943
v -5.25000000 112.51789682 -23.02883807
v -5.25000000 111.45670155 -21.71628840
v -5.25000000 110.33509672 -20.45492815
v -5.25000000 109.15569923 -19.24751915
v -5.25000000 107.92099625 -18.09671835
v -5.25000000 106.63369623 -17.00505871
v -5.25000000 105.29659914 -15.97493776
v -5.25000000 103.91269571 -15.00861762
v -5.25000000 102.48509873 -14.10822784
v -5.25000000 101.01679892 -13.27573776
v -5.25000000 99.51109982 -12.51299751
v -5.25000000 97.97131258 -11.82166744
v -5.25000000 96.40080940 -11.20325721
v -5.25000000 94.80304638 -10.65915728
v -5.25000000 93.18154067 -10.19053686
v -5.25000000 91.53984759 -9.79843449
v -5.25000000 89.88159108 -9.48371707
v 5.25000000 79.03942536 -44.37333513
v -5.25000000 79.03942536 -44.37333513
v 5.25000000 78.99999660 -45.00000596
v -5.25000000 78.99999660 -45.00000596
v 5.25000000 79.03942527 -45.62667680
v -5.25000000 79.03942527 -45.62667680
v 5.25000000 79.15707811 -46.24345614
v -5.25000000 79.15707811 -46.24345614
v 5.25000000 79.35111646 -46.84062412
v -5.25000000 79.35111646 -46.84062412
v 5.25000000 79.61846566 -47.40877753
v -5.25000000 79.61846566 -47.40877753
v 5.25000000 79.95491429 -47.93893655
v -5.25000000 79.95491429 -47.93893655
v 5.25000000 80.35515992 -48.42274700
v -5.25000000 80.35515992 -48.42274700
v 5.25000000 80.81287778 -48.85256424
v -5.25000000 80.81287778 -48.85256424
v 5.25000000 81.32086573 -49.22164768
v -5.25000000 81.32086573 -49.22164768
v 5.25000000 81.87109764 -49.52413796
v -5.25000000 81.87109764 -49.52413796
v 5.25000000 82.45491415 -49.75528577
v -5.25000000 82.45491415 -49.75528577
v 5.25000000 83.06309895 -49.91143663
v -5.25000000 83.06309895 -49.91143663
v 5.25000000 83.68604664 -49.99013770
v -5.25000000 83.68604664 -49.99013770
v 5.25000000 84.31394581 -49.99013774
v -5.25000000 84.31394581 -49.99013774
v 5.25000000 84.93690877 -49.91143677
v -5.25000000 84.93690877 -49.91143677
v 5.25000000 85.54507834 -49.75528600
v -5.25000000 85.54507834 -49.75528600
v 5.25000000 86.12889488 -49.52413828
v -5.25000000 86.12889488 -49.52413828
v 5.25000000 86.67912684 -49.22164808
v -5.25000000 86.67912684 -49.22164808
v 5.25000000 87.18711484 -48.85256472
v -5.25000000 87.18711484 -48.85256472
v 5.25000000 87.64484803 -48.42274755
v -5.25000000 87.64484803 -48.42274755
v 5.25000000 88.04507847 -47.93893716
v -5.25000000 88.04507847 -47.93893716
v 5.25000000 88.38152718 -47.40877819
v -5.25000000 88.38152718 -47.40877819
v 5.25000000 88.64887647 -46.84062483
v -5.25000000 88.64887647 -46.84062483
v 5.25000000 88.84291490 -46.24345687
v -5.25000000 88.84291490 -46.24345687
v 5.25000000 88.96056784 -45.62667755
v -5.25000000 88.96056784 -45.62667755
v 5.25000000 88.99999660 -45.00000672
v -5.25000000 88.99999660 -45.00000672
v 5.25000000 88.99999660 -45.00000672
v -5.25000000 88.99999660 -45.00000672
v 5.25000000 88.96056794 -44.37333588
v -5.25000000 88.96056794 -44.37333588
v 5.25000000 88.84291509 -43.75655654
v -5.25000000 88.84291509 -43.75655654
v 5.25000000 88.64887675 -43.15938856
v -5.25000000 88.64887675 -43.15938856
v 5.25000000 88.38152755 -42.59123516
v -5.25000000 88.38152755 -42.59123516
v 5.25000000 88.04507892 -42.06107614
v -5.25000000 88.04507892 -42.06107614
v 5.25000000 87.64484855 -41.57726568
v -5.25000000 87.64484855 -41.57726568
v 5.25000000 87.18711542 -41.14743700
v -5.25000000 87.18711542 -41.14743700
v 5.25000000 86.67912748 -40.77836500
v -5.25000000 86.67912748 -40.77836500
v 5.25000000 86.12889556 -40.47586710
v -5.25000000 86.12889556 -40.47586710
v 5.25000000 85.54507905 -40.24472692
v -5.25000000 85.54507905 -40.24472692
v 5.25000000 84.93690951 -40.08856461
v -5.25000000 84.93690951 -40.08856461
v 5.25000000 84.31394656 -40.00986736
v -5.25000000 84.31394656 -40.00986736
v 5.25000000 83.68604739 -40.00986731
v -5.25000000 83.68604739 -40.00986731
v 5.25000000 83.06309970 -40.08856447
v -5.25000000 83.06309970 -40.08856447
v 5.25000000 82.45491487 -40.24472668
v -5.25000000 82.45491487 -40.24472668
v 5.25000000 81.87109832 -40.47586678
v -5.25000000 81.87109832 -40.47586678
v 5.25000000 81.32086637 -40.77836460
v -5.25000000 81.32086637 -40.77836460
v 5.25000000 80.81287836 -41.14743652
v -5.25000000 80.81287836 -41.14743652
v 5.25000000 80.35516044 -41.57726513
v -5.25000000 80.35516044 -41.57726513
v 5.25000000 79.95491473 -42.06107552
v -5.25000000 79.95491473 -42.06107552
v 5.25000000 79.61846602 -42.59123450
v -5.25000000 79.61846602 -42.59123450
v 5.25000000 79.35111674 -43.15938786
v -5.25000000 79.35111674 -43.15938786
v 5.25000000 79.15707830 -43.75655581
v -5.25000000 79.15707830 -43.75655581
vt -3.59604311 -0.16874000
vt 3.59604311 -0.16874000
vt -3.59999990 0.00000000
vt 3.59999990 0.00000000
vt -3.59604311 0.16874000
vt 3.59604311 0.16874000
vt -3.58418202 0.33710900
vt 3.58418202 0.33710900
vt -3.56444097 0.50473797
vt 3.56444097 0.50473797
vt -3.53686500 0.67125601
vt 3.53686500 0.67125601
vt -3.50151396 0.83629900
vt 3.50151396 0.83629900
vt -3.45846701 0.99950403
vt 3.45846701 0.99950403
vt -3.40781593 1.16051197
vt 3.40781593 1.16051197
vt -3.34967494 1.31896806
vt 3.34967494 1.31896806
vt -3.28416991 1.47452497
vt 3.28416991 1.47452497
vt -3.21144605 1.62684095
vt 3.21144605 1.62684095
vt -3.13166308 1.77558100
vt 3.13166308 1.77558100
vt -3.04499507 1.92041695
vt 3.04499507 1.92041695
vt -2.95163393 2.06103206
vt 2.95163393 2.06103206
vt -2.85178494 2.19711709
vt 2.85178494 2.19711709
vt -2.74566698 2.32837200
vt 2.74566698 2.32837200
vt -2.63351297 2.45450807
vt 2.63351297 2.45450807
vt -2.51556993 2.57524896
vt 2.51556993 2.57524896
vt -2.39209700 2.69032907
vt 2.39209700 2.69032907
vt -2.26336598 2.79949498
vt 2.26336598 2.79949498
vt -2.12965989 2.90250707
vt 2.12965989 2.90250707
vt -1.99127197 2.99913907
vt 1.99127197 2.99913907
vt -1.84850705 3.08917809
vt 1.84850705 3.08917809
vt -1.70167899 3.17242599
vt 1.70167899 3.17242599
vt -1.55110896 3.24870110
vt 1.55110896 3.24870110
vt -1.39713097 3.31783509
vt 1.39713097 3.31783509
vt -1.24008095 3.37967491
vt 1.24008095 3.37967491
vt -1.08030498 3.43408489
vt 1.08030498 3.43408489
vt -0.91815400 3.48094702
vt 0.91815400 3.48094702
vt -0.75398499 3.52015710
vt 0.75398499 3.52015710
vt -0.58815902 3.55162907
vt 0.58815902 3.55162907
vt -0.42103899 3.57529402
vt 0.42103899 3.57529402
vt -0.25299400 3.59109902
vt 0.25299400 3.59109902
vt -0.08439296 3.59901094
vt 0.08439296 3.59901094
vt 3.58418202 -0.33710900
vt -3.58418202 -0.33710900
vt 3.56444097 -0.50473797
vt -3.56444097 -0.50473797
vt 3.53686500 -0.67125601
vt -3.53686500 -0.67125601
vt 3.50151396 -0.83629900
vt -3.50151396 -0.83629900
vt 3.45846701 -0.99950403
vt -3.45846701 -0.99950403
vt 3.40781593 -1.16051197
vt -3.40781593 -1.16051197
vt 3.34967494 -1.31896806
vt -3.34967494 -1.31896806
vt 3.28416991 -1.47452497
vt -3.28416991 -1.47452497
vt 3.21144605 -1.62684095
vt -3.21144605 -1.62684095
vt 3.13166308 -1.77558100
vt -3.13166308 -1.77558100
vt 3.04499507 -1.92041695
vt -3.04499507 -1.92041695
vt 2.95163393 -2.06103206
vt -2.95163393 -2.06103206
vt 2.85178494 -2.19711709
vt -2.85178494 -2.19711709
vt 2.74566698 -2.32837200
vt -2.74566698 -2.32837200
vt 2.63351297 -2.45450807
vt -2.63351297 -2.45450807
vt 2.51556993 -2.57524896
vt -2.51556993 -2.57524896
vt 2.39209700 -2.69032907
vt -2.39209700 -2.69032907
vt 2.26336598 -2.79949498
vt -2.26336598 -2.79949498
vt 2.12965989 -2.90250707
vt -2.12965989 -2.90250707
vt 1.99127197 -2.99913907
vt -1.99127197 -2.99913907
vt 1.84850705 -3.08917809
vt -1.84850705 -3.08917809
vt 1.70167899 -3.17242599
vt -1.70167899 -3.17242599
vt 1.55110896 -3.24870110
vt -1.55110896 -3.24870110
vt 1.39713097 -3.31783509
vt -1.39713097 -3.31783509
vt 1.24008095 -3.37967491
vt -1.24008095 -3.37967491
vt 1.08030498 -3.43408489
vt -1.08030498 -3.43408489
vt 0.91815400 -3.48094702
vt -0.91815400 -3.48094702
vt 0.75398499 -3.52015710
vt -0.75398499 -3.52015710
vt 0.58815902 -3.55162907
vt -0.58815902 -3.55162907
vt 0.42103899 -3.57529402
vt -0.42103899 -3.57529402
vt 0.25299400 -3.59109902
vt -0.25299400 -3.59109902
vt 0.08439296 -3.59901094
vt -0.08439296 -3.59901094
vt -3.50394297 -0.06266695
vt -0.40395701 -0.16874000
vt -3.50000000 0.00000000
vt -0.40000001 0.00000000
vt -0.40395701 0.16874000
vt -3.51570797 -0.12434500
vt -0.46313500 -0.67125601
vt -0.43555900 -0.50473797
vt -0.41581801 -0.33710900
vt -3.53511190 -0.18406200
vt -0.59218401 -1.16051197
vt -0.54153299 -0.99950403
vt -0.49848601 -0.83629900
vt -3.56184697 -0.24087700
vt -0.71583003 -1.47452497
vt -0.65032500 -1.31896806
vt -3.59549189 -0.29389301
vt -0.95500499 -1.92041695
vt -0.86833698 -1.77558100
vt -0.78855401 -1.62684095
vt -3.63551593 -0.34227401
vt -1.25433302 -2.32837200
vt -1.14821506 -2.19711709
vt -1.04836595 -2.06103206
vt -3.68128800 -0.38525701
vt -1.48442996 -2.57524896
vt -1.36648703 -2.45450807
vt -3.73208690 -0.42216399
vt -1.87033999 -2.90250707
vt -1.73663402 -2.79949498
vt -1.60790300 -2.69032907
vt -3.78711009 -0.45241401
vt -2.29832101 -3.17242599
vt -2.15149307 -3.08917809
vt -2.00872803 -2.99913907
vt -3.84549189 -0.47552800
vt -2.60286903 -3.31783509
vt -2.44889092 -3.24870110
vt -3.90630889 -0.49114400
vt -3.08184600 -3.48094702
vt -2.91969490 -3.43408489
vt -2.75991893 -3.37967491
vt -3.96860504 -0.49901301
vt -3.57896090 -3.57529402
vt -3.41184092 -3.55162907
vt -3.24601507 -3.52015710
vt -4.03139496 -0.49901301
vt -3.91560698 -3.59901094
vt -3.74700594 -3.59109902
vt -4.09369087 -0.49114400
vt -7.56444120 -0.50473797
vt -7.53686523 -0.67125601
vt -7.50151396 -0.83629900
vt -4.15450811 -0.47552800
vt -4.21289015 -0.45241401
vt -4.26791286 -0.42216399
vt -4.31871223 -0.38525701
vt -4.36448383 -0.34227401
vt -4.40450811 -0.29389301
vt -4.43815279 -0.24087700
vt -4.46488810 -0.18406200
vt -4.48429203 -0.12434500
vt -4.49605703 -0.06266695
vt -7.58418179 -0.33710900
vt -7.59604311 -0.16874000
vt -4.50000000 0.00000000
vt -7.59999990 0.00000000
vt -7.59604311 0.16874000
vt -4.49605703 0.06266695
vt -7.58418179 0.33710900
vt -7.56444120 0.50473797
vt -7.53686523 0.67125601
vt -4.48429203 0.12434500
vt -7.50151396 0.83629900
vt -7.45846701 0.99950403
vt -7.40781593 1.16051197
vt -4.46488810 0.18406200
vt -7.34967518 1.31896806
vt -7.28417015 1.47452497
vt -4.43815279 0.24087700
vt -7.21144581 1.62684095
vt -7.13166285 1.77558100
vt -7.04499483 1.92041695
vt -4.40450811 0.29389301
vt -6.95163393 2.06103206
vt -6.85178518 2.19711709
vt -6.74566698 2.32837200
vt -4.36448383 0.34227401
vt -6.63351297 2.45450807
vt -6.51557016 2.57524896
vt -4.31871223 0.38525701
vt -6.39209700 2.69032907
vt -6.26336622 2.79949498
vt -6.12966013 2.90250707
vt -4.26791286 0.42216399
vt -5.99127197 2.99913907
vt -5.84850693 3.08917809
vt -5.70167923 3.17242599
vt -4.21289015 0.45241401
vt -5.55110884 3.24870110
vt -5.39713097 3.31783509
vt -4.15450811 0.47552800
vt -5.24008083 3.37967491
vt -5.08030510 3.43408489
vt -4.91815376 3.48094702
vt -4.09369087 0.49114400
vt -4.75398493 3.52015710
vt -4.58815908 3.55162907
vt -4.42103910 3.57529402
vt -4.03139496 0.49901301
vt -4.25299406 3.59109902
vt -4.08439302 3.59901094
vt -3.96860504 0.49901301
vt -3.91560698 3.59901094
vt -3.74700594 3.59109902
vt -3.57896090 3.57529402
vt -3.90630889 0.49114400
vt -3.41184092 3.55162907
vt -3.24601507 3.52015710
vt -3.08184600 3.48094702
vt -2.91969490 3.43408489
vt -2.75991893 3.37967491
vt -2.60286903 3.31783509
vt -2.44889092 3.24870110
vt -2.29832101 3.17242599
vt -2.15149307 3.08917809
vt -2.00872803 2.99913907
vt -1.87033999 2.90250707
vt -1.73663402 2.79949498
vt -1.60790300 2.69032907
vt -1.48442996 2.57524896
vt -1.36648703 2.45450807
vt -1.25433302 2.32837200
vt -1.14821506 2.19711709
vt -1.04836595 2.06103206
vt -0.95500499 1.92041695
vt -0.86833698 1.77558100
vt -0.78855401 1.62684095
vt -0.71583003 1.47452497
vt -0.65032500 1.31896806
vt -0.59218401 1.16051197
vt -0.54153299 0.99950403
vt -0.49848601 0.83629900
vt -3.84549189 0.47552800
vt -3.78711009 0.45241401
vt -3.73208690 0.42216399
vt -3.68128800 0.38525701
vt -3.63551593 0.34227401
vt -3.59549189 0.29389301
vt -3.56184697 0.24087700
vt -3.53511190 0.18406200
vt -3.51570797 0.12434500
vt -0.46313500 0.67125601
vt -3.50394297 0.06266695
vt -0.43555900 0.50473797
vt -0.41581801 0.33710900
vt -7.45846701 -0.99950403
vt -7.40781593 -1.16051197
vt -7.34967518 -1.31896806
vt -7.28417015 -1.47452497
vt -7.21144581 -1.62684095
vt -7.13166285 -1.77558100
vt -7.04499483 -1.92041695
vt -6.95163393 -2.06103206
vt -6.85178518 -2.19711709
vt -6.74566698 -2.32837200
vt -6.63351297 -2.45450807
vt -6.51557016 -2.57524896
vt -6.39209700 -2.69032907
vt -6.26336622 -2.79949498
vt -6.12966013 -2.90250707
vt -5.99127197 -2.99913907
vt -5.84850693 -3.08917809
vt -5.70167923 -3.17242599
vt -5.55110884 -3.24870110
vt -5.39713097 -3.31783509
vt -5.24008083 -3.37967491
vt -5.08030510 -3.43408489
vt -4.91815376 -3.48094702
vt -4.75398493 -3.52015710
vt -4.58815908 -3.55162907
vt -4.42103910 -3.57529402
vt -4.25299406 -3.59109902
vt -4.08439302 -3.59901094
vt -0.40395701 0.16874000
vt -7.59604311 0.16874000
vt -0.40000001 0.00000000
vt -7.59999990 0.00000000
vt -0.40395701 -0.16874000
vt -7.59604311 -0.16874000
vt -0.41581801 -0.33710900
vt -7.58418179 -0.33710900
vt -0.43555900 -0.50473797
vt -7.56444120 -0.50473797
vt -0.46313500 -0.67125601
vt -7.53686523 -0.67125601
vt -0.49848601 -0.83629900
vt -7.50151396 -0.83629900
vt -0.54153299 -0.99950403
vt -7.45846701 -0.99950403
vt -0.59218401 -1.16051197
vt -7.40781593 -1.16051197
vt -0.65032500 -1.31896806
vt -7.34967518 -1.31896806
vt -0.71583003 -1.47452497
vt -7.28417015 -1.47452497
vt -0.78855401 -1.62684095
vt -7.21144581 -1.62684095
vt -0.86833698 -1.77558100
vt -7.13166285 -1.77558100
vt -0.95500499 -1.92041695
vt -7.04499483 -1.92041695
vt -1.04836595 -2.06103206
vt -6.95163393 -2.06103206
vt -1.14821506 -2.19711709
vt -6.85178518 -2.19711709
vt -1.25433302 -2.32837200
vt -6.74566698 -2.32837200
vt -1.36648703 -2.45450807
vt -6.63351297 -2.45450807
vt -1.48442996 -2.57524896
vt -6.51557016 -2.57524896
vt -1.60790300 -2.69032907
vt -6.39209700 -2.69032907
vt -1.73663402 -2.79949498
vt -6.26336622 -2.79949498
vt -1.87033999 -2.90250707
vt -6.12966013 -2.90250707
vt -2.00872803 -2.99913907
vt -5.99127197 -2.99913907
vt -2.15149307 -3.08917809
vt -5.84850693 -3.08917809
vt -2.29832101 -3.17242599
vt -5.70167923 -3.17242599
vt -2.44889092 -3.24870110
vt -5.55110884 -3.24870110
vt -2.60286903 -3.31783509
vt -5.39713097 -3.31783509
vt -2.75991893 -3.37967491
vt -5.24008083 -3.37967491
vt -2.91969490 -3.43408489
vt -5.08030510 -3.43408489
vt -3.08184600 -3.48094702
vt -4.91815376 -3.48094702
vt -3.24601507 -3.52015710
vt -4.75398493 -3.52015710
vt -3.41184092 -3.55162907
vt -4.58815908 -3.55162907
vt -3.57896090 -3.57529402
vt -4.42103910 -3.57529402
vt -3.74700594 -3.59109902
vt -4.25299406 -3.59109902
vt -3.91560698 -3.59901094
vt -4.08439302 -3.59901094
vt -7.58418179 0.33710900
vt -0.41581801 0.33710900
vt -7.56444120 0.50473797
vt -0.43555900 0.50473797
vt -7.53686523 0.67125601
vt -0.46313500 0.67125601
vt -7.50151396 0.83629900
vt -0.49848601 0.83629900
vt -7.45846701 0.99950403
vt -0.54153299 0.99950403
vt -7.40781593 1.16051197
vt -0.59218401 1.16051197
vt -7.34967518 1.31896806
vt -0.65032500 1.31896806
vt -7.28417015 1.47452497
vt -0.71583003 1.47452497
vt -7.21144581 1.62684095
vt -0.78855401 1.62684095
vt -7.13166285 1.77558100
vt -0.86833698 1.77558100
vt -7.04499483 1.92041695
vt -0.95500499 1.92041695
vt -6.95163393 2.06103206
vt -1.04836595 2.06103206
vt -6.85178518 2.19711709
vt -1.14821506 2.19711709
vt -6.74566698 2.32837200
vt -1.25433302 2.32837200
vt -6.63351297 2.45450807
vt -1.36648703 2.45450807
vt -6.51557016 2.57524896
vt -1.48442996 2.57524896
vt -6.39209700 2.69032907
vt -1.60790300 2.69032907
vt -6.26336622 2.79949498
vt -1.73663402 2.79949498
vt -6.12966013 2.90250707
vt -1.87033999 2.90250707
vt -5.99127197 2.99913907
vt -2.00872803 2.99913907
vt -5.84850693 3.08917809
vt -2.15149307 3.08917809
vt -5.70167923 3.17242599
vt -2.29832101 3.17242599
vt -5.55110884 3.24870110
vt -2.44889092 3.24870110
vt -5.39713097 3.31783509
vt -2.60286903 3.31783509
vt -5.24008083 3.37967491
vt -2.75991893 3.37967491
vt -5.08030510 3.43408489
vt -2.91969490 3.43408489
vt -4.91815376 3.48094702
vt -3.08184600 3.48094702
vt -4.75398493 3.52015710
vt -3.24601507 3.52015710
vt -4.58815908 3.55162907
vt -3.41184092 3.55162907
vt -4.42103910 3.57529402
vt -3.57896090 3.57529402
vt -4.25299406 3.59109902
vt -3.74700594 3.59109902
vt -4.08439302 3.59901094
vt -3.91560698 3.59901094
vt 0.00394297 0.06266695
vt -3.09604311 0.16874000
vt 0.00000000 0.00000000
vt -3.09999990 0.00000000
vt -3.09604311 -0.16874000
vt 0.01570796 0.12434500
vt -3.03686500 0.67125601
vt -3.06444097 0.50473797
vt -3.08418202 0.33710900
vt 0.03511196 0.18406200
vt -2.90781593 1.16051197
vt -2.95846701 0.99950403
vt -3.00151396 0.83629900
vt 0.06184697 0.24087700
vt -2.78416991 1.47452497
vt -2.84967494 1.31896806
vt 0.09549200 0.29389301
vt -2.54499507 1.92041695
vt -2.63166308 1.77558100
vt -2.71144605 1.62684095
vt 0.13551600 0.34227401
vt -2.24566698 2.32837200
vt -2.35178494 2.19711709
vt -2.45163393 2.06103206
vt 0.18128800 0.38525701
vt -2.01556993 2.57524896
vt -2.13351297 2.45450807
vt 0.23208700 0.42216399
vt -1.62966001 2.90250707
vt -1.76336598 2.79949498
vt -1.89209700 2.69032907
vt 0.28711000 0.45241401
vt -1.20167899 3.17242599
vt -1.34850705 3.08917809
vt -1.49127197 2.99913907
vt 0.34549201 0.47552800
vt -0.89713103 3.31783509
vt -1.05110896 3.24870110
vt 0.40630901 0.49114400
vt -0.41815400 3.48094702
vt -0.58030498 3.43408489
vt -0.74008101 3.37967491
vt 0.46860501 0.49901301
vt 0.07896095 3.57529402
vt -0.08815896 3.55162907
vt -0.25398499 3.52015710
vt 0.53139502 0.49901301
vt 0.41560701 3.59901094
vt 0.24700589 3.59109902
vt 0.59369099 0.49114400
vt 0.92103899 3.57529402
vt 0.75299400 3.59109902
vt 0.58439302 3.59901094
vt 0.65450799 0.47552800
vt 3.84967494 1.31896806
vt 3.78416991 1.47452497
vt 3.71144605 1.62684095
vt 0.71289003 0.45241401
vt 4.00151396 0.83629900
vt 3.95846701 0.99950403
vt 3.90781593 1.16051197
vt 0.76791298 0.42216399
vt 0.81871200 0.38525701
vt 0.86448401 0.34227401
vt 0.90450799 0.29389301
vt 0.93815303 0.24087700
vt 0.96488798 0.18406200
vt 0.98429197 0.12434500
vt 4.03686523 0.67125601
vt 0.99605697 0.06266695
vt 4.06444120 0.50473797
vt 4.08418179 0.33710900
vt 4.09604311 0.16874000
vt 1.00000000 0.00000000
vt 4.09999990 0.00000000
vt 4.09604311 -0.16874000
vt 0.99605697 -0.06266695
vt 4.08418179 -0.33710900
vt 4.06444120 -0.50473797
vt 4.03686523 -0.67125601
vt 0.98429197 -0.12434500
vt 4.00151396 -0.83629900
vt 3.95846701 -0.99950403
vt 3.90781593 -1.16051197
vt 0.96488798 -0.18406200
vt 3.84967494 -1.31896806
vt 3.78416991 -1.47452497
vt 0.93815303 -0.24087700
vt 3.71144605 -1.62684095
vt 3.63166308 -1.77558100
vt 3.54499507 -1.92041695
vt 0.90450799 -0.29389301
vt 3.45163393 -2.06103206
vt 3.35178494 -2.19711709
vt 3.24566698 -2.32837200
vt 0.86448401 -0.34227401
vt 3.13351297 -2.45450807
vt 3.01556993 -2.57524896
vt 0.81871200 -0.38525701
vt 2.89209700 -2.69032907
vt 2.76336598 -2.79949498
vt 2.62965989 -2.90250707
vt 0.76791298 -0.42216399
vt 2.49127197 -2.99913907
vt 2.34850693 -3.08917809
vt 2.20167899 -3.17242599
vt 0.71289003 -0.45241401
vt 2.05110908 -3.24870110
vt 1.89713097 -3.31783509
vt 0.65450799 -0.47552800
vt 1.74008095 -3.37967491
vt 1.58030498 -3.43408489
vt 1.41815400 -3.48094702
vt 0.59369099 -0.49114400
vt 1.25398505 -3.52015710
vt 1.08815897 -3.55162907
vt 0.92103899 -3.57529402
vt 0.53139502 -0.49901301
vt 0.75299400 -3.59109902
vt 0.58439302 -3.59901094
vt 0.46860501 -0.49901301
vt 0.41560701 -3.59901094
vt 0.24700589 -3.59109902
vt 0.07896095 -3.57529402
vt -0.08815896 -3.55162907
vt -0.25398499 -3.52015710
vt -0.41815400 -3.48094702
vt -0.58030498 -3.43408489
vt -0.74008101 -3.37967491
vt -0.89713103 -3.31783509
vt -1.05110896 -3.24870110
vt -1.20167899 -3.17242599
vt -1.34850705 -3.08917809
vt -1.49127197 -2.99913907
vt -1.62966001 -2.90250707
vt -1.76336598 -2.79949498
vt -1.89209700 -2.69032907
vt -2.01556993 -2.57524896
vt -2.13351297 -2.45450807
vt -2.24566698 -2.32837200
vt -2.35178494 -2.19711709
vt -2.45163393 -2.06103206
vt -2.54499507 -1.92041695
vt -2.63166308 -1.77558100
vt -2.71144605 -1.62684095
vt -2.78416991 -1.47452497
vt -2.84967494 -1.31896806
vt -2.90781593 -1.16051197
vt -2.95846701 -0.99950403
vt -3.00151396 -0.83629900
vt -3.03686500 -0.67125601
vt -3.06444097 -0.50473797
vt 0.40630901 -0.49114400
vt 0.34549201 -0.47552800
vt 0.28711000 -0.45241401
vt 0.23208700 -0.42216399
vt 0.18128800 -0.38525701
vt 0.13551600 -0.34227401
vt 0.09549200 -0.29389301
vt 0.06184697 -0.24087700
vt 0.03511196 -0.18406200
vt 0.01570796 -0.12434500
vt 0.00394297 -0.06266695
vt -3.08418202 -0.33710900
vt 3.63166308 1.77558100
vt 3.54499507 1.92041695
vt 3.45163393 2.06103206
vt 3.35178494 2.19711709
vt 3.24566698 2.32837200
vt 3.13351297 2.45450807
vt 3.01556993 2.57524896
vt 2.89209700 2.69032907
vt 2.76336598 2.79949498
vt 2.62965989 2.90250707
vt 2.49127197 2.99913907
vt 2.34850693 3.08917809
vt 2.20167899 3.17242599
vt 2.05110908 3.24870110
vt 1.89713097 3.31783509
vt 1.74008095 3.37967491
vt 1.58030498 3.43408489
vt 1.41815400 3.48094702
vt 1.25398505 3.52015710
vt 1.08815897 3.55162907
vt -0.52499998 -0.06283199
vt 0.52499998 -0.06283199
vt -0.52499998 0.00000000
vt 0.52499998 0.00000000
vt -0.52499998 0.06283199
vt 0.52499998 0.06283199
vt -0.52499998 0.12566391
vt 0.52499998 0.12566391
vt -0.52499998 0.18849590
vt 0.52499998 0.18849590
vt -0.52499998 0.25132701
vt 0.52499998 0.25132701
vt -0.52499998 0.31415901
vt 0.52499998 0.31415901
vt -0.52499998 0.37699100
vt 0.52499998 0.37699100
vt -0.52499998 0.43982300
vt 0.52499998 0.43982300
vt -0.52499998 0.50265503
vt 0.52499998 0.50265503
vt -0.52499998 0.56548703
vt 0.52499998 0.56548703
vt -0.52499998 0.62831903
vt 0.52499998 0.62831903
vt -0.52499998 0.69115001
vt 0.52499998 0.69115001
vt -0.52499998 0.75398201
vt 0.52499998 0.75398201
vt -0.52499998 0.81681401
vt 0.52499998 0.81681401
vt -0.52499998 0.87964600
vt 0.52499998 0.87964600
vt -0.52499998 0.94247800
vt 0.52499998 0.94247800
vt -0.52499998 1.00531006
vt 0.52499998 1.00531006
vt -0.52499998 1.06814206
vt 0.52499998 1.06814206
vt -0.52499998 1.13097298
vt 0.52499998 1.13097298
vt -0.52499998 1.19380498
vt 0.52499998 1.19380498
vt -0.52499998 1.25663698
vt 0.52499998 1.25663698
vt -0.52499998 1.31946898
vt 0.52499998 1.31946898
vt -0.52499998 1.38230097
vt 0.52499998 1.38230097
vt -0.52499998 1.44513297
vt 0.52499998 1.44513297
vt -0.52499998 1.50796402
vt 0.52499998 1.50796402
vt -0.52499998 1.57079601
vt 0.52499998 1.57079601
vt -0.52499998 -1.57079601
vt 0.52499998 -1.57079601
vt -0.52499998 -1.50796402
vt 0.52499998 -1.50796402
vt -0.52499998 -1.44513297
vt 0.52499998 -1.44513297
vt -0.52499998 -1.38230097
vt 0.52499998 -1.38230097
vt -0.52499998 -1.31946898
vt 0.52499998 -1.31946898
vt -0.52499998 -1.25663698
vt 0.52499998 -1.25663698
vt -0.52499998 -1.19380498
vt 0.52499998 -1.19380498
vt -0.52499998 -1.13097298
vt 0.52499998 -1.13097298
vt -0.52499998 -1.06814206
vt 0.52499998 -1.06814206
vt -0.52499998 -1.00531006
vt 0.52499998 -1.00531006
vt -0.52499998 -0.94247800
vt 0.52499998 -0.94247800
vt -0.52499998 -0.87964600
vt 0.52499998 -0.87964600
vt -0.52499998 -0.81681401
vt 0.52499998 -0.81681401
vt -0.52499998 -0.75398201
vt 0.52499998 -0.75398201
vt -0.52499998 -0.69115001
vt 0.52499998 -0.69115001
vt -0.52499998 -0.62831903
vt 0.52499998 -0.62831903
vt -0.52499998 -0.56548703
vt 0.52499998 -0.56548703
vt -0.52499998 -0.50265503
vt 0.52499998 -0.50265503
vt -0.52499998 -0.43982300
vt 0.52499998 -0.43982300
vt -0.52499998 -0.37699100
vt 0.52499998 -0.37699100
vt -0.52499998 -0.31415901
vt 0.52499998 -0.31415901
vt -0.52499998 -0.25132701
vt 0.52499998 -0.25132701
vt -0.52499998 -0.18849590
vt 0.52499998 -0.18849590
vt -0.52499998 -0.12566391
vt 0.52499998 -0.12566391
f 1/1 2/2 3/3
f 3/3 2/2 4/4
f 3/3 4/4 5/5
f 5/5 4/4 6/6
f 5/5 6/6 7/7
f 7/7 6/6 8/8
f 7/7 8/8 9/9
f 9/9 8/8 10/10
f 9/9 10/10 11/11
f 11/11 10/10 12/12
f 11/11 12/12 13/13
f 13/13 12/12 14/14
f 13/13 14/14 15/15
f 15/15 14/14 16/16
f 15/15 16/16 17/17
f 17/17 16/16 18/18
f 17/17 18/18 19/19
f 19/19 18/18 20/20
f 19/19 20/20 21/21
f 21/21 20/20 22/22
f 21/21 22/22 23/23
f 23/23 22/22 24/24
f 23/23 24/24 25/25
f 25/25 24/24 26/26
f 25/25 26/26 27/27
f 27/27 26/26 28/28
f 27/27 28/28 29/29
f 29/29 28/28 30/30
f 29/29 30/30 31/31
f 31/31 30/30 32/32
f 31/31 32/32 33/33
f 33/33 32/32 34/34
f 33/33 34/34 35/35
f 35/35 34/34 36/36
f 35/35 36/36 37/37
f 37/37 36/36 38/38
f 37/37 38/38 39/39
f 39/39 38/38 40/40
f 39/39 40/40 41/41
f 41/41 40/40 42/42
f 41/41 42/42 43/43
f 43/43 42/42 44/44
f 43/43 44/44 45/45
f 45/45 44/44 46/46
f 45/45 46/46 47/47
f 47/47 46/46 48/48
f 47/47 48/48 49/49
f 49/49 48/48 50/50
f 49/49 50/50 51/51
f 51/51 50/50 52/52
f 51/51 52/52 53/53
f 53/53 52/52 54/54
f 53/53 54/54 55/55
f 55/55 54/54 56/56
f 55/55 56/56 57/57
f 57/57 56/56 58/58
f 57/57 58/58 59/59
f 59/59 58/58 60/60
f 59/59 60/60 61/61
f 61/61 60/60 62/62
f 61/61 62/62 63/63
f 63/63 62/62 64/64
f 63/63 64/64 65/65
f 65/65 64/64 66/66
f 65/65 66/66 67/67
f 67/67 66/66 68/68
f 67/67 68/68 69/69
f 69/69 68/68 70/70
f 2/2 1/1 71/71
f 71/71 1/1 72/72
f 71/71 72/72 73/73
f 73/73 72/72 74/74
f 73/73 74/74 75/75
f 75/75 74/74 76/76
f 75/75 76/76 77/77
f 77/77 76/76 78/78
f 77/77 78/78 79/79
f 79/79 78/78 80/80
f 79/79 80/80 81/81
f 81/81 80/80 82/82
f 81/81 82/82 83/83
f 83/83 82/82 84/84
f 83/83 84/84 85/85
f 85/85 84/84 86/86
f 85/85 86/86 87/87
f 87/87 86/86 88/88
f 87/87 88/88 89/89
f 89/89 88/88 90/90
f 89/89 90/90 91/91
f 91/91 90/90 92/92
f 91/91 92/92 93/93
f 93/93 92/92 94/94
f 93/93 94/94 95/95
f 95/95 94/94 96/96
f 95/95 96/96 97/97
f 97/97 96/96 98/98
f 97/97 98/98 99/99
f 99/99 98/98 100/100
f 99/99 100/100 101/101
f 101/101 100/100 102/102
f 101/101 102/102 103/103
f 103/103 102/102 104/104
f 103/103 104/104 105/105
f 105/105 104/104 106/106
f 105/105 106/106 107/107
f 107/107 106/106 108/108
f 107/107 108/108 109/109
f 109/109 108/108 110/110
f 109/109 110/110 111/111
f 111/111 110/110 112/112
f 111/111 112/112 113/113
f 113/113 112/112 114/114
f 113/113 114/114 115/115
f 115/115 114/114 116/116
f 115/115 116/116 117/117
f 117/117 116/116 118/118
f 117/117 118/118 119/119
f 119/119 118/118 120/120
f 119/119 120/120 121/121
f 121/121 120/120 122/122
f 121/121 122/122 123/123
f 123/123 122/122 124/124
f 123/123 124/124 125/125
f 125/125 124/124 126/126
f 125/125 126/126 127/127
f 127/127 126/126 128/128
f 127/127 128/128 129/129
f 129/129 128/128 130/130
f 129/129 130/130 131/131
f 131/131 130/130 132/132
f 131/131 132/132 133/133
f 133/133 132/132 134/134
f 135/135 136/136 137/137
f 137/137 136/136 138/138
f 137/137 138/138 139/139
f 140/140 141/141 135/135
f 135/135 141/141 142/142
f 135/135 142/142 143/143
f 144/144 145/145 140/140
f 140/140 145/145 146/146
f 140/140 146/146 147/147
f 148/148 149/149 144/144
f 144/144 149/149 150/150
f 144/144 150/150 145/145
f 151/151 152/152 148/148
f 148/148 152/152 153/153
f 148/148 153/153 154/154
f 155/155 156/156 151/151
f 151/151 156/156 157/157
f 151/151 157/157 158/158
f 159/159 160/160 155/155
f 155/155 160/160 161/161
f 155/155 161/161 156/156
f 162/162 163/163 159/159
f 159/159 163/163 164/164
f 159/159 164/164 165/165
f 166/166 167/167 162/162
f 162/162 167/167 168/168
f 162/162 168/168 169/169
f 170/170 171/171 166/166
f 166/166 171/171 172/172
f 166/166 172/172 167/167
f 173/173 174/174 170/170
f 170/170 174/174 175/175
f 170/170 175/175 176/176
f 177/177 178/178 173/173
f 173/173 178/178 179/179
f 173/173 179/179 180/180
f 181/181 182/182 177/177
f 177/177 182/182 183/183
f 177/177 183/183 178/178
f 184/184 185/185 181/181
f 181/181 185/185 186/186
f 181/181 186/186 187/187
f 184/184 188/188 185/185
f 185/185 188/188 189/189
f 185/185 189/189 190/190
f 190/190 191/191 185/185
f 185/185 191/191 192/192
f 185/185 192/192 193/193
f 193/193 194/194 185/185
f 185/185 194/194 195/195
f 185/185 195/195 196/196
f 196/196 197/197 185/185
f 185/185 197/197 198/198
f 198/198 197/197 199/199
f 199/199 197/197 200/200
f 199/199 200/200 201/201
f 201/201 200/200 202/202
f 202/202 200/200 203/203
f 202/202 203/203 204/204
f 204/204 203/203 205/205
f 205/205 203/203 206/206
f 206/206 203/203 207/207
f 206/206 207/207 208/208
f 208/208 207/207 209/209
f 209/209 207/207 210/210
f 210/210 207/207 211/211
f 210/210 211/211 212/212
f 212/212 211/211 213/213
f 213/213 211/211 214/214
f 213/213 214/214 215/215
f 215/215 214/214 216/216
f 216/216 214/214 217/217
f 217/217 214/214 218/218
f 217/217 218/218 219/219
f 219/219 218/218 220/220
f 220/220 218/218 221/221
f 221/221 218/218 222/222
f 221/221 222/222 223/223
f 223/223 222/222 224/224
f 224/224 222/222 225/225
f 224/224 225/225 226/226
f 226/226 225/225 227/227
f 227/227 225/225 228/228
f 228/228 225/225 229/229
f 228/228 229/229 230/230
f 230/230 229/229 231/231
f 231/231 229/229 232/232
f 232/232 229/229 233/233
f 232/232 233/233 234/234
f 234/234 233/233 235/235
f 235/235 233/233 236/236
f 235/235 236/236 237/237
f 237/237 236/236 238/238
f 238/238 236/236 239/239
f 239/239 236/236 240/240
f 239/239 240/240 241/241
f 241/241 240/240 242/242
f 242/242 240/240 243/243
f 243/243 240/240 244/244
f 243/243 244/244 245/245
f 245/245 244/244 246/246
f 246/246 244/244 247/247
f 246/246 247/247 248/248
f 248/248 247/247 249/249
f 249/249 247/247 250/250
f 250/250 247/247 251/251
f 250/250 251/251 252/252
f 252/252 251/251 253/253
f 253/253 251/251 254/254
f 254/254 251/251 255/255
f 255/255 251/251 256/256
f 256/256 251/251 257/257
f 257/257 251/251 258/258
f 258/258 251/251 259/259
f 259/259 251/251 260/260
f 260/260 251/251 261/261
f 261/261 251/251 262/262
f 262/262 251/251 263/263
f 263/263 251/251 264/264
f 264/264 251/251 265/265
f 265/265 251/251 266/266
f 266/266 251/251 267/267
f 267/267 251/251 268/268
f 268/268 251/251 269/269
f 269/269 251/251 270/270
f 270/270 251/251 271/271
f 271/271 251/251 272/272
f 272/272 251/251 273/273
f 273/273 251/251 274/274
f 274/274 251/251 275/275
f 275/275 251/251 276/276
f 276/276 251/251 277/277
f 277/277 251/251 278/278
f 277/277 278/278 279/279
f 279/279 280/280 277/277
f 277/277 280/280 281/281
f 277/277 281/281 282/282
f 282/282 283/283 277/277
f 277/277 283/283 284/284
f 277/277 284/284 285/285
f 285/285 286/286 277/277
f 277/277 286/286 287/287
f 287/287 286/286 288/288
f 287/287 288/288 289/289
f 289/289 288/288 290/290
f 290/290 288/288 139/139
f 139/139 288/288 137/137
f 187/187 291/291 181/181
f 181/181 291/291 292/292
f 181/181 292/292 293/293
f 293/293 294/294 181/181
f 181/181 294/294 295/295
f 181/181 295/295 296/296
f 296/296 297/297 181/181
f 181/181 297/297 298/298
f 181/181 298/298 299/299
f 299/299 300/300 181/181
f 181/181 300/300 301/301
f 181/181 301/301 302/302
f 302/302 303/303 181/181
f 181/181 303/303 304/304
f 181/181 304/304 305/305
f 305/305 306/306 181/181
f 181/181 306/306 307/307
f 181/181 307/307 308/308
f 308/308 309/309 181/181
f 181/181 309/309 310/310
f 181/181 310/310 311/311
f 311/311 312/312 181/181
f 181/181 312/312 313/313
f 181/181 313/313 314/314
f 314/314 315/315 181/181
f 181/181 315/315 316/316
f 181/181 316/316 317/317
f 317/317 318/318 181/181
f 181/181 318/318 182/182
f 180/180 174/174 173/173
f 176/176 171/171 170/170
f 169/169 163/163 162/162
f 165/165 160/160 159/159
f 158/158 152/152 151/151
f 154/154 149/149 148/148
f 147/147 141/141 140/140
f 143/143 136/136 135/135
f 319/319 320/320 321/321
f 321/321 320/320 322/322
f 321/321 322/322 323/323
f 323/323 322/322 324/324
f 323/323 324/324 325/325
f 325/325 324/324 326/326
f 325/325 326/326 327/327
f 327/327 326/326 328/328
f 327/327 328/328 329/329
f 329/329 328/328 330/330
f 329/329 330/330 331/331
f 331/331 330/330 332/332
f 331/331 332/332 333/333
f 333/333 332/332 334/334
f 333/333 334/334 335/335
f 335/335 334/334 336/336
f 335/335 336/336 337/337
f 337/337 336/336 338/338
f 337/337 338/338 339/339
f 339/339 338/338 340/340
f 339/339 340/340 341/341
f 341/341 340/340 342/342
f 341/341 342/342 343/343
f 343/343 342/342 344/344
f 343/343 344/344 345/345
f 345/345 344/344 346/346
f 345/345 346/346 347/347
f 347/347 346/346 348/348
f 347/347 348/348 349/349
f 349/349 348/348 350/350
f 349/349 350/350 351/351
f 351/351 350/350 352/352
f 351/351 352/352 353/353
f 353/353 352/352 354/354
f 353/353 354/354 355/355
f 355/355 354/354 356/356
f 355/355 356/356 357/357
f 357/357 356/356 358/358
f 357/357 358/358 359/359
f 359/359 358/358 360/360
f 359/359 360/360 361/361
f 361/361 360/360 362/362
f 361/361 362/362 363/363
f 363/363 362/362 364/364
f 363/363 364/364 365/365
f 365/365 364/364 366/366
f 365/365 366/366 367/367
f 367/367 366/366 368/368
f 367/367 368/368 369/369
f 369/369 368/368 370/370
f 369/369 370/370 371/371
f 371/371 370/370 372/372
f 371/371 372/372 373/373
f 373/373 372/372 374/374
f 373/373 374/374 375/375
f 375/375 374/374 376/376
f 375/375 376/376 377/377
f 377/377 376/376 378/378
f 377/377 378/378 379/379
f 379/379 378/378 380/380
f 379/379 380/380 381/381
f 381/381 380/380 382/382
f 381/381 382/382 383/383
f 383/383 382/382 384/384
f 383/383 384/384 385/385
f 385/385 384/384 386/386
f 385/385 386/386 387/387
f 387/387 386/386 388/388
f 320/320 319/319 389/389
f 389/389 319/319 390/390
f 389/389 390/390 391/391
f 391/391 390/390 392/392
f 391/391 392/392 393/393
f 393/393 392/392 394/394
f 393/393 394/394 395/395
f 395/395 394/394 396/396
f 395/395 396/396 397/397
f 397/397 396/396 398/398
f 397/397 398/398 399/399
f 399/399 398/398 400/400
f 399/399 400/400 401/401
f 401/401 400/400 402/402
f 401/401 402/402 403/403
f 403/403 402/402 404/404
f 403/403 404/404 405/405
f 405/405 404/404 406/406
f 405/405 406/406 407/407
f 407/407 406/406 408/408
f 407/407 408/408 409/409
f 409/409 408/408 410/410
f 409/409 410/410 411/411
f 411/411 410/410 412/412
f 411/411 412/412 413/413
f 413/413 412/412 414/414
f 413/413 414/414 415/415
f 415/415 414/414 416/416
f 415/415 416/416 417/417
f 417/417 416/416 418/418
f 417/417 418/418 419/419
f 419/419 418/418 420/420
f 419/419 420/420 421/421
f 421/421 420/420 422/422
f 421/421 422/422 423/423
f 423/423 422/422 424/424
f 423/423 424/424 425/425
f 425/425 424/424 426/426
f 425/425 426/426 427/427
f 427/427 426/426 428/428
f 427/427 428/428 429/429
f 429/429 428/428 430/430
f 429/429 430/430 431/431
f 431/431 430/430 432/432
f 431/431 432/432 433/433
f 433/433 432/432 434/434
f 433/433 434/434 435/435
f 435/435 434/434 436/436
f 435/435 436/436 437/437
f 437/437 436/436 438/438
f 437/437 438/438 439/439
f 439/439 438/438 440/440
f 439/439 440/440 441/441
f 441/441 440/440 442/442
f 441/441 442/442 443/443
f 443/443 442/442 444/444
f 443/443 444/444 445/445
f 445/445 444/444 446/446
f 445/445 446/446 447/447
f 447/447 446/446 448/448
f 447/447 448/448 449/449
f 449/449 448/448 450/450
f 449/449 450/450 451/451
f 451/451 450/450 452/452
f 453/453 454/454 455/455
f 455/455 454/454 456/456
f 455/455 456/456 457/457
f 458/458 459/459 453/453
f 453/453 459/459 460/460
f 453/453 460/460 461/461
f 462/462 463/463 458/458
f 458/458 463/463 464/464
f 458/458 464/464 465/465
f 466/466 467/467 462/462
f 462/462 467/467 468/468
f 462/462 468/468 463/463
f 469/469 470/470 466/466
f 466/466 470/470 471/471
f 466/466 471/471 472/472
f 473/473 474/474 469/469
f 469/469 474/474 475/475
f 469/469 475/475 476/476
f 477/477 478/478 473/473
f 473/473 478/478 479/479
f 473/473 479/479 474/474
f 480/480 481/481 477/477
f 477/477 481/481 482/482
f 477/477 482/482 483/483
f 484/484 485/485 480/480
f 480/480 485/485 486/486
f 480/480 486/486 487/487
f 488/488 489/489 484/484
f 484/484 489/489 490/490
f 484/484 490/490 485/485
f 491/491 492/492 488/488
f 488/488 492/492 493/493
f 488/488 493/493 494/494
f 495/495 496/496 491/491
f 491/491 496/496 497/497
f 491/491 497/497 498/498
f 499/499 500/500 495/495
f 495/495 500/500 501/501
f 495/495 501/501 496/496
f 502/502 503/503 499/499
f 499/499 503/503 504/504
f 499/499 504/504 505/505
f 506/506 507/507 502/502
f 502/502 507/507 508/508
f 502/502 508/508 509/509
f 510/510 511/511 506/506
f 506/506 511/511 512/512
f 506/506 512/512 513/513
f 510/510 514/514 511/511
f 511/511 514/514 515/515
f 511/511 515/515 516/516
f 516/516 517/517 511/511
f 511/511 517/517 518/518
f 511/511 518/518 519/519
f 519/519 520/520 511/511
f 511/511 520/520 521/521
f 521/521 520/520 522/522
f 521/521 522/522 523/523
f 523/523 522/522 524/524
f 524/524 522/522 525/525
f 525/525 522/522 526/526
f 525/525 526/526 527/527
f 527/527 526/526 528/528
f 528/528 526/526 529/529
f 528/528 529/529 530/530
f 530/530 529/529 531/531
f 531/531 529/529 532/532
f 532/532 529/529 533/533
f 532/532 533/533 534/534
f 534/534 533/533 535/535
f 535/535 533/533 536/536
f 536/536 533/533 537/537
f 536/536 537/537 538/538
f 538/538 537/537 539/539
f 539/539 537/537 540/540
f 539/539 540/540 541/541
f 541/541 540/540 542/542
f 542/542 540/540 543/543
f 543/543 540/540 544/544
f 543/543 544/544 545/545
f 545/545 544/544 546/546
f 546/546 544/544 547/547
f 547/547 544/544 548/548
f 547/547 548/548 549/549
f 549/549 548/548 550/550
f 550/550 548/548 551/551
f 550/550 551/551 552/552
f 552/552 551/551 553/553
f 553/553 551/551 554/554
f 554/554 551/551 555/555
f 554/554 555/555 556/556
f 556/556 555/555 557/557
f 557/557 555/555 558/558
f 558/558 555/555 559/559
f 558/558 559/559 560/560
f 560/560 559/559 561/561
f 561/561 559/559 562/562
f 561/561 562/562 563/563
f 563/563 562/562 564/564
f 564/564 562/562 565/565
f 565/565 562/562 566/566
f 565/565 566/566 567/567
f 567/567 566/566 568/568
f 568/568 566/566 569/569
f 569/569 566/566 570/570
f 569/569 570/570 571/571
f 571/571 570/570 572/572
f 572/572 570/570 573/573
f 572/572 573/573 574/574
f 574/574 573/573 575/575
f 575/575 573/573 576/576
f 576/576 573/573 577/577
f 577/577 573/573 578/578
f 578/578 573/573 579/579
f 579/579 573/573 580/580
f 580/580 573/573 581/581
f 581/581 573/573 582/582
f 582/582 573/573 583/583
f 583/583 573/573 584/584
f 584/584 573/573 585/585
f 585/585 573/573 586/586
f 586/586 573/573 587/587
f 587/587 573/573 588/588
f 588/588 573/573 589/589
f 589/589 573/573 590/590
f 590/590 573/573 591/591
f 591/591 573/573 592/592
f 592/592 573/573 593/593
f 593/593 573/573 594/594
f 594/594 573/573 595/595
f 595/595 573/573 596/596
f 596/596 573/573 597/597
f 597/597 573/573 598/598
f 598/598 573/573 599/599
f 599/599 573/573 600/600
f 600/600 573/573 601/601
f 601/601 573/573 602/602
f 602/602 573/573 603/603
f 603/603 573/573 604/604
f 604/604 573/573 605/605
f 604/604 605/605 606/606
f 606/606 607/607 604/604
f 604/604 607/607 608/608
f 604/604 608/608 609/609
f 609/609 610/610 604/604
f 604/604 610/610 611/611
f 604/604 611/611 612/612
f 612/612 613/613 604/604
f 604/604 613/613 614/614
f 604/604 614/614 615/615
f 455/455 457/457 615/615
f 615/615 457/457 616/616
f 615/615 616/616 604/604
f 513/513 507/507 506/506
f 509/509 617/617 502/502
f 502/502 617/617 618/618
f 502/502 618/618 619/619
f 619/619 620/620 502/502
f 502/502 620/620 621/621
f 502/502 621/621 622/622
f 622/622 623/623 502/502
f 502/502 623/623 624/624
f 502/502 624/624 625/625
f 625/625 626/626 502/502
f 502/502 626/626 627/627
f 502/502 627/627 628/628
f 628/628 629/629 502/502
f 502/502 629/629 630/630
f 502/502 630/630 631/631
f 631/631 632/632 502/502
f 502/502 632/632 633/633
f 502/502 633/633 634/634
f 634/634 635/635 502/502
f 502/502 635/635 636/636
f 502/502 636/636 503/503
f 505/505 500/500 499/499
f 498/498 492/492 491/491
f 494/494 489/489 488/488
f 487/487 481/481 480/480
f 483/483 478/478 477/477
f 476/476 470/470 469/469
f 472/472 467/467 466/466
f 465/465 459/459 458/458
f 461/461 454/454 453/453
f 637/637 638/638 639/639
f 639/639 638/638 640/640
f 639/639 640/640 641/641
f 641/641 640/640 642/642
f 641/641 642/642 643/643
f 643/643 642/642 644/644
f 643/643 644/644 645/645
f 645/645 644/644 646/646
f 645/645 646/646 647/647
f 647/647 646/646 648/648
f 647/647 648/648 649/649
f 649/649 648/648 650/650
f 649/649 650/650 651/651
f 651/651 650/650 652/652
f 651/651 652/652 653/653
f 653/653 652/652 654/654
f 653/653 654/654 655/655
f 655/655 654/654 656/656
f 655/655 656/656 657/657
f 657/657 656/656 658/658
f 657/657 658/658 659/659
f 659/659 658/658 660/660
f 659/659 660/660 661/661
f 661/661 660/660 662/662
f 661/661 662/662 663/663
f 663/663 662/662 664/664
f 663/663 664/664 665/665
f 665/665 664/664 666/666
f 665/665 666/666 667/667
f 667/667 666/666 668/668
f 667/667 668/668 669/669
f 669/669 668/668 670/670
f 669/669 670/670 671/671
f 671/671 670/670 672/672
f 671/671 672/672 673/673
f 673/673 672/672 674/674
f 673/673 674/674 675/675
f 675/675 674/674 676/676
f 675/675 676/676 677/677
f 677/677 676/676 678/678
f 677/677 678/678 679/679
f 679/679 678/678 680/680
f 679/679 680/680 681/681
f 681/681 680/680 682/682
f 681/681 682/682 683/683
f 683/683 682/682 684/684
f 683/683 684/684 685/685
f 685/685 684/684 686/686
f 685/685 686/686 687/687
f 687/687 686/686 688/688
f 687/687 688/688 689/689
f 689/689 688/688 690/690
f 691/691 692/692 693/693
f 693/693 692/692 694/694
f 693/693 694/694 695/695
f 695/695 694/694 696/696
f 695/695 696/696 697/697
f 697/697 696/696 698/698
f 697/697 698/698 699/699
f 699/699 698/698 700/700
f 699/699 700/700 701/701
f 701/701 700/700 702/702
f 701/701 702/702 703/703
f 703/703 702/702 704/704
f 703/703 704/704 705/705
f 705/705 704/704 706/706
f 705/705 706/706 707/707
f 707/707 706/706 708/708
f 707/707 708/708 709/709
f 709/709 708/708 710/710
f 709/709 710/710 711/711
f 711/711 710/710 712/712
f 711/711 712/712 713/713
f 713/713 712/712 714/714
f 713/713 714/714 715/715
f 715/715 714/714 716/716
f 715/715 716/716 717/717
f 717/717 716/716 718/718
f 717/717 718/718 719/719
f 719/719 718/718 720/720
f 719/719 720/720 721/721
f 721/721 720/720 722/722
f 721/721 722/722 723/723
f 723/723 722/722 724/724
f 723/723 724/724 725/725
f 725/725 724/724 726/726
f 725/725 726/726 727/727
f 727/727 726/726 728/728
f 727/727 728/728 729/729
f 729/729 728/728 730/730
f 729/729 730/730 731/731
f 731/731 730/730 732/732
f 731/731 732/732 733/733
f 733/733 732/732 734/734
f 733/733 734/734 735/735
f 735/735 734/734 736/736
f 735/735 736/736 737/737
f 737/737 736/736 738/738
f 737/737 738/738 637/637
f 637/637 738/738 638/638

