mtllib material.mtl
usemtl material_nanoscan_3_6
v 0.03000032 -0.42404458 -0.22131522
v 0.03000019 -0.42373037 -0.21131763
v 0.01000953 -0.42506826 -0.22131522
v 0.01000940 -0.42475366 -0.21130353
v -0.01000757 -0.42476789 -0.21130353
v -0.02999981 -0.42377309 -0.21131762
v -0.02999968 -0.42408738 -0.22131522
v -0.01000757 -0.42476789 -0.21130353
v -0.01000745 -0.42508256 -0.22131522
v -0.01000745 -0.42508256 -0.22131522
vt -0.10119000 12.16862965
vt -0.00116497 12.16864014
vt -0.10151500 12.36882019
vt -0.00134796 12.36882973
vt -0.00135499 12.56902027
vt -0.00118595 -12.17430019
vt -0.10121100 -12.17430019
vt -0.00135499 -12.37448978
vt -0.10152200 -12.37448978
vt -0.10152200 12.56902027
f 1/1 2/2 3/3
f 3/3 2/2 4/4
f 3/3 4/4 5/5
f 6/6 7/7 8/8
f 8/8 7/7 9/9
f 5/5 10/10 3/3

