mtllib material.mtl
usemtl material_short_frame_3
v 1.50182492 3.40249992 2.76871484
v 1.37249295 3.40249992 2.94632806
v 1.62839291 3.40249992 2.94632806
v -1.50182492 -3.40249992 2.76871484
v -1.37249295 -3.40249992 2.94632806
v -1.62839291 -3.40249992 2.94632806
v -3.70099998 -0.01083812 1.17678495
v -3.70099998 -0.11869980 1.02669798
v -3.70099998 -0.22751480 1.17678495
v 3.70099998 0.01083812 1.17678495
v 3.70099998 0.11869980 1.02669798
v 3.70099998 0.22751480 1.17678495
vt 0.88806200 -0.01381897
vt -0.88806200 1.27950203
vt -0.88806200 -1.27950203
vt 0.88806200 -0.01381897
vt -0.88806200 1.27950203
vt -0.88806200 -1.27950203
vt -0.75043601 -1.08338296
vt 0.75043601 -0.00476599
vt -0.75043601 1.08338296
vt -0.75043601 -1.08338296
vt 0.75043601 -0.00476599
vt -0.75043601 1.08338296
f 1/1 2/2 3/3
f 4/4 5/5 6/6
f 7/7 8/8 9/9
f 10/10 11/11 12/12

